M48
; DRILL file {KiCad (6.0.1)} date Sun Jul  3 20:59:57 2022
; FORMAT={-:-/ absolute / inch / decimal}
; #@! TF.CreationDate,2022-07-03T20:59:57-07:00
; #@! TF.GenerationSoftware,Kicad,Pcbnew,(6.0.1)
; #@! TF.FileFunction,Plated,1,4,PTH
FMAT,2
INCH
; #@! TA.AperFunction,Plated,PTH,ViaDrill
T1C0.0157
; #@! TA.AperFunction,Plated,PTH,ComponentDrill
T2C0.0236
; #@! TA.AperFunction,Plated,PTH,ComponentDrill
T3C0.0315
; #@! TA.AperFunction,Plated,PTH,ComponentDrill
T4C0.0354
; #@! TA.AperFunction,Plated,PTH,ComponentDrill
T5C0.0394
; #@! TA.AperFunction,Plated,PTH,ComponentDrill
T6C0.0413
%
G90
G05
T1
X4.8425Y-2.5689
X5.0591Y-2.4016
X5.0591Y-2.9528
X5.0787Y-2.5787
X5.1969Y-3.248
X5.2363Y-2.4409
X5.2461Y-3.6417
X5.315Y-2.2441
X5.374Y-2.3031
X5.5118Y-2.0472
X5.7283Y-2.126
X6.0335Y-2.4606
X6.1024Y-2.9528
T2
X4.6978Y-2.2785
X4.6978Y-2.3278
X4.6978Y-2.377
X4.6978Y-2.4262
X4.6978Y-2.4754
X4.6978Y-2.5246
T3
X6.25Y-3.0906
X6.3878Y-3.0906
T4
X4.5472Y-2.7061
X4.5472Y-2.8061
X4.7915Y-2.1081
X4.7933Y-3.4055
X4.8622Y-2.0374
X4.864Y-3.4762
X5.315Y-2.6559
X5.315Y-2.7559
X5.315Y-2.8559
X5.4118Y-2.5591
X5.4118Y-2.9528
X5.4626Y-1.7913
X5.4626Y-3.7205
X5.5118Y-2.5591
X5.5118Y-2.9528
X5.5626Y-1.7913
X5.5626Y-3.7205
X5.6118Y-2.5591
X5.6118Y-2.9528
X5.7087Y-2.6559
X5.7087Y-2.7559
X5.7087Y-2.8559
X6.1555Y-2.0413
X6.1614Y-3.4744
X6.2262Y-2.112
X6.2321Y-3.4037
X6.4764Y-2.7051
X6.4764Y-2.8051
T5
X4.7835Y-2.7461
X5.1378Y-2.7756
X5.2953Y-3.1102
X5.3937Y-2.0079
X5.748Y-3.0315
X5.7874Y-1.811
X5.8071Y-2.3819
X5.876Y-3.3661
T6
X6.2205Y-2.4016
X6.3189Y-2.4016
T0
M30
