%TF.GenerationSoftware,KiCad,Pcbnew,(6.0.1)*%
%TF.CreationDate,2022-07-03T20:59:54-07:00*%
%TF.ProjectId,EmitterDriverV2,456d6974-7465-4724-9472-697665725632,rev?*%
%TF.SameCoordinates,Original*%
%TF.FileFunction,Soldermask,Bot*%
%TF.FilePolarity,Negative*%
%FSLAX46Y46*%
G04 Gerber Fmt 4.6, Leading zero omitted, Abs format (unit mm)*
G04 Created by KiCad (PCBNEW (6.0.1)) date 2022-07-03 20:59:54*
%MOMM*%
%LPD*%
G01*
G04 APERTURE LIST*
G04 Aperture macros list*
%AMRoundRect*
0 Rectangle with rounded corners*
0 $1 Rounding radius*
0 $2 $3 $4 $5 $6 $7 $8 $9 X,Y pos of 4 corners*
0 Add a 4 corners polygon primitive as box body*
4,1,4,$2,$3,$4,$5,$6,$7,$8,$9,$2,$3,0*
0 Add four circle primitives for the rounded corners*
1,1,$1+$1,$2,$3*
1,1,$1+$1,$4,$5*
1,1,$1+$1,$6,$7*
1,1,$1+$1,$8,$9*
0 Add four rect primitives between the rounded corners*
20,1,$1+$1,$2,$3,$4,$5,0*
20,1,$1+$1,$4,$5,$6,$7,0*
20,1,$1+$1,$6,$7,$8,$9,0*
20,1,$1+$1,$8,$9,$2,$3,0*%
%AMRotRect*
0 Rectangle, with rotation*
0 The origin of the aperture is its center*
0 $1 length*
0 $2 width*
0 $3 Rotation angle, in degrees counterclockwise*
0 Add horizontal line*
21,1,$1,$2,0,0,$3*%
G04 Aperture macros list end*
%ADD10R,1.600000X1.600000*%
%ADD11C,1.600000*%
%ADD12C,1.800000*%
%ADD13RotRect,1.800000X1.800000X45.000000*%
%ADD14C,2.000000*%
%ADD15C,3.200000*%
%ADD16RoundRect,0.248400X-0.651600X0.651600X-0.651600X-0.651600X0.651600X-0.651600X0.651600X0.651600X0*%
%ADD17RoundRect,0.248400X-0.651600X-0.651600X0.651600X-0.651600X0.651600X0.651600X-0.651600X0.651600X0*%
%ADD18RoundRect,0.248400X0.651600X-0.651600X0.651600X0.651600X-0.651600X0.651600X-0.651600X-0.651600X0*%
%ADD19RoundRect,0.248400X0.651600X0.651600X-0.651600X0.651600X-0.651600X-0.651600X0.651600X-0.651600X0*%
%ADD20R,1.800000X1.800000*%
%ADD21RotRect,1.800000X1.800000X135.000000*%
%ADD22RotRect,1.800000X1.800000X315.000000*%
%ADD23RotRect,1.800000X1.800000X225.000000*%
%ADD24O,1.250000X0.950000*%
%ADD25R,1.250000X0.950000*%
%ADD26C,1.750000*%
%ADD27R,1.750000X1.750000*%
G04 APERTURE END LIST*
D10*
%TO.C,C2*%
X158750000Y-78500000D03*
D11*
X162250000Y-78500000D03*
%TD*%
D12*
%TO.C,D5*%
X123500000Y-51750000D03*
D13*
X121703949Y-53546051D03*
%TD*%
D14*
%TO.C,TP8*%
X146000000Y-77000000D03*
%TD*%
%TO.C,TP7*%
X147000000Y-46000000D03*
%TD*%
%TO.C,TP6*%
X147500000Y-60500000D03*
%TD*%
%TO.C,TP5*%
X134500000Y-79000000D03*
%TD*%
%TO.C,TP4*%
X137000000Y-51000000D03*
%TD*%
%TO.C,TP3*%
X130500000Y-70500000D03*
%TD*%
%TO.C,TP2*%
X121500000Y-69750000D03*
%TD*%
%TO.C,TP1*%
X149250000Y-85500000D03*
%TD*%
D15*
%TO.C,H2*%
X149500000Y-92000000D03*
%TD*%
%TO.C,H1*%
X130500000Y-48000000D03*
%TD*%
D16*
%TO.C,U4*%
X145000000Y-67460000D03*
D12*
X145000000Y-70000000D03*
X145000000Y-72540000D03*
%TD*%
D17*
%TO.C,U3*%
X137460000Y-65000000D03*
D12*
X140000000Y-65000000D03*
X142540000Y-65000000D03*
%TD*%
%TO.C,U2*%
X135000000Y-67460000D03*
X135000000Y-70000000D03*
D18*
X135000000Y-72540000D03*
%TD*%
D19*
%TO.C,U1*%
X142540000Y-75000000D03*
D12*
X140000000Y-75000000D03*
X137460000Y-75000000D03*
%TD*%
D20*
%TO.C,D10*%
X164500000Y-68710000D03*
D12*
X164500000Y-71250000D03*
%TD*%
%TO.C,D9*%
X138750000Y-94500000D03*
D20*
X141290000Y-94500000D03*
%TD*%
%TO.C,D8*%
X115500000Y-71275000D03*
D12*
X115500000Y-68735000D03*
%TD*%
D20*
%TO.C,D7*%
X138750000Y-45500000D03*
D12*
X141290000Y-45500000D03*
%TD*%
D21*
%TO.C,D6*%
X123546051Y-88296051D03*
D12*
X121750000Y-86500000D03*
%TD*%
D22*
%TO.C,D4*%
X156348439Y-51848439D03*
D12*
X158144490Y-53644490D03*
%TD*%
D23*
%TO.C,D3*%
X158296051Y-86453949D03*
D12*
X156500000Y-88250000D03*
%TD*%
D24*
%TO.C,J1*%
X119325000Y-57875000D03*
X119325000Y-59125000D03*
X119325000Y-60375000D03*
X119325000Y-61625000D03*
X119325000Y-62875000D03*
D25*
X119325000Y-64125000D03*
%TD*%
D26*
%TO.C,J2*%
X160500000Y-61000000D03*
D27*
X158000000Y-61000000D03*
%TD*%
M02*
