%TF.GenerationSoftware,KiCad,Pcbnew,(6.0.1)*%
%TF.CreationDate,2022-07-03T20:59:54-07:00*%
%TF.ProjectId,EmitterDriverV2,456d6974-7465-4724-9472-697665725632,rev?*%
%TF.SameCoordinates,Original*%
%TF.FileFunction,Copper,L2,Inr*%
%TF.FilePolarity,Positive*%
%FSLAX46Y46*%
G04 Gerber Fmt 4.6, Leading zero omitted, Abs format (unit mm)*
G04 Created by KiCad (PCBNEW (6.0.1)) date 2022-07-03 20:59:54*
%MOMM*%
%LPD*%
G01*
G04 APERTURE LIST*
G04 Aperture macros list*
%AMRoundRect*
0 Rectangle with rounded corners*
0 $1 Rounding radius*
0 $2 $3 $4 $5 $6 $7 $8 $9 X,Y pos of 4 corners*
0 Add a 4 corners polygon primitive as box body*
4,1,4,$2,$3,$4,$5,$6,$7,$8,$9,$2,$3,0*
0 Add four circle primitives for the rounded corners*
1,1,$1+$1,$2,$3*
1,1,$1+$1,$4,$5*
1,1,$1+$1,$6,$7*
1,1,$1+$1,$8,$9*
0 Add four rect primitives between the rounded corners*
20,1,$1+$1,$2,$3,$4,$5,0*
20,1,$1+$1,$4,$5,$6,$7,0*
20,1,$1+$1,$6,$7,$8,$9,0*
20,1,$1+$1,$8,$9,$2,$3,0*%
%AMRotRect*
0 Rectangle, with rotation*
0 The origin of the aperture is its center*
0 $1 length*
0 $2 width*
0 $3 Rotation angle, in degrees counterclockwise*
0 Add horizontal line*
21,1,$1,$2,0,0,$3*%
G04 Aperture macros list end*
%TA.AperFunction,ComponentPad*%
%ADD10R,1.600000X1.600000*%
%TD*%
%TA.AperFunction,ComponentPad*%
%ADD11C,1.600000*%
%TD*%
%TA.AperFunction,ComponentPad*%
%ADD12C,1.800000*%
%TD*%
%TA.AperFunction,ComponentPad*%
%ADD13RotRect,1.800000X1.800000X45.000000*%
%TD*%
%TA.AperFunction,ComponentPad*%
%ADD14C,2.000000*%
%TD*%
%TA.AperFunction,ComponentPad*%
%ADD15RoundRect,0.248400X-0.651600X0.651600X-0.651600X-0.651600X0.651600X-0.651600X0.651600X0.651600X0*%
%TD*%
%TA.AperFunction,ComponentPad*%
%ADD16RoundRect,0.248400X-0.651600X-0.651600X0.651600X-0.651600X0.651600X0.651600X-0.651600X0.651600X0*%
%TD*%
%TA.AperFunction,ComponentPad*%
%ADD17RoundRect,0.248400X0.651600X-0.651600X0.651600X0.651600X-0.651600X0.651600X-0.651600X-0.651600X0*%
%TD*%
%TA.AperFunction,ComponentPad*%
%ADD18RoundRect,0.248400X0.651600X0.651600X-0.651600X0.651600X-0.651600X-0.651600X0.651600X-0.651600X0*%
%TD*%
%TA.AperFunction,ComponentPad*%
%ADD19R,1.800000X1.800000*%
%TD*%
%TA.AperFunction,ComponentPad*%
%ADD20RotRect,1.800000X1.800000X135.000000*%
%TD*%
%TA.AperFunction,ComponentPad*%
%ADD21RotRect,1.800000X1.800000X315.000000*%
%TD*%
%TA.AperFunction,ComponentPad*%
%ADD22RotRect,1.800000X1.800000X225.000000*%
%TD*%
%TA.AperFunction,ComponentPad*%
%ADD23O,1.250000X0.950000*%
%TD*%
%TA.AperFunction,ComponentPad*%
%ADD24R,1.250000X0.950000*%
%TD*%
%TA.AperFunction,ComponentPad*%
%ADD25C,1.750000*%
%TD*%
%TA.AperFunction,ComponentPad*%
%ADD26R,1.750000X1.750000*%
%TD*%
%TA.AperFunction,ViaPad*%
%ADD27C,0.800000*%
%TD*%
G04 APERTURE END LIST*
D10*
%TO.N,+BATT*%
%TO.C,C2*%
X158750000Y-78500000D03*
D11*
%TO.N,GND*%
X162250000Y-78500000D03*
%TD*%
D12*
%TO.N,Net-(D4-Pad1)*%
%TO.C,D5*%
X123500000Y-51750000D03*
D13*
%TO.N,Net-(D5-Pad1)*%
X121703949Y-53546051D03*
%TD*%
D14*
%TO.N,/RX*%
%TO.C,TP8*%
X146000000Y-77000000D03*
%TD*%
%TO.N,GND*%
%TO.C,TP7*%
X147000000Y-46000000D03*
%TD*%
%TO.N,Net-(Q5-Pad3)*%
%TO.C,TP6*%
X147500000Y-60500000D03*
%TD*%
%TO.N,Net-(Q4-Pad3)*%
%TO.C,TP5*%
X134500000Y-79000000D03*
%TD*%
%TO.N,Net-(D2-Pad1)*%
%TO.C,TP4*%
X137000000Y-51000000D03*
%TD*%
%TO.N,Net-(D1-Pad1)*%
%TO.C,TP3*%
X130500000Y-70500000D03*
%TD*%
%TO.N,GND*%
%TO.C,TP2*%
X121500000Y-69750000D03*
%TD*%
%TO.N,+BATT*%
%TO.C,TP1*%
X149250000Y-85500000D03*
%TD*%
D15*
%TO.N,/RX*%
%TO.C,U4*%
X145000000Y-67460000D03*
D12*
%TO.N,GND*%
X145000000Y-70000000D03*
%TO.N,Net-(C1-Pad1)*%
X145000000Y-72540000D03*
%TD*%
D16*
%TO.N,/RX*%
%TO.C,U3*%
X137460000Y-65000000D03*
D12*
%TO.N,GND*%
X140000000Y-65000000D03*
%TO.N,Net-(C1-Pad1)*%
X142540000Y-65000000D03*
%TD*%
%TO.N,Net-(C1-Pad1)*%
%TO.C,U2*%
X135000000Y-67460000D03*
%TO.N,GND*%
X135000000Y-70000000D03*
D17*
%TO.N,/RX*%
X135000000Y-72540000D03*
%TD*%
D18*
%TO.N,/RX*%
%TO.C,U1*%
X142540000Y-75000000D03*
D12*
%TO.N,GND*%
X140000000Y-75000000D03*
%TO.N,Net-(C1-Pad1)*%
X137460000Y-75000000D03*
%TD*%
D19*
%TO.N,Net-(D10-Pad1)*%
%TO.C,D10*%
X164500000Y-68710000D03*
D12*
%TO.N,Net-(D10-Pad2)*%
X164500000Y-71250000D03*
%TD*%
%TO.N,Net-(D8-Pad1)*%
%TO.C,D9*%
X138750000Y-94500000D03*
D19*
%TO.N,Net-(D10-Pad2)*%
X141290000Y-94500000D03*
%TD*%
%TO.N,Net-(D8-Pad1)*%
%TO.C,D8*%
X115500000Y-71275000D03*
D12*
%TO.N,Net-(D7-Pad1)*%
X115500000Y-68735000D03*
%TD*%
D19*
%TO.N,Net-(D7-Pad1)*%
%TO.C,D7*%
X138750000Y-45500000D03*
D12*
%TO.N,+BATT*%
X141290000Y-45500000D03*
%TD*%
D20*
%TO.N,Net-(D6-Pad1)*%
%TO.C,D6*%
X123546051Y-88296051D03*
D12*
%TO.N,Net-(D5-Pad1)*%
X121750000Y-86500000D03*
%TD*%
D21*
%TO.N,Net-(D4-Pad1)*%
%TO.C,D4*%
X156348439Y-51848439D03*
D12*
%TO.N,Net-(D3-Pad1)*%
X158144490Y-53644490D03*
%TD*%
D22*
%TO.N,Net-(D3-Pad1)*%
%TO.C,D3*%
X158296051Y-86453949D03*
D12*
%TO.N,+BATT*%
X156500000Y-88250000D03*
%TD*%
D23*
%TO.N,/RX*%
%TO.C,J1*%
X119325000Y-57875000D03*
%TO.N,GND*%
X119325000Y-59125000D03*
%TO.N,/Mod2*%
X119325000Y-60375000D03*
%TO.N,/Mod1*%
X119325000Y-61625000D03*
%TO.N,/PWM*%
X119325000Y-62875000D03*
D24*
%TO.N,VCC*%
X119325000Y-64125000D03*
%TD*%
D25*
%TO.N,+BATT*%
%TO.C,J2*%
X160500000Y-61000000D03*
D26*
%TO.N,GND*%
X158000000Y-61000000D03*
%TD*%
D27*
%TO.N,GND*%
X155000000Y-75000000D03*
X123000000Y-65250000D03*
%TO.N,Net-(D6-Pad1)*%
X133250000Y-92500000D03*
%TO.N,+BATT*%
X153250000Y-62500000D03*
%TO.N,Net-(C1-Pad1)*%
X128500000Y-75000000D03*
%TO.N,GND*%
X132000000Y-82500000D03*
%TO.N,+BATT*%
X145500000Y-54000000D03*
%TO.N,GND*%
X133003011Y-62000000D03*
X136500000Y-58500000D03*
X135000000Y-57000000D03*
X140000000Y-52000000D03*
X128500000Y-61000000D03*
X129000000Y-65500000D03*
%TD*%
%TA.AperFunction,Conductor*%
%TO.N,GND*%
G36*
X140388733Y-43015309D02*
G01*
X140845528Y-43021289D01*
X140850144Y-43021434D01*
X141550788Y-43056314D01*
X141833567Y-43070391D01*
X141838162Y-43070705D01*
X142819155Y-43155668D01*
X142823714Y-43156147D01*
X143800913Y-43276997D01*
X143805450Y-43277642D01*
X144214669Y-43343555D01*
X144777602Y-43434227D01*
X144782146Y-43435045D01*
X145747857Y-43627137D01*
X145752369Y-43628121D01*
X146710378Y-43855467D01*
X146714851Y-43856615D01*
X147663938Y-44118929D01*
X147668341Y-44120233D01*
X148607161Y-44417143D01*
X148611511Y-44418607D01*
X149538836Y-44749725D01*
X149543120Y-44751343D01*
X150185437Y-45007602D01*
X150457665Y-45116210D01*
X150461922Y-45117999D01*
X150649625Y-45200981D01*
X151362526Y-45516152D01*
X151366660Y-45518071D01*
X151880846Y-45768301D01*
X152252032Y-45948940D01*
X152256146Y-45951036D01*
X152478079Y-46069288D01*
X153125131Y-46414056D01*
X153129142Y-46416288D01*
X153976546Y-46908500D01*
X153980597Y-46910853D01*
X153984534Y-46913238D01*
X154384840Y-47165812D01*
X154817279Y-47438661D01*
X154821139Y-47441197D01*
X155634052Y-47996769D01*
X155637816Y-47999444D01*
X156429822Y-48584429D01*
X156433486Y-48587240D01*
X157203535Y-49200862D01*
X157207084Y-49203797D01*
X157537179Y-49487223D01*
X157954145Y-49845237D01*
X157957593Y-49848309D01*
X158046736Y-49930712D01*
X158620265Y-50460876D01*
X158680644Y-50516690D01*
X158683966Y-50519876D01*
X159382036Y-51214301D01*
X159385218Y-51217585D01*
X159715974Y-51571657D01*
X160057405Y-51937157D01*
X160060494Y-51940589D01*
X160686337Y-52661808D01*
X160705789Y-52684225D01*
X160708744Y-52687757D01*
X161326437Y-53454641D01*
X161329237Y-53458251D01*
X161918391Y-54247224D01*
X161921051Y-54250925D01*
X162213425Y-54673955D01*
X162480909Y-55060973D01*
X162483464Y-55064820D01*
X163013216Y-55894765D01*
X163015623Y-55898692D01*
X163156596Y-56138495D01*
X163514631Y-56747532D01*
X163516893Y-56751546D01*
X163843507Y-57356867D01*
X163984462Y-57618103D01*
X163986575Y-57622197D01*
X164386441Y-58433043D01*
X164422071Y-58505294D01*
X164424031Y-58509459D01*
X164546961Y-58783631D01*
X164826876Y-59407928D01*
X164828688Y-59412176D01*
X164989345Y-59808817D01*
X165196554Y-60320390D01*
X165198335Y-60324788D01*
X165199982Y-60329079D01*
X165535713Y-61254000D01*
X165535947Y-61254646D01*
X165537435Y-61258992D01*
X165717210Y-61817251D01*
X165839266Y-62196275D01*
X165840600Y-62200695D01*
X166107872Y-63148372D01*
X166109028Y-63152776D01*
X166216264Y-63594350D01*
X166341396Y-64109619D01*
X166342404Y-64114126D01*
X166539556Y-65078848D01*
X166540397Y-65083388D01*
X166702058Y-66054640D01*
X166702733Y-66059209D01*
X166828701Y-67035781D01*
X166829207Y-67040371D01*
X166915573Y-67980280D01*
X166919299Y-68020833D01*
X166919637Y-68025419D01*
X166933897Y-68284544D01*
X166973745Y-69008613D01*
X166973914Y-69013228D01*
X166991970Y-69998361D01*
X166991987Y-70001657D01*
X166990496Y-70191468D01*
X166988683Y-70422321D01*
X166988614Y-70425619D01*
X166955086Y-71410353D01*
X166954844Y-71414964D01*
X166885304Y-72397117D01*
X166884894Y-72401716D01*
X166854571Y-72683131D01*
X166779632Y-73378622D01*
X166779407Y-73380706D01*
X166778831Y-73385263D01*
X166706760Y-73882327D01*
X166637541Y-74359718D01*
X166636795Y-74364275D01*
X166459894Y-75332900D01*
X166458981Y-75337427D01*
X166252652Y-76271977D01*
X166246707Y-76298903D01*
X166245633Y-76303375D01*
X166012649Y-77201029D01*
X165998264Y-77256451D01*
X165997028Y-77260878D01*
X165754538Y-78071709D01*
X165714900Y-78204250D01*
X165713497Y-78208646D01*
X165442175Y-79007937D01*
X165396999Y-79141020D01*
X165395439Y-79145354D01*
X165044983Y-80065515D01*
X165043261Y-80069800D01*
X164659314Y-80976521D01*
X164657435Y-80980739D01*
X164240539Y-81872743D01*
X164238526Y-81876855D01*
X163789200Y-82753029D01*
X163787018Y-82757098D01*
X163305899Y-83616199D01*
X163303569Y-83620186D01*
X162791293Y-84461077D01*
X162788818Y-84464976D01*
X162297194Y-85209150D01*
X162246097Y-85286495D01*
X162243483Y-85290300D01*
X161707885Y-86039797D01*
X161670980Y-86091440D01*
X161668237Y-86095133D01*
X161067061Y-86874368D01*
X161066793Y-86874716D01*
X161063908Y-86878317D01*
X160967251Y-86994535D01*
X160434296Y-87635343D01*
X160431279Y-87638839D01*
X159774335Y-88372302D01*
X159771191Y-88375685D01*
X159087806Y-89084587D01*
X159084587Y-89087806D01*
X158489282Y-89661683D01*
X158375685Y-89771191D01*
X158372302Y-89774335D01*
X157638839Y-90431279D01*
X157635343Y-90434296D01*
X157228801Y-90772414D01*
X156930080Y-91020858D01*
X156878320Y-91063906D01*
X156874719Y-91066791D01*
X156095133Y-91668237D01*
X156091454Y-91670970D01*
X155400883Y-92164459D01*
X155290301Y-92243482D01*
X155286495Y-92246097D01*
X154464976Y-92788818D01*
X154461077Y-92791293D01*
X153620186Y-93303569D01*
X153616199Y-93305899D01*
X152757098Y-93787018D01*
X152753032Y-93789199D01*
X151876855Y-94238526D01*
X151872743Y-94240539D01*
X150980739Y-94657435D01*
X150976521Y-94659314D01*
X150523160Y-94851288D01*
X150192985Y-94991099D01*
X150069800Y-95043261D01*
X150065522Y-95044980D01*
X149145354Y-95395439D01*
X149141032Y-95396995D01*
X148208649Y-95713496D01*
X148204253Y-95714899D01*
X147260878Y-95997028D01*
X147256473Y-95998258D01*
X146303375Y-96245633D01*
X146298922Y-96246702D01*
X145799757Y-96356908D01*
X145337427Y-96458981D01*
X145332900Y-96459894D01*
X144364275Y-96636795D01*
X144359718Y-96637541D01*
X143961242Y-96695318D01*
X143385263Y-96778831D01*
X143380725Y-96779405D01*
X142773935Y-96844787D01*
X142401716Y-96884894D01*
X142397117Y-96885304D01*
X141414964Y-96954844D01*
X141410353Y-96955086D01*
X140646661Y-96981088D01*
X140426291Y-96988591D01*
X140421677Y-96988664D01*
X140131644Y-96987905D01*
X139437024Y-96986086D01*
X139432407Y-96985989D01*
X138448534Y-96947332D01*
X138443924Y-96947066D01*
X137462118Y-96872383D01*
X137457521Y-96871948D01*
X136638948Y-96779407D01*
X136479151Y-96761342D01*
X136474579Y-96760741D01*
X135500847Y-96614346D01*
X135496327Y-96613582D01*
X134951339Y-96511098D01*
X134528621Y-96431606D01*
X134524099Y-96430669D01*
X133934404Y-96297235D01*
X133563759Y-96213366D01*
X133559291Y-96212269D01*
X133135806Y-96099984D01*
X132607534Y-95959915D01*
X132603092Y-95958650D01*
X132270254Y-95857209D01*
X131661201Y-95671584D01*
X131656832Y-95670164D01*
X131611252Y-95654425D01*
X130726102Y-95348779D01*
X130721809Y-95347208D01*
X129940603Y-95044983D01*
X129803475Y-94991932D01*
X129799199Y-94990187D01*
X129496162Y-94859992D01*
X128894474Y-94601486D01*
X128890344Y-94599621D01*
X128607183Y-94465469D01*
X137337095Y-94465469D01*
X137337392Y-94470622D01*
X137337392Y-94470625D01*
X137344886Y-94600597D01*
X137350427Y-94696697D01*
X137351564Y-94701743D01*
X137351565Y-94701749D01*
X137383741Y-94844523D01*
X137401346Y-94922642D01*
X137403288Y-94927424D01*
X137403289Y-94927428D01*
X137469948Y-95091588D01*
X137488484Y-95137237D01*
X137609501Y-95334719D01*
X137761147Y-95509784D01*
X137939349Y-95657730D01*
X138139322Y-95774584D01*
X138355694Y-95857209D01*
X138360760Y-95858240D01*
X138360761Y-95858240D01*
X138413846Y-95869040D01*
X138582656Y-95903385D01*
X138712089Y-95908131D01*
X138808949Y-95911683D01*
X138808953Y-95911683D01*
X138814113Y-95911872D01*
X138819233Y-95911216D01*
X138819235Y-95911216D01*
X138893166Y-95901745D01*
X139043847Y-95882442D01*
X139048795Y-95880957D01*
X139048802Y-95880956D01*
X139260747Y-95817369D01*
X139265690Y-95815886D01*
X139346236Y-95776427D01*
X139469049Y-95716262D01*
X139469052Y-95716260D01*
X139473684Y-95713991D01*
X139662243Y-95579494D01*
X139707309Y-95534585D01*
X139769681Y-95500669D01*
X139840487Y-95505857D01*
X139897249Y-95548503D01*
X139914231Y-95579607D01*
X139918564Y-95591164D01*
X139939385Y-95646705D01*
X140026739Y-95763261D01*
X140143295Y-95850615D01*
X140279684Y-95901745D01*
X140341866Y-95908500D01*
X142238134Y-95908500D01*
X142300316Y-95901745D01*
X142436705Y-95850615D01*
X142553261Y-95763261D01*
X142640615Y-95646705D01*
X142691745Y-95510316D01*
X142698500Y-95448134D01*
X142698500Y-93551866D01*
X142691745Y-93489684D01*
X142640615Y-93353295D01*
X142553261Y-93236739D01*
X142436705Y-93149385D01*
X142300316Y-93098255D01*
X142238134Y-93091500D01*
X140341866Y-93091500D01*
X140279684Y-93098255D01*
X140143295Y-93149385D01*
X140026739Y-93236739D01*
X139939385Y-93353295D01*
X139936233Y-93361703D01*
X139936232Y-93361705D01*
X139915538Y-93416906D01*
X139872897Y-93473671D01*
X139806335Y-93498371D01*
X139736986Y-93483164D01*
X139714167Y-93466666D01*
X139713887Y-93466358D01*
X139668518Y-93430528D01*
X139536177Y-93326011D01*
X139536172Y-93326008D01*
X139532123Y-93322810D01*
X139527607Y-93320317D01*
X139527604Y-93320315D01*
X139333879Y-93213373D01*
X139333875Y-93213371D01*
X139329355Y-93210876D01*
X139324486Y-93209152D01*
X139324482Y-93209150D01*
X139115903Y-93135288D01*
X139115899Y-93135287D01*
X139111028Y-93133562D01*
X139105935Y-93132655D01*
X139105932Y-93132654D01*
X138888095Y-93093851D01*
X138888089Y-93093850D01*
X138883006Y-93092945D01*
X138810096Y-93092054D01*
X138656581Y-93090179D01*
X138656579Y-93090179D01*
X138651411Y-93090116D01*
X138422464Y-93125150D01*
X138202314Y-93197106D01*
X138197726Y-93199494D01*
X138197722Y-93199496D01*
X138029173Y-93287237D01*
X137996872Y-93304052D01*
X137992739Y-93307155D01*
X137992736Y-93307157D01*
X137815790Y-93440012D01*
X137811655Y-93443117D01*
X137651639Y-93610564D01*
X137521119Y-93801899D01*
X137423602Y-94011981D01*
X137361707Y-94235169D01*
X137337095Y-94465469D01*
X128607183Y-94465469D01*
X128000503Y-94178045D01*
X127996371Y-94175994D01*
X127122587Y-93722100D01*
X127118529Y-93719897D01*
X126712456Y-93489684D01*
X126261946Y-93234278D01*
X126257997Y-93231943D01*
X125419785Y-92715262D01*
X125415908Y-92712773D01*
X125395272Y-92698984D01*
X125174631Y-92551556D01*
X125097472Y-92500000D01*
X132336496Y-92500000D01*
X132356458Y-92689928D01*
X132415473Y-92871556D01*
X132510960Y-93036944D01*
X132515378Y-93041851D01*
X132515379Y-93041852D01*
X132597955Y-93133562D01*
X132638747Y-93178866D01*
X132793248Y-93291118D01*
X132799276Y-93293802D01*
X132799278Y-93293803D01*
X132961681Y-93366109D01*
X132967712Y-93368794D01*
X133061113Y-93388647D01*
X133148056Y-93407128D01*
X133148061Y-93407128D01*
X133154513Y-93408500D01*
X133345487Y-93408500D01*
X133351939Y-93407128D01*
X133351944Y-93407128D01*
X133438888Y-93388647D01*
X133532288Y-93368794D01*
X133538319Y-93366109D01*
X133700722Y-93293803D01*
X133700724Y-93293802D01*
X133706752Y-93291118D01*
X133861253Y-93178866D01*
X133902045Y-93133562D01*
X133984621Y-93041852D01*
X133984622Y-93041851D01*
X133989040Y-93036944D01*
X134084527Y-92871556D01*
X134143542Y-92689928D01*
X134163504Y-92500000D01*
X134162814Y-92493435D01*
X134144232Y-92316635D01*
X134144232Y-92316633D01*
X134143542Y-92310072D01*
X134085911Y-92132703D01*
X147390743Y-92132703D01*
X147391302Y-92136947D01*
X147391302Y-92136951D01*
X147394924Y-92164459D01*
X147428268Y-92417734D01*
X147504129Y-92695036D01*
X147505813Y-92698984D01*
X147579422Y-92871556D01*
X147616923Y-92959476D01*
X147659865Y-93031226D01*
X147759142Y-93197106D01*
X147764561Y-93206161D01*
X147944313Y-93430528D01*
X148014929Y-93497540D01*
X148134032Y-93610564D01*
X148152851Y-93628423D01*
X148386317Y-93796186D01*
X148390112Y-93798195D01*
X148390113Y-93798196D01*
X148411869Y-93809715D01*
X148640392Y-93930712D01*
X148910373Y-94029511D01*
X149191264Y-94090755D01*
X149219841Y-94093004D01*
X149414282Y-94108307D01*
X149414291Y-94108307D01*
X149416739Y-94108500D01*
X149572271Y-94108500D01*
X149574407Y-94108354D01*
X149574418Y-94108354D01*
X149782548Y-94094165D01*
X149782554Y-94094164D01*
X149786825Y-94093873D01*
X149791020Y-94093004D01*
X149791022Y-94093004D01*
X149927584Y-94064723D01*
X150068342Y-94035574D01*
X150339343Y-93939607D01*
X150594812Y-93807750D01*
X150598313Y-93805289D01*
X150598317Y-93805287D01*
X150719814Y-93719897D01*
X150830023Y-93642441D01*
X151019511Y-93466358D01*
X151037479Y-93449661D01*
X151037481Y-93449658D01*
X151040622Y-93446740D01*
X151222713Y-93224268D01*
X151372927Y-92979142D01*
X151488483Y-92715898D01*
X151494093Y-92696206D01*
X151566068Y-92443534D01*
X151567244Y-92439406D01*
X151607751Y-92154784D01*
X151607845Y-92136951D01*
X151609235Y-91871583D01*
X151609235Y-91871576D01*
X151609257Y-91867297D01*
X151571732Y-91582266D01*
X151495871Y-91304964D01*
X151485295Y-91280170D01*
X151384763Y-91044476D01*
X151384761Y-91044472D01*
X151383077Y-91040524D01*
X151235439Y-90793839D01*
X151055687Y-90569472D01*
X150847149Y-90371577D01*
X150613683Y-90203814D01*
X150591843Y-90192250D01*
X150568654Y-90179972D01*
X150359608Y-90069288D01*
X150224617Y-90019888D01*
X150093658Y-89971964D01*
X150093656Y-89971963D01*
X150089627Y-89970489D01*
X149808736Y-89909245D01*
X149777685Y-89906801D01*
X149585718Y-89891693D01*
X149585709Y-89891693D01*
X149583261Y-89891500D01*
X149427729Y-89891500D01*
X149425593Y-89891646D01*
X149425582Y-89891646D01*
X149217452Y-89905835D01*
X149217446Y-89905836D01*
X149213175Y-89906127D01*
X149208980Y-89906996D01*
X149208978Y-89906996D01*
X149072416Y-89935277D01*
X148931658Y-89964426D01*
X148660657Y-90060393D01*
X148405188Y-90192250D01*
X148401687Y-90194711D01*
X148401683Y-90194713D01*
X148391594Y-90201804D01*
X148169977Y-90357559D01*
X147959378Y-90553260D01*
X147777287Y-90775732D01*
X147627073Y-91020858D01*
X147511517Y-91284102D01*
X147432756Y-91560594D01*
X147392249Y-91845216D01*
X147392227Y-91849505D01*
X147392226Y-91849512D01*
X147390795Y-92122721D01*
X147390743Y-92132703D01*
X134085911Y-92132703D01*
X134084527Y-92128444D01*
X133989040Y-91963056D01*
X133906678Y-91871583D01*
X133865675Y-91826045D01*
X133865674Y-91826044D01*
X133861253Y-91821134D01*
X133706752Y-91708882D01*
X133700724Y-91706198D01*
X133700722Y-91706197D01*
X133538319Y-91633891D01*
X133538318Y-91633891D01*
X133532288Y-91631206D01*
X133438887Y-91611353D01*
X133351944Y-91592872D01*
X133351939Y-91592872D01*
X133345487Y-91591500D01*
X133154513Y-91591500D01*
X133148061Y-91592872D01*
X133148056Y-91592872D01*
X133061113Y-91611353D01*
X132967712Y-91631206D01*
X132961682Y-91633891D01*
X132961681Y-91633891D01*
X132799278Y-91706197D01*
X132799276Y-91706198D01*
X132793248Y-91708882D01*
X132638747Y-91821134D01*
X132634326Y-91826044D01*
X132634325Y-91826045D01*
X132593323Y-91871583D01*
X132510960Y-91963056D01*
X132415473Y-92128444D01*
X132356458Y-92310072D01*
X132355768Y-92316633D01*
X132355768Y-92316635D01*
X132337186Y-92493435D01*
X132336496Y-92500000D01*
X125097472Y-92500000D01*
X124597229Y-92165748D01*
X124593437Y-92163113D01*
X124043736Y-91765927D01*
X123795315Y-91586431D01*
X123791632Y-91583665D01*
X123767495Y-91564841D01*
X123015167Y-90978115D01*
X123011663Y-90975277D01*
X122257885Y-90341660D01*
X122254412Y-90338630D01*
X121760592Y-89891646D01*
X121524414Y-89677868D01*
X121521077Y-89674735D01*
X120815758Y-88987644D01*
X120812510Y-88984362D01*
X120519709Y-88677428D01*
X120132846Y-88271891D01*
X120129729Y-88268501D01*
X120103758Y-88239197D01*
X119568573Y-87635343D01*
X119476658Y-87531635D01*
X119473659Y-87528124D01*
X119148070Y-87132450D01*
X118848002Y-86767790D01*
X118845140Y-86764179D01*
X118617172Y-86465469D01*
X120337095Y-86465469D01*
X120337392Y-86470622D01*
X120337392Y-86470625D01*
X120344232Y-86589249D01*
X120350427Y-86696697D01*
X120351564Y-86701743D01*
X120351565Y-86701749D01*
X120366050Y-86766021D01*
X120401346Y-86922642D01*
X120403288Y-86927424D01*
X120403289Y-86927428D01*
X120453736Y-87051663D01*
X120488484Y-87137237D01*
X120609501Y-87334719D01*
X120761147Y-87509784D01*
X120939349Y-87657730D01*
X121139322Y-87774584D01*
X121355694Y-87857209D01*
X121360760Y-87858240D01*
X121360761Y-87858240D01*
X121413846Y-87869040D01*
X121582656Y-87903385D01*
X121700152Y-87907693D01*
X121767493Y-87930177D01*
X121811989Y-87985500D01*
X121819511Y-88056097D01*
X121810235Y-88085758D01*
X121783894Y-88143693D01*
X121783893Y-88143696D01*
X121780179Y-88151865D01*
X121778907Y-88160748D01*
X121778906Y-88160751D01*
X121760803Y-88287162D01*
X121759530Y-88296051D01*
X121760803Y-88304940D01*
X121770696Y-88374018D01*
X121780179Y-88440237D01*
X121840466Y-88572833D01*
X121845413Y-88578986D01*
X121845415Y-88578989D01*
X121866203Y-88604843D01*
X121879659Y-88621579D01*
X123220523Y-89962443D01*
X123230530Y-89970489D01*
X123263113Y-89996687D01*
X123263116Y-89996689D01*
X123269269Y-90001636D01*
X123401865Y-90061923D01*
X123410748Y-90063195D01*
X123410751Y-90063196D01*
X123537162Y-90081299D01*
X123546051Y-90082572D01*
X123554940Y-90081299D01*
X123681351Y-90063196D01*
X123681354Y-90063195D01*
X123690237Y-90061923D01*
X123822833Y-90001636D01*
X123828986Y-89996689D01*
X123828989Y-89996687D01*
X123861572Y-89970489D01*
X123871579Y-89962443D01*
X125212443Y-88621579D01*
X125225899Y-88604843D01*
X125246687Y-88578989D01*
X125246689Y-88578986D01*
X125251636Y-88572833D01*
X125311923Y-88440237D01*
X125321407Y-88374018D01*
X125331299Y-88304940D01*
X125332572Y-88296051D01*
X125331299Y-88287162D01*
X125321032Y-88215469D01*
X155087095Y-88215469D01*
X155087392Y-88220622D01*
X155087392Y-88220625D01*
X155096333Y-88375685D01*
X155100427Y-88446697D01*
X155101564Y-88451743D01*
X155101565Y-88451749D01*
X155127233Y-88565645D01*
X155151346Y-88672642D01*
X155153288Y-88677424D01*
X155153289Y-88677428D01*
X155236540Y-88882450D01*
X155238484Y-88887237D01*
X155359501Y-89084719D01*
X155511147Y-89259784D01*
X155689349Y-89407730D01*
X155889322Y-89524584D01*
X156105694Y-89607209D01*
X156110760Y-89608240D01*
X156110761Y-89608240D01*
X156163846Y-89619040D01*
X156332656Y-89653385D01*
X156463324Y-89658176D01*
X156558949Y-89661683D01*
X156558953Y-89661683D01*
X156564113Y-89661872D01*
X156569233Y-89661216D01*
X156569235Y-89661216D01*
X156642270Y-89651860D01*
X156793847Y-89632442D01*
X156798795Y-89630957D01*
X156798802Y-89630956D01*
X157010747Y-89567369D01*
X157015690Y-89565886D01*
X157096236Y-89526427D01*
X157219049Y-89466262D01*
X157219052Y-89466260D01*
X157223684Y-89463991D01*
X157412243Y-89329494D01*
X157576303Y-89166005D01*
X157711458Y-88977917D01*
X157719653Y-88961337D01*
X157811784Y-88774922D01*
X157811785Y-88774920D01*
X157814078Y-88770280D01*
X157881408Y-88548671D01*
X157911640Y-88319041D01*
X157912023Y-88303376D01*
X157933684Y-88235764D01*
X157988460Y-88190597D01*
X158058960Y-88182214D01*
X158090136Y-88191755D01*
X158143695Y-88216107D01*
X158143699Y-88216108D01*
X158151865Y-88219821D01*
X158160748Y-88221093D01*
X158160751Y-88221094D01*
X158287162Y-88239197D01*
X158296051Y-88240470D01*
X158304940Y-88239197D01*
X158431351Y-88221094D01*
X158431354Y-88221093D01*
X158440237Y-88219821D01*
X158461099Y-88210336D01*
X158565645Y-88162802D01*
X158572833Y-88159534D01*
X158578986Y-88154587D01*
X158578989Y-88154585D01*
X158618917Y-88122481D01*
X158621579Y-88120341D01*
X159962443Y-86779477D01*
X159975899Y-86762741D01*
X159996687Y-86736887D01*
X159996689Y-86736884D01*
X160001636Y-86730731D01*
X160048563Y-86627519D01*
X160058209Y-86606304D01*
X160058209Y-86606303D01*
X160061923Y-86598135D01*
X160063490Y-86587198D01*
X160081299Y-86462838D01*
X160082572Y-86453949D01*
X160061923Y-86309763D01*
X160001636Y-86177167D01*
X159996689Y-86171014D01*
X159996687Y-86171011D01*
X159964583Y-86131083D01*
X159962443Y-86128421D01*
X158621579Y-84787557D01*
X158604843Y-84774101D01*
X158578989Y-84753313D01*
X158578986Y-84753311D01*
X158572833Y-84748364D01*
X158440237Y-84688077D01*
X158431354Y-84686805D01*
X158431351Y-84686804D01*
X158304940Y-84668701D01*
X158296051Y-84667428D01*
X158287162Y-84668701D01*
X158160751Y-84686804D01*
X158160748Y-84686805D01*
X158151865Y-84688077D01*
X158019269Y-84748364D01*
X158013116Y-84753311D01*
X158013113Y-84753313D01*
X157987259Y-84774101D01*
X157970523Y-84787557D01*
X156629659Y-86128421D01*
X156627519Y-86131083D01*
X156595415Y-86171011D01*
X156595413Y-86171014D01*
X156590466Y-86177167D01*
X156530179Y-86309763D01*
X156509530Y-86453949D01*
X156510803Y-86462838D01*
X156528613Y-86587198D01*
X156530179Y-86598135D01*
X156533893Y-86606304D01*
X156533894Y-86606307D01*
X156559436Y-86662483D01*
X156569424Y-86732774D01*
X156539823Y-86797306D01*
X156480033Y-86835590D01*
X156443198Y-86840626D01*
X156406581Y-86840179D01*
X156406579Y-86840179D01*
X156401411Y-86840116D01*
X156172464Y-86875150D01*
X155952314Y-86947106D01*
X155947726Y-86949494D01*
X155947722Y-86949496D01*
X155825415Y-87013165D01*
X155746872Y-87054052D01*
X155742739Y-87057155D01*
X155742736Y-87057157D01*
X155565790Y-87190012D01*
X155561655Y-87193117D01*
X155401639Y-87360564D01*
X155271119Y-87551899D01*
X155173602Y-87761981D01*
X155111707Y-87985169D01*
X155087095Y-88215469D01*
X125321032Y-88215469D01*
X125313196Y-88160751D01*
X125313195Y-88160748D01*
X125311923Y-88151865D01*
X125308208Y-88143693D01*
X125254904Y-88026457D01*
X125251636Y-88019269D01*
X125246689Y-88013116D01*
X125246687Y-88013113D01*
X125214583Y-87973185D01*
X125212443Y-87970523D01*
X123871579Y-86629659D01*
X123842535Y-86606307D01*
X123828989Y-86595415D01*
X123828986Y-86595413D01*
X123822833Y-86590466D01*
X123754737Y-86559505D01*
X123698406Y-86533893D01*
X123698405Y-86533893D01*
X123690237Y-86530179D01*
X123681354Y-86528907D01*
X123681351Y-86528906D01*
X123554940Y-86510803D01*
X123546051Y-86509530D01*
X123537162Y-86510803D01*
X123410751Y-86528906D01*
X123410748Y-86528907D01*
X123401865Y-86530179D01*
X123393697Y-86533893D01*
X123393696Y-86533893D01*
X123337365Y-86559505D01*
X123267074Y-86569491D01*
X123202543Y-86539890D01*
X123164259Y-86480100D01*
X123159638Y-86455128D01*
X123144773Y-86274318D01*
X123144772Y-86274312D01*
X123144349Y-86269167D01*
X123108389Y-86126005D01*
X123089184Y-86049544D01*
X123089183Y-86049540D01*
X123087925Y-86044533D01*
X123085866Y-86039797D01*
X122997630Y-85836868D01*
X122997628Y-85836865D01*
X122995570Y-85832131D01*
X122869764Y-85637665D01*
X122744499Y-85500000D01*
X147736835Y-85500000D01*
X147755465Y-85736711D01*
X147756619Y-85741518D01*
X147756620Y-85741524D01*
X147786684Y-85866747D01*
X147810895Y-85967594D01*
X147812788Y-85972165D01*
X147812789Y-85972167D01*
X147895153Y-86171011D01*
X147901760Y-86186963D01*
X147904346Y-86191183D01*
X148023241Y-86385202D01*
X148023245Y-86385208D01*
X148025824Y-86389416D01*
X148180031Y-86569969D01*
X148360584Y-86724176D01*
X148364792Y-86726755D01*
X148364798Y-86726759D01*
X148542394Y-86835590D01*
X148563037Y-86848240D01*
X148567607Y-86850133D01*
X148567611Y-86850135D01*
X148754215Y-86927428D01*
X148782406Y-86939105D01*
X148815733Y-86947106D01*
X149008476Y-86993380D01*
X149008482Y-86993381D01*
X149013289Y-86994535D01*
X149250000Y-87013165D01*
X149486711Y-86994535D01*
X149491518Y-86993381D01*
X149491524Y-86993380D01*
X149684267Y-86947106D01*
X149717594Y-86939105D01*
X149745785Y-86927428D01*
X149932389Y-86850135D01*
X149932393Y-86850133D01*
X149936963Y-86848240D01*
X149957606Y-86835590D01*
X150135202Y-86726759D01*
X150135208Y-86726755D01*
X150139416Y-86724176D01*
X150319969Y-86569969D01*
X150474176Y-86389416D01*
X150476755Y-86385208D01*
X150476759Y-86385202D01*
X150595654Y-86191183D01*
X150598240Y-86186963D01*
X150604848Y-86171011D01*
X150687211Y-85972167D01*
X150687212Y-85972165D01*
X150689105Y-85967594D01*
X150713316Y-85866747D01*
X150743380Y-85741524D01*
X150743381Y-85741518D01*
X150744535Y-85736711D01*
X150763165Y-85500000D01*
X150744535Y-85263289D01*
X150732552Y-85213373D01*
X150690260Y-85037218D01*
X150689105Y-85032406D01*
X150598240Y-84813037D01*
X150558608Y-84748364D01*
X150476759Y-84614798D01*
X150476755Y-84614792D01*
X150474176Y-84610584D01*
X150319969Y-84430031D01*
X150139416Y-84275824D01*
X150135208Y-84273245D01*
X150135202Y-84273241D01*
X149941183Y-84154346D01*
X149936963Y-84151760D01*
X149932393Y-84149867D01*
X149932389Y-84149865D01*
X149722167Y-84062789D01*
X149722165Y-84062788D01*
X149717594Y-84060895D01*
X149637391Y-84041640D01*
X149491524Y-84006620D01*
X149491518Y-84006619D01*
X149486711Y-84005465D01*
X149250000Y-83986835D01*
X149013289Y-84005465D01*
X149008482Y-84006619D01*
X149008476Y-84006620D01*
X148862609Y-84041640D01*
X148782406Y-84060895D01*
X148777835Y-84062788D01*
X148777833Y-84062789D01*
X148567611Y-84149865D01*
X148567607Y-84149867D01*
X148563037Y-84151760D01*
X148558817Y-84154346D01*
X148364798Y-84273241D01*
X148364792Y-84273245D01*
X148360584Y-84275824D01*
X148180031Y-84430031D01*
X148025824Y-84610584D01*
X148023245Y-84614792D01*
X148023241Y-84614798D01*
X147941392Y-84748364D01*
X147901760Y-84813037D01*
X147810895Y-85032406D01*
X147809740Y-85037218D01*
X147767449Y-85213373D01*
X147755465Y-85263289D01*
X147736835Y-85500000D01*
X122744499Y-85500000D01*
X122713887Y-85466358D01*
X122709836Y-85463159D01*
X122709832Y-85463155D01*
X122536177Y-85326011D01*
X122536172Y-85326008D01*
X122532123Y-85322810D01*
X122527607Y-85320317D01*
X122527604Y-85320315D01*
X122333879Y-85213373D01*
X122333875Y-85213371D01*
X122329355Y-85210876D01*
X122324486Y-85209152D01*
X122324482Y-85209150D01*
X122115903Y-85135288D01*
X122115899Y-85135287D01*
X122111028Y-85133562D01*
X122105935Y-85132655D01*
X122105932Y-85132654D01*
X121888095Y-85093851D01*
X121888089Y-85093850D01*
X121883006Y-85092945D01*
X121810096Y-85092054D01*
X121656581Y-85090179D01*
X121656579Y-85090179D01*
X121651411Y-85090116D01*
X121422464Y-85125150D01*
X121202314Y-85197106D01*
X121197726Y-85199494D01*
X121197722Y-85199496D01*
X121001461Y-85301663D01*
X120996872Y-85304052D01*
X120992739Y-85307155D01*
X120992736Y-85307157D01*
X120967625Y-85326011D01*
X120811655Y-85443117D01*
X120651639Y-85610564D01*
X120648725Y-85614836D01*
X120648724Y-85614837D01*
X120633152Y-85637665D01*
X120521119Y-85801899D01*
X120423602Y-86011981D01*
X120361707Y-86235169D01*
X120337095Y-86465469D01*
X118617172Y-86465469D01*
X118247773Y-85981440D01*
X118245050Y-85977733D01*
X118241117Y-85972167D01*
X117867221Y-85443117D01*
X117676782Y-85173652D01*
X117674187Y-85169833D01*
X117135736Y-84345424D01*
X117133282Y-84341512D01*
X117093735Y-84275824D01*
X116625429Y-83497971D01*
X116623126Y-83493983D01*
X116481288Y-83237572D01*
X116146514Y-82632380D01*
X116144357Y-82628306D01*
X115699639Y-81749817D01*
X115697629Y-81745659D01*
X115285402Y-80851472D01*
X115283546Y-80847244D01*
X115112446Y-80437211D01*
X114904354Y-79938528D01*
X114902661Y-79934253D01*
X114855381Y-79808131D01*
X114557030Y-79012272D01*
X114555494Y-79007937D01*
X114552846Y-79000000D01*
X132986835Y-79000000D01*
X133005465Y-79236711D01*
X133060895Y-79467594D01*
X133062788Y-79472165D01*
X133062789Y-79472167D01*
X133132065Y-79639414D01*
X133151760Y-79686963D01*
X133154346Y-79691183D01*
X133273241Y-79885202D01*
X133273245Y-79885208D01*
X133275824Y-79889416D01*
X133430031Y-80069969D01*
X133610584Y-80224176D01*
X133614792Y-80226755D01*
X133614798Y-80226759D01*
X133754354Y-80312279D01*
X133813037Y-80348240D01*
X133817607Y-80350133D01*
X133817611Y-80350135D01*
X134027833Y-80437211D01*
X134032406Y-80439105D01*
X134112609Y-80458360D01*
X134258476Y-80493380D01*
X134258482Y-80493381D01*
X134263289Y-80494535D01*
X134500000Y-80513165D01*
X134736711Y-80494535D01*
X134741518Y-80493381D01*
X134741524Y-80493380D01*
X134887391Y-80458360D01*
X134967594Y-80439105D01*
X134972167Y-80437211D01*
X135182389Y-80350135D01*
X135182393Y-80350133D01*
X135186963Y-80348240D01*
X135245646Y-80312279D01*
X135385202Y-80226759D01*
X135385208Y-80226755D01*
X135389416Y-80224176D01*
X135569969Y-80069969D01*
X135724176Y-79889416D01*
X135726755Y-79885208D01*
X135726759Y-79885202D01*
X135845654Y-79691183D01*
X135848240Y-79686963D01*
X135867936Y-79639414D01*
X135937211Y-79472167D01*
X135937212Y-79472165D01*
X135939105Y-79467594D01*
X135967785Y-79348134D01*
X157441500Y-79348134D01*
X157448255Y-79410316D01*
X157499385Y-79546705D01*
X157586739Y-79663261D01*
X157703295Y-79750615D01*
X157839684Y-79801745D01*
X157901866Y-79808500D01*
X159598134Y-79808500D01*
X159660316Y-79801745D01*
X159796705Y-79750615D01*
X159913261Y-79663261D01*
X159971119Y-79586062D01*
X161528493Y-79586062D01*
X161537789Y-79598077D01*
X161588994Y-79633931D01*
X161598489Y-79639414D01*
X161795947Y-79731490D01*
X161806239Y-79735236D01*
X162016688Y-79791625D01*
X162027481Y-79793528D01*
X162244525Y-79812517D01*
X162255475Y-79812517D01*
X162472519Y-79793528D01*
X162483312Y-79791625D01*
X162693761Y-79735236D01*
X162704053Y-79731490D01*
X162901511Y-79639414D01*
X162911006Y-79633931D01*
X162963048Y-79597491D01*
X162971424Y-79587012D01*
X162964356Y-79573566D01*
X162262812Y-78872022D01*
X162248868Y-78864408D01*
X162247035Y-78864539D01*
X162240420Y-78868790D01*
X161534923Y-79574287D01*
X161528493Y-79586062D01*
X159971119Y-79586062D01*
X160000615Y-79546705D01*
X160051745Y-79410316D01*
X160058500Y-79348134D01*
X160058500Y-78505475D01*
X160937483Y-78505475D01*
X160956472Y-78722519D01*
X160958375Y-78733312D01*
X161014764Y-78943761D01*
X161018510Y-78954053D01*
X161110586Y-79151511D01*
X161116069Y-79161006D01*
X161152509Y-79213048D01*
X161162988Y-79221424D01*
X161176434Y-79214356D01*
X161877978Y-78512812D01*
X161884356Y-78501132D01*
X162614408Y-78501132D01*
X162614539Y-78502965D01*
X162618790Y-78509580D01*
X163324287Y-79215077D01*
X163336062Y-79221507D01*
X163348077Y-79212211D01*
X163383931Y-79161006D01*
X163389414Y-79151511D01*
X163481490Y-78954053D01*
X163485236Y-78943761D01*
X163541625Y-78733312D01*
X163543528Y-78722519D01*
X163562517Y-78505475D01*
X163562517Y-78494525D01*
X163543528Y-78277481D01*
X163541625Y-78266688D01*
X163485236Y-78056239D01*
X163481490Y-78045947D01*
X163389414Y-77848489D01*
X163383931Y-77838994D01*
X163347491Y-77786952D01*
X163337012Y-77778576D01*
X163323566Y-77785644D01*
X162622022Y-78487188D01*
X162614408Y-78501132D01*
X161884356Y-78501132D01*
X161885592Y-78498868D01*
X161885461Y-78497035D01*
X161881210Y-78490420D01*
X161175713Y-77784923D01*
X161163938Y-77778493D01*
X161151923Y-77787789D01*
X161116069Y-77838994D01*
X161110586Y-77848489D01*
X161018510Y-78045947D01*
X161014764Y-78056239D01*
X160958375Y-78266688D01*
X160956472Y-78277481D01*
X160937483Y-78494525D01*
X160937483Y-78505475D01*
X160058500Y-78505475D01*
X160058500Y-77651866D01*
X160051745Y-77589684D01*
X160000615Y-77453295D01*
X159970407Y-77412988D01*
X161528576Y-77412988D01*
X161535644Y-77426434D01*
X162237188Y-78127978D01*
X162251132Y-78135592D01*
X162252965Y-78135461D01*
X162259580Y-78131210D01*
X162965077Y-77425713D01*
X162971507Y-77413938D01*
X162962211Y-77401923D01*
X162911006Y-77366069D01*
X162901511Y-77360586D01*
X162704053Y-77268510D01*
X162693761Y-77264764D01*
X162483312Y-77208375D01*
X162472519Y-77206472D01*
X162255475Y-77187483D01*
X162244525Y-77187483D01*
X162027481Y-77206472D01*
X162016688Y-77208375D01*
X161806239Y-77264764D01*
X161795947Y-77268510D01*
X161598489Y-77360586D01*
X161588994Y-77366069D01*
X161536952Y-77402509D01*
X161528576Y-77412988D01*
X159970407Y-77412988D01*
X159913261Y-77336739D01*
X159796705Y-77249385D01*
X159660316Y-77198255D01*
X159598134Y-77191500D01*
X157901866Y-77191500D01*
X157839684Y-77198255D01*
X157703295Y-77249385D01*
X157586739Y-77336739D01*
X157499385Y-77453295D01*
X157448255Y-77589684D01*
X157441500Y-77651866D01*
X157441500Y-79348134D01*
X135967785Y-79348134D01*
X135994535Y-79236711D01*
X136013165Y-79000000D01*
X135994535Y-78763289D01*
X135987339Y-78733312D01*
X135940260Y-78537218D01*
X135939105Y-78532406D01*
X135930989Y-78512812D01*
X135850135Y-78317611D01*
X135850133Y-78317607D01*
X135848240Y-78313037D01*
X135819837Y-78266688D01*
X135726759Y-78114798D01*
X135726755Y-78114792D01*
X135724176Y-78110584D01*
X135569969Y-77930031D01*
X135389416Y-77775824D01*
X135385208Y-77773245D01*
X135385202Y-77773241D01*
X135191183Y-77654346D01*
X135186963Y-77651760D01*
X135182393Y-77649867D01*
X135182389Y-77649865D01*
X134972167Y-77562789D01*
X134972165Y-77562788D01*
X134967594Y-77560895D01*
X134852465Y-77533255D01*
X134741524Y-77506620D01*
X134741518Y-77506619D01*
X134736711Y-77505465D01*
X134500000Y-77486835D01*
X134263289Y-77505465D01*
X134258482Y-77506619D01*
X134258476Y-77506620D01*
X134147535Y-77533255D01*
X134032406Y-77560895D01*
X134027835Y-77562788D01*
X134027833Y-77562789D01*
X133817611Y-77649865D01*
X133817607Y-77649867D01*
X133813037Y-77651760D01*
X133808817Y-77654346D01*
X133614798Y-77773241D01*
X133614792Y-77773245D01*
X133610584Y-77775824D01*
X133430031Y-77930031D01*
X133275824Y-78110584D01*
X133273245Y-78114792D01*
X133273241Y-78114798D01*
X133180163Y-78266688D01*
X133151760Y-78313037D01*
X133149867Y-78317607D01*
X133149865Y-78317611D01*
X133069011Y-78512812D01*
X133060895Y-78532406D01*
X133059740Y-78537218D01*
X133012662Y-78733312D01*
X133005465Y-78763289D01*
X132986835Y-79000000D01*
X114552846Y-79000000D01*
X114551202Y-78995070D01*
X114288832Y-78208649D01*
X114243878Y-78073905D01*
X114242497Y-78069499D01*
X113965311Y-77124658D01*
X113964093Y-77120203D01*
X113933565Y-77000000D01*
X144486835Y-77000000D01*
X144505465Y-77236711D01*
X144506619Y-77241518D01*
X144506620Y-77241524D01*
X144531203Y-77343919D01*
X144560895Y-77467594D01*
X144562788Y-77472165D01*
X144562789Y-77472167D01*
X144638638Y-77655283D01*
X144651760Y-77686963D01*
X144654346Y-77691183D01*
X144773241Y-77885202D01*
X144773245Y-77885208D01*
X144775824Y-77889416D01*
X144930031Y-78069969D01*
X145110584Y-78224176D01*
X145114792Y-78226755D01*
X145114798Y-78226759D01*
X145255591Y-78313037D01*
X145313037Y-78348240D01*
X145317607Y-78350133D01*
X145317611Y-78350135D01*
X145382552Y-78377034D01*
X145532406Y-78439105D01*
X145612609Y-78458360D01*
X145758476Y-78493380D01*
X145758482Y-78493381D01*
X145763289Y-78494535D01*
X146000000Y-78513165D01*
X146236711Y-78494535D01*
X146241518Y-78493381D01*
X146241524Y-78493380D01*
X146387391Y-78458360D01*
X146467594Y-78439105D01*
X146617448Y-78377034D01*
X146682389Y-78350135D01*
X146682393Y-78350133D01*
X146686963Y-78348240D01*
X146744409Y-78313037D01*
X146885202Y-78226759D01*
X146885208Y-78226755D01*
X146889416Y-78224176D01*
X147069969Y-78069969D01*
X147224176Y-77889416D01*
X147226755Y-77885208D01*
X147226759Y-77885202D01*
X147345654Y-77691183D01*
X147348240Y-77686963D01*
X147361363Y-77655283D01*
X147437211Y-77472167D01*
X147437212Y-77472165D01*
X147439105Y-77467594D01*
X147468797Y-77343919D01*
X147493380Y-77241524D01*
X147493381Y-77241518D01*
X147494535Y-77236711D01*
X147513165Y-77000000D01*
X147494535Y-76763289D01*
X147439105Y-76532406D01*
X147389179Y-76411872D01*
X147350135Y-76317611D01*
X147350133Y-76317607D01*
X147348240Y-76313037D01*
X147322803Y-76271527D01*
X147226759Y-76114798D01*
X147226755Y-76114792D01*
X147224176Y-76110584D01*
X147069969Y-75930031D01*
X146889416Y-75775824D01*
X146885208Y-75773245D01*
X146885202Y-75773241D01*
X146691183Y-75654346D01*
X146686963Y-75651760D01*
X146682393Y-75649867D01*
X146682389Y-75649865D01*
X146472167Y-75562789D01*
X146472165Y-75562788D01*
X146467594Y-75560895D01*
X146387391Y-75541640D01*
X146241524Y-75506620D01*
X146241518Y-75506619D01*
X146236711Y-75505465D01*
X146000000Y-75486835D01*
X145763289Y-75505465D01*
X145758482Y-75506619D01*
X145758476Y-75506620D01*
X145612609Y-75541640D01*
X145532406Y-75560895D01*
X145527835Y-75562788D01*
X145527833Y-75562789D01*
X145317611Y-75649865D01*
X145317607Y-75649867D01*
X145313037Y-75651760D01*
X145308817Y-75654346D01*
X145114798Y-75773241D01*
X145114792Y-75773245D01*
X145110584Y-75775824D01*
X144930031Y-75930031D01*
X144775824Y-76110584D01*
X144773245Y-76114792D01*
X144773241Y-76114798D01*
X144677197Y-76271527D01*
X144651760Y-76313037D01*
X144649867Y-76317607D01*
X144649865Y-76317611D01*
X144610821Y-76411872D01*
X144560895Y-76532406D01*
X144505465Y-76763289D01*
X144486835Y-77000000D01*
X113933565Y-77000000D01*
X113721730Y-76165898D01*
X113720675Y-76161403D01*
X113645877Y-75813982D01*
X113513428Y-75198783D01*
X113512545Y-75194281D01*
X113512058Y-75191529D01*
X113478114Y-75000000D01*
X127586496Y-75000000D01*
X127606458Y-75189928D01*
X127665473Y-75371556D01*
X127668776Y-75377278D01*
X127668777Y-75377279D01*
X127692057Y-75417600D01*
X127760960Y-75536944D01*
X127765378Y-75541851D01*
X127765379Y-75541852D01*
X127784231Y-75562789D01*
X127888747Y-75678866D01*
X127920444Y-75701895D01*
X128018643Y-75773241D01*
X128043248Y-75791118D01*
X128049276Y-75793802D01*
X128049278Y-75793803D01*
X128149944Y-75838622D01*
X128217712Y-75868794D01*
X128311112Y-75888647D01*
X128398056Y-75907128D01*
X128398061Y-75907128D01*
X128404513Y-75908500D01*
X128595487Y-75908500D01*
X128601939Y-75907128D01*
X128601944Y-75907128D01*
X128688888Y-75888647D01*
X128782288Y-75868794D01*
X128850056Y-75838622D01*
X128950722Y-75793803D01*
X128950724Y-75793802D01*
X128956752Y-75791118D01*
X128981358Y-75773241D01*
X129079556Y-75701895D01*
X129111253Y-75678866D01*
X129215769Y-75562789D01*
X129234621Y-75541852D01*
X129234622Y-75541851D01*
X129239040Y-75536944D01*
X129307943Y-75417600D01*
X129331223Y-75377279D01*
X129331224Y-75377278D01*
X129334527Y-75371556D01*
X129393542Y-75189928D01*
X129413504Y-75000000D01*
X129409875Y-74965469D01*
X136047095Y-74965469D01*
X136047392Y-74970622D01*
X136047392Y-74970625D01*
X136053067Y-75069041D01*
X136060427Y-75196697D01*
X136061564Y-75201743D01*
X136061565Y-75201749D01*
X136083408Y-75298671D01*
X136111346Y-75422642D01*
X136113288Y-75427424D01*
X136113289Y-75427428D01*
X136168254Y-75562789D01*
X136198484Y-75637237D01*
X136319501Y-75834719D01*
X136471147Y-76009784D01*
X136649349Y-76157730D01*
X136849322Y-76274584D01*
X137065694Y-76357209D01*
X137070760Y-76358240D01*
X137070761Y-76358240D01*
X137123846Y-76369040D01*
X137292656Y-76403385D01*
X137422934Y-76408162D01*
X137518949Y-76411683D01*
X137518953Y-76411683D01*
X137524113Y-76411872D01*
X137529233Y-76411216D01*
X137529235Y-76411216D01*
X137628332Y-76398521D01*
X137753847Y-76382442D01*
X137758795Y-76380957D01*
X137758802Y-76380956D01*
X137970747Y-76317369D01*
X137975690Y-76315886D01*
X137990120Y-76308817D01*
X138179049Y-76216262D01*
X138179052Y-76216260D01*
X138183684Y-76213991D01*
X138257406Y-76161406D01*
X139203423Y-76161406D01*
X139208704Y-76168461D01*
X139385080Y-76271527D01*
X139394363Y-76275974D01*
X139601003Y-76354883D01*
X139610901Y-76357759D01*
X139827653Y-76401857D01*
X139837883Y-76403076D01*
X140058914Y-76411182D01*
X140069223Y-76410714D01*
X140288623Y-76382608D01*
X140298688Y-76380468D01*
X140510557Y-76316905D01*
X140520152Y-76313144D01*
X140718778Y-76215838D01*
X140727636Y-76210559D01*
X140785097Y-76169572D01*
X140793497Y-76158874D01*
X140786510Y-76145721D01*
X140012811Y-75372021D01*
X139998868Y-75364408D01*
X139997034Y-75364539D01*
X139990420Y-75368790D01*
X139210180Y-76149031D01*
X139203423Y-76161406D01*
X138257406Y-76161406D01*
X138372243Y-76079494D01*
X138536303Y-75916005D01*
X138627275Y-75789404D01*
X138683270Y-75745756D01*
X138753973Y-75739310D01*
X138816938Y-75772113D01*
X138822142Y-75778584D01*
X138840553Y-75795242D01*
X138849331Y-75791458D01*
X139627979Y-75012811D01*
X139634356Y-75001132D01*
X140364408Y-75001132D01*
X140364539Y-75002966D01*
X140368790Y-75009580D01*
X141110534Y-75751323D01*
X141141325Y-75807813D01*
X141142451Y-75807437D01*
X141144633Y-75813977D01*
X141144634Y-75813982D01*
X141183352Y-75930031D01*
X141198309Y-75974862D01*
X141229866Y-76025858D01*
X141263057Y-76079494D01*
X141291184Y-76124948D01*
X141416096Y-76249641D01*
X141422326Y-76253481D01*
X141422327Y-76253482D01*
X141559180Y-76337840D01*
X141566342Y-76342255D01*
X141733865Y-76397820D01*
X141740701Y-76398520D01*
X141740704Y-76398521D01*
X141785165Y-76403076D01*
X141838105Y-76408500D01*
X142534587Y-76408500D01*
X143241894Y-76408499D01*
X143245138Y-76408162D01*
X143245146Y-76408162D01*
X143301114Y-76402355D01*
X143347437Y-76397549D01*
X143466701Y-76357759D01*
X143507918Y-76344008D01*
X143507920Y-76344007D01*
X143514862Y-76341691D01*
X143664948Y-76248816D01*
X143789641Y-76123904D01*
X143857951Y-76013086D01*
X143878415Y-75979888D01*
X143878416Y-75979886D01*
X143882255Y-75973658D01*
X143937820Y-75806135D01*
X143939084Y-75793803D01*
X143948172Y-75705094D01*
X143948500Y-75701895D01*
X143948499Y-74298106D01*
X143937549Y-74192563D01*
X143881691Y-74025138D01*
X143835947Y-73951216D01*
X143792669Y-73881278D01*
X143792668Y-73881276D01*
X143788816Y-73875052D01*
X143663904Y-73750359D01*
X143604649Y-73713833D01*
X143519888Y-73661585D01*
X143519886Y-73661584D01*
X143513658Y-73657745D01*
X143346135Y-73602180D01*
X143339299Y-73601480D01*
X143339296Y-73601479D01*
X143286984Y-73596120D01*
X143241895Y-73591500D01*
X142545413Y-73591500D01*
X141838106Y-73591501D01*
X141834862Y-73591838D01*
X141834854Y-73591838D01*
X141781113Y-73597414D01*
X141732563Y-73602451D01*
X141665411Y-73624855D01*
X141572082Y-73655992D01*
X141572080Y-73655993D01*
X141565138Y-73658309D01*
X141514142Y-73689866D01*
X141476155Y-73713373D01*
X141415052Y-73751184D01*
X141409880Y-73756365D01*
X141364236Y-73802089D01*
X141290359Y-73876096D01*
X141286519Y-73882326D01*
X141286518Y-73882327D01*
X141232364Y-73970181D01*
X141197745Y-74026342D01*
X141142180Y-74193865D01*
X141140633Y-74193352D01*
X141110526Y-74248685D01*
X140372021Y-74987189D01*
X140364408Y-75001132D01*
X139634356Y-75001132D01*
X139635592Y-74998868D01*
X139635461Y-74997034D01*
X139631210Y-74990420D01*
X138853862Y-74213073D01*
X138842330Y-74206776D01*
X138814674Y-74228444D01*
X138813534Y-74226989D01*
X138779695Y-74254724D01*
X138709171Y-74262898D01*
X138645422Y-74231646D01*
X138624722Y-74207159D01*
X138582575Y-74142009D01*
X138582570Y-74142003D01*
X138579764Y-74137665D01*
X138572639Y-74129834D01*
X138478468Y-74026342D01*
X138423887Y-73966358D01*
X138419836Y-73963159D01*
X138419832Y-73963155D01*
X138264790Y-73840711D01*
X139205508Y-73840711D01*
X139212251Y-73853040D01*
X139987189Y-74627979D01*
X140001132Y-74635592D01*
X140002966Y-74635461D01*
X140009580Y-74631210D01*
X140788994Y-73851795D01*
X140796011Y-73838944D01*
X140788237Y-73828274D01*
X140785902Y-73826430D01*
X140777320Y-73820729D01*
X140583678Y-73713833D01*
X140574272Y-73709606D01*
X140365772Y-73635772D01*
X140355809Y-73633140D01*
X140138047Y-73594350D01*
X140127796Y-73593381D01*
X139906616Y-73590679D01*
X139896332Y-73591399D01*
X139677693Y-73624855D01*
X139667666Y-73627244D01*
X139457426Y-73695961D01*
X139447916Y-73699958D01*
X139251725Y-73802089D01*
X139243007Y-73807578D01*
X139213961Y-73829386D01*
X139205508Y-73840711D01*
X138264790Y-73840711D01*
X138246177Y-73826011D01*
X138246172Y-73826008D01*
X138242123Y-73822810D01*
X138237607Y-73820317D01*
X138237604Y-73820315D01*
X138043879Y-73713373D01*
X138043875Y-73713371D01*
X138039355Y-73710876D01*
X138034486Y-73709152D01*
X138034482Y-73709150D01*
X137825903Y-73635288D01*
X137825899Y-73635287D01*
X137821028Y-73633562D01*
X137815935Y-73632655D01*
X137815932Y-73632654D01*
X137598095Y-73593851D01*
X137598089Y-73593850D01*
X137593006Y-73592945D01*
X137520096Y-73592054D01*
X137366581Y-73590179D01*
X137366579Y-73590179D01*
X137361411Y-73590116D01*
X137132464Y-73625150D01*
X136912314Y-73697106D01*
X136907726Y-73699494D01*
X136907722Y-73699496D01*
X136727177Y-73793482D01*
X136706872Y-73804052D01*
X136702739Y-73807155D01*
X136702736Y-73807157D01*
X136527776Y-73938521D01*
X136521655Y-73943117D01*
X136361639Y-74110564D01*
X136358725Y-74114836D01*
X136358724Y-74114837D01*
X136291712Y-74213073D01*
X136231119Y-74301899D01*
X136133602Y-74511981D01*
X136071707Y-74735169D01*
X136047095Y-74965469D01*
X129409875Y-74965469D01*
X129393542Y-74810072D01*
X129334527Y-74628444D01*
X129239040Y-74463056D01*
X129111253Y-74321134D01*
X128981674Y-74226989D01*
X128962094Y-74212763D01*
X128962093Y-74212762D01*
X128956752Y-74208882D01*
X128950724Y-74206198D01*
X128950722Y-74206197D01*
X128788319Y-74133891D01*
X128788318Y-74133891D01*
X128782288Y-74131206D01*
X128685176Y-74110564D01*
X128601944Y-74092872D01*
X128601939Y-74092872D01*
X128595487Y-74091500D01*
X128404513Y-74091500D01*
X128398061Y-74092872D01*
X128398056Y-74092872D01*
X128314824Y-74110564D01*
X128217712Y-74131206D01*
X128211682Y-74133891D01*
X128211681Y-74133891D01*
X128049278Y-74206197D01*
X128049276Y-74206198D01*
X128043248Y-74208882D01*
X128037907Y-74212762D01*
X128037906Y-74212763D01*
X128018326Y-74226989D01*
X127888747Y-74321134D01*
X127760960Y-74463056D01*
X127665473Y-74628444D01*
X127606458Y-74810072D01*
X127586496Y-75000000D01*
X113478114Y-75000000D01*
X113340716Y-74224739D01*
X113339995Y-74220181D01*
X113338177Y-74207159D01*
X113203813Y-73245022D01*
X113203259Y-73240441D01*
X113203073Y-73238627D01*
X113102898Y-72260902D01*
X113102513Y-72256318D01*
X113096319Y-72161808D01*
X113053148Y-71503155D01*
X113038116Y-71273814D01*
X113037898Y-71269201D01*
X113022559Y-70736711D01*
X113009546Y-70284941D01*
X113009498Y-70280335D01*
X113010001Y-70216358D01*
X113014788Y-69606825D01*
X113017231Y-69295738D01*
X113017352Y-69291122D01*
X113035400Y-68885876D01*
X113043657Y-68700469D01*
X114087095Y-68700469D01*
X114087392Y-68705622D01*
X114087392Y-68705625D01*
X114100129Y-68926529D01*
X114100427Y-68931697D01*
X114101564Y-68936743D01*
X114101565Y-68936749D01*
X114133741Y-69079523D01*
X114151346Y-69157642D01*
X114153288Y-69162424D01*
X114153289Y-69162428D01*
X114236540Y-69367450D01*
X114238484Y-69372237D01*
X114359501Y-69569719D01*
X114416562Y-69635592D01*
X114471304Y-69698788D01*
X114500786Y-69763373D01*
X114490671Y-69833646D01*
X114444170Y-69887294D01*
X114420296Y-69899267D01*
X114364515Y-69920179D01*
X114353295Y-69924385D01*
X114236739Y-70011739D01*
X114149385Y-70128295D01*
X114098255Y-70264684D01*
X114091500Y-70326866D01*
X114091500Y-72223134D01*
X114098255Y-72285316D01*
X114149385Y-72421705D01*
X114236739Y-72538261D01*
X114353295Y-72625615D01*
X114489684Y-72676745D01*
X114551866Y-72683500D01*
X116448134Y-72683500D01*
X116510316Y-72676745D01*
X116646705Y-72625615D01*
X116763261Y-72538261D01*
X116850615Y-72421705D01*
X116901745Y-72285316D01*
X116908500Y-72223134D01*
X116908500Y-70982670D01*
X120632160Y-70982670D01*
X120637887Y-70990320D01*
X120809042Y-71095205D01*
X120817837Y-71099687D01*
X121027988Y-71186734D01*
X121037373Y-71189783D01*
X121258554Y-71242885D01*
X121268301Y-71244428D01*
X121495070Y-71262275D01*
X121504930Y-71262275D01*
X121731699Y-71244428D01*
X121741446Y-71242885D01*
X121962627Y-71189783D01*
X121972012Y-71186734D01*
X122182163Y-71099687D01*
X122190958Y-71095205D01*
X122358445Y-70992568D01*
X122367907Y-70982110D01*
X122364124Y-70973334D01*
X121512812Y-70122022D01*
X121498868Y-70114408D01*
X121497035Y-70114539D01*
X121490420Y-70118790D01*
X120638920Y-70970290D01*
X120632160Y-70982670D01*
X116908500Y-70982670D01*
X116908500Y-70326866D01*
X116901745Y-70264684D01*
X116850615Y-70128295D01*
X116763261Y-70011739D01*
X116646705Y-69924385D01*
X116638296Y-69921233D01*
X116638295Y-69921232D01*
X116579804Y-69899305D01*
X116523039Y-69856664D01*
X116498339Y-69790103D01*
X116506052Y-69754930D01*
X119987725Y-69754930D01*
X120005572Y-69981699D01*
X120007115Y-69991446D01*
X120060217Y-70212627D01*
X120063266Y-70222012D01*
X120150313Y-70432163D01*
X120154795Y-70440958D01*
X120257432Y-70608445D01*
X120267890Y-70617907D01*
X120276666Y-70614124D01*
X121127978Y-69762812D01*
X121134356Y-69751132D01*
X121864408Y-69751132D01*
X121864539Y-69752965D01*
X121868790Y-69759580D01*
X122720290Y-70611080D01*
X122732670Y-70617840D01*
X122740320Y-70612113D01*
X122809024Y-70500000D01*
X128986835Y-70500000D01*
X129005465Y-70736711D01*
X129006619Y-70741518D01*
X129006620Y-70741524D01*
X129019517Y-70795242D01*
X129060895Y-70967594D01*
X129062788Y-70972165D01*
X129062789Y-70972167D01*
X129142725Y-71165150D01*
X129151760Y-71186963D01*
X129154346Y-71191183D01*
X129273241Y-71385202D01*
X129273245Y-71385208D01*
X129275824Y-71389416D01*
X129430031Y-71569969D01*
X129610584Y-71724176D01*
X129614792Y-71726755D01*
X129614798Y-71726759D01*
X129791193Y-71834854D01*
X129813037Y-71848240D01*
X129817607Y-71850133D01*
X129817611Y-71850135D01*
X130027833Y-71937211D01*
X130032406Y-71939105D01*
X130112609Y-71958360D01*
X130258476Y-71993380D01*
X130258482Y-71993381D01*
X130263289Y-71994535D01*
X130500000Y-72013165D01*
X130736711Y-71994535D01*
X130741518Y-71993381D01*
X130741524Y-71993380D01*
X130887391Y-71958360D01*
X130967594Y-71939105D01*
X130972167Y-71937211D01*
X131182389Y-71850135D01*
X131182393Y-71850133D01*
X131186963Y-71848240D01*
X131203502Y-71838105D01*
X133591500Y-71838105D01*
X133591501Y-73241894D01*
X133591838Y-73245138D01*
X133591838Y-73245146D01*
X133597414Y-73298887D01*
X133602451Y-73347437D01*
X133613551Y-73380706D01*
X133638673Y-73456005D01*
X133658309Y-73514862D01*
X133689866Y-73565858D01*
X133747076Y-73658309D01*
X133751184Y-73664948D01*
X133876096Y-73789641D01*
X133882326Y-73793481D01*
X133882327Y-73793482D01*
X134019180Y-73877840D01*
X134026342Y-73882255D01*
X134193865Y-73937820D01*
X134200701Y-73938520D01*
X134200704Y-73938521D01*
X134245565Y-73943117D01*
X134298105Y-73948500D01*
X134994587Y-73948500D01*
X135701894Y-73948499D01*
X135705138Y-73948162D01*
X135705146Y-73948162D01*
X135761114Y-73942355D01*
X135807437Y-73937549D01*
X135925259Y-73898240D01*
X135967918Y-73884008D01*
X135967920Y-73884007D01*
X135974862Y-73881691D01*
X136103499Y-73802089D01*
X136118722Y-73792669D01*
X136118724Y-73792668D01*
X136124948Y-73788816D01*
X136249641Y-73663904D01*
X136268344Y-73633562D01*
X136338415Y-73519888D01*
X136338416Y-73519886D01*
X136342255Y-73513658D01*
X136397820Y-73346135D01*
X136408500Y-73241895D01*
X136408499Y-72505469D01*
X143587095Y-72505469D01*
X143587392Y-72510622D01*
X143587392Y-72510625D01*
X143597360Y-72683500D01*
X143600427Y-72736697D01*
X143601564Y-72741743D01*
X143601565Y-72741749D01*
X143633741Y-72884523D01*
X143651346Y-72962642D01*
X143653288Y-72967424D01*
X143653289Y-72967428D01*
X143736540Y-73172450D01*
X143738484Y-73177237D01*
X143859501Y-73374719D01*
X144011147Y-73549784D01*
X144189349Y-73697730D01*
X144389322Y-73814584D01*
X144394147Y-73816426D01*
X144394148Y-73816427D01*
X144419246Y-73826011D01*
X144605694Y-73897209D01*
X144610760Y-73898240D01*
X144610761Y-73898240D01*
X144663846Y-73909040D01*
X144832656Y-73943385D01*
X144962934Y-73948162D01*
X145058949Y-73951683D01*
X145058953Y-73951683D01*
X145064113Y-73951872D01*
X145069233Y-73951216D01*
X145069235Y-73951216D01*
X145142270Y-73941860D01*
X145293847Y-73922442D01*
X145298795Y-73920957D01*
X145298802Y-73920956D01*
X145510747Y-73857369D01*
X145515690Y-73855886D01*
X145520324Y-73853616D01*
X145719049Y-73756262D01*
X145719052Y-73756260D01*
X145723684Y-73753991D01*
X145912243Y-73619494D01*
X146076303Y-73456005D01*
X146211458Y-73267917D01*
X146222772Y-73245026D01*
X146311784Y-73064922D01*
X146311785Y-73064920D01*
X146314078Y-73060280D01*
X146381408Y-72838671D01*
X146411640Y-72609041D01*
X146412658Y-72567369D01*
X146413245Y-72543365D01*
X146413245Y-72543361D01*
X146413327Y-72540000D01*
X146402667Y-72410340D01*
X146394773Y-72314318D01*
X146394772Y-72314312D01*
X146394349Y-72309167D01*
X146337925Y-72084533D01*
X146335866Y-72079797D01*
X146247630Y-71876868D01*
X146247628Y-71876865D01*
X146245570Y-71872131D01*
X146119764Y-71677665D01*
X146115194Y-71672642D01*
X146018468Y-71566342D01*
X145963887Y-71506358D01*
X145959836Y-71503159D01*
X145959832Y-71503155D01*
X145786669Y-71366400D01*
X145745606Y-71308483D01*
X145742374Y-71237560D01*
X145755189Y-71215469D01*
X163087095Y-71215469D01*
X163087392Y-71220622D01*
X163087392Y-71220625D01*
X163098364Y-71410916D01*
X163100427Y-71446697D01*
X163101564Y-71451743D01*
X163101565Y-71451749D01*
X163128956Y-71573290D01*
X163151346Y-71672642D01*
X163153288Y-71677424D01*
X163153289Y-71677428D01*
X163236540Y-71882450D01*
X163238484Y-71887237D01*
X163359501Y-72084719D01*
X163511147Y-72259784D01*
X163689349Y-72407730D01*
X163889322Y-72524584D01*
X164105694Y-72607209D01*
X164110760Y-72608240D01*
X164110761Y-72608240D01*
X164131007Y-72612359D01*
X164332656Y-72653385D01*
X164463324Y-72658176D01*
X164558949Y-72661683D01*
X164558953Y-72661683D01*
X164564113Y-72661872D01*
X164569233Y-72661216D01*
X164569235Y-72661216D01*
X164642270Y-72651860D01*
X164793847Y-72632442D01*
X164798795Y-72630957D01*
X164798802Y-72630956D01*
X165010747Y-72567369D01*
X165015690Y-72565886D01*
X165061096Y-72543642D01*
X165219049Y-72466262D01*
X165219052Y-72466260D01*
X165223684Y-72463991D01*
X165412243Y-72329494D01*
X165576303Y-72166005D01*
X165711458Y-71977917D01*
X165758641Y-71882450D01*
X165811784Y-71774922D01*
X165811785Y-71774920D01*
X165814078Y-71770280D01*
X165881408Y-71548671D01*
X165911640Y-71319041D01*
X165912194Y-71296365D01*
X165913245Y-71253365D01*
X165913245Y-71253361D01*
X165913327Y-71250000D01*
X165903585Y-71131501D01*
X165894773Y-71024318D01*
X165894772Y-71024312D01*
X165894349Y-71019167D01*
X165837925Y-70794533D01*
X165835866Y-70789797D01*
X165747630Y-70586868D01*
X165747628Y-70586865D01*
X165745570Y-70582131D01*
X165619764Y-70387665D01*
X165567551Y-70330283D01*
X165529848Y-70288848D01*
X165498796Y-70225002D01*
X165507192Y-70154504D01*
X165552369Y-70099736D01*
X165578812Y-70086067D01*
X165638297Y-70063767D01*
X165646705Y-70060615D01*
X165763261Y-69973261D01*
X165850615Y-69856705D01*
X165901745Y-69720316D01*
X165908500Y-69658134D01*
X165908500Y-67761866D01*
X165901745Y-67699684D01*
X165850615Y-67563295D01*
X165763261Y-67446739D01*
X165646705Y-67359385D01*
X165510316Y-67308255D01*
X165448134Y-67301500D01*
X163551866Y-67301500D01*
X163489684Y-67308255D01*
X163353295Y-67359385D01*
X163236739Y-67446739D01*
X163149385Y-67563295D01*
X163098255Y-67699684D01*
X163091500Y-67761866D01*
X163091500Y-69658134D01*
X163098255Y-69720316D01*
X163149385Y-69856705D01*
X163236739Y-69973261D01*
X163353295Y-70060615D01*
X163361704Y-70063767D01*
X163361705Y-70063768D01*
X163421164Y-70086058D01*
X163477929Y-70128699D01*
X163502629Y-70195261D01*
X163487422Y-70264609D01*
X163468029Y-70291091D01*
X163433842Y-70326866D01*
X163401639Y-70360564D01*
X163398725Y-70364836D01*
X163398724Y-70364837D01*
X163383152Y-70387665D01*
X163271119Y-70551899D01*
X163173602Y-70761981D01*
X163111707Y-70985169D01*
X163087095Y-71215469D01*
X145755189Y-71215469D01*
X145777999Y-71176148D01*
X145783487Y-71171623D01*
X145793497Y-71158874D01*
X145786510Y-71145721D01*
X145012811Y-70372021D01*
X144998868Y-70364408D01*
X144997034Y-70364539D01*
X144990420Y-70368790D01*
X144210180Y-71149031D01*
X144203423Y-71161406D01*
X144222730Y-71187197D01*
X144222040Y-71187713D01*
X144246627Y-71213737D01*
X144259743Y-71283511D01*
X144233055Y-71349300D01*
X144210023Y-71371719D01*
X144110162Y-71446697D01*
X144061655Y-71483117D01*
X143901639Y-71650564D01*
X143898725Y-71654836D01*
X143898724Y-71654837D01*
X143883152Y-71677665D01*
X143771119Y-71841899D01*
X143673602Y-72051981D01*
X143611707Y-72275169D01*
X143587095Y-72505469D01*
X136408499Y-72505469D01*
X136408499Y-71838106D01*
X136397549Y-71732563D01*
X136341691Y-71565138D01*
X136293249Y-71486855D01*
X136252669Y-71421278D01*
X136252668Y-71421276D01*
X136248816Y-71415052D01*
X136123904Y-71290359D01*
X136112795Y-71283511D01*
X135979888Y-71201585D01*
X135979886Y-71201584D01*
X135973658Y-71197745D01*
X135806135Y-71142180D01*
X135806648Y-71140633D01*
X135751315Y-71110526D01*
X135012811Y-70372021D01*
X134998868Y-70364408D01*
X134997034Y-70364539D01*
X134990420Y-70368790D01*
X134248677Y-71110534D01*
X134192187Y-71141325D01*
X134192563Y-71142451D01*
X134186023Y-71144633D01*
X134186018Y-71144634D01*
X134032082Y-71195992D01*
X134032080Y-71195993D01*
X134025138Y-71198309D01*
X133989075Y-71220625D01*
X133887452Y-71283511D01*
X133875052Y-71291184D01*
X133750359Y-71416096D01*
X133746519Y-71422326D01*
X133746518Y-71422327D01*
X133668638Y-71548671D01*
X133657745Y-71566342D01*
X133602180Y-71733865D01*
X133591500Y-71838105D01*
X131203502Y-71838105D01*
X131208807Y-71834854D01*
X131385202Y-71726759D01*
X131385208Y-71726755D01*
X131389416Y-71724176D01*
X131569969Y-71569969D01*
X131724176Y-71389416D01*
X131726755Y-71385208D01*
X131726759Y-71385202D01*
X131845654Y-71191183D01*
X131848240Y-71186963D01*
X131857276Y-71165150D01*
X131937211Y-70972167D01*
X131937212Y-70972165D01*
X131939105Y-70967594D01*
X131980483Y-70795242D01*
X131993380Y-70741524D01*
X131993381Y-70741518D01*
X131994535Y-70736711D01*
X132013165Y-70500000D01*
X131994535Y-70263289D01*
X131985344Y-70225002D01*
X131940260Y-70037218D01*
X131939105Y-70032406D01*
X131928316Y-70006358D01*
X131913520Y-69970638D01*
X133587893Y-69970638D01*
X133600627Y-70191468D01*
X133602061Y-70201670D01*
X133650685Y-70417439D01*
X133653773Y-70427292D01*
X133736986Y-70632220D01*
X133741634Y-70641421D01*
X133830097Y-70785781D01*
X133840553Y-70795242D01*
X133849331Y-70791458D01*
X134627979Y-70012811D01*
X134634356Y-70001132D01*
X135364408Y-70001132D01*
X135364539Y-70002966D01*
X135368790Y-70009580D01*
X136146307Y-70787096D01*
X136158313Y-70793652D01*
X136170052Y-70784684D01*
X136208010Y-70731859D01*
X136213321Y-70723020D01*
X136311318Y-70524737D01*
X136315117Y-70515142D01*
X136379415Y-70303517D01*
X136381594Y-70293436D01*
X136410702Y-70072338D01*
X136411221Y-70065663D01*
X136412744Y-70003364D01*
X136412550Y-69996646D01*
X136410412Y-69970638D01*
X143587893Y-69970638D01*
X143600627Y-70191468D01*
X143602061Y-70201670D01*
X143650685Y-70417439D01*
X143653773Y-70427292D01*
X143736986Y-70632220D01*
X143741634Y-70641421D01*
X143830097Y-70785781D01*
X143840553Y-70795242D01*
X143849331Y-70791458D01*
X144627979Y-70012811D01*
X144634356Y-70001132D01*
X145364408Y-70001132D01*
X145364539Y-70002966D01*
X145368790Y-70009580D01*
X146146307Y-70787096D01*
X146158313Y-70793652D01*
X146170052Y-70784684D01*
X146208010Y-70731859D01*
X146213321Y-70723020D01*
X146311318Y-70524737D01*
X146315117Y-70515142D01*
X146379415Y-70303517D01*
X146381594Y-70293436D01*
X146410702Y-70072338D01*
X146411221Y-70065663D01*
X146412744Y-70003364D01*
X146412550Y-69996646D01*
X146394279Y-69774400D01*
X146392596Y-69764238D01*
X146338710Y-69549708D01*
X146335389Y-69539953D01*
X146247193Y-69337118D01*
X146242315Y-69328020D01*
X146169224Y-69215038D01*
X146158538Y-69205835D01*
X146148973Y-69210238D01*
X145372021Y-69987189D01*
X145364408Y-70001132D01*
X144634356Y-70001132D01*
X144635592Y-69998868D01*
X144635461Y-69997034D01*
X144631210Y-69990420D01*
X143853862Y-69213073D01*
X143842330Y-69206776D01*
X143830048Y-69216399D01*
X143774467Y-69297877D01*
X143769379Y-69306833D01*
X143676252Y-69507459D01*
X143672689Y-69517146D01*
X143613581Y-69730280D01*
X143611650Y-69740400D01*
X143588145Y-69960349D01*
X143587893Y-69970638D01*
X136410412Y-69970638D01*
X136394279Y-69774400D01*
X136392596Y-69764238D01*
X136338710Y-69549708D01*
X136335389Y-69539953D01*
X136247193Y-69337118D01*
X136242315Y-69328020D01*
X136169224Y-69215038D01*
X136158538Y-69205835D01*
X136148973Y-69210238D01*
X135372021Y-69987189D01*
X135364408Y-70001132D01*
X134634356Y-70001132D01*
X134635592Y-69998868D01*
X134635461Y-69997034D01*
X134631210Y-69990420D01*
X133853862Y-69213073D01*
X133842330Y-69206776D01*
X133830048Y-69216399D01*
X133774467Y-69297877D01*
X133769379Y-69306833D01*
X133676252Y-69507459D01*
X133672689Y-69517146D01*
X133613581Y-69730280D01*
X133611650Y-69740400D01*
X133588145Y-69960349D01*
X133587893Y-69970638D01*
X131913520Y-69970638D01*
X131850135Y-69817611D01*
X131850133Y-69817607D01*
X131848240Y-69813037D01*
X131817462Y-69762812D01*
X131726759Y-69614798D01*
X131726755Y-69614792D01*
X131724176Y-69610584D01*
X131569969Y-69430031D01*
X131389416Y-69275824D01*
X131385208Y-69273245D01*
X131385202Y-69273241D01*
X131191183Y-69154346D01*
X131186963Y-69151760D01*
X131182393Y-69149867D01*
X131182389Y-69149865D01*
X130972167Y-69062789D01*
X130972165Y-69062788D01*
X130967594Y-69060895D01*
X130854198Y-69033671D01*
X130741524Y-69006620D01*
X130741518Y-69006619D01*
X130736711Y-69005465D01*
X130500000Y-68986835D01*
X130263289Y-69005465D01*
X130258482Y-69006619D01*
X130258476Y-69006620D01*
X130145802Y-69033671D01*
X130032406Y-69060895D01*
X130027835Y-69062788D01*
X130027833Y-69062789D01*
X129817611Y-69149865D01*
X129817607Y-69149867D01*
X129813037Y-69151760D01*
X129808817Y-69154346D01*
X129614798Y-69273241D01*
X129614792Y-69273245D01*
X129610584Y-69275824D01*
X129430031Y-69430031D01*
X129275824Y-69610584D01*
X129273245Y-69614792D01*
X129273241Y-69614798D01*
X129182538Y-69762812D01*
X129151760Y-69813037D01*
X129149867Y-69817607D01*
X129149865Y-69817611D01*
X129071684Y-70006358D01*
X129060895Y-70032406D01*
X129059740Y-70037218D01*
X129014657Y-70225002D01*
X129005465Y-70263289D01*
X128986835Y-70500000D01*
X122809024Y-70500000D01*
X122845205Y-70440958D01*
X122849687Y-70432163D01*
X122936734Y-70222012D01*
X122939783Y-70212627D01*
X122992885Y-69991446D01*
X122994428Y-69981699D01*
X123012275Y-69754930D01*
X123012275Y-69745070D01*
X122994428Y-69518301D01*
X122992885Y-69508554D01*
X122939783Y-69287373D01*
X122936734Y-69277988D01*
X122849687Y-69067837D01*
X122845205Y-69059042D01*
X122742568Y-68891555D01*
X122732110Y-68882093D01*
X122723334Y-68885876D01*
X121872022Y-69737188D01*
X121864408Y-69751132D01*
X121134356Y-69751132D01*
X121135592Y-69748868D01*
X121135461Y-69747035D01*
X121131210Y-69740420D01*
X120279710Y-68888920D01*
X120267330Y-68882160D01*
X120259680Y-68887887D01*
X120154795Y-69059042D01*
X120150313Y-69067837D01*
X120063266Y-69277988D01*
X120060217Y-69287373D01*
X120007115Y-69508554D01*
X120005572Y-69518301D01*
X119987725Y-69745070D01*
X119987725Y-69754930D01*
X116506052Y-69754930D01*
X116513546Y-69720754D01*
X116535093Y-69692073D01*
X116572636Y-69654660D01*
X116572640Y-69654655D01*
X116576303Y-69651005D01*
X116711458Y-69462917D01*
X116758641Y-69367450D01*
X116811784Y-69259922D01*
X116811785Y-69259920D01*
X116814078Y-69255280D01*
X116881408Y-69033671D01*
X116911640Y-68804041D01*
X116911722Y-68800691D01*
X116913245Y-68738365D01*
X116913245Y-68738361D01*
X116913327Y-68735000D01*
X116901416Y-68590120D01*
X116895478Y-68517890D01*
X120632093Y-68517890D01*
X120635876Y-68526666D01*
X121487188Y-69377978D01*
X121501132Y-69385592D01*
X121502965Y-69385461D01*
X121509580Y-69381210D01*
X122361080Y-68529710D01*
X122367840Y-68517330D01*
X122362113Y-68509680D01*
X122190958Y-68404795D01*
X122182163Y-68400313D01*
X121972012Y-68313266D01*
X121962627Y-68310217D01*
X121741446Y-68257115D01*
X121731699Y-68255572D01*
X121504930Y-68237725D01*
X121495070Y-68237725D01*
X121268301Y-68255572D01*
X121258554Y-68257115D01*
X121037373Y-68310217D01*
X121027988Y-68313266D01*
X120817837Y-68400313D01*
X120809042Y-68404795D01*
X120641555Y-68507432D01*
X120632093Y-68517890D01*
X116895478Y-68517890D01*
X116894773Y-68509318D01*
X116894772Y-68509312D01*
X116894349Y-68504167D01*
X116846398Y-68313266D01*
X116839184Y-68284544D01*
X116839183Y-68284540D01*
X116837925Y-68279533D01*
X116832666Y-68267437D01*
X116747630Y-68071868D01*
X116747628Y-68071865D01*
X116745570Y-68067131D01*
X116619764Y-67872665D01*
X116463887Y-67701358D01*
X116459836Y-67698159D01*
X116459832Y-67698155D01*
X116286177Y-67561011D01*
X116286172Y-67561008D01*
X116282123Y-67557810D01*
X116277607Y-67555317D01*
X116277604Y-67555315D01*
X116083879Y-67448373D01*
X116083875Y-67448371D01*
X116079355Y-67445876D01*
X116074486Y-67444152D01*
X116074482Y-67444150D01*
X116021729Y-67425469D01*
X133587095Y-67425469D01*
X133587392Y-67430622D01*
X133587392Y-67430625D01*
X133594627Y-67556109D01*
X133600427Y-67656697D01*
X133601564Y-67661743D01*
X133601565Y-67661749D01*
X133624898Y-67765283D01*
X133651346Y-67882642D01*
X133653288Y-67887424D01*
X133653289Y-67887428D01*
X133736540Y-68092450D01*
X133738484Y-68097237D01*
X133859501Y-68294719D01*
X134011147Y-68469784D01*
X134189349Y-68617730D01*
X134193814Y-68620339D01*
X134197979Y-68622773D01*
X134246700Y-68674414D01*
X134259767Y-68744198D01*
X134233033Y-68809968D01*
X134216323Y-68826221D01*
X134205508Y-68840711D01*
X134212251Y-68853040D01*
X134987189Y-69627979D01*
X135001132Y-69635592D01*
X135002966Y-69635461D01*
X135009580Y-69631210D01*
X135788994Y-68851795D01*
X135796011Y-68838944D01*
X135788237Y-68828275D01*
X135786655Y-68827025D01*
X135745592Y-68769109D01*
X135742359Y-68698186D01*
X135777983Y-68636774D01*
X135791578Y-68625563D01*
X135807193Y-68614425D01*
X135912243Y-68539494D01*
X136076303Y-68376005D01*
X136211458Y-68187917D01*
X136224320Y-68161894D01*
X136311784Y-67984922D01*
X136311785Y-67984920D01*
X136314078Y-67980280D01*
X136381408Y-67758671D01*
X136411640Y-67529041D01*
X136413327Y-67460000D01*
X136402243Y-67325179D01*
X136394773Y-67234318D01*
X136394772Y-67234312D01*
X136394349Y-67229167D01*
X136337925Y-67004533D01*
X136335866Y-66999797D01*
X136247630Y-66796868D01*
X136247628Y-66796865D01*
X136245570Y-66792131D01*
X136223558Y-66758105D01*
X143591500Y-66758105D01*
X143591501Y-68161894D01*
X143591838Y-68165138D01*
X143591838Y-68165146D01*
X143597414Y-68218887D01*
X143602451Y-68267437D01*
X143614268Y-68302855D01*
X143638673Y-68376005D01*
X143658309Y-68434862D01*
X143683333Y-68475301D01*
X143723057Y-68539494D01*
X143751184Y-68584948D01*
X143876096Y-68709641D01*
X143882326Y-68713481D01*
X143882327Y-68713482D01*
X144019180Y-68797840D01*
X144026342Y-68802255D01*
X144186569Y-68855400D01*
X144193865Y-68857820D01*
X144193352Y-68859367D01*
X144248685Y-68889474D01*
X144987189Y-69627979D01*
X145001132Y-69635592D01*
X145002966Y-69635461D01*
X145009580Y-69631210D01*
X145751323Y-68889466D01*
X145807813Y-68858675D01*
X145807437Y-68857549D01*
X145813977Y-68855367D01*
X145813982Y-68855366D01*
X145967918Y-68804008D01*
X145967920Y-68804007D01*
X145974862Y-68801691D01*
X146124948Y-68708816D01*
X146249641Y-68583904D01*
X146283047Y-68529710D01*
X146338415Y-68439888D01*
X146338416Y-68439886D01*
X146342255Y-68433658D01*
X146397820Y-68266135D01*
X146398903Y-68255572D01*
X146408172Y-68165094D01*
X146408500Y-68161895D01*
X146408499Y-66758106D01*
X146397549Y-66652563D01*
X146341691Y-66485138D01*
X146295637Y-66410714D01*
X146252669Y-66341278D01*
X146252668Y-66341276D01*
X146248816Y-66335052D01*
X146123904Y-66210359D01*
X146104174Y-66198197D01*
X145979888Y-66121585D01*
X145979886Y-66121584D01*
X145973658Y-66117745D01*
X145806135Y-66062180D01*
X145799299Y-66061480D01*
X145799296Y-66061479D01*
X145732542Y-66054640D01*
X145701895Y-66051500D01*
X145005413Y-66051500D01*
X144298106Y-66051501D01*
X144294862Y-66051838D01*
X144294854Y-66051838D01*
X144241113Y-66057414D01*
X144192563Y-66062451D01*
X144124527Y-66085150D01*
X144032082Y-66115992D01*
X144032080Y-66115993D01*
X144025138Y-66118309D01*
X143980840Y-66145721D01*
X143936155Y-66173373D01*
X143875052Y-66211184D01*
X143869880Y-66216365D01*
X143822277Y-66264052D01*
X143750359Y-66336096D01*
X143746519Y-66342326D01*
X143746518Y-66342327D01*
X143692364Y-66430181D01*
X143657745Y-66486342D01*
X143602180Y-66653865D01*
X143591500Y-66758105D01*
X136223558Y-66758105D01*
X136119764Y-66597665D01*
X135963887Y-66426358D01*
X135959836Y-66423159D01*
X135959832Y-66423155D01*
X135786177Y-66286011D01*
X135786172Y-66286008D01*
X135782123Y-66282810D01*
X135777607Y-66280317D01*
X135777604Y-66280315D01*
X135583879Y-66173373D01*
X135583875Y-66173371D01*
X135579355Y-66170876D01*
X135574486Y-66169152D01*
X135574482Y-66169150D01*
X135365903Y-66095288D01*
X135365899Y-66095287D01*
X135361028Y-66093562D01*
X135355935Y-66092655D01*
X135355932Y-66092654D01*
X135138095Y-66053851D01*
X135138089Y-66053850D01*
X135133006Y-66052945D01*
X135060096Y-66052054D01*
X134906581Y-66050179D01*
X134906579Y-66050179D01*
X134901411Y-66050116D01*
X134672464Y-66085150D01*
X134452314Y-66157106D01*
X134447726Y-66159494D01*
X134447722Y-66159496D01*
X134267177Y-66253482D01*
X134246872Y-66264052D01*
X134242739Y-66267155D01*
X134242736Y-66267157D01*
X134067776Y-66398521D01*
X134061655Y-66403117D01*
X133901639Y-66570564D01*
X133898725Y-66574836D01*
X133898724Y-66574837D01*
X133883152Y-66597665D01*
X133771119Y-66761899D01*
X133673602Y-66971981D01*
X133611707Y-67195169D01*
X133587095Y-67425469D01*
X116021729Y-67425469D01*
X115865903Y-67370288D01*
X115865899Y-67370287D01*
X115861028Y-67368562D01*
X115855935Y-67367655D01*
X115855932Y-67367654D01*
X115638095Y-67328851D01*
X115638089Y-67328850D01*
X115633006Y-67327945D01*
X115560096Y-67327054D01*
X115406581Y-67325179D01*
X115406579Y-67325179D01*
X115401411Y-67325116D01*
X115172464Y-67360150D01*
X114952314Y-67432106D01*
X114947726Y-67434494D01*
X114947722Y-67434496D01*
X114772538Y-67525691D01*
X114746872Y-67539052D01*
X114742739Y-67542155D01*
X114742736Y-67542157D01*
X114583455Y-67661749D01*
X114561655Y-67678117D01*
X114401639Y-67845564D01*
X114398725Y-67849836D01*
X114398724Y-67849837D01*
X114376346Y-67882642D01*
X114271119Y-68036899D01*
X114173602Y-68246981D01*
X114111707Y-68470169D01*
X114087095Y-68700469D01*
X113043657Y-68700469D01*
X113061161Y-68307448D01*
X113061450Y-68302855D01*
X113141273Y-67321459D01*
X113141729Y-67316885D01*
X113142751Y-67308255D01*
X113207416Y-66761899D01*
X113257464Y-66339050D01*
X113258091Y-66334475D01*
X113409574Y-65361570D01*
X113410368Y-65357021D01*
X113597401Y-64390318D01*
X113598361Y-64385801D01*
X113732386Y-63807578D01*
X113820696Y-63426582D01*
X113821818Y-63422116D01*
X113824638Y-63411703D01*
X113956878Y-62923292D01*
X118187608Y-62923292D01*
X118217486Y-63120848D01*
X118219689Y-63126835D01*
X118219689Y-63126836D01*
X118274044Y-63274569D01*
X118278794Y-63345406D01*
X118256622Y-63393638D01*
X118249385Y-63403295D01*
X118198255Y-63539684D01*
X118191500Y-63601866D01*
X118191500Y-64648134D01*
X118198255Y-64710316D01*
X118249385Y-64846705D01*
X118336739Y-64963261D01*
X118453295Y-65050615D01*
X118589684Y-65101745D01*
X118651866Y-65108500D01*
X119998134Y-65108500D01*
X120060316Y-65101745D01*
X120196705Y-65050615D01*
X120313261Y-64963261D01*
X120400615Y-64846705D01*
X120451745Y-64710316D01*
X120458500Y-64648134D01*
X120458500Y-64298105D01*
X136051500Y-64298105D01*
X136051501Y-65701894D01*
X136051838Y-65705138D01*
X136051838Y-65705146D01*
X136055381Y-65739289D01*
X136062451Y-65807437D01*
X136094938Y-65904813D01*
X136098673Y-65916005D01*
X136118309Y-65974862D01*
X136149866Y-66025858D01*
X136207076Y-66118309D01*
X136211184Y-66124948D01*
X136336096Y-66249641D01*
X136342326Y-66253481D01*
X136342327Y-66253482D01*
X136479180Y-66337840D01*
X136486342Y-66342255D01*
X136653865Y-66397820D01*
X136660701Y-66398520D01*
X136660704Y-66398521D01*
X136705165Y-66403076D01*
X136758105Y-66408500D01*
X137454587Y-66408500D01*
X138161894Y-66408499D01*
X138165138Y-66408162D01*
X138165146Y-66408162D01*
X138221114Y-66402355D01*
X138267437Y-66397549D01*
X138386701Y-66357759D01*
X138427918Y-66344008D01*
X138427920Y-66344007D01*
X138434862Y-66341691D01*
X138560327Y-66264052D01*
X138578722Y-66252669D01*
X138578724Y-66252668D01*
X138584948Y-66248816D01*
X138672205Y-66161406D01*
X139203423Y-66161406D01*
X139208704Y-66168461D01*
X139385080Y-66271527D01*
X139394363Y-66275974D01*
X139601003Y-66354883D01*
X139610901Y-66357759D01*
X139827653Y-66401857D01*
X139837883Y-66403076D01*
X140058914Y-66411182D01*
X140069223Y-66410714D01*
X140288623Y-66382608D01*
X140298688Y-66380468D01*
X140510557Y-66316905D01*
X140520152Y-66313144D01*
X140718778Y-66215838D01*
X140727636Y-66210559D01*
X140785097Y-66169572D01*
X140793497Y-66158874D01*
X140786510Y-66145721D01*
X140012811Y-65372021D01*
X139998868Y-65364408D01*
X139997034Y-65364539D01*
X139990420Y-65368790D01*
X139210180Y-66149031D01*
X139203423Y-66161406D01*
X138672205Y-66161406D01*
X138709641Y-66123904D01*
X138750927Y-66056927D01*
X138798415Y-65979888D01*
X138798416Y-65979886D01*
X138802255Y-65973658D01*
X138857820Y-65806135D01*
X138859367Y-65806648D01*
X138889474Y-65751315D01*
X139627979Y-65012811D01*
X139634356Y-65001132D01*
X140364408Y-65001132D01*
X140364539Y-65002966D01*
X140368790Y-65009580D01*
X141146307Y-65787096D01*
X141158313Y-65793652D01*
X141184948Y-65773304D01*
X141185827Y-65774454D01*
X141222672Y-65745734D01*
X141293376Y-65739289D01*
X141356340Y-65772092D01*
X141376432Y-65797074D01*
X141396800Y-65830313D01*
X141396806Y-65830321D01*
X141399501Y-65834719D01*
X141551147Y-66009784D01*
X141729349Y-66157730D01*
X141929322Y-66274584D01*
X141934147Y-66276426D01*
X141934148Y-66276427D01*
X141959246Y-66286011D01*
X142145694Y-66357209D01*
X142150760Y-66358240D01*
X142150761Y-66358240D01*
X142203846Y-66369040D01*
X142372656Y-66403385D01*
X142502934Y-66408162D01*
X142598949Y-66411683D01*
X142598953Y-66411683D01*
X142604113Y-66411872D01*
X142609233Y-66411216D01*
X142609235Y-66411216D01*
X142682291Y-66401857D01*
X142833847Y-66382442D01*
X142838795Y-66380957D01*
X142838802Y-66380956D01*
X143050747Y-66317369D01*
X143055690Y-66315886D01*
X143137161Y-66275974D01*
X143259049Y-66216262D01*
X143259052Y-66216260D01*
X143263684Y-66213991D01*
X143452243Y-66079494D01*
X143616303Y-65916005D01*
X143751458Y-65727917D01*
X143764320Y-65701894D01*
X143851784Y-65524922D01*
X143851785Y-65524920D01*
X143854078Y-65520280D01*
X143921408Y-65298671D01*
X143951640Y-65069041D01*
X143953327Y-65000000D01*
X143940033Y-64838297D01*
X143934773Y-64774318D01*
X143934772Y-64774312D01*
X143934349Y-64769167D01*
X143900797Y-64635592D01*
X143879184Y-64549544D01*
X143879183Y-64549540D01*
X143877925Y-64544533D01*
X143863771Y-64511981D01*
X143787630Y-64336868D01*
X143787628Y-64336865D01*
X143785570Y-64332131D01*
X143659764Y-64137665D01*
X143503887Y-63966358D01*
X143499836Y-63963159D01*
X143499832Y-63963155D01*
X143326177Y-63826011D01*
X143326172Y-63826008D01*
X143322123Y-63822810D01*
X143317607Y-63820317D01*
X143317604Y-63820315D01*
X143123879Y-63713373D01*
X143123875Y-63713371D01*
X143119355Y-63710876D01*
X143114486Y-63709152D01*
X143114482Y-63709150D01*
X142905903Y-63635288D01*
X142905899Y-63635287D01*
X142901028Y-63633562D01*
X142895935Y-63632655D01*
X142895932Y-63632654D01*
X142678095Y-63593851D01*
X142678089Y-63593850D01*
X142673006Y-63592945D01*
X142600096Y-63592054D01*
X142446581Y-63590179D01*
X142446579Y-63590179D01*
X142441411Y-63590116D01*
X142212464Y-63625150D01*
X141992314Y-63697106D01*
X141987726Y-63699494D01*
X141987722Y-63699496D01*
X141880082Y-63755530D01*
X141786872Y-63804052D01*
X141782739Y-63807155D01*
X141782736Y-63807157D01*
X141673532Y-63889150D01*
X141601655Y-63943117D01*
X141441639Y-64110564D01*
X141438728Y-64114832D01*
X141374002Y-64209716D01*
X141319090Y-64254718D01*
X141248565Y-64262889D01*
X141184819Y-64231634D01*
X141174979Y-64219994D01*
X141158538Y-64205835D01*
X141148973Y-64210238D01*
X140372021Y-64987189D01*
X140364408Y-65001132D01*
X139634356Y-65001132D01*
X139635592Y-64998868D01*
X139635461Y-64997034D01*
X139631210Y-64990420D01*
X138889466Y-64248677D01*
X138858675Y-64192187D01*
X138857549Y-64192563D01*
X138855448Y-64186267D01*
X138855367Y-64186023D01*
X138855366Y-64186018D01*
X138804008Y-64032082D01*
X138804007Y-64032080D01*
X138801691Y-64025138D01*
X138753249Y-63946855D01*
X138712669Y-63881278D01*
X138712668Y-63881276D01*
X138708816Y-63875052D01*
X138674415Y-63840711D01*
X139205508Y-63840711D01*
X139212251Y-63853040D01*
X139987189Y-64627979D01*
X140001132Y-64635592D01*
X140002966Y-64635461D01*
X140009580Y-64631210D01*
X140788994Y-63851795D01*
X140796011Y-63838944D01*
X140788237Y-63828274D01*
X140785902Y-63826430D01*
X140777320Y-63820729D01*
X140583678Y-63713833D01*
X140574272Y-63709606D01*
X140365772Y-63635772D01*
X140355809Y-63633140D01*
X140138047Y-63594350D01*
X140127796Y-63593381D01*
X139906616Y-63590679D01*
X139896332Y-63591399D01*
X139677693Y-63624855D01*
X139667666Y-63627244D01*
X139457426Y-63695961D01*
X139447916Y-63699958D01*
X139251725Y-63802089D01*
X139243007Y-63807578D01*
X139213961Y-63829386D01*
X139205508Y-63840711D01*
X138674415Y-63840711D01*
X138583904Y-63750359D01*
X138524649Y-63713833D01*
X138439888Y-63661585D01*
X138439886Y-63661584D01*
X138433658Y-63657745D01*
X138266135Y-63602180D01*
X138259299Y-63601480D01*
X138259296Y-63601479D01*
X138206984Y-63596120D01*
X138161895Y-63591500D01*
X137465413Y-63591500D01*
X136758106Y-63591501D01*
X136754862Y-63591838D01*
X136754854Y-63591838D01*
X136701113Y-63597414D01*
X136652563Y-63602451D01*
X136585411Y-63624855D01*
X136492082Y-63655992D01*
X136492080Y-63655993D01*
X136485138Y-63658309D01*
X136478914Y-63662160D01*
X136478915Y-63662160D01*
X136396155Y-63713373D01*
X136335052Y-63751184D01*
X136329880Y-63756365D01*
X136284236Y-63802089D01*
X136210359Y-63876096D01*
X136206519Y-63882326D01*
X136206518Y-63882327D01*
X136152364Y-63970181D01*
X136117745Y-64026342D01*
X136062180Y-64193865D01*
X136061480Y-64200701D01*
X136061479Y-64200704D01*
X136060556Y-64209716D01*
X136051500Y-64298105D01*
X120458500Y-64298105D01*
X120458500Y-63601866D01*
X120451745Y-63539684D01*
X120400615Y-63403295D01*
X120392975Y-63393101D01*
X120391670Y-63389608D01*
X120390921Y-63388240D01*
X120391119Y-63388132D01*
X120368128Y-63326594D01*
X120380746Y-63261910D01*
X120401571Y-63219589D01*
X120447868Y-63041852D01*
X120450325Y-63032420D01*
X120450325Y-63032417D01*
X120451935Y-63026238D01*
X120462392Y-62826708D01*
X120432514Y-62629152D01*
X120384996Y-62500000D01*
X152336496Y-62500000D01*
X152356458Y-62689928D01*
X152415473Y-62871556D01*
X152510960Y-63036944D01*
X152515378Y-63041851D01*
X152515379Y-63041852D01*
X152615277Y-63152800D01*
X152638747Y-63178866D01*
X152793248Y-63291118D01*
X152799276Y-63293802D01*
X152799278Y-63293803D01*
X152915181Y-63345406D01*
X152967712Y-63368794D01*
X153058690Y-63388132D01*
X153148056Y-63407128D01*
X153148061Y-63407128D01*
X153154513Y-63408500D01*
X153345487Y-63408500D01*
X153351939Y-63407128D01*
X153351944Y-63407128D01*
X153441310Y-63388132D01*
X153532288Y-63368794D01*
X153584819Y-63345406D01*
X153700722Y-63293803D01*
X153700724Y-63293802D01*
X153706752Y-63291118D01*
X153861253Y-63178866D01*
X153884723Y-63152800D01*
X153984621Y-63041852D01*
X153984622Y-63041851D01*
X153989040Y-63036944D01*
X154084527Y-62871556D01*
X154143542Y-62689928D01*
X154163504Y-62500000D01*
X154150737Y-62378525D01*
X154144232Y-62316635D01*
X154144232Y-62316633D01*
X154143542Y-62310072D01*
X154084527Y-62128444D01*
X153989040Y-61963056D01*
X153968515Y-61940260D01*
X153949975Y-61919669D01*
X156617001Y-61919669D01*
X156617371Y-61926490D01*
X156622895Y-61977352D01*
X156626521Y-61992604D01*
X156671676Y-62113054D01*
X156680214Y-62128649D01*
X156756715Y-62230724D01*
X156769276Y-62243285D01*
X156871351Y-62319786D01*
X156886946Y-62328324D01*
X157007394Y-62373478D01*
X157022649Y-62377105D01*
X157073514Y-62382631D01*
X157080328Y-62383000D01*
X157727885Y-62383000D01*
X157743124Y-62378525D01*
X157744329Y-62377135D01*
X157746000Y-62369452D01*
X157746000Y-62364884D01*
X158254000Y-62364884D01*
X158258475Y-62380123D01*
X158259865Y-62381328D01*
X158267548Y-62382999D01*
X158919669Y-62382999D01*
X158926490Y-62382629D01*
X158977352Y-62377105D01*
X158992604Y-62373479D01*
X159113054Y-62328324D01*
X159128649Y-62319786D01*
X159230724Y-62243285D01*
X159243285Y-62230724D01*
X159319786Y-62128649D01*
X159328324Y-62113054D01*
X159348355Y-62059622D01*
X159390997Y-62002858D01*
X159457558Y-61978158D01*
X159526907Y-61993366D01*
X159546822Y-62006908D01*
X159615330Y-62063784D01*
X159703737Y-62137181D01*
X159708189Y-62139783D01*
X159708194Y-62139786D01*
X159885311Y-62243285D01*
X159900160Y-62251962D01*
X160112693Y-62333120D01*
X160117759Y-62334151D01*
X160117760Y-62334151D01*
X160176433Y-62346088D01*
X160335627Y-62378476D01*
X160463437Y-62383163D01*
X160557811Y-62386624D01*
X160557815Y-62386624D01*
X160562975Y-62386813D01*
X160568095Y-62386157D01*
X160568097Y-62386157D01*
X160783504Y-62358563D01*
X160783505Y-62358563D01*
X160788632Y-62357906D01*
X160811194Y-62351137D01*
X161001591Y-62294015D01*
X161001592Y-62294014D01*
X161006537Y-62292531D01*
X161210839Y-62192444D01*
X161215043Y-62189446D01*
X161215047Y-62189443D01*
X161391847Y-62063333D01*
X161391849Y-62063331D01*
X161396051Y-62060334D01*
X161557199Y-61899747D01*
X161610160Y-61826045D01*
X161686938Y-61719198D01*
X161686942Y-61719192D01*
X161689956Y-61714997D01*
X161783999Y-61524716D01*
X161788461Y-61515688D01*
X161788462Y-61515686D01*
X161790755Y-61511046D01*
X161856890Y-61293370D01*
X161886585Y-61067815D01*
X161888242Y-61000000D01*
X161869601Y-60773264D01*
X161814178Y-60552617D01*
X161723462Y-60343985D01*
X161599890Y-60152971D01*
X161446779Y-59984704D01*
X161268241Y-59843704D01*
X161230537Y-59822890D01*
X161205043Y-59808817D01*
X161069072Y-59733757D01*
X161064203Y-59732033D01*
X161064199Y-59732031D01*
X160859496Y-59659541D01*
X160859492Y-59659540D01*
X160854621Y-59657815D01*
X160849528Y-59656908D01*
X160849525Y-59656907D01*
X160635734Y-59618825D01*
X160635728Y-59618824D01*
X160630645Y-59617919D01*
X160555417Y-59617000D01*
X160408331Y-59615203D01*
X160408329Y-59615203D01*
X160403161Y-59615140D01*
X160178278Y-59649552D01*
X159962035Y-59720231D01*
X159957447Y-59722619D01*
X159957443Y-59722621D01*
X159776225Y-59816957D01*
X159760239Y-59825279D01*
X159756106Y-59828382D01*
X159756103Y-59828384D01*
X159582445Y-59958770D01*
X159578310Y-59961875D01*
X159574738Y-59965613D01*
X159557572Y-59983576D01*
X159496047Y-60019006D01*
X159425135Y-60015549D01*
X159367349Y-59974303D01*
X159348496Y-59940754D01*
X159328325Y-59886948D01*
X159319786Y-59871351D01*
X159243285Y-59769276D01*
X159230724Y-59756715D01*
X159128649Y-59680214D01*
X159113054Y-59671676D01*
X158992606Y-59626522D01*
X158977351Y-59622895D01*
X158926486Y-59617369D01*
X158919672Y-59617000D01*
X158272115Y-59617000D01*
X158256876Y-59621475D01*
X158255671Y-59622865D01*
X158254000Y-59630548D01*
X158254000Y-62364884D01*
X157746000Y-62364884D01*
X157746000Y-61272115D01*
X157741525Y-61256876D01*
X157740135Y-61255671D01*
X157732452Y-61254000D01*
X156635116Y-61254000D01*
X156619877Y-61258475D01*
X156618672Y-61259865D01*
X156617001Y-61267548D01*
X156617001Y-61919669D01*
X153949975Y-61919669D01*
X153865675Y-61826045D01*
X153865674Y-61826044D01*
X153861253Y-61821134D01*
X153762157Y-61749136D01*
X153712094Y-61712763D01*
X153712093Y-61712762D01*
X153706752Y-61708882D01*
X153700724Y-61706198D01*
X153700722Y-61706197D01*
X153538319Y-61633891D01*
X153538318Y-61633891D01*
X153532288Y-61631206D01*
X153438888Y-61611353D01*
X153351944Y-61592872D01*
X153351939Y-61592872D01*
X153345487Y-61591500D01*
X153154513Y-61591500D01*
X153148061Y-61592872D01*
X153148056Y-61592872D01*
X153061112Y-61611353D01*
X152967712Y-61631206D01*
X152961682Y-61633891D01*
X152961681Y-61633891D01*
X152799278Y-61706197D01*
X152799276Y-61706198D01*
X152793248Y-61708882D01*
X152787907Y-61712762D01*
X152787906Y-61712763D01*
X152737843Y-61749136D01*
X152638747Y-61821134D01*
X152634326Y-61826044D01*
X152634325Y-61826045D01*
X152531486Y-61940260D01*
X152510960Y-61963056D01*
X152415473Y-62128444D01*
X152356458Y-62310072D01*
X152355768Y-62316633D01*
X152355768Y-62316635D01*
X152349263Y-62378525D01*
X152336496Y-62500000D01*
X120384996Y-62500000D01*
X120373764Y-62469472D01*
X120365727Y-62447629D01*
X120365727Y-62447628D01*
X120363523Y-62441639D01*
X120293264Y-62328324D01*
X120286498Y-62317411D01*
X120267600Y-62248975D01*
X120288702Y-62181187D01*
X120294023Y-62173790D01*
X120309442Y-62153912D01*
X120309448Y-62153903D01*
X120313357Y-62148863D01*
X120317824Y-62139786D01*
X120398752Y-61975318D01*
X120401571Y-61969589D01*
X120451935Y-61776238D01*
X120462392Y-61576708D01*
X120432514Y-61379152D01*
X120388313Y-61259015D01*
X120365727Y-61197629D01*
X120365727Y-61197628D01*
X120363523Y-61191639D01*
X120301708Y-61091942D01*
X120286498Y-61067411D01*
X120267600Y-60998975D01*
X120288702Y-60931187D01*
X120294023Y-60923790D01*
X120309442Y-60903912D01*
X120309448Y-60903903D01*
X120313357Y-60898863D01*
X120401571Y-60719589D01*
X120434412Y-60593511D01*
X120450325Y-60532420D01*
X120450325Y-60532417D01*
X120451935Y-60526238D01*
X120453310Y-60500000D01*
X145986835Y-60500000D01*
X146005465Y-60736711D01*
X146006619Y-60741518D01*
X146006620Y-60741524D01*
X146041640Y-60887391D01*
X146060895Y-60967594D01*
X146062788Y-60972165D01*
X146062789Y-60972167D01*
X146114119Y-61096088D01*
X146151760Y-61186963D01*
X146154346Y-61191183D01*
X146273241Y-61385202D01*
X146273245Y-61385208D01*
X146275824Y-61389416D01*
X146430031Y-61569969D01*
X146433787Y-61573177D01*
X146454618Y-61590968D01*
X146610584Y-61724176D01*
X146614792Y-61726755D01*
X146614798Y-61726759D01*
X146762468Y-61817251D01*
X146813037Y-61848240D01*
X146817607Y-61850133D01*
X146817611Y-61850135D01*
X147001950Y-61926490D01*
X147032406Y-61939105D01*
X147111726Y-61958148D01*
X147258476Y-61993380D01*
X147258482Y-61993381D01*
X147263289Y-61994535D01*
X147500000Y-62013165D01*
X147736711Y-61994535D01*
X147741518Y-61993381D01*
X147741524Y-61993380D01*
X147888274Y-61958148D01*
X147967594Y-61939105D01*
X147998050Y-61926490D01*
X148182389Y-61850135D01*
X148182393Y-61850133D01*
X148186963Y-61848240D01*
X148237532Y-61817251D01*
X148385202Y-61726759D01*
X148385208Y-61726755D01*
X148389416Y-61724176D01*
X148545382Y-61590968D01*
X148566213Y-61573177D01*
X148569969Y-61569969D01*
X148724176Y-61389416D01*
X148726755Y-61385208D01*
X148726759Y-61385202D01*
X148845654Y-61191183D01*
X148848240Y-61186963D01*
X148885882Y-61096088D01*
X148937211Y-60972167D01*
X148937212Y-60972165D01*
X148939105Y-60967594D01*
X148958360Y-60887391D01*
X148993380Y-60741524D01*
X148993381Y-60741518D01*
X148994535Y-60736711D01*
X148995230Y-60727885D01*
X156617000Y-60727885D01*
X156621475Y-60743124D01*
X156622865Y-60744329D01*
X156630548Y-60746000D01*
X157727885Y-60746000D01*
X157743124Y-60741525D01*
X157744329Y-60740135D01*
X157746000Y-60732452D01*
X157746000Y-59635116D01*
X157741525Y-59619877D01*
X157740135Y-59618672D01*
X157732452Y-59617001D01*
X157080331Y-59617001D01*
X157073510Y-59617371D01*
X157022648Y-59622895D01*
X157007396Y-59626521D01*
X156886946Y-59671676D01*
X156871351Y-59680214D01*
X156769276Y-59756715D01*
X156756715Y-59769276D01*
X156680214Y-59871351D01*
X156671676Y-59886946D01*
X156626522Y-60007394D01*
X156622895Y-60022649D01*
X156617369Y-60073514D01*
X156617000Y-60080328D01*
X156617000Y-60727885D01*
X148995230Y-60727885D01*
X149013165Y-60500000D01*
X148994535Y-60263289D01*
X148987851Y-60235446D01*
X148940260Y-60037218D01*
X148939105Y-60032406D01*
X148920928Y-59988523D01*
X148850135Y-59817611D01*
X148850133Y-59817607D01*
X148848240Y-59813037D01*
X148813726Y-59756715D01*
X148726759Y-59614798D01*
X148726755Y-59614792D01*
X148724176Y-59610584D01*
X148569969Y-59430031D01*
X148389416Y-59275824D01*
X148385208Y-59273245D01*
X148385202Y-59273241D01*
X148191183Y-59154346D01*
X148186963Y-59151760D01*
X148182393Y-59149867D01*
X148182389Y-59149865D01*
X147972167Y-59062789D01*
X147972165Y-59062788D01*
X147967594Y-59060895D01*
X147887391Y-59041640D01*
X147741524Y-59006620D01*
X147741518Y-59006619D01*
X147736711Y-59005465D01*
X147500000Y-58986835D01*
X147263289Y-59005465D01*
X147258482Y-59006619D01*
X147258476Y-59006620D01*
X147112609Y-59041640D01*
X147032406Y-59060895D01*
X147027835Y-59062788D01*
X147027833Y-59062789D01*
X146817611Y-59149865D01*
X146817607Y-59149867D01*
X146813037Y-59151760D01*
X146808817Y-59154346D01*
X146614798Y-59273241D01*
X146614792Y-59273245D01*
X146610584Y-59275824D01*
X146430031Y-59430031D01*
X146275824Y-59610584D01*
X146273245Y-59614792D01*
X146273241Y-59614798D01*
X146186274Y-59756715D01*
X146151760Y-59813037D01*
X146149867Y-59817607D01*
X146149865Y-59817611D01*
X146079072Y-59988523D01*
X146060895Y-60032406D01*
X146059740Y-60037218D01*
X146012150Y-60235446D01*
X146005465Y-60263289D01*
X145986835Y-60500000D01*
X120453310Y-60500000D01*
X120457665Y-60416911D01*
X120462058Y-60333089D01*
X120462058Y-60333085D01*
X120462392Y-60326708D01*
X120432514Y-60129152D01*
X120390717Y-60015549D01*
X120365727Y-59947629D01*
X120365727Y-59947628D01*
X120363523Y-59941639D01*
X120286216Y-59816956D01*
X120267318Y-59748522D01*
X120288420Y-59680733D01*
X120293742Y-59673334D01*
X120309021Y-59653636D01*
X120315745Y-59642876D01*
X120398281Y-59475140D01*
X120402709Y-59463233D01*
X120420083Y-59396531D01*
X120419649Y-59382436D01*
X120411468Y-59379000D01*
X118239133Y-59379000D01*
X118225602Y-59382973D01*
X118224725Y-59389075D01*
X118284723Y-59552145D01*
X118290294Y-59563566D01*
X118363830Y-59682169D01*
X118382726Y-59750605D01*
X118361624Y-59818393D01*
X118356303Y-59825790D01*
X118340559Y-59846088D01*
X118336643Y-59851137D01*
X118333825Y-59856863D01*
X118333823Y-59856867D01*
X118259755Y-60007394D01*
X118248429Y-60030411D01*
X118198065Y-60223762D01*
X118187608Y-60423292D01*
X118217486Y-60620848D01*
X118219689Y-60626835D01*
X118219689Y-60626836D01*
X118262918Y-60744329D01*
X118286477Y-60808361D01*
X118339038Y-60893133D01*
X118363502Y-60932589D01*
X118382400Y-61001025D01*
X118361298Y-61068813D01*
X118355977Y-61076210D01*
X118340558Y-61096088D01*
X118340552Y-61096097D01*
X118336643Y-61101137D01*
X118333825Y-61106863D01*
X118333823Y-61106867D01*
X118292110Y-61191639D01*
X118248429Y-61280411D01*
X118243766Y-61298314D01*
X118213335Y-61415141D01*
X118198065Y-61473762D01*
X118193220Y-61566213D01*
X118189814Y-61631206D01*
X118187608Y-61673292D01*
X118217486Y-61870848D01*
X118219689Y-61876835D01*
X118219689Y-61876836D01*
X118262569Y-61993380D01*
X118286477Y-62058361D01*
X118335348Y-62137181D01*
X118363502Y-62182589D01*
X118382400Y-62251025D01*
X118361298Y-62318813D01*
X118355977Y-62326210D01*
X118340558Y-62346088D01*
X118340552Y-62346097D01*
X118336643Y-62351137D01*
X118333825Y-62356863D01*
X118333823Y-62356867D01*
X118263393Y-62500000D01*
X118248429Y-62530411D01*
X118246820Y-62536589D01*
X118208588Y-62683365D01*
X118198065Y-62723762D01*
X118187608Y-62923292D01*
X113956878Y-62923292D01*
X114079155Y-62471681D01*
X114080430Y-62467291D01*
X114372430Y-61526901D01*
X114373863Y-61522566D01*
X114700124Y-60593511D01*
X114701734Y-60589183D01*
X114953802Y-59947629D01*
X115061804Y-59672747D01*
X115063566Y-59668493D01*
X115070042Y-59653636D01*
X115287657Y-59154346D01*
X115456982Y-58765854D01*
X115458905Y-58761655D01*
X115861480Y-57923292D01*
X118187608Y-57923292D01*
X118217486Y-58120848D01*
X118286477Y-58308361D01*
X118363784Y-58433043D01*
X118382682Y-58501478D01*
X118361580Y-58569267D01*
X118356258Y-58576666D01*
X118340979Y-58596364D01*
X118334255Y-58607124D01*
X118251719Y-58774860D01*
X118247291Y-58786767D01*
X118229917Y-58853469D01*
X118230351Y-58867564D01*
X118238532Y-58871000D01*
X120410867Y-58871000D01*
X120424398Y-58867027D01*
X120425275Y-58860925D01*
X120365277Y-58697855D01*
X120359706Y-58686434D01*
X120286170Y-58567831D01*
X120267274Y-58499395D01*
X120288376Y-58431607D01*
X120293697Y-58424210D01*
X120309441Y-58403912D01*
X120309443Y-58403909D01*
X120313357Y-58398863D01*
X120401571Y-58219589D01*
X120451935Y-58026238D01*
X120459911Y-57874056D01*
X120462058Y-57833089D01*
X120462058Y-57833085D01*
X120462392Y-57826708D01*
X120432514Y-57629152D01*
X120363523Y-57441639D01*
X120258235Y-57271828D01*
X120120953Y-57126656D01*
X119957284Y-57012054D01*
X119773914Y-56932702D01*
X119578334Y-56891844D01*
X119573478Y-56891589D01*
X119573439Y-56891587D01*
X119573423Y-56891587D01*
X119571771Y-56891500D01*
X119125066Y-56891500D01*
X119111933Y-56892834D01*
X118982566Y-56905974D01*
X118982562Y-56905975D01*
X118976220Y-56906619D01*
X118884898Y-56935238D01*
X118791651Y-56964460D01*
X118791650Y-56964461D01*
X118785560Y-56966369D01*
X118610809Y-57063235D01*
X118605960Y-57067391D01*
X118507428Y-57151843D01*
X118459104Y-57193261D01*
X118455197Y-57198298D01*
X118455195Y-57198300D01*
X118340555Y-57346093D01*
X118340553Y-57346096D01*
X118336643Y-57351137D01*
X118248429Y-57530411D01*
X118198065Y-57723762D01*
X118197731Y-57730142D01*
X118190405Y-57869931D01*
X118187608Y-57923292D01*
X115861480Y-57923292D01*
X115885123Y-57874056D01*
X115887198Y-57869931D01*
X116013878Y-57629152D01*
X116345648Y-56998562D01*
X116347869Y-56994520D01*
X116365120Y-56964460D01*
X116837965Y-56140494D01*
X116840337Y-56136531D01*
X117361388Y-55301053D01*
X117363903Y-55297181D01*
X117915198Y-54481389D01*
X117917853Y-54477610D01*
X117991150Y-54377279D01*
X118498710Y-53682515D01*
X118501497Y-53678843D01*
X118513336Y-53663826D01*
X118606182Y-53546051D01*
X119917428Y-53546051D01*
X119918701Y-53554940D01*
X119936706Y-53680661D01*
X119938077Y-53690237D01*
X119941791Y-53698405D01*
X119941791Y-53698406D01*
X119970801Y-53762210D01*
X119998364Y-53822833D01*
X120003311Y-53828986D01*
X120003313Y-53828989D01*
X120013121Y-53841187D01*
X120037557Y-53871579D01*
X121378421Y-55212443D01*
X121381083Y-55214583D01*
X121421011Y-55246687D01*
X121421014Y-55246689D01*
X121427167Y-55251636D01*
X121434355Y-55254904D01*
X121531567Y-55299103D01*
X121559763Y-55311923D01*
X121568646Y-55313195D01*
X121568649Y-55313196D01*
X121695060Y-55331299D01*
X121703949Y-55332572D01*
X121712838Y-55331299D01*
X121839249Y-55313196D01*
X121839252Y-55313195D01*
X121848135Y-55311923D01*
X121876332Y-55299103D01*
X121973543Y-55254904D01*
X121980731Y-55251636D01*
X121986884Y-55246689D01*
X121986887Y-55246687D01*
X122026815Y-55214583D01*
X122029477Y-55212443D01*
X123241920Y-54000000D01*
X144586496Y-54000000D01*
X144606458Y-54189928D01*
X144665473Y-54371556D01*
X144760960Y-54536944D01*
X144888747Y-54678866D01*
X145043248Y-54791118D01*
X145049276Y-54793802D01*
X145049278Y-54793803D01*
X145199649Y-54860752D01*
X145217712Y-54868794D01*
X145311112Y-54888647D01*
X145398056Y-54907128D01*
X145398061Y-54907128D01*
X145404513Y-54908500D01*
X145595487Y-54908500D01*
X145601939Y-54907128D01*
X145601944Y-54907128D01*
X145688887Y-54888647D01*
X145782288Y-54868794D01*
X145800351Y-54860752D01*
X145950722Y-54793803D01*
X145950724Y-54793802D01*
X145956752Y-54791118D01*
X146111253Y-54678866D01*
X146239040Y-54536944D01*
X146334527Y-54371556D01*
X146393542Y-54189928D01*
X146413504Y-54000000D01*
X146402192Y-53892369D01*
X146394232Y-53816635D01*
X146394232Y-53816633D01*
X146393542Y-53810072D01*
X146334527Y-53628444D01*
X146324223Y-53610596D01*
X146292089Y-53554940D01*
X146239040Y-53463056D01*
X146191945Y-53410751D01*
X146115675Y-53326045D01*
X146115674Y-53326044D01*
X146111253Y-53321134D01*
X146012157Y-53249136D01*
X145962094Y-53212763D01*
X145962093Y-53212762D01*
X145956752Y-53208882D01*
X145950724Y-53206198D01*
X145950722Y-53206197D01*
X145788319Y-53133891D01*
X145788318Y-53133891D01*
X145782288Y-53131206D01*
X145688887Y-53111353D01*
X145601944Y-53092872D01*
X145601939Y-53092872D01*
X145595487Y-53091500D01*
X145404513Y-53091500D01*
X145398061Y-53092872D01*
X145398056Y-53092872D01*
X145311113Y-53111353D01*
X145217712Y-53131206D01*
X145211682Y-53133891D01*
X145211681Y-53133891D01*
X145049278Y-53206197D01*
X145049276Y-53206198D01*
X145043248Y-53208882D01*
X145037907Y-53212762D01*
X145037906Y-53212763D01*
X144987843Y-53249136D01*
X144888747Y-53321134D01*
X144884326Y-53326044D01*
X144884325Y-53326045D01*
X144808056Y-53410751D01*
X144760960Y-53463056D01*
X144707911Y-53554940D01*
X144675778Y-53610596D01*
X144665473Y-53628444D01*
X144606458Y-53810072D01*
X144605768Y-53816633D01*
X144605768Y-53816635D01*
X144597808Y-53892369D01*
X144586496Y-54000000D01*
X123241920Y-54000000D01*
X123370341Y-53871579D01*
X123394777Y-53841187D01*
X123404585Y-53828989D01*
X123404587Y-53828986D01*
X123409534Y-53822833D01*
X123437097Y-53762210D01*
X123466107Y-53698406D01*
X123466107Y-53698405D01*
X123469821Y-53690237D01*
X123471193Y-53680661D01*
X123489197Y-53554940D01*
X123490470Y-53546051D01*
X123477899Y-53458271D01*
X123471094Y-53410751D01*
X123471093Y-53410748D01*
X123469821Y-53401865D01*
X123466107Y-53393696D01*
X123466106Y-53393692D01*
X123441612Y-53339820D01*
X123431626Y-53269529D01*
X123461227Y-53204998D01*
X123521017Y-53166715D01*
X123553817Y-53162640D01*
X123553784Y-53161917D01*
X123558949Y-53161683D01*
X123564113Y-53161872D01*
X123569233Y-53161216D01*
X123569235Y-53161216D01*
X123642270Y-53151860D01*
X123793847Y-53132442D01*
X123798795Y-53130957D01*
X123798802Y-53130956D01*
X124010747Y-53067369D01*
X124015690Y-53065886D01*
X124020324Y-53063616D01*
X124219049Y-52966262D01*
X124219052Y-52966260D01*
X124223684Y-52963991D01*
X124412243Y-52829494D01*
X124576303Y-52666005D01*
X124711458Y-52477917D01*
X124717939Y-52464805D01*
X124811784Y-52274922D01*
X124811785Y-52274920D01*
X124814078Y-52270280D01*
X124881408Y-52048671D01*
X124911640Y-51819041D01*
X124911722Y-51815691D01*
X124913245Y-51753365D01*
X124913245Y-51753361D01*
X124913327Y-51750000D01*
X124907032Y-51673434D01*
X124894773Y-51524318D01*
X124894772Y-51524312D01*
X124894349Y-51519167D01*
X124837925Y-51294533D01*
X124835866Y-51289797D01*
X124747630Y-51086868D01*
X124747628Y-51086865D01*
X124745570Y-51082131D01*
X124692437Y-51000000D01*
X135486835Y-51000000D01*
X135505465Y-51236711D01*
X135506619Y-51241518D01*
X135506620Y-51241524D01*
X135520550Y-51299544D01*
X135560895Y-51467594D01*
X135562788Y-51472165D01*
X135562789Y-51472167D01*
X135584911Y-51525573D01*
X135651760Y-51686963D01*
X135654346Y-51691183D01*
X135773241Y-51885202D01*
X135773245Y-51885208D01*
X135775824Y-51889416D01*
X135930031Y-52069969D01*
X136110584Y-52224176D01*
X136114792Y-52226755D01*
X136114798Y-52226759D01*
X136308817Y-52345654D01*
X136313037Y-52348240D01*
X136317607Y-52350133D01*
X136317611Y-52350135D01*
X136527833Y-52437211D01*
X136532406Y-52439105D01*
X136612609Y-52458360D01*
X136758476Y-52493380D01*
X136758482Y-52493381D01*
X136763289Y-52494535D01*
X137000000Y-52513165D01*
X137236711Y-52494535D01*
X137241518Y-52493381D01*
X137241524Y-52493380D01*
X137387391Y-52458360D01*
X137467594Y-52439105D01*
X137472167Y-52437211D01*
X137682389Y-52350135D01*
X137682393Y-52350133D01*
X137686963Y-52348240D01*
X137691183Y-52345654D01*
X137885202Y-52226759D01*
X137885208Y-52226755D01*
X137889416Y-52224176D01*
X138069969Y-52069969D01*
X138224176Y-51889416D01*
X138226755Y-51885208D01*
X138226759Y-51885202D01*
X138249287Y-51848439D01*
X154561918Y-51848439D01*
X154563191Y-51857328D01*
X154575990Y-51946697D01*
X154582567Y-51992625D01*
X154586281Y-52000793D01*
X154586281Y-52000794D01*
X154605718Y-52043544D01*
X154642854Y-52125221D01*
X154647801Y-52131374D01*
X154647803Y-52131377D01*
X154662672Y-52149870D01*
X154682047Y-52173967D01*
X156022911Y-53514831D01*
X156025573Y-53516971D01*
X156065501Y-53549075D01*
X156065504Y-53549077D01*
X156071657Y-53554024D01*
X156204253Y-53614311D01*
X156213136Y-53615583D01*
X156213139Y-53615584D01*
X156339550Y-53633687D01*
X156348439Y-53634960D01*
X156357328Y-53633687D01*
X156483739Y-53615584D01*
X156483742Y-53615583D01*
X156492625Y-53614311D01*
X156500794Y-53610597D01*
X156500797Y-53610596D01*
X156558367Y-53584421D01*
X156628657Y-53574435D01*
X156693189Y-53604036D01*
X156731472Y-53663826D01*
X156736308Y-53691867D01*
X156744917Y-53841187D01*
X156746054Y-53846233D01*
X156746055Y-53846239D01*
X156778231Y-53989013D01*
X156795836Y-54067132D01*
X156797778Y-54071914D01*
X156797779Y-54071918D01*
X156870476Y-54250949D01*
X156882974Y-54281727D01*
X157003991Y-54479209D01*
X157155637Y-54654274D01*
X157333839Y-54802220D01*
X157533812Y-54919074D01*
X157750184Y-55001699D01*
X157755250Y-55002730D01*
X157755251Y-55002730D01*
X157808336Y-55013530D01*
X157977146Y-55047875D01*
X158107814Y-55052666D01*
X158203439Y-55056173D01*
X158203443Y-55056173D01*
X158208603Y-55056362D01*
X158213723Y-55055706D01*
X158213725Y-55055706D01*
X158286760Y-55046350D01*
X158438337Y-55026932D01*
X158443285Y-55025447D01*
X158443292Y-55025446D01*
X158655237Y-54961859D01*
X158660180Y-54960376D01*
X158740726Y-54920917D01*
X158863539Y-54860752D01*
X158863542Y-54860750D01*
X158868174Y-54858481D01*
X159056733Y-54723984D01*
X159220793Y-54560495D01*
X159355948Y-54372407D01*
X159403131Y-54276940D01*
X159456274Y-54169412D01*
X159456275Y-54169410D01*
X159458568Y-54164770D01*
X159525898Y-53943161D01*
X159556130Y-53713531D01*
X159557817Y-53644490D01*
X159547157Y-53514831D01*
X159539263Y-53418808D01*
X159539262Y-53418802D01*
X159538839Y-53413657D01*
X159490327Y-53220523D01*
X159483674Y-53194034D01*
X159483673Y-53194030D01*
X159482415Y-53189023D01*
X159472715Y-53166715D01*
X159392120Y-52981358D01*
X159392118Y-52981355D01*
X159390060Y-52976621D01*
X159264254Y-52782155D01*
X159108377Y-52610848D01*
X159104326Y-52607649D01*
X159104322Y-52607645D01*
X158930667Y-52470501D01*
X158930662Y-52470498D01*
X158926613Y-52467300D01*
X158922097Y-52464807D01*
X158922094Y-52464805D01*
X158728369Y-52357863D01*
X158728365Y-52357861D01*
X158723845Y-52355366D01*
X158718976Y-52353642D01*
X158718972Y-52353640D01*
X158510393Y-52279778D01*
X158510389Y-52279777D01*
X158505518Y-52278052D01*
X158500425Y-52277145D01*
X158500422Y-52277144D01*
X158282585Y-52238341D01*
X158282579Y-52238340D01*
X158277496Y-52237435D01*
X158243629Y-52237021D01*
X158197605Y-52236459D01*
X158129733Y-52215626D01*
X158083900Y-52161406D01*
X158074655Y-52091014D01*
X158084443Y-52058317D01*
X158110597Y-52000794D01*
X158110597Y-52000793D01*
X158114311Y-51992625D01*
X158120889Y-51946697D01*
X158133687Y-51857328D01*
X158134960Y-51848439D01*
X158129248Y-51808551D01*
X158115584Y-51713139D01*
X158115583Y-51713136D01*
X158114311Y-51704253D01*
X158054024Y-51571657D01*
X158049077Y-51565504D01*
X158049075Y-51565501D01*
X158016971Y-51525573D01*
X158014831Y-51522911D01*
X156673967Y-50182047D01*
X156657231Y-50168591D01*
X156631377Y-50147803D01*
X156631374Y-50147801D01*
X156625221Y-50142854D01*
X156517492Y-50093873D01*
X156500794Y-50086281D01*
X156500793Y-50086281D01*
X156492625Y-50082567D01*
X156483742Y-50081295D01*
X156483739Y-50081294D01*
X156357328Y-50063191D01*
X156348439Y-50061918D01*
X156339550Y-50063191D01*
X156213139Y-50081294D01*
X156213136Y-50081295D01*
X156204253Y-50082567D01*
X156196085Y-50086281D01*
X156196084Y-50086281D01*
X156179386Y-50093873D01*
X156071657Y-50142854D01*
X156065504Y-50147801D01*
X156065501Y-50147803D01*
X156039647Y-50168591D01*
X156022911Y-50182047D01*
X154682047Y-51522911D01*
X154679907Y-51525573D01*
X154647803Y-51565501D01*
X154647801Y-51565504D01*
X154642854Y-51571657D01*
X154582567Y-51704253D01*
X154581295Y-51713136D01*
X154581294Y-51713139D01*
X154567630Y-51808551D01*
X154561918Y-51848439D01*
X138249287Y-51848439D01*
X138345654Y-51691183D01*
X138348240Y-51686963D01*
X138415090Y-51525573D01*
X138437211Y-51472167D01*
X138437212Y-51472165D01*
X138439105Y-51467594D01*
X138479450Y-51299544D01*
X138493380Y-51241524D01*
X138493381Y-51241518D01*
X138494535Y-51236711D01*
X138513165Y-51000000D01*
X138494535Y-50763289D01*
X138482552Y-50713373D01*
X138458360Y-50612609D01*
X138439105Y-50532406D01*
X138437211Y-50527833D01*
X138350135Y-50317611D01*
X138350133Y-50317607D01*
X138348240Y-50313037D01*
X138345654Y-50308817D01*
X138226759Y-50114798D01*
X138226755Y-50114792D01*
X138224176Y-50110584D01*
X138069969Y-49930031D01*
X137889416Y-49775824D01*
X137885208Y-49773245D01*
X137885202Y-49773241D01*
X137691183Y-49654346D01*
X137686963Y-49651760D01*
X137682393Y-49649867D01*
X137682389Y-49649865D01*
X137472167Y-49562789D01*
X137472165Y-49562788D01*
X137467594Y-49560895D01*
X137387391Y-49541640D01*
X137241524Y-49506620D01*
X137241518Y-49506619D01*
X137236711Y-49505465D01*
X137000000Y-49486835D01*
X136763289Y-49505465D01*
X136758482Y-49506619D01*
X136758476Y-49506620D01*
X136612609Y-49541640D01*
X136532406Y-49560895D01*
X136527835Y-49562788D01*
X136527833Y-49562789D01*
X136317611Y-49649865D01*
X136317607Y-49649867D01*
X136313037Y-49651760D01*
X136308817Y-49654346D01*
X136114798Y-49773241D01*
X136114792Y-49773245D01*
X136110584Y-49775824D01*
X135930031Y-49930031D01*
X135775824Y-50110584D01*
X135773245Y-50114792D01*
X135773241Y-50114798D01*
X135654346Y-50308817D01*
X135651760Y-50313037D01*
X135649867Y-50317607D01*
X135649865Y-50317611D01*
X135562789Y-50527833D01*
X135560895Y-50532406D01*
X135541640Y-50612609D01*
X135517449Y-50713373D01*
X135505465Y-50763289D01*
X135486835Y-51000000D01*
X124692437Y-51000000D01*
X124619764Y-50887665D01*
X124463887Y-50716358D01*
X124459836Y-50713159D01*
X124459832Y-50713155D01*
X124286177Y-50576011D01*
X124286172Y-50576008D01*
X124282123Y-50572810D01*
X124277607Y-50570317D01*
X124277604Y-50570315D01*
X124083879Y-50463373D01*
X124083875Y-50463371D01*
X124079355Y-50460876D01*
X124074486Y-50459152D01*
X124074482Y-50459150D01*
X123865903Y-50385288D01*
X123865899Y-50385287D01*
X123861028Y-50383562D01*
X123855935Y-50382655D01*
X123855932Y-50382654D01*
X123638095Y-50343851D01*
X123638089Y-50343850D01*
X123633006Y-50342945D01*
X123560096Y-50342054D01*
X123406581Y-50340179D01*
X123406579Y-50340179D01*
X123401411Y-50340116D01*
X123172464Y-50375150D01*
X122952314Y-50447106D01*
X122947726Y-50449494D01*
X122947722Y-50449496D01*
X122779210Y-50537218D01*
X122746872Y-50554052D01*
X122742739Y-50557155D01*
X122742736Y-50557157D01*
X122717625Y-50576011D01*
X122561655Y-50693117D01*
X122401639Y-50860564D01*
X122398725Y-50864836D01*
X122398724Y-50864837D01*
X122383152Y-50887665D01*
X122271119Y-51051899D01*
X122173602Y-51261981D01*
X122111707Y-51485169D01*
X122089691Y-51691183D01*
X122087975Y-51707239D01*
X122060847Y-51772849D01*
X122002555Y-51813377D01*
X121931605Y-51815956D01*
X121910537Y-51808551D01*
X121856305Y-51783893D01*
X121856301Y-51783892D01*
X121848135Y-51780179D01*
X121839252Y-51778907D01*
X121839249Y-51778906D01*
X121712838Y-51760803D01*
X121703949Y-51759530D01*
X121695060Y-51760803D01*
X121568649Y-51778906D01*
X121568646Y-51778907D01*
X121559763Y-51780179D01*
X121427167Y-51840466D01*
X121421014Y-51845413D01*
X121421011Y-51845415D01*
X121406195Y-51857328D01*
X121378421Y-51879659D01*
X120037557Y-53220523D01*
X120035417Y-53223185D01*
X120003313Y-53263113D01*
X120003311Y-53263116D01*
X119998364Y-53269269D01*
X119938077Y-53401865D01*
X119936805Y-53410748D01*
X119936804Y-53410751D01*
X119929999Y-53458271D01*
X119917428Y-53546051D01*
X118606182Y-53546051D01*
X119111083Y-52905586D01*
X119114007Y-52902015D01*
X119751508Y-52151629D01*
X119754562Y-52148165D01*
X120419136Y-51421638D01*
X120422315Y-51418288D01*
X121113062Y-50716604D01*
X121116361Y-50713373D01*
X121681472Y-50179907D01*
X121832377Y-50037453D01*
X121835754Y-50034379D01*
X122576117Y-49385099D01*
X122579605Y-49382153D01*
X122704219Y-49280702D01*
X123343155Y-48760526D01*
X123346788Y-48757676D01*
X124132663Y-48164400D01*
X124136399Y-48161686D01*
X124177868Y-48132703D01*
X128390743Y-48132703D01*
X128391302Y-48136947D01*
X128391302Y-48136951D01*
X128394733Y-48163013D01*
X128428268Y-48417734D01*
X128504129Y-48695036D01*
X128616923Y-48959476D01*
X128628693Y-48979142D01*
X128761390Y-49200862D01*
X128764561Y-49206161D01*
X128944313Y-49430528D01*
X129152851Y-49628423D01*
X129386317Y-49796186D01*
X129390112Y-49798195D01*
X129390113Y-49798196D01*
X129411869Y-49809715D01*
X129640392Y-49930712D01*
X129910373Y-50029511D01*
X130191264Y-50090755D01*
X130219841Y-50093004D01*
X130414282Y-50108307D01*
X130414291Y-50108307D01*
X130416739Y-50108500D01*
X130572271Y-50108500D01*
X130574407Y-50108354D01*
X130574418Y-50108354D01*
X130782548Y-50094165D01*
X130782554Y-50094164D01*
X130786825Y-50093873D01*
X130791020Y-50093004D01*
X130791022Y-50093004D01*
X131059244Y-50037458D01*
X131068342Y-50035574D01*
X131339343Y-49939607D01*
X131594812Y-49807750D01*
X131598313Y-49805289D01*
X131598317Y-49805287D01*
X131712418Y-49725095D01*
X131830023Y-49642441D01*
X131976184Y-49506620D01*
X132037479Y-49449661D01*
X132037481Y-49449658D01*
X132040622Y-49446740D01*
X132222713Y-49224268D01*
X132372927Y-48979142D01*
X132488483Y-48715898D01*
X132567244Y-48439406D01*
X132597515Y-48226704D01*
X132607146Y-48159036D01*
X132607146Y-48159034D01*
X132607751Y-48154784D01*
X132607845Y-48136951D01*
X132609235Y-47871583D01*
X132609235Y-47871576D01*
X132609257Y-47867297D01*
X132571732Y-47582266D01*
X132495871Y-47304964D01*
X132465035Y-47232670D01*
X146132160Y-47232670D01*
X146137887Y-47240320D01*
X146309042Y-47345205D01*
X146317837Y-47349687D01*
X146527988Y-47436734D01*
X146537373Y-47439783D01*
X146758554Y-47492885D01*
X146768301Y-47494428D01*
X146995070Y-47512275D01*
X147004930Y-47512275D01*
X147231699Y-47494428D01*
X147241446Y-47492885D01*
X147462627Y-47439783D01*
X147472012Y-47436734D01*
X147682163Y-47349687D01*
X147690958Y-47345205D01*
X147858445Y-47242568D01*
X147867907Y-47232110D01*
X147864124Y-47223334D01*
X147012812Y-46372022D01*
X146998868Y-46364408D01*
X146997035Y-46364539D01*
X146990420Y-46368790D01*
X146138920Y-47220290D01*
X146132160Y-47232670D01*
X132465035Y-47232670D01*
X132383077Y-47040524D01*
X132288467Y-46882442D01*
X132237643Y-46797521D01*
X132237640Y-46797517D01*
X132235439Y-46793839D01*
X132055687Y-46569472D01*
X131927823Y-46448134D01*
X137341500Y-46448134D01*
X137348255Y-46510316D01*
X137399385Y-46646705D01*
X137486739Y-46763261D01*
X137603295Y-46850615D01*
X137739684Y-46901745D01*
X137801866Y-46908500D01*
X139698134Y-46908500D01*
X139760316Y-46901745D01*
X139896705Y-46850615D01*
X140013261Y-46763261D01*
X140100615Y-46646705D01*
X140125180Y-46581178D01*
X140167822Y-46524414D01*
X140234383Y-46499714D01*
X140303732Y-46514921D01*
X140323647Y-46528464D01*
X140388724Y-46582492D01*
X140479349Y-46657730D01*
X140679322Y-46774584D01*
X140684147Y-46776426D01*
X140684148Y-46776427D01*
X140739388Y-46797521D01*
X140895694Y-46857209D01*
X140900760Y-46858240D01*
X140900761Y-46858240D01*
X140919798Y-46862113D01*
X141122656Y-46903385D01*
X141252089Y-46908131D01*
X141348949Y-46911683D01*
X141348953Y-46911683D01*
X141354113Y-46911872D01*
X141359233Y-46911216D01*
X141359235Y-46911216D01*
X141433166Y-46901745D01*
X141583847Y-46882442D01*
X141588795Y-46880957D01*
X141588802Y-46880956D01*
X141800747Y-46817369D01*
X141805690Y-46815886D01*
X141887655Y-46775732D01*
X142009049Y-46716262D01*
X142009052Y-46716260D01*
X142013684Y-46713991D01*
X142202243Y-46579494D01*
X142366303Y-46416005D01*
X142501458Y-46227917D01*
X142512132Y-46206321D01*
X142601784Y-46024922D01*
X142601785Y-46024920D01*
X142604078Y-46020280D01*
X142608742Y-46004930D01*
X145487725Y-46004930D01*
X145505572Y-46231699D01*
X145507115Y-46241446D01*
X145560217Y-46462627D01*
X145563266Y-46472012D01*
X145650313Y-46682163D01*
X145654795Y-46690958D01*
X145757432Y-46858445D01*
X145767890Y-46867907D01*
X145776666Y-46864124D01*
X146627978Y-46012812D01*
X146634356Y-46001132D01*
X147364408Y-46001132D01*
X147364539Y-46002965D01*
X147368790Y-46009580D01*
X148220290Y-46861080D01*
X148232670Y-46867840D01*
X148240320Y-46862113D01*
X148345205Y-46690958D01*
X148349687Y-46682163D01*
X148436734Y-46472012D01*
X148439783Y-46462627D01*
X148492885Y-46241446D01*
X148494428Y-46231699D01*
X148512275Y-46004930D01*
X148512275Y-45995070D01*
X148494428Y-45768301D01*
X148492885Y-45758554D01*
X148439783Y-45537373D01*
X148436734Y-45527988D01*
X148349687Y-45317837D01*
X148345205Y-45309042D01*
X148242568Y-45141555D01*
X148232110Y-45132093D01*
X148223334Y-45135876D01*
X147372022Y-45987188D01*
X147364408Y-46001132D01*
X146634356Y-46001132D01*
X146635592Y-45998868D01*
X146635461Y-45997035D01*
X146631210Y-45990420D01*
X145779710Y-45138920D01*
X145767330Y-45132160D01*
X145759680Y-45137887D01*
X145654795Y-45309042D01*
X145650313Y-45317837D01*
X145563266Y-45527988D01*
X145560217Y-45537373D01*
X145507115Y-45758554D01*
X145505572Y-45768301D01*
X145487725Y-45995070D01*
X145487725Y-46004930D01*
X142608742Y-46004930D01*
X142671408Y-45798671D01*
X142701640Y-45569041D01*
X142703327Y-45500000D01*
X142697032Y-45423434D01*
X142684773Y-45274318D01*
X142684772Y-45274312D01*
X142684349Y-45269167D01*
X142649935Y-45132160D01*
X142629184Y-45049544D01*
X142629183Y-45049540D01*
X142627925Y-45044533D01*
X142625866Y-45039797D01*
X142537630Y-44836868D01*
X142537628Y-44836865D01*
X142535570Y-44832131D01*
X142494011Y-44767890D01*
X146132093Y-44767890D01*
X146135876Y-44776666D01*
X146987188Y-45627978D01*
X147001132Y-45635592D01*
X147002965Y-45635461D01*
X147009580Y-45631210D01*
X147861080Y-44779710D01*
X147867840Y-44767330D01*
X147862113Y-44759680D01*
X147690958Y-44654795D01*
X147682163Y-44650313D01*
X147472012Y-44563266D01*
X147462627Y-44560217D01*
X147241446Y-44507115D01*
X147231699Y-44505572D01*
X147004930Y-44487725D01*
X146995070Y-44487725D01*
X146768301Y-44505572D01*
X146758554Y-44507115D01*
X146537373Y-44560217D01*
X146527988Y-44563266D01*
X146317837Y-44650313D01*
X146309042Y-44654795D01*
X146141555Y-44757432D01*
X146132093Y-44767890D01*
X142494011Y-44767890D01*
X142409764Y-44637665D01*
X142253887Y-44466358D01*
X142249836Y-44463159D01*
X142249832Y-44463155D01*
X142076177Y-44326011D01*
X142076172Y-44326008D01*
X142072123Y-44322810D01*
X142067607Y-44320317D01*
X142067604Y-44320315D01*
X141873879Y-44213373D01*
X141873875Y-44213371D01*
X141869355Y-44210876D01*
X141864486Y-44209152D01*
X141864482Y-44209150D01*
X141655903Y-44135288D01*
X141655899Y-44135287D01*
X141651028Y-44133562D01*
X141645935Y-44132655D01*
X141645932Y-44132654D01*
X141428095Y-44093851D01*
X141428089Y-44093850D01*
X141423006Y-44092945D01*
X141350096Y-44092054D01*
X141196581Y-44090179D01*
X141196579Y-44090179D01*
X141191411Y-44090116D01*
X140962464Y-44125150D01*
X140742314Y-44197106D01*
X140737726Y-44199494D01*
X140737722Y-44199496D01*
X140562089Y-44290925D01*
X140536872Y-44304052D01*
X140532739Y-44307155D01*
X140532736Y-44307157D01*
X140355790Y-44440012D01*
X140351655Y-44443117D01*
X140334170Y-44461414D01*
X140272646Y-44496844D01*
X140201733Y-44493387D01*
X140143947Y-44452141D01*
X140125094Y-44418592D01*
X140103768Y-44361705D01*
X140103767Y-44361703D01*
X140100615Y-44353295D01*
X140013261Y-44236739D01*
X139896705Y-44149385D01*
X139760316Y-44098255D01*
X139698134Y-44091500D01*
X137801866Y-44091500D01*
X137739684Y-44098255D01*
X137603295Y-44149385D01*
X137486739Y-44236739D01*
X137399385Y-44353295D01*
X137348255Y-44489684D01*
X137341500Y-44551866D01*
X137341500Y-46448134D01*
X131927823Y-46448134D01*
X131894272Y-46416295D01*
X131850258Y-46374527D01*
X131850255Y-46374525D01*
X131847149Y-46371577D01*
X131613683Y-46203814D01*
X131591843Y-46192250D01*
X131568654Y-46179972D01*
X131359608Y-46069288D01*
X131196448Y-46009580D01*
X131093658Y-45971964D01*
X131093656Y-45971963D01*
X131089627Y-45970489D01*
X130808736Y-45909245D01*
X130777685Y-45906801D01*
X130585718Y-45891693D01*
X130585709Y-45891693D01*
X130583261Y-45891500D01*
X130427729Y-45891500D01*
X130425593Y-45891646D01*
X130425582Y-45891646D01*
X130217452Y-45905835D01*
X130217446Y-45905836D01*
X130213175Y-45906127D01*
X130208980Y-45906996D01*
X130208978Y-45906996D01*
X130072417Y-45935276D01*
X129931658Y-45964426D01*
X129660657Y-46060393D01*
X129405188Y-46192250D01*
X129401687Y-46194711D01*
X129401683Y-46194713D01*
X129348464Y-46232116D01*
X129169977Y-46357559D01*
X129154892Y-46371577D01*
X128986062Y-46528464D01*
X128959378Y-46553260D01*
X128777287Y-46775732D01*
X128627073Y-47020858D01*
X128625347Y-47024791D01*
X128625346Y-47024792D01*
X128538192Y-47223334D01*
X128511517Y-47284102D01*
X128432756Y-47560594D01*
X128392249Y-47845216D01*
X128392227Y-47849505D01*
X128392226Y-47849512D01*
X128391455Y-47996769D01*
X128390743Y-48132703D01*
X124177868Y-48132703D01*
X124943445Y-47597635D01*
X124947278Y-47595059D01*
X124960500Y-47586522D01*
X125774481Y-47060941D01*
X125778406Y-47058508D01*
X126624592Y-46555081D01*
X126628603Y-46552793D01*
X127223232Y-46227917D01*
X127492689Y-46080699D01*
X127496774Y-46078563D01*
X127515337Y-46069288D01*
X128377579Y-45638450D01*
X128381747Y-45636462D01*
X129278081Y-45228923D01*
X129282319Y-45227089D01*
X129409582Y-45174765D01*
X130193010Y-44852659D01*
X130197280Y-44850994D01*
X131121075Y-44510188D01*
X131125398Y-44508683D01*
X131933057Y-44243919D01*
X132061068Y-44201955D01*
X132065482Y-44200597D01*
X133011745Y-43928366D01*
X133016206Y-43927171D01*
X133123501Y-43900519D01*
X133546720Y-43795391D01*
X133971788Y-43689804D01*
X133976289Y-43688773D01*
X134939952Y-43486576D01*
X134944488Y-43485711D01*
X135676027Y-43360009D01*
X135914888Y-43318965D01*
X135919437Y-43318268D01*
X136315120Y-43265121D01*
X136895347Y-43187187D01*
X136899934Y-43186657D01*
X137514464Y-43126943D01*
X137879923Y-43091431D01*
X137884512Y-43091070D01*
X138867416Y-43031814D01*
X138871990Y-43031623D01*
X139856383Y-43008424D01*
X139860969Y-43008400D01*
X140388733Y-43015309D01*
G37*
%TD.AperFunction*%
%TD*%
M02*
