%TF.GenerationSoftware,KiCad,Pcbnew,(6.0.1)*%
%TF.CreationDate,2022-07-03T20:59:54-07:00*%
%TF.ProjectId,EmitterDriverV2,456d6974-7465-4724-9472-697665725632,rev?*%
%TF.SameCoordinates,Original*%
%TF.FileFunction,Copper,L4,Bot*%
%TF.FilePolarity,Positive*%
%FSLAX46Y46*%
G04 Gerber Fmt 4.6, Leading zero omitted, Abs format (unit mm)*
G04 Created by KiCad (PCBNEW (6.0.1)) date 2022-07-03 20:59:54*
%MOMM*%
%LPD*%
G01*
G04 APERTURE LIST*
G04 Aperture macros list*
%AMRoundRect*
0 Rectangle with rounded corners*
0 $1 Rounding radius*
0 $2 $3 $4 $5 $6 $7 $8 $9 X,Y pos of 4 corners*
0 Add a 4 corners polygon primitive as box body*
4,1,4,$2,$3,$4,$5,$6,$7,$8,$9,$2,$3,0*
0 Add four circle primitives for the rounded corners*
1,1,$1+$1,$2,$3*
1,1,$1+$1,$4,$5*
1,1,$1+$1,$6,$7*
1,1,$1+$1,$8,$9*
0 Add four rect primitives between the rounded corners*
20,1,$1+$1,$2,$3,$4,$5,0*
20,1,$1+$1,$4,$5,$6,$7,0*
20,1,$1+$1,$6,$7,$8,$9,0*
20,1,$1+$1,$8,$9,$2,$3,0*%
%AMRotRect*
0 Rectangle, with rotation*
0 The origin of the aperture is its center*
0 $1 length*
0 $2 width*
0 $3 Rotation angle, in degrees counterclockwise*
0 Add horizontal line*
21,1,$1,$2,0,0,$3*%
G04 Aperture macros list end*
%TA.AperFunction,ComponentPad*%
%ADD10R,1.600000X1.600000*%
%TD*%
%TA.AperFunction,ComponentPad*%
%ADD11C,1.600000*%
%TD*%
%TA.AperFunction,ComponentPad*%
%ADD12C,1.800000*%
%TD*%
%TA.AperFunction,ComponentPad*%
%ADD13RotRect,1.800000X1.800000X45.000000*%
%TD*%
%TA.AperFunction,ComponentPad*%
%ADD14C,2.000000*%
%TD*%
%TA.AperFunction,ComponentPad*%
%ADD15RoundRect,0.248400X-0.651600X0.651600X-0.651600X-0.651600X0.651600X-0.651600X0.651600X0.651600X0*%
%TD*%
%TA.AperFunction,ComponentPad*%
%ADD16RoundRect,0.248400X-0.651600X-0.651600X0.651600X-0.651600X0.651600X0.651600X-0.651600X0.651600X0*%
%TD*%
%TA.AperFunction,ComponentPad*%
%ADD17RoundRect,0.248400X0.651600X-0.651600X0.651600X0.651600X-0.651600X0.651600X-0.651600X-0.651600X0*%
%TD*%
%TA.AperFunction,ComponentPad*%
%ADD18RoundRect,0.248400X0.651600X0.651600X-0.651600X0.651600X-0.651600X-0.651600X0.651600X-0.651600X0*%
%TD*%
%TA.AperFunction,ComponentPad*%
%ADD19R,1.800000X1.800000*%
%TD*%
%TA.AperFunction,ComponentPad*%
%ADD20RotRect,1.800000X1.800000X135.000000*%
%TD*%
%TA.AperFunction,ComponentPad*%
%ADD21RotRect,1.800000X1.800000X315.000000*%
%TD*%
%TA.AperFunction,ComponentPad*%
%ADD22RotRect,1.800000X1.800000X225.000000*%
%TD*%
%TA.AperFunction,ComponentPad*%
%ADD23O,1.250000X0.950000*%
%TD*%
%TA.AperFunction,ComponentPad*%
%ADD24R,1.250000X0.950000*%
%TD*%
%TA.AperFunction,ComponentPad*%
%ADD25C,1.750000*%
%TD*%
%TA.AperFunction,ComponentPad*%
%ADD26R,1.750000X1.750000*%
%TD*%
%TA.AperFunction,ViaPad*%
%ADD27C,0.800000*%
%TD*%
%TA.AperFunction,Conductor*%
%ADD28C,0.254000*%
%TD*%
%TA.AperFunction,Conductor*%
%ADD29C,0.635000*%
%TD*%
G04 APERTURE END LIST*
D10*
%TO.P,C2,1*%
%TO.N,+BATT*%
X158750000Y-78500000D03*
D11*
%TO.P,C2,2*%
%TO.N,GND*%
X162250000Y-78500000D03*
%TD*%
D12*
%TO.P,D5,2,A*%
%TO.N,Net-(D4-Pad1)*%
X123500000Y-51750000D03*
D13*
%TO.P,D5,1,K*%
%TO.N,Net-(D5-Pad1)*%
X121703949Y-53546051D03*
%TD*%
D14*
%TO.P,TP8,1,1*%
%TO.N,/RX*%
X146000000Y-77000000D03*
%TD*%
%TO.P,TP7,1,1*%
%TO.N,GND*%
X147000000Y-46000000D03*
%TD*%
%TO.P,TP6,1,1*%
%TO.N,Net-(Q5-Pad3)*%
X147500000Y-60500000D03*
%TD*%
%TO.P,TP5,1,1*%
%TO.N,Net-(Q4-Pad3)*%
X134500000Y-79000000D03*
%TD*%
%TO.P,TP4,1,1*%
%TO.N,Net-(D2-Pad1)*%
X137000000Y-51000000D03*
%TD*%
%TO.P,TP3,1,1*%
%TO.N,Net-(D1-Pad1)*%
X130500000Y-70500000D03*
%TD*%
%TO.P,TP2,1,1*%
%TO.N,GND*%
X121500000Y-69750000D03*
%TD*%
%TO.P,TP1,1,1*%
%TO.N,+BATT*%
X149250000Y-85500000D03*
%TD*%
D15*
%TO.P,U4,1,OUT*%
%TO.N,/RX*%
X145000000Y-67460000D03*
D12*
%TO.P,U4,2,GND*%
%TO.N,GND*%
X145000000Y-70000000D03*
%TO.P,U4,3,Vs*%
%TO.N,Net-(C1-Pad1)*%
X145000000Y-72540000D03*
%TD*%
D16*
%TO.P,U3,1,OUT*%
%TO.N,/RX*%
X137460000Y-65000000D03*
D12*
%TO.P,U3,2,GND*%
%TO.N,GND*%
X140000000Y-65000000D03*
%TO.P,U3,3,Vs*%
%TO.N,Net-(C1-Pad1)*%
X142540000Y-65000000D03*
%TD*%
%TO.P,U2,3,Vs*%
%TO.N,Net-(C1-Pad1)*%
X135000000Y-67460000D03*
%TO.P,U2,2,GND*%
%TO.N,GND*%
X135000000Y-70000000D03*
D17*
%TO.P,U2,1,OUT*%
%TO.N,/RX*%
X135000000Y-72540000D03*
%TD*%
D18*
%TO.P,U1,1,OUT*%
%TO.N,/RX*%
X142540000Y-75000000D03*
D12*
%TO.P,U1,2,GND*%
%TO.N,GND*%
X140000000Y-75000000D03*
%TO.P,U1,3,Vs*%
%TO.N,Net-(C1-Pad1)*%
X137460000Y-75000000D03*
%TD*%
D19*
%TO.P,D10,1,K*%
%TO.N,Net-(D10-Pad1)*%
X164500000Y-68710000D03*
D12*
%TO.P,D10,2,A*%
%TO.N,Net-(D10-Pad2)*%
X164500000Y-71250000D03*
%TD*%
%TO.P,D9,2,A*%
%TO.N,Net-(D8-Pad1)*%
X138750000Y-94500000D03*
D19*
%TO.P,D9,1,K*%
%TO.N,Net-(D10-Pad2)*%
X141290000Y-94500000D03*
%TD*%
%TO.P,D8,1,K*%
%TO.N,Net-(D8-Pad1)*%
X115500000Y-71275000D03*
D12*
%TO.P,D8,2,A*%
%TO.N,Net-(D7-Pad1)*%
X115500000Y-68735000D03*
%TD*%
D19*
%TO.P,D7,1,K*%
%TO.N,Net-(D7-Pad1)*%
X138750000Y-45500000D03*
D12*
%TO.P,D7,2,A*%
%TO.N,+BATT*%
X141290000Y-45500000D03*
%TD*%
D20*
%TO.P,D6,1,K*%
%TO.N,Net-(D6-Pad1)*%
X123546051Y-88296051D03*
D12*
%TO.P,D6,2,A*%
%TO.N,Net-(D5-Pad1)*%
X121750000Y-86500000D03*
%TD*%
D21*
%TO.P,D4,1,K*%
%TO.N,Net-(D4-Pad1)*%
X156348439Y-51848439D03*
D12*
%TO.P,D4,2,A*%
%TO.N,Net-(D3-Pad1)*%
X158144490Y-53644490D03*
%TD*%
D22*
%TO.P,D3,1,K*%
%TO.N,Net-(D3-Pad1)*%
X158296051Y-86453949D03*
D12*
%TO.P,D3,2,A*%
%TO.N,+BATT*%
X156500000Y-88250000D03*
%TD*%
D23*
%TO.P,J1,6,Pin_6*%
%TO.N,/RX*%
X119325000Y-57875000D03*
%TO.P,J1,5,Pin_5*%
%TO.N,GND*%
X119325000Y-59125000D03*
%TO.P,J1,4,Pin_4*%
%TO.N,/Mod2*%
X119325000Y-60375000D03*
%TO.P,J1,3,Pin_3*%
%TO.N,/Mod1*%
X119325000Y-61625000D03*
%TO.P,J1,2,Pin_2*%
%TO.N,/PWM*%
X119325000Y-62875000D03*
D24*
%TO.P,J1,1,Pin_1*%
%TO.N,VCC*%
X119325000Y-64125000D03*
%TD*%
D25*
%TO.P,J2,2,Pin_2*%
%TO.N,+BATT*%
X160500000Y-61000000D03*
D26*
%TO.P,J2,1,Pin_1*%
%TO.N,GND*%
X158000000Y-61000000D03*
%TD*%
D27*
%TO.N,GND*%
X155000000Y-75000000D03*
X123000000Y-65250000D03*
%TO.N,Net-(D6-Pad1)*%
X133250000Y-92500000D03*
%TO.N,+BATT*%
X153250000Y-62500000D03*
%TO.N,Net-(C1-Pad1)*%
X128500000Y-75000000D03*
%TO.N,GND*%
X132000000Y-82500000D03*
%TO.N,+BATT*%
X145500000Y-54000000D03*
%TO.N,GND*%
X133003011Y-62000000D03*
X136500000Y-58500000D03*
X135000000Y-57000000D03*
X140000000Y-52000000D03*
X128500000Y-61000000D03*
X129000000Y-65500000D03*
%TD*%
D28*
%TO.N,/RX*%
X144000000Y-75000000D02*
X142540000Y-75000000D01*
X146000000Y-77000000D02*
X144000000Y-75000000D01*
D29*
%TO.N,Net-(D3-Pad1)*%
X160067011Y-84682989D02*
X158296051Y-86453949D01*
X160067011Y-77932989D02*
X160067011Y-84682989D01*
X161892011Y-76107989D02*
X160067011Y-77932989D01*
X161892011Y-57392011D02*
X161892011Y-76107989D01*
X158144490Y-53644490D02*
X161892011Y-57392011D01*
%TO.N,Net-(D4-Pad1)*%
X136604621Y-49250000D02*
X153750000Y-49250000D01*
X153750000Y-49250000D02*
X156348439Y-51848439D01*
X123500000Y-51750000D02*
X134104621Y-51750000D01*
X134104621Y-51750000D02*
X136604621Y-49250000D01*
%TO.N,Net-(D5-Pad1)*%
X118182980Y-57067020D02*
X121703949Y-53546051D01*
X121750000Y-72981043D02*
X118182980Y-69414023D01*
X118182980Y-69414023D02*
X118182980Y-57067020D01*
X121750000Y-86500000D02*
X121750000Y-72981043D01*
%TO.N,Net-(D6-Pad1)*%
X126250000Y-92500000D02*
X123546051Y-89796051D01*
X123546051Y-89796051D02*
X123546051Y-88296051D01*
X133250000Y-92500000D02*
X126250000Y-92500000D01*
%TO.N,Net-(C1-Pad1)*%
X128500000Y-75000000D02*
X137460000Y-75000000D01*
D28*
%TO.N,/RX*%
X142540000Y-70080000D02*
X137460000Y-65000000D01*
X142540000Y-75000000D02*
X142540000Y-70080000D01*
X139920000Y-67460000D02*
X137460000Y-65000000D01*
X145000000Y-67460000D02*
X139920000Y-67460000D01*
X135000000Y-72540000D02*
X137460000Y-70080000D01*
X137460000Y-70080000D02*
X137460000Y-65000000D01*
X130335000Y-57875000D02*
X137460000Y-65000000D01*
X119325000Y-57875000D02*
X130335000Y-57875000D01*
%TD*%
M02*
