%TF.GenerationSoftware,KiCad,Pcbnew,(5.1.10)-1*%
%TF.CreationDate,2021-08-14T12:20:45-07:00*%
%TF.ProjectId,EmitterDriverV2,456d6974-7465-4724-9472-697665725632,rev?*%
%TF.SameCoordinates,Original*%
%TF.FileFunction,Paste,Top*%
%TF.FilePolarity,Positive*%
%FSLAX46Y46*%
G04 Gerber Fmt 4.6, Leading zero omitted, Abs format (unit mm)*
G04 Created by KiCad (PCBNEW (5.1.10)-1) date 2021-08-14 12:20:45*
%MOMM*%
%LPD*%
G01*
G04 APERTURE LIST*
%ADD10R,0.500000X0.600000*%
%ADD11R,0.600000X0.500000*%
%ADD12R,0.900000X0.800000*%
%ADD13R,0.800000X0.900000*%
%ADD14R,2.200000X1.200000*%
%ADD15R,3.050000X2.750000*%
%ADD16R,0.700000X1.300000*%
%ADD17R,1.300000X0.700000*%
%ADD18R,1.550000X0.600000*%
G04 APERTURE END LIST*
D10*
%TO.C,C3*%
X41540000Y-55900000D03*
X41540000Y-57000000D03*
%TD*%
D11*
%TO.C,C4*%
X54700000Y-56100000D03*
X53600000Y-56100000D03*
%TD*%
D12*
%TO.C,D1*%
X53510000Y-50505000D03*
X53510000Y-52405000D03*
X55510000Y-51455000D03*
%TD*%
D13*
%TO.C,D2*%
X55550000Y-45000000D03*
X56500000Y-47000000D03*
X54600000Y-47000000D03*
%TD*%
D12*
%TO.C,Q1*%
X47255000Y-50820000D03*
X45255000Y-51770000D03*
X45255000Y-49870000D03*
%TD*%
%TO.C,Q2*%
X46985000Y-56535000D03*
X44985000Y-57485000D03*
X44985000Y-55585000D03*
%TD*%
%TO.C,Q3*%
X45000000Y-44600000D03*
X45000000Y-46500000D03*
X47000000Y-45550000D03*
%TD*%
D14*
%TO.C,Q4*%
X59200000Y-61720000D03*
X59200000Y-66280000D03*
D15*
X67175000Y-65525000D03*
X63825000Y-62475000D03*
X67175000Y-62475000D03*
X63825000Y-65525000D03*
%TD*%
%TO.C,Q5*%
X64150000Y-56000000D03*
X67500000Y-52950000D03*
X64150000Y-52950000D03*
X67500000Y-56000000D03*
D14*
X59525000Y-56755000D03*
X59525000Y-52195000D03*
%TD*%
D16*
%TO.C,R1*%
X41540000Y-48280000D03*
X39640000Y-48280000D03*
%TD*%
%TO.C,R2*%
X39640000Y-51455000D03*
X41540000Y-51455000D03*
%TD*%
%TO.C,R3*%
X41540000Y-45105000D03*
X39640000Y-45105000D03*
%TD*%
D17*
%TO.C,R4*%
X50430000Y-53045000D03*
X50430000Y-54945000D03*
%TD*%
%TO.C,R5*%
X50430000Y-47010000D03*
X50430000Y-48910000D03*
%TD*%
D18*
%TO.C,U1*%
X55200000Y-58095000D03*
X55200000Y-59365000D03*
X55200000Y-60635000D03*
X55200000Y-61905000D03*
X49800000Y-61905000D03*
X49800000Y-60635000D03*
X49800000Y-59365000D03*
X49800000Y-58095000D03*
%TD*%
M02*
