%TF.GenerationSoftware,KiCad,Pcbnew,(5.1.10)-1*%
%TF.CreationDate,2021-08-14T12:20:45-07:00*%
%TF.ProjectId,EmitterDriverV2,456d6974-7465-4724-9472-697665725632,rev?*%
%TF.SameCoordinates,Original*%
%TF.FileFunction,Copper,L3,Inr*%
%TF.FilePolarity,Positive*%
%FSLAX46Y46*%
G04 Gerber Fmt 4.6, Leading zero omitted, Abs format (unit mm)*
G04 Created by KiCad (PCBNEW (5.1.10)-1) date 2021-08-14 12:20:45*
%MOMM*%
%LPD*%
G01*
G04 APERTURE LIST*
%TA.AperFunction,ComponentPad*%
%ADD10C,5.600000*%
%TD*%
%TA.AperFunction,ComponentPad*%
%ADD11R,1.600000X1.600000*%
%TD*%
%TA.AperFunction,ComponentPad*%
%ADD12C,1.600000*%
%TD*%
%TA.AperFunction,ComponentPad*%
%ADD13R,1.750000X1.750000*%
%TD*%
%TA.AperFunction,ComponentPad*%
%ADD14C,1.750000*%
%TD*%
%TA.AperFunction,ComponentPad*%
%ADD15O,1.250000X0.950000*%
%TD*%
%TA.AperFunction,ComponentPad*%
%ADD16R,1.250000X0.950000*%
%TD*%
%TA.AperFunction,ComponentPad*%
%ADD17C,2.400000*%
%TD*%
%TA.AperFunction,ComponentPad*%
%ADD18O,2.400000X2.400000*%
%TD*%
%TA.AperFunction,ComponentPad*%
%ADD19C,2.000000*%
%TD*%
%TA.AperFunction,ViaPad*%
%ADD20C,0.800000*%
%TD*%
%TA.AperFunction,Conductor*%
%ADD21C,0.254000*%
%TD*%
%TA.AperFunction,Conductor*%
%ADD22C,0.100000*%
%TD*%
G04 APERTURE END LIST*
D10*
%TO.N,N/C*%
%TO.C,REF\u002A\u002A*%
X75000000Y-45000000D03*
%TD*%
%TO.N,N/C*%
%TO.C,REF\u002A\u002A*%
X35000000Y-75000000D03*
%TD*%
D11*
%TO.N,+BATT*%
%TO.C,C1*%
X73000000Y-72500000D03*
D12*
%TO.N,GND*%
X76500000Y-72500000D03*
%TD*%
%TO.N,GND*%
%TO.C,C2*%
X68500000Y-45500000D03*
D11*
%TO.N,+BATT*%
X65000000Y-45500000D03*
%TD*%
D13*
%TO.N,Net-(D3-Pad1)*%
%TO.C,D3*%
X75000000Y-64000000D03*
D14*
%TO.N,+BATT*%
X75000000Y-61500000D03*
%TD*%
%TO.N,+BATT*%
%TO.C,D4*%
X75000000Y-51500000D03*
D13*
%TO.N,Net-(D4-Pad1)*%
X75000000Y-54000000D03*
%TD*%
D15*
%TO.N,N/C*%
%TO.C,J1*%
X35000000Y-42750000D03*
%TO.N,GND*%
X35000000Y-44000000D03*
%TO.N,/Mod2*%
X35000000Y-45250000D03*
%TO.N,/Mod1*%
X35000000Y-46500000D03*
%TO.N,/PWM*%
X35000000Y-47750000D03*
D16*
%TO.N,VCC*%
X35000000Y-49000000D03*
%TD*%
D14*
%TO.N,GND*%
%TO.C,J2*%
X65000000Y-73000000D03*
D13*
%TO.N,+BATT*%
X62500000Y-73000000D03*
%TD*%
D17*
%TO.N,Net-(R12-Pad2)*%
%TO.C,R8*%
X33760000Y-63500000D03*
D18*
%TO.N,Net-(Q4-Pad3)*%
X33760000Y-68580000D03*
%TD*%
%TO.N,Net-(Q4-Pad3)*%
%TO.C,R9*%
X40500000Y-66580000D03*
D17*
%TO.N,Net-(R12-Pad2)*%
X40500000Y-61500000D03*
%TD*%
D18*
%TO.N,Net-(Q5-Pad3)*%
%TO.C,R10*%
X56000000Y-72500000D03*
D17*
%TO.N,Net-(R10-Pad1)*%
X50920000Y-72500000D03*
%TD*%
D18*
%TO.N,Net-(Q5-Pad3)*%
%TO.C,R11*%
X55000000Y-67500000D03*
D17*
%TO.N,Net-(R10-Pad1)*%
X49920000Y-67500000D03*
%TD*%
%TO.N,GND*%
%TO.C,R12*%
X33760000Y-54185000D03*
D18*
%TO.N,Net-(R12-Pad2)*%
X33760000Y-59265000D03*
%TD*%
D17*
%TO.N,GND*%
%TO.C,R13*%
X41420000Y-72500000D03*
D18*
%TO.N,Net-(R10-Pad1)*%
X46500000Y-72500000D03*
%TD*%
D19*
%TO.N,+BATT*%
%TO.C,BATT*%
X60400000Y-49200000D03*
%TD*%
%TO.N,GND*%
%TO.C,GND*%
X57700000Y-76400000D03*
%TD*%
%TO.N,Net-(D1-Pad1)*%
%TO.C,TP3*%
X50500000Y-51000000D03*
%TD*%
%TO.N,Net-(D2-Pad1)*%
%TO.C,TP4*%
X49700000Y-44800000D03*
%TD*%
%TO.N,Net-(Q5-Pad3)*%
%TO.C,TP5*%
X70500000Y-58800000D03*
%TD*%
%TO.N,Net-(Q4-Pad3)*%
%TO.C,TP6*%
X70700000Y-68300000D03*
%TD*%
%TO.N,GND*%
%TO.C,GND*%
X39300000Y-42100000D03*
%TD*%
D20*
%TO.N,+BATT*%
X56100000Y-56100000D03*
%TO.N,GND*%
X41500000Y-54800000D03*
X43500000Y-51700000D03*
X43400000Y-46400000D03*
X56600000Y-48400000D03*
X52400000Y-56000000D03*
X47600000Y-63200000D03*
X52100000Y-52400000D03*
%TO.N,Net-(D1-Pad1)*%
X50300000Y-56500000D03*
X47600000Y-61100000D03*
%TO.N,Net-(D2-Pad1)*%
X57100000Y-52300000D03*
X56800000Y-61900000D03*
%TO.N,Net-(Q2-Pad3)*%
X48800000Y-49900000D03*
X48840000Y-56535000D03*
%TO.N,Net-(Q4-Pad1)*%
X56900000Y-63700000D03*
X51800000Y-58600000D03*
%TO.N,Net-(Q4-Pad3)*%
X57400000Y-68900000D03*
X57085751Y-65914249D03*
%TD*%
D21*
%TO.N,+BATT*%
X38257748Y-40830013D02*
X38030013Y-41057748D01*
X37851082Y-41325537D01*
X37727832Y-41623088D01*
X37665000Y-41938967D01*
X37665000Y-42261033D01*
X37727832Y-42576912D01*
X37851082Y-42874463D01*
X38030013Y-43142252D01*
X38257748Y-43369987D01*
X38525537Y-43548918D01*
X38823088Y-43672168D01*
X39138967Y-43735000D01*
X39461033Y-43735000D01*
X39776912Y-43672168D01*
X40074463Y-43548918D01*
X40342252Y-43369987D01*
X40569987Y-43142252D01*
X40748918Y-42874463D01*
X40872168Y-42576912D01*
X40935000Y-42261033D01*
X40935000Y-41938967D01*
X40872168Y-41623088D01*
X40748918Y-41325537D01*
X40569987Y-41057748D01*
X40342252Y-40830013D01*
X40087810Y-40660000D01*
X79340000Y-40660000D01*
X79340001Y-77840000D01*
X58487810Y-77840000D01*
X58742252Y-77669987D01*
X58969987Y-77442252D01*
X59148918Y-77174463D01*
X59272168Y-76876912D01*
X59335000Y-76561033D01*
X59335000Y-76238967D01*
X59272168Y-75923088D01*
X59148918Y-75625537D01*
X58969987Y-75357748D01*
X58742252Y-75130013D01*
X58474463Y-74951082D01*
X58176912Y-74827832D01*
X57861033Y-74765000D01*
X57538967Y-74765000D01*
X57223088Y-74827832D01*
X56925537Y-74951082D01*
X56657748Y-75130013D01*
X56430013Y-75357748D01*
X56251082Y-75625537D01*
X56127832Y-75923088D01*
X56065000Y-76238967D01*
X56065000Y-76561033D01*
X56127832Y-76876912D01*
X56251082Y-77174463D01*
X56430013Y-77442252D01*
X56657748Y-77669987D01*
X56912190Y-77840000D01*
X36932475Y-77840000D01*
X37189685Y-77668138D01*
X37668138Y-77189685D01*
X38044057Y-76627082D01*
X38302994Y-76001952D01*
X38435000Y-75338318D01*
X38435000Y-74661682D01*
X38302994Y-73998048D01*
X38044057Y-73372918D01*
X37668138Y-72810315D01*
X37189685Y-72331862D01*
X37170837Y-72319268D01*
X39585000Y-72319268D01*
X39585000Y-72680732D01*
X39655518Y-73035250D01*
X39793844Y-73369199D01*
X39994662Y-73669744D01*
X40250256Y-73925338D01*
X40550801Y-74126156D01*
X40884750Y-74264482D01*
X41239268Y-74335000D01*
X41600732Y-74335000D01*
X41955250Y-74264482D01*
X42289199Y-74126156D01*
X42589744Y-73925338D01*
X42845338Y-73669744D01*
X43046156Y-73369199D01*
X43184482Y-73035250D01*
X43255000Y-72680732D01*
X43255000Y-72319268D01*
X44665000Y-72319268D01*
X44665000Y-72680732D01*
X44735518Y-73035250D01*
X44873844Y-73369199D01*
X45074662Y-73669744D01*
X45330256Y-73925338D01*
X45630801Y-74126156D01*
X45964750Y-74264482D01*
X46319268Y-74335000D01*
X46680732Y-74335000D01*
X47035250Y-74264482D01*
X47369199Y-74126156D01*
X47669744Y-73925338D01*
X47925338Y-73669744D01*
X48126156Y-73369199D01*
X48264482Y-73035250D01*
X48335000Y-72680732D01*
X48335000Y-72319268D01*
X49085000Y-72319268D01*
X49085000Y-72680732D01*
X49155518Y-73035250D01*
X49293844Y-73369199D01*
X49494662Y-73669744D01*
X49750256Y-73925338D01*
X50050801Y-74126156D01*
X50384750Y-74264482D01*
X50739268Y-74335000D01*
X51100732Y-74335000D01*
X51455250Y-74264482D01*
X51789199Y-74126156D01*
X52089744Y-73925338D01*
X52345338Y-73669744D01*
X52546156Y-73369199D01*
X52684482Y-73035250D01*
X52755000Y-72680732D01*
X52755000Y-72319268D01*
X54165000Y-72319268D01*
X54165000Y-72680732D01*
X54235518Y-73035250D01*
X54373844Y-73369199D01*
X54574662Y-73669744D01*
X54830256Y-73925338D01*
X55130801Y-74126156D01*
X55464750Y-74264482D01*
X55819268Y-74335000D01*
X56180732Y-74335000D01*
X56535250Y-74264482D01*
X56869199Y-74126156D01*
X57169744Y-73925338D01*
X57220082Y-73875000D01*
X60986928Y-73875000D01*
X60999188Y-73999482D01*
X61035498Y-74119180D01*
X61094463Y-74229494D01*
X61173815Y-74326185D01*
X61270506Y-74405537D01*
X61380820Y-74464502D01*
X61500518Y-74500812D01*
X61625000Y-74513072D01*
X62214250Y-74510000D01*
X62373000Y-74351250D01*
X62373000Y-73127000D01*
X61148750Y-73127000D01*
X60990000Y-73285750D01*
X60986928Y-73875000D01*
X57220082Y-73875000D01*
X57425338Y-73669744D01*
X57626156Y-73369199D01*
X57764482Y-73035250D01*
X57835000Y-72680732D01*
X57835000Y-72319268D01*
X57796358Y-72125000D01*
X60986928Y-72125000D01*
X60990000Y-72714250D01*
X61148750Y-72873000D01*
X62373000Y-72873000D01*
X62373000Y-71648750D01*
X62627000Y-71648750D01*
X62627000Y-72873000D01*
X62647000Y-72873000D01*
X62647000Y-73127000D01*
X62627000Y-73127000D01*
X62627000Y-74351250D01*
X62785750Y-74510000D01*
X63375000Y-74513072D01*
X63499482Y-74500812D01*
X63619180Y-74464502D01*
X63729494Y-74405537D01*
X63826185Y-74326185D01*
X63905537Y-74229494D01*
X63964502Y-74119180D01*
X63968974Y-74104436D01*
X64037431Y-74172893D01*
X64284747Y-74338144D01*
X64559549Y-74451971D01*
X64851278Y-74510000D01*
X65148722Y-74510000D01*
X65440451Y-74451971D01*
X65715253Y-74338144D01*
X65962569Y-74172893D01*
X66172893Y-73962569D01*
X66338144Y-73715253D01*
X66451971Y-73440451D01*
X66479908Y-73300000D01*
X71561928Y-73300000D01*
X71574188Y-73424482D01*
X71610498Y-73544180D01*
X71669463Y-73654494D01*
X71748815Y-73751185D01*
X71845506Y-73830537D01*
X71955820Y-73889502D01*
X72075518Y-73925812D01*
X72200000Y-73938072D01*
X72714250Y-73935000D01*
X72873000Y-73776250D01*
X72873000Y-72627000D01*
X73127000Y-72627000D01*
X73127000Y-73776250D01*
X73285750Y-73935000D01*
X73800000Y-73938072D01*
X73924482Y-73925812D01*
X74044180Y-73889502D01*
X74154494Y-73830537D01*
X74251185Y-73751185D01*
X74330537Y-73654494D01*
X74389502Y-73544180D01*
X74425812Y-73424482D01*
X74438072Y-73300000D01*
X74435000Y-72785750D01*
X74276250Y-72627000D01*
X73127000Y-72627000D01*
X72873000Y-72627000D01*
X71723750Y-72627000D01*
X71565000Y-72785750D01*
X71561928Y-73300000D01*
X66479908Y-73300000D01*
X66510000Y-73148722D01*
X66510000Y-72851278D01*
X66451971Y-72559549D01*
X66338144Y-72284747D01*
X66172893Y-72037431D01*
X65962569Y-71827107D01*
X65772340Y-71700000D01*
X71561928Y-71700000D01*
X71565000Y-72214250D01*
X71723750Y-72373000D01*
X72873000Y-72373000D01*
X72873000Y-71223750D01*
X73127000Y-71223750D01*
X73127000Y-72373000D01*
X74276250Y-72373000D01*
X74290585Y-72358665D01*
X75065000Y-72358665D01*
X75065000Y-72641335D01*
X75120147Y-72918574D01*
X75228320Y-73179727D01*
X75385363Y-73414759D01*
X75585241Y-73614637D01*
X75820273Y-73771680D01*
X76081426Y-73879853D01*
X76358665Y-73935000D01*
X76641335Y-73935000D01*
X76918574Y-73879853D01*
X77179727Y-73771680D01*
X77414759Y-73614637D01*
X77614637Y-73414759D01*
X77771680Y-73179727D01*
X77879853Y-72918574D01*
X77935000Y-72641335D01*
X77935000Y-72358665D01*
X77879853Y-72081426D01*
X77771680Y-71820273D01*
X77614637Y-71585241D01*
X77414759Y-71385363D01*
X77179727Y-71228320D01*
X76918574Y-71120147D01*
X76641335Y-71065000D01*
X76358665Y-71065000D01*
X76081426Y-71120147D01*
X75820273Y-71228320D01*
X75585241Y-71385363D01*
X75385363Y-71585241D01*
X75228320Y-71820273D01*
X75120147Y-72081426D01*
X75065000Y-72358665D01*
X74290585Y-72358665D01*
X74435000Y-72214250D01*
X74438072Y-71700000D01*
X74425812Y-71575518D01*
X74389502Y-71455820D01*
X74330537Y-71345506D01*
X74251185Y-71248815D01*
X74154494Y-71169463D01*
X74044180Y-71110498D01*
X73924482Y-71074188D01*
X73800000Y-71061928D01*
X73285750Y-71065000D01*
X73127000Y-71223750D01*
X72873000Y-71223750D01*
X72714250Y-71065000D01*
X72200000Y-71061928D01*
X72075518Y-71074188D01*
X71955820Y-71110498D01*
X71845506Y-71169463D01*
X71748815Y-71248815D01*
X71669463Y-71345506D01*
X71610498Y-71455820D01*
X71574188Y-71575518D01*
X71561928Y-71700000D01*
X65772340Y-71700000D01*
X65715253Y-71661856D01*
X65440451Y-71548029D01*
X65148722Y-71490000D01*
X64851278Y-71490000D01*
X64559549Y-71548029D01*
X64284747Y-71661856D01*
X64037431Y-71827107D01*
X63968974Y-71895564D01*
X63964502Y-71880820D01*
X63905537Y-71770506D01*
X63826185Y-71673815D01*
X63729494Y-71594463D01*
X63619180Y-71535498D01*
X63499482Y-71499188D01*
X63375000Y-71486928D01*
X62785750Y-71490000D01*
X62627000Y-71648750D01*
X62373000Y-71648750D01*
X62214250Y-71490000D01*
X61625000Y-71486928D01*
X61500518Y-71499188D01*
X61380820Y-71535498D01*
X61270506Y-71594463D01*
X61173815Y-71673815D01*
X61094463Y-71770506D01*
X61035498Y-71880820D01*
X60999188Y-72000518D01*
X60986928Y-72125000D01*
X57796358Y-72125000D01*
X57764482Y-71964750D01*
X57626156Y-71630801D01*
X57425338Y-71330256D01*
X57169744Y-71074662D01*
X56869199Y-70873844D01*
X56535250Y-70735518D01*
X56180732Y-70665000D01*
X55819268Y-70665000D01*
X55464750Y-70735518D01*
X55130801Y-70873844D01*
X54830256Y-71074662D01*
X54574662Y-71330256D01*
X54373844Y-71630801D01*
X54235518Y-71964750D01*
X54165000Y-72319268D01*
X52755000Y-72319268D01*
X52684482Y-71964750D01*
X52546156Y-71630801D01*
X52345338Y-71330256D01*
X52089744Y-71074662D01*
X51789199Y-70873844D01*
X51455250Y-70735518D01*
X51100732Y-70665000D01*
X50739268Y-70665000D01*
X50384750Y-70735518D01*
X50050801Y-70873844D01*
X49750256Y-71074662D01*
X49494662Y-71330256D01*
X49293844Y-71630801D01*
X49155518Y-71964750D01*
X49085000Y-72319268D01*
X48335000Y-72319268D01*
X48264482Y-71964750D01*
X48126156Y-71630801D01*
X47925338Y-71330256D01*
X47669744Y-71074662D01*
X47369199Y-70873844D01*
X47035250Y-70735518D01*
X46680732Y-70665000D01*
X46319268Y-70665000D01*
X45964750Y-70735518D01*
X45630801Y-70873844D01*
X45330256Y-71074662D01*
X45074662Y-71330256D01*
X44873844Y-71630801D01*
X44735518Y-71964750D01*
X44665000Y-72319268D01*
X43255000Y-72319268D01*
X43184482Y-71964750D01*
X43046156Y-71630801D01*
X42845338Y-71330256D01*
X42589744Y-71074662D01*
X42289199Y-70873844D01*
X41955250Y-70735518D01*
X41600732Y-70665000D01*
X41239268Y-70665000D01*
X40884750Y-70735518D01*
X40550801Y-70873844D01*
X40250256Y-71074662D01*
X39994662Y-71330256D01*
X39793844Y-71630801D01*
X39655518Y-71964750D01*
X39585000Y-72319268D01*
X37170837Y-72319268D01*
X36627082Y-71955943D01*
X36001952Y-71697006D01*
X35338318Y-71565000D01*
X34661682Y-71565000D01*
X33998048Y-71697006D01*
X33372918Y-71955943D01*
X32810315Y-72331862D01*
X32331862Y-72810315D01*
X31955943Y-73372918D01*
X31697006Y-73998048D01*
X31565000Y-74661682D01*
X31565000Y-75338318D01*
X31697006Y-76001952D01*
X31955943Y-76627082D01*
X32331862Y-77189685D01*
X32810315Y-77668138D01*
X33067525Y-77840000D01*
X30660000Y-77840000D01*
X30660000Y-68399268D01*
X31925000Y-68399268D01*
X31925000Y-68760732D01*
X31995518Y-69115250D01*
X32133844Y-69449199D01*
X32334662Y-69749744D01*
X32590256Y-70005338D01*
X32890801Y-70206156D01*
X33224750Y-70344482D01*
X33579268Y-70415000D01*
X33940732Y-70415000D01*
X34295250Y-70344482D01*
X34629199Y-70206156D01*
X34929744Y-70005338D01*
X35185338Y-69749744D01*
X35386156Y-69449199D01*
X35524482Y-69115250D01*
X35595000Y-68760732D01*
X35595000Y-68399268D01*
X35524482Y-68044750D01*
X35386156Y-67710801D01*
X35185338Y-67410256D01*
X34929744Y-67154662D01*
X34629199Y-66953844D01*
X34295250Y-66815518D01*
X33940732Y-66745000D01*
X33579268Y-66745000D01*
X33224750Y-66815518D01*
X32890801Y-66953844D01*
X32590256Y-67154662D01*
X32334662Y-67410256D01*
X32133844Y-67710801D01*
X31995518Y-68044750D01*
X31925000Y-68399268D01*
X30660000Y-68399268D01*
X30660000Y-66399268D01*
X38665000Y-66399268D01*
X38665000Y-66760732D01*
X38735518Y-67115250D01*
X38873844Y-67449199D01*
X39074662Y-67749744D01*
X39330256Y-68005338D01*
X39630801Y-68206156D01*
X39964750Y-68344482D01*
X40319268Y-68415000D01*
X40680732Y-68415000D01*
X41035250Y-68344482D01*
X41369199Y-68206156D01*
X41669744Y-68005338D01*
X41925338Y-67749744D01*
X42126156Y-67449199D01*
X42179975Y-67319268D01*
X48085000Y-67319268D01*
X48085000Y-67680732D01*
X48155518Y-68035250D01*
X48293844Y-68369199D01*
X48494662Y-68669744D01*
X48750256Y-68925338D01*
X49050801Y-69126156D01*
X49384750Y-69264482D01*
X49739268Y-69335000D01*
X50100732Y-69335000D01*
X50455250Y-69264482D01*
X50789199Y-69126156D01*
X51089744Y-68925338D01*
X51345338Y-68669744D01*
X51546156Y-68369199D01*
X51684482Y-68035250D01*
X51755000Y-67680732D01*
X51755000Y-67319268D01*
X53165000Y-67319268D01*
X53165000Y-67680732D01*
X53235518Y-68035250D01*
X53373844Y-68369199D01*
X53574662Y-68669744D01*
X53830256Y-68925338D01*
X54130801Y-69126156D01*
X54464750Y-69264482D01*
X54819268Y-69335000D01*
X55180732Y-69335000D01*
X55535250Y-69264482D01*
X55869199Y-69126156D01*
X56169744Y-68925338D01*
X56381879Y-68713203D01*
X56365000Y-68798061D01*
X56365000Y-69001939D01*
X56404774Y-69201898D01*
X56482795Y-69390256D01*
X56596063Y-69559774D01*
X56740226Y-69703937D01*
X56909744Y-69817205D01*
X57098102Y-69895226D01*
X57298061Y-69935000D01*
X57501939Y-69935000D01*
X57701898Y-69895226D01*
X57890256Y-69817205D01*
X58059774Y-69703937D01*
X58203937Y-69559774D01*
X58317205Y-69390256D01*
X58395226Y-69201898D01*
X58435000Y-69001939D01*
X58435000Y-68798061D01*
X58395226Y-68598102D01*
X58317205Y-68409744D01*
X58203937Y-68240226D01*
X58102678Y-68138967D01*
X69065000Y-68138967D01*
X69065000Y-68461033D01*
X69127832Y-68776912D01*
X69251082Y-69074463D01*
X69430013Y-69342252D01*
X69657748Y-69569987D01*
X69925537Y-69748918D01*
X70223088Y-69872168D01*
X70538967Y-69935000D01*
X70861033Y-69935000D01*
X71176912Y-69872168D01*
X71474463Y-69748918D01*
X71742252Y-69569987D01*
X71969987Y-69342252D01*
X72148918Y-69074463D01*
X72272168Y-68776912D01*
X72335000Y-68461033D01*
X72335000Y-68138967D01*
X72272168Y-67823088D01*
X72148918Y-67525537D01*
X71969987Y-67257748D01*
X71742252Y-67030013D01*
X71474463Y-66851082D01*
X71176912Y-66727832D01*
X70861033Y-66665000D01*
X70538967Y-66665000D01*
X70223088Y-66727832D01*
X69925537Y-66851082D01*
X69657748Y-67030013D01*
X69430013Y-67257748D01*
X69251082Y-67525537D01*
X69127832Y-67823088D01*
X69065000Y-68138967D01*
X58102678Y-68138967D01*
X58059774Y-68096063D01*
X57890256Y-67982795D01*
X57701898Y-67904774D01*
X57501939Y-67865000D01*
X57298061Y-67865000D01*
X57098102Y-67904774D01*
X56909744Y-67982795D01*
X56740226Y-68096063D01*
X56738632Y-68097657D01*
X56764482Y-68035250D01*
X56835000Y-67680732D01*
X56835000Y-67319268D01*
X56764482Y-66964750D01*
X56732833Y-66888342D01*
X56783853Y-66909475D01*
X56983812Y-66949249D01*
X57187690Y-66949249D01*
X57387649Y-66909475D01*
X57576007Y-66831454D01*
X57745525Y-66718186D01*
X57889688Y-66574023D01*
X58002956Y-66404505D01*
X58080977Y-66216147D01*
X58120751Y-66016188D01*
X58120751Y-65812310D01*
X58080977Y-65612351D01*
X58002956Y-65423993D01*
X57889688Y-65254475D01*
X57745525Y-65110312D01*
X57576007Y-64997044D01*
X57387649Y-64919023D01*
X57187690Y-64879249D01*
X56983812Y-64879249D01*
X56783853Y-64919023D01*
X56595495Y-64997044D01*
X56425977Y-65110312D01*
X56281814Y-65254475D01*
X56168546Y-65423993D01*
X56090525Y-65612351D01*
X56050751Y-65812310D01*
X56050751Y-65995153D01*
X55869199Y-65873844D01*
X55535250Y-65735518D01*
X55180732Y-65665000D01*
X54819268Y-65665000D01*
X54464750Y-65735518D01*
X54130801Y-65873844D01*
X53830256Y-66074662D01*
X53574662Y-66330256D01*
X53373844Y-66630801D01*
X53235518Y-66964750D01*
X53165000Y-67319268D01*
X51755000Y-67319268D01*
X51684482Y-66964750D01*
X51546156Y-66630801D01*
X51345338Y-66330256D01*
X51089744Y-66074662D01*
X50789199Y-65873844D01*
X50455250Y-65735518D01*
X50100732Y-65665000D01*
X49739268Y-65665000D01*
X49384750Y-65735518D01*
X49050801Y-65873844D01*
X48750256Y-66074662D01*
X48494662Y-66330256D01*
X48293844Y-66630801D01*
X48155518Y-66964750D01*
X48085000Y-67319268D01*
X42179975Y-67319268D01*
X42264482Y-67115250D01*
X42335000Y-66760732D01*
X42335000Y-66399268D01*
X42264482Y-66044750D01*
X42126156Y-65710801D01*
X41925338Y-65410256D01*
X41669744Y-65154662D01*
X41369199Y-64953844D01*
X41035250Y-64815518D01*
X40680732Y-64745000D01*
X40319268Y-64745000D01*
X39964750Y-64815518D01*
X39630801Y-64953844D01*
X39330256Y-65154662D01*
X39074662Y-65410256D01*
X38873844Y-65710801D01*
X38735518Y-66044750D01*
X38665000Y-66399268D01*
X30660000Y-66399268D01*
X30660000Y-63319268D01*
X31925000Y-63319268D01*
X31925000Y-63680732D01*
X31995518Y-64035250D01*
X32133844Y-64369199D01*
X32334662Y-64669744D01*
X32590256Y-64925338D01*
X32890801Y-65126156D01*
X33224750Y-65264482D01*
X33579268Y-65335000D01*
X33940732Y-65335000D01*
X34295250Y-65264482D01*
X34629199Y-65126156D01*
X34929744Y-64925338D01*
X35185338Y-64669744D01*
X35386156Y-64369199D01*
X35524482Y-64035250D01*
X35595000Y-63680732D01*
X35595000Y-63319268D01*
X35524482Y-62964750D01*
X35386156Y-62630801D01*
X35185338Y-62330256D01*
X34929744Y-62074662D01*
X34629199Y-61873844D01*
X34295250Y-61735518D01*
X33940732Y-61665000D01*
X33579268Y-61665000D01*
X33224750Y-61735518D01*
X32890801Y-61873844D01*
X32590256Y-62074662D01*
X32334662Y-62330256D01*
X32133844Y-62630801D01*
X31995518Y-62964750D01*
X31925000Y-63319268D01*
X30660000Y-63319268D01*
X30660000Y-61319268D01*
X38665000Y-61319268D01*
X38665000Y-61680732D01*
X38735518Y-62035250D01*
X38873844Y-62369199D01*
X39074662Y-62669744D01*
X39330256Y-62925338D01*
X39630801Y-63126156D01*
X39964750Y-63264482D01*
X40319268Y-63335000D01*
X40680732Y-63335000D01*
X41035250Y-63264482D01*
X41369199Y-63126156D01*
X41411246Y-63098061D01*
X46565000Y-63098061D01*
X46565000Y-63301939D01*
X46604774Y-63501898D01*
X46682795Y-63690256D01*
X46796063Y-63859774D01*
X46940226Y-64003937D01*
X47109744Y-64117205D01*
X47298102Y-64195226D01*
X47498061Y-64235000D01*
X47701939Y-64235000D01*
X47901898Y-64195226D01*
X48090256Y-64117205D01*
X48259774Y-64003937D01*
X48403937Y-63859774D01*
X48517205Y-63690256D01*
X48595226Y-63501898D01*
X48635000Y-63301939D01*
X48635000Y-63098061D01*
X48595226Y-62898102D01*
X48517205Y-62709744D01*
X48403937Y-62540226D01*
X48259774Y-62396063D01*
X48090256Y-62282795D01*
X47901898Y-62204774D01*
X47701939Y-62165000D01*
X47498061Y-62165000D01*
X47298102Y-62204774D01*
X47109744Y-62282795D01*
X46940226Y-62396063D01*
X46796063Y-62540226D01*
X46682795Y-62709744D01*
X46604774Y-62898102D01*
X46565000Y-63098061D01*
X41411246Y-63098061D01*
X41669744Y-62925338D01*
X41925338Y-62669744D01*
X42126156Y-62369199D01*
X42264482Y-62035250D01*
X42335000Y-61680732D01*
X42335000Y-61319268D01*
X42271108Y-60998061D01*
X46565000Y-60998061D01*
X46565000Y-61201939D01*
X46604774Y-61401898D01*
X46682795Y-61590256D01*
X46796063Y-61759774D01*
X46940226Y-61903937D01*
X47109744Y-62017205D01*
X47298102Y-62095226D01*
X47498061Y-62135000D01*
X47701939Y-62135000D01*
X47901898Y-62095226D01*
X48090256Y-62017205D01*
X48259774Y-61903937D01*
X48365650Y-61798061D01*
X55765000Y-61798061D01*
X55765000Y-62001939D01*
X55804774Y-62201898D01*
X55882795Y-62390256D01*
X55996063Y-62559774D01*
X56140226Y-62703937D01*
X56309744Y-62817205D01*
X56339685Y-62829607D01*
X56240226Y-62896063D01*
X56096063Y-63040226D01*
X55982795Y-63209744D01*
X55904774Y-63398102D01*
X55865000Y-63598061D01*
X55865000Y-63801939D01*
X55904774Y-64001898D01*
X55982795Y-64190256D01*
X56096063Y-64359774D01*
X56240226Y-64503937D01*
X56409744Y-64617205D01*
X56598102Y-64695226D01*
X56798061Y-64735000D01*
X57001939Y-64735000D01*
X57201898Y-64695226D01*
X57390256Y-64617205D01*
X57559774Y-64503937D01*
X57703937Y-64359774D01*
X57817205Y-64190256D01*
X57895226Y-64001898D01*
X57935000Y-63801939D01*
X57935000Y-63598061D01*
X57895226Y-63398102D01*
X57817205Y-63209744D01*
X57703937Y-63040226D01*
X57559774Y-62896063D01*
X57390256Y-62782795D01*
X57360315Y-62770393D01*
X57459774Y-62703937D01*
X57603937Y-62559774D01*
X57717205Y-62390256D01*
X57795226Y-62201898D01*
X57835000Y-62001939D01*
X57835000Y-61798061D01*
X57795226Y-61598102D01*
X57782568Y-61567543D01*
X73484196Y-61567543D01*
X73526499Y-61861963D01*
X73625428Y-62142474D01*
X73702132Y-62285975D01*
X73953758Y-62366634D01*
X73837733Y-62482659D01*
X73888302Y-62533228D01*
X73880820Y-62535498D01*
X73770506Y-62594463D01*
X73673815Y-62673815D01*
X73594463Y-62770506D01*
X73535498Y-62880820D01*
X73499188Y-63000518D01*
X73486928Y-63125000D01*
X73486928Y-64875000D01*
X73499188Y-64999482D01*
X73535498Y-65119180D01*
X73594463Y-65229494D01*
X73673815Y-65326185D01*
X73770506Y-65405537D01*
X73880820Y-65464502D01*
X74000518Y-65500812D01*
X74125000Y-65513072D01*
X75875000Y-65513072D01*
X75999482Y-65500812D01*
X76119180Y-65464502D01*
X76229494Y-65405537D01*
X76326185Y-65326185D01*
X76405537Y-65229494D01*
X76464502Y-65119180D01*
X76500812Y-64999482D01*
X76513072Y-64875000D01*
X76513072Y-63125000D01*
X76500812Y-63000518D01*
X76464502Y-62880820D01*
X76405537Y-62770506D01*
X76326185Y-62673815D01*
X76229494Y-62594463D01*
X76119180Y-62535498D01*
X76111698Y-62533228D01*
X76162267Y-62482659D01*
X76046242Y-62366634D01*
X76297868Y-62285975D01*
X76426267Y-62017671D01*
X76499855Y-61729474D01*
X76515804Y-61432457D01*
X76473501Y-61138037D01*
X76374572Y-60857526D01*
X76297868Y-60714025D01*
X76046240Y-60633365D01*
X75179605Y-61500000D01*
X75193748Y-61514143D01*
X75014143Y-61693748D01*
X75000000Y-61679605D01*
X74985858Y-61693748D01*
X74806253Y-61514143D01*
X74820395Y-61500000D01*
X73953760Y-60633365D01*
X73702132Y-60714025D01*
X73573733Y-60982329D01*
X73500145Y-61270526D01*
X73484196Y-61567543D01*
X57782568Y-61567543D01*
X57717205Y-61409744D01*
X57603937Y-61240226D01*
X57459774Y-61096063D01*
X57290256Y-60982795D01*
X57101898Y-60904774D01*
X56901939Y-60865000D01*
X56698061Y-60865000D01*
X56498102Y-60904774D01*
X56309744Y-60982795D01*
X56140226Y-61096063D01*
X55996063Y-61240226D01*
X55882795Y-61409744D01*
X55804774Y-61598102D01*
X55765000Y-61798061D01*
X48365650Y-61798061D01*
X48403937Y-61759774D01*
X48517205Y-61590256D01*
X48595226Y-61401898D01*
X48635000Y-61201939D01*
X48635000Y-60998061D01*
X48595226Y-60798102D01*
X48517205Y-60609744D01*
X48412981Y-60453760D01*
X74133365Y-60453760D01*
X75000000Y-61320395D01*
X75866635Y-60453760D01*
X75785975Y-60202132D01*
X75517671Y-60073733D01*
X75229474Y-60000145D01*
X74932457Y-59984196D01*
X74638037Y-60026499D01*
X74357526Y-60125428D01*
X74214025Y-60202132D01*
X74133365Y-60453760D01*
X48412981Y-60453760D01*
X48403937Y-60440226D01*
X48259774Y-60296063D01*
X48090256Y-60182795D01*
X47901898Y-60104774D01*
X47701939Y-60065000D01*
X47498061Y-60065000D01*
X47298102Y-60104774D01*
X47109744Y-60182795D01*
X46940226Y-60296063D01*
X46796063Y-60440226D01*
X46682795Y-60609744D01*
X46604774Y-60798102D01*
X46565000Y-60998061D01*
X42271108Y-60998061D01*
X42264482Y-60964750D01*
X42126156Y-60630801D01*
X41925338Y-60330256D01*
X41669744Y-60074662D01*
X41369199Y-59873844D01*
X41035250Y-59735518D01*
X40680732Y-59665000D01*
X40319268Y-59665000D01*
X39964750Y-59735518D01*
X39630801Y-59873844D01*
X39330256Y-60074662D01*
X39074662Y-60330256D01*
X38873844Y-60630801D01*
X38735518Y-60964750D01*
X38665000Y-61319268D01*
X30660000Y-61319268D01*
X30660000Y-59084268D01*
X31925000Y-59084268D01*
X31925000Y-59445732D01*
X31995518Y-59800250D01*
X32133844Y-60134199D01*
X32334662Y-60434744D01*
X32590256Y-60690338D01*
X32890801Y-60891156D01*
X33224750Y-61029482D01*
X33579268Y-61100000D01*
X33940732Y-61100000D01*
X34295250Y-61029482D01*
X34629199Y-60891156D01*
X34929744Y-60690338D01*
X35185338Y-60434744D01*
X35386156Y-60134199D01*
X35524482Y-59800250D01*
X35595000Y-59445732D01*
X35595000Y-59084268D01*
X35524482Y-58729750D01*
X35428514Y-58498061D01*
X50765000Y-58498061D01*
X50765000Y-58701939D01*
X50804774Y-58901898D01*
X50882795Y-59090256D01*
X50996063Y-59259774D01*
X51140226Y-59403937D01*
X51309744Y-59517205D01*
X51498102Y-59595226D01*
X51698061Y-59635000D01*
X51901939Y-59635000D01*
X52101898Y-59595226D01*
X52290256Y-59517205D01*
X52459774Y-59403937D01*
X52603937Y-59259774D01*
X52717205Y-59090256D01*
X52795226Y-58901898D01*
X52835000Y-58701939D01*
X52835000Y-58638967D01*
X68865000Y-58638967D01*
X68865000Y-58961033D01*
X68927832Y-59276912D01*
X69051082Y-59574463D01*
X69230013Y-59842252D01*
X69457748Y-60069987D01*
X69725537Y-60248918D01*
X70023088Y-60372168D01*
X70338967Y-60435000D01*
X70661033Y-60435000D01*
X70976912Y-60372168D01*
X71274463Y-60248918D01*
X71542252Y-60069987D01*
X71769987Y-59842252D01*
X71948918Y-59574463D01*
X72072168Y-59276912D01*
X72135000Y-58961033D01*
X72135000Y-58638967D01*
X72072168Y-58323088D01*
X71948918Y-58025537D01*
X71769987Y-57757748D01*
X71542252Y-57530013D01*
X71274463Y-57351082D01*
X70976912Y-57227832D01*
X70661033Y-57165000D01*
X70338967Y-57165000D01*
X70023088Y-57227832D01*
X69725537Y-57351082D01*
X69457748Y-57530013D01*
X69230013Y-57757748D01*
X69051082Y-58025537D01*
X68927832Y-58323088D01*
X68865000Y-58638967D01*
X52835000Y-58638967D01*
X52835000Y-58498061D01*
X52795226Y-58298102D01*
X52717205Y-58109744D01*
X52603937Y-57940226D01*
X52459774Y-57796063D01*
X52290256Y-57682795D01*
X52101898Y-57604774D01*
X51901939Y-57565000D01*
X51698061Y-57565000D01*
X51498102Y-57604774D01*
X51309744Y-57682795D01*
X51140226Y-57796063D01*
X50996063Y-57940226D01*
X50882795Y-58109744D01*
X50804774Y-58298102D01*
X50765000Y-58498061D01*
X35428514Y-58498061D01*
X35386156Y-58395801D01*
X35185338Y-58095256D01*
X34929744Y-57839662D01*
X34629199Y-57638844D01*
X34295250Y-57500518D01*
X33940732Y-57430000D01*
X33579268Y-57430000D01*
X33224750Y-57500518D01*
X32890801Y-57638844D01*
X32590256Y-57839662D01*
X32334662Y-58095256D01*
X32133844Y-58395801D01*
X31995518Y-58729750D01*
X31925000Y-59084268D01*
X30660000Y-59084268D01*
X30660000Y-56433061D01*
X47805000Y-56433061D01*
X47805000Y-56636939D01*
X47844774Y-56836898D01*
X47922795Y-57025256D01*
X48036063Y-57194774D01*
X48180226Y-57338937D01*
X48349744Y-57452205D01*
X48538102Y-57530226D01*
X48738061Y-57570000D01*
X48941939Y-57570000D01*
X49141898Y-57530226D01*
X49330256Y-57452205D01*
X49499774Y-57338937D01*
X49587500Y-57251211D01*
X49640226Y-57303937D01*
X49809744Y-57417205D01*
X49998102Y-57495226D01*
X50198061Y-57535000D01*
X50401939Y-57535000D01*
X50601898Y-57495226D01*
X50790256Y-57417205D01*
X50959774Y-57303937D01*
X51103937Y-57159774D01*
X51217205Y-56990256D01*
X51295226Y-56801898D01*
X51335000Y-56601939D01*
X51335000Y-56398061D01*
X51295226Y-56198102D01*
X51217205Y-56009744D01*
X51142582Y-55898061D01*
X51365000Y-55898061D01*
X51365000Y-56101939D01*
X51404774Y-56301898D01*
X51482795Y-56490256D01*
X51596063Y-56659774D01*
X51740226Y-56803937D01*
X51909744Y-56917205D01*
X52098102Y-56995226D01*
X52298061Y-57035000D01*
X52501939Y-57035000D01*
X52701898Y-56995226D01*
X52890256Y-56917205D01*
X53059774Y-56803937D01*
X53203937Y-56659774D01*
X53317205Y-56490256D01*
X53395226Y-56301898D01*
X53435000Y-56101939D01*
X53435000Y-55898061D01*
X53395226Y-55698102D01*
X53317205Y-55509744D01*
X53203937Y-55340226D01*
X53059774Y-55196063D01*
X52890256Y-55082795D01*
X52701898Y-55004774D01*
X52501939Y-54965000D01*
X52298061Y-54965000D01*
X52098102Y-55004774D01*
X51909744Y-55082795D01*
X51740226Y-55196063D01*
X51596063Y-55340226D01*
X51482795Y-55509744D01*
X51404774Y-55698102D01*
X51365000Y-55898061D01*
X51142582Y-55898061D01*
X51103937Y-55840226D01*
X50959774Y-55696063D01*
X50790256Y-55582795D01*
X50601898Y-55504774D01*
X50401939Y-55465000D01*
X50198061Y-55465000D01*
X49998102Y-55504774D01*
X49809744Y-55582795D01*
X49640226Y-55696063D01*
X49552500Y-55783789D01*
X49499774Y-55731063D01*
X49330256Y-55617795D01*
X49141898Y-55539774D01*
X48941939Y-55500000D01*
X48738061Y-55500000D01*
X48538102Y-55539774D01*
X48349744Y-55617795D01*
X48180226Y-55731063D01*
X48036063Y-55875226D01*
X47922795Y-56044744D01*
X47844774Y-56233102D01*
X47805000Y-56433061D01*
X30660000Y-56433061D01*
X30660000Y-54004268D01*
X31925000Y-54004268D01*
X31925000Y-54365732D01*
X31995518Y-54720250D01*
X32133844Y-55054199D01*
X32334662Y-55354744D01*
X32590256Y-55610338D01*
X32890801Y-55811156D01*
X33224750Y-55949482D01*
X33579268Y-56020000D01*
X33940732Y-56020000D01*
X34295250Y-55949482D01*
X34629199Y-55811156D01*
X34929744Y-55610338D01*
X35185338Y-55354744D01*
X35386156Y-55054199D01*
X35524482Y-54720250D01*
X35528895Y-54698061D01*
X40465000Y-54698061D01*
X40465000Y-54901939D01*
X40504774Y-55101898D01*
X40582795Y-55290256D01*
X40696063Y-55459774D01*
X40840226Y-55603937D01*
X41009744Y-55717205D01*
X41198102Y-55795226D01*
X41398061Y-55835000D01*
X41601939Y-55835000D01*
X41801898Y-55795226D01*
X41990256Y-55717205D01*
X42159774Y-55603937D01*
X42303937Y-55459774D01*
X42417205Y-55290256D01*
X42495226Y-55101898D01*
X42535000Y-54901939D01*
X42535000Y-54698061D01*
X42495226Y-54498102D01*
X42417205Y-54309744D01*
X42303937Y-54140226D01*
X42159774Y-53996063D01*
X41990256Y-53882795D01*
X41801898Y-53804774D01*
X41601939Y-53765000D01*
X41398061Y-53765000D01*
X41198102Y-53804774D01*
X41009744Y-53882795D01*
X40840226Y-53996063D01*
X40696063Y-54140226D01*
X40582795Y-54309744D01*
X40504774Y-54498102D01*
X40465000Y-54698061D01*
X35528895Y-54698061D01*
X35595000Y-54365732D01*
X35595000Y-54004268D01*
X35524482Y-53649750D01*
X35386156Y-53315801D01*
X35185338Y-53015256D01*
X34929744Y-52759662D01*
X34629199Y-52558844D01*
X34295250Y-52420518D01*
X33940732Y-52350000D01*
X33579268Y-52350000D01*
X33224750Y-52420518D01*
X32890801Y-52558844D01*
X32590256Y-52759662D01*
X32334662Y-53015256D01*
X32133844Y-53315801D01*
X31995518Y-53649750D01*
X31925000Y-54004268D01*
X30660000Y-54004268D01*
X30660000Y-51598061D01*
X42465000Y-51598061D01*
X42465000Y-51801939D01*
X42504774Y-52001898D01*
X42582795Y-52190256D01*
X42696063Y-52359774D01*
X42840226Y-52503937D01*
X43009744Y-52617205D01*
X43198102Y-52695226D01*
X43398061Y-52735000D01*
X43601939Y-52735000D01*
X43801898Y-52695226D01*
X43990256Y-52617205D01*
X44159774Y-52503937D01*
X44303937Y-52359774D01*
X44417205Y-52190256D01*
X44495226Y-52001898D01*
X44535000Y-51801939D01*
X44535000Y-51598061D01*
X44495226Y-51398102D01*
X44417205Y-51209744D01*
X44303937Y-51040226D01*
X44159774Y-50896063D01*
X43990256Y-50782795D01*
X43801898Y-50704774D01*
X43601939Y-50665000D01*
X43398061Y-50665000D01*
X43198102Y-50704774D01*
X43009744Y-50782795D01*
X42840226Y-50896063D01*
X42696063Y-51040226D01*
X42582795Y-51209744D01*
X42504774Y-51398102D01*
X42465000Y-51598061D01*
X30660000Y-51598061D01*
X30660000Y-42750000D01*
X33734630Y-42750000D01*
X33756062Y-42967598D01*
X33819532Y-43176834D01*
X33922604Y-43369666D01*
X33926981Y-43375000D01*
X33922604Y-43380334D01*
X33819532Y-43573166D01*
X33756062Y-43782402D01*
X33734630Y-44000000D01*
X33756062Y-44217598D01*
X33819532Y-44426834D01*
X33922604Y-44619666D01*
X33926981Y-44625000D01*
X33922604Y-44630334D01*
X33819532Y-44823166D01*
X33756062Y-45032402D01*
X33734630Y-45250000D01*
X33756062Y-45467598D01*
X33819532Y-45676834D01*
X33922604Y-45869666D01*
X33926981Y-45875000D01*
X33922604Y-45880334D01*
X33819532Y-46073166D01*
X33756062Y-46282402D01*
X33734630Y-46500000D01*
X33756062Y-46717598D01*
X33819532Y-46926834D01*
X33922604Y-47119666D01*
X33926981Y-47125000D01*
X33922604Y-47130334D01*
X33819532Y-47323166D01*
X33756062Y-47532402D01*
X33734630Y-47750000D01*
X33756062Y-47967598D01*
X33819532Y-48176834D01*
X33830306Y-48196991D01*
X33785498Y-48280820D01*
X33749188Y-48400518D01*
X33736928Y-48525000D01*
X33736928Y-49475000D01*
X33749188Y-49599482D01*
X33785498Y-49719180D01*
X33844463Y-49829494D01*
X33923815Y-49926185D01*
X34020506Y-50005537D01*
X34130820Y-50064502D01*
X34250518Y-50100812D01*
X34375000Y-50113072D01*
X35625000Y-50113072D01*
X35749482Y-50100812D01*
X35869180Y-50064502D01*
X35979494Y-50005537D01*
X36076185Y-49926185D01*
X36155537Y-49829494D01*
X36172338Y-49798061D01*
X47765000Y-49798061D01*
X47765000Y-50001939D01*
X47804774Y-50201898D01*
X47882795Y-50390256D01*
X47996063Y-50559774D01*
X48140226Y-50703937D01*
X48309744Y-50817205D01*
X48498102Y-50895226D01*
X48698061Y-50935000D01*
X48865000Y-50935000D01*
X48865000Y-51161033D01*
X48927832Y-51476912D01*
X49051082Y-51774463D01*
X49230013Y-52042252D01*
X49457748Y-52269987D01*
X49725537Y-52448918D01*
X50023088Y-52572168D01*
X50338967Y-52635000D01*
X50661033Y-52635000D01*
X50976912Y-52572168D01*
X51071201Y-52533112D01*
X51104774Y-52701898D01*
X51182795Y-52890256D01*
X51296063Y-53059774D01*
X51440226Y-53203937D01*
X51609744Y-53317205D01*
X51798102Y-53395226D01*
X51998061Y-53435000D01*
X52201939Y-53435000D01*
X52401898Y-53395226D01*
X52590256Y-53317205D01*
X52759774Y-53203937D01*
X52903937Y-53059774D01*
X53017205Y-52890256D01*
X53095226Y-52701898D01*
X53135000Y-52501939D01*
X53135000Y-52298061D01*
X53115109Y-52198061D01*
X56065000Y-52198061D01*
X56065000Y-52401939D01*
X56104774Y-52601898D01*
X56182795Y-52790256D01*
X56296063Y-52959774D01*
X56440226Y-53103937D01*
X56609744Y-53217205D01*
X56798102Y-53295226D01*
X56998061Y-53335000D01*
X57201939Y-53335000D01*
X57401898Y-53295226D01*
X57590256Y-53217205D01*
X57759774Y-53103937D01*
X57903937Y-52959774D01*
X58017205Y-52790256D01*
X58095226Y-52601898D01*
X58135000Y-52401939D01*
X58135000Y-52198061D01*
X58095226Y-51998102D01*
X58017205Y-51809744D01*
X57903937Y-51640226D01*
X57831254Y-51567543D01*
X73484196Y-51567543D01*
X73526499Y-51861963D01*
X73625428Y-52142474D01*
X73702132Y-52285975D01*
X73953758Y-52366634D01*
X73837733Y-52482659D01*
X73888302Y-52533228D01*
X73880820Y-52535498D01*
X73770506Y-52594463D01*
X73673815Y-52673815D01*
X73594463Y-52770506D01*
X73535498Y-52880820D01*
X73499188Y-53000518D01*
X73486928Y-53125000D01*
X73486928Y-54875000D01*
X73499188Y-54999482D01*
X73535498Y-55119180D01*
X73594463Y-55229494D01*
X73673815Y-55326185D01*
X73770506Y-55405537D01*
X73880820Y-55464502D01*
X74000518Y-55500812D01*
X74125000Y-55513072D01*
X75875000Y-55513072D01*
X75999482Y-55500812D01*
X76119180Y-55464502D01*
X76229494Y-55405537D01*
X76326185Y-55326185D01*
X76405537Y-55229494D01*
X76464502Y-55119180D01*
X76500812Y-54999482D01*
X76513072Y-54875000D01*
X76513072Y-53125000D01*
X76500812Y-53000518D01*
X76464502Y-52880820D01*
X76405537Y-52770506D01*
X76326185Y-52673815D01*
X76229494Y-52594463D01*
X76119180Y-52535498D01*
X76111698Y-52533228D01*
X76162267Y-52482659D01*
X76046242Y-52366634D01*
X76297868Y-52285975D01*
X76426267Y-52017671D01*
X76499855Y-51729474D01*
X76515804Y-51432457D01*
X76473501Y-51138037D01*
X76374572Y-50857526D01*
X76297868Y-50714025D01*
X76046240Y-50633365D01*
X75179605Y-51500000D01*
X75193748Y-51514143D01*
X75014143Y-51693748D01*
X75000000Y-51679605D01*
X74985858Y-51693748D01*
X74806253Y-51514143D01*
X74820395Y-51500000D01*
X73953760Y-50633365D01*
X73702132Y-50714025D01*
X73573733Y-50982329D01*
X73500145Y-51270526D01*
X73484196Y-51567543D01*
X57831254Y-51567543D01*
X57759774Y-51496063D01*
X57590256Y-51382795D01*
X57401898Y-51304774D01*
X57201939Y-51265000D01*
X56998061Y-51265000D01*
X56798102Y-51304774D01*
X56609744Y-51382795D01*
X56440226Y-51496063D01*
X56296063Y-51640226D01*
X56182795Y-51809744D01*
X56104774Y-51998102D01*
X56065000Y-52198061D01*
X53115109Y-52198061D01*
X53095226Y-52098102D01*
X53017205Y-51909744D01*
X52903937Y-51740226D01*
X52759774Y-51596063D01*
X52590256Y-51482795D01*
X52401898Y-51404774D01*
X52201939Y-51365000D01*
X52094429Y-51365000D01*
X52135000Y-51161033D01*
X52135000Y-50838967D01*
X52072168Y-50523088D01*
X51994431Y-50335413D01*
X59444192Y-50335413D01*
X59539956Y-50599814D01*
X59829571Y-50740704D01*
X60141108Y-50822384D01*
X60462595Y-50841718D01*
X60781675Y-50797961D01*
X61086088Y-50692795D01*
X61260044Y-50599814D01*
X61312943Y-50453760D01*
X74133365Y-50453760D01*
X75000000Y-51320395D01*
X75866635Y-50453760D01*
X75785975Y-50202132D01*
X75517671Y-50073733D01*
X75229474Y-50000145D01*
X74932457Y-49984196D01*
X74638037Y-50026499D01*
X74357526Y-50125428D01*
X74214025Y-50202132D01*
X74133365Y-50453760D01*
X61312943Y-50453760D01*
X61355808Y-50335413D01*
X60400000Y-49379605D01*
X59444192Y-50335413D01*
X51994431Y-50335413D01*
X51948918Y-50225537D01*
X51769987Y-49957748D01*
X51542252Y-49730013D01*
X51274463Y-49551082D01*
X50976912Y-49427832D01*
X50661033Y-49365000D01*
X50338967Y-49365000D01*
X50023088Y-49427832D01*
X49768396Y-49533329D01*
X49717205Y-49409744D01*
X49603937Y-49240226D01*
X49459774Y-49096063D01*
X49290256Y-48982795D01*
X49101898Y-48904774D01*
X48901939Y-48865000D01*
X48698061Y-48865000D01*
X48498102Y-48904774D01*
X48309744Y-48982795D01*
X48140226Y-49096063D01*
X47996063Y-49240226D01*
X47882795Y-49409744D01*
X47804774Y-49598102D01*
X47765000Y-49798061D01*
X36172338Y-49798061D01*
X36214502Y-49719180D01*
X36250812Y-49599482D01*
X36263072Y-49475000D01*
X36263072Y-48525000D01*
X36250812Y-48400518D01*
X36219733Y-48298061D01*
X55565000Y-48298061D01*
X55565000Y-48501939D01*
X55604774Y-48701898D01*
X55682795Y-48890256D01*
X55796063Y-49059774D01*
X55940226Y-49203937D01*
X56109744Y-49317205D01*
X56298102Y-49395226D01*
X56498061Y-49435000D01*
X56701939Y-49435000D01*
X56901898Y-49395226D01*
X57090256Y-49317205D01*
X57171985Y-49262595D01*
X58758282Y-49262595D01*
X58802039Y-49581675D01*
X58907205Y-49886088D01*
X59000186Y-50060044D01*
X59264587Y-50155808D01*
X60220395Y-49200000D01*
X60579605Y-49200000D01*
X61535413Y-50155808D01*
X61799814Y-50060044D01*
X61940704Y-49770429D01*
X62022384Y-49458892D01*
X62041718Y-49137405D01*
X61997961Y-48818325D01*
X61892795Y-48513912D01*
X61799814Y-48339956D01*
X61535413Y-48244192D01*
X60579605Y-49200000D01*
X60220395Y-49200000D01*
X59264587Y-48244192D01*
X59000186Y-48339956D01*
X58859296Y-48629571D01*
X58777616Y-48941108D01*
X58758282Y-49262595D01*
X57171985Y-49262595D01*
X57259774Y-49203937D01*
X57403937Y-49059774D01*
X57517205Y-48890256D01*
X57595226Y-48701898D01*
X57635000Y-48501939D01*
X57635000Y-48298061D01*
X57595226Y-48098102D01*
X57581344Y-48064587D01*
X59444192Y-48064587D01*
X60400000Y-49020395D01*
X61355808Y-48064587D01*
X61260044Y-47800186D01*
X60970429Y-47659296D01*
X60658892Y-47577616D01*
X60337405Y-47558282D01*
X60018325Y-47602039D01*
X59713912Y-47707205D01*
X59539956Y-47800186D01*
X59444192Y-48064587D01*
X57581344Y-48064587D01*
X57517205Y-47909744D01*
X57403937Y-47740226D01*
X57259774Y-47596063D01*
X57090256Y-47482795D01*
X56901898Y-47404774D01*
X56701939Y-47365000D01*
X56498061Y-47365000D01*
X56298102Y-47404774D01*
X56109744Y-47482795D01*
X55940226Y-47596063D01*
X55796063Y-47740226D01*
X55682795Y-47909744D01*
X55604774Y-48098102D01*
X55565000Y-48298061D01*
X36219733Y-48298061D01*
X36214502Y-48280820D01*
X36169694Y-48196991D01*
X36180468Y-48176834D01*
X36243938Y-47967598D01*
X36265370Y-47750000D01*
X36243938Y-47532402D01*
X36180468Y-47323166D01*
X36077396Y-47130334D01*
X36073019Y-47125000D01*
X36077396Y-47119666D01*
X36180468Y-46926834D01*
X36243938Y-46717598D01*
X36265370Y-46500000D01*
X36245481Y-46298061D01*
X42365000Y-46298061D01*
X42365000Y-46501939D01*
X42404774Y-46701898D01*
X42482795Y-46890256D01*
X42596063Y-47059774D01*
X42740226Y-47203937D01*
X42909744Y-47317205D01*
X43098102Y-47395226D01*
X43298061Y-47435000D01*
X43501939Y-47435000D01*
X43701898Y-47395226D01*
X43890256Y-47317205D01*
X44059774Y-47203937D01*
X44203937Y-47059774D01*
X44317205Y-46890256D01*
X44395226Y-46701898D01*
X44435000Y-46501939D01*
X44435000Y-46298061D01*
X44395226Y-46098102D01*
X44317205Y-45909744D01*
X44203937Y-45740226D01*
X44059774Y-45596063D01*
X43890256Y-45482795D01*
X43701898Y-45404774D01*
X43501939Y-45365000D01*
X43298061Y-45365000D01*
X43098102Y-45404774D01*
X42909744Y-45482795D01*
X42740226Y-45596063D01*
X42596063Y-45740226D01*
X42482795Y-45909744D01*
X42404774Y-46098102D01*
X42365000Y-46298061D01*
X36245481Y-46298061D01*
X36243938Y-46282402D01*
X36180468Y-46073166D01*
X36077396Y-45880334D01*
X36073019Y-45875000D01*
X36077396Y-45869666D01*
X36180468Y-45676834D01*
X36243938Y-45467598D01*
X36265370Y-45250000D01*
X36243938Y-45032402D01*
X36180468Y-44823166D01*
X36082011Y-44638967D01*
X48065000Y-44638967D01*
X48065000Y-44961033D01*
X48127832Y-45276912D01*
X48251082Y-45574463D01*
X48430013Y-45842252D01*
X48657748Y-46069987D01*
X48925537Y-46248918D01*
X49223088Y-46372168D01*
X49538967Y-46435000D01*
X49861033Y-46435000D01*
X50176912Y-46372168D01*
X50351140Y-46300000D01*
X63561928Y-46300000D01*
X63574188Y-46424482D01*
X63610498Y-46544180D01*
X63669463Y-46654494D01*
X63748815Y-46751185D01*
X63845506Y-46830537D01*
X63955820Y-46889502D01*
X64075518Y-46925812D01*
X64200000Y-46938072D01*
X64714250Y-46935000D01*
X64873000Y-46776250D01*
X64873000Y-45627000D01*
X65127000Y-45627000D01*
X65127000Y-46776250D01*
X65285750Y-46935000D01*
X65800000Y-46938072D01*
X65924482Y-46925812D01*
X66044180Y-46889502D01*
X66154494Y-46830537D01*
X66251185Y-46751185D01*
X66330537Y-46654494D01*
X66389502Y-46544180D01*
X66425812Y-46424482D01*
X66438072Y-46300000D01*
X66435000Y-45785750D01*
X66276250Y-45627000D01*
X65127000Y-45627000D01*
X64873000Y-45627000D01*
X63723750Y-45627000D01*
X63565000Y-45785750D01*
X63561928Y-46300000D01*
X50351140Y-46300000D01*
X50474463Y-46248918D01*
X50742252Y-46069987D01*
X50969987Y-45842252D01*
X51148918Y-45574463D01*
X51272168Y-45276912D01*
X51335000Y-44961033D01*
X51335000Y-44700000D01*
X63561928Y-44700000D01*
X63565000Y-45214250D01*
X63723750Y-45373000D01*
X64873000Y-45373000D01*
X64873000Y-44223750D01*
X65127000Y-44223750D01*
X65127000Y-45373000D01*
X66276250Y-45373000D01*
X66290585Y-45358665D01*
X67065000Y-45358665D01*
X67065000Y-45641335D01*
X67120147Y-45918574D01*
X67228320Y-46179727D01*
X67385363Y-46414759D01*
X67585241Y-46614637D01*
X67820273Y-46771680D01*
X68081426Y-46879853D01*
X68358665Y-46935000D01*
X68641335Y-46935000D01*
X68918574Y-46879853D01*
X69179727Y-46771680D01*
X69414759Y-46614637D01*
X69614637Y-46414759D01*
X69771680Y-46179727D01*
X69879853Y-45918574D01*
X69935000Y-45641335D01*
X69935000Y-45358665D01*
X69879853Y-45081426D01*
X69771680Y-44820273D01*
X69665714Y-44661682D01*
X71565000Y-44661682D01*
X71565000Y-45338318D01*
X71697006Y-46001952D01*
X71955943Y-46627082D01*
X72331862Y-47189685D01*
X72810315Y-47668138D01*
X73372918Y-48044057D01*
X73998048Y-48302994D01*
X74661682Y-48435000D01*
X75338318Y-48435000D01*
X76001952Y-48302994D01*
X76627082Y-48044057D01*
X77189685Y-47668138D01*
X77668138Y-47189685D01*
X78044057Y-46627082D01*
X78302994Y-46001952D01*
X78435000Y-45338318D01*
X78435000Y-44661682D01*
X78302994Y-43998048D01*
X78044057Y-43372918D01*
X77668138Y-42810315D01*
X77189685Y-42331862D01*
X76627082Y-41955943D01*
X76001952Y-41697006D01*
X75338318Y-41565000D01*
X74661682Y-41565000D01*
X73998048Y-41697006D01*
X73372918Y-41955943D01*
X72810315Y-42331862D01*
X72331862Y-42810315D01*
X71955943Y-43372918D01*
X71697006Y-43998048D01*
X71565000Y-44661682D01*
X69665714Y-44661682D01*
X69614637Y-44585241D01*
X69414759Y-44385363D01*
X69179727Y-44228320D01*
X68918574Y-44120147D01*
X68641335Y-44065000D01*
X68358665Y-44065000D01*
X68081426Y-44120147D01*
X67820273Y-44228320D01*
X67585241Y-44385363D01*
X67385363Y-44585241D01*
X67228320Y-44820273D01*
X67120147Y-45081426D01*
X67065000Y-45358665D01*
X66290585Y-45358665D01*
X66435000Y-45214250D01*
X66438072Y-44700000D01*
X66425812Y-44575518D01*
X66389502Y-44455820D01*
X66330537Y-44345506D01*
X66251185Y-44248815D01*
X66154494Y-44169463D01*
X66044180Y-44110498D01*
X65924482Y-44074188D01*
X65800000Y-44061928D01*
X65285750Y-44065000D01*
X65127000Y-44223750D01*
X64873000Y-44223750D01*
X64714250Y-44065000D01*
X64200000Y-44061928D01*
X64075518Y-44074188D01*
X63955820Y-44110498D01*
X63845506Y-44169463D01*
X63748815Y-44248815D01*
X63669463Y-44345506D01*
X63610498Y-44455820D01*
X63574188Y-44575518D01*
X63561928Y-44700000D01*
X51335000Y-44700000D01*
X51335000Y-44638967D01*
X51272168Y-44323088D01*
X51148918Y-44025537D01*
X50969987Y-43757748D01*
X50742252Y-43530013D01*
X50474463Y-43351082D01*
X50176912Y-43227832D01*
X49861033Y-43165000D01*
X49538967Y-43165000D01*
X49223088Y-43227832D01*
X48925537Y-43351082D01*
X48657748Y-43530013D01*
X48430013Y-43757748D01*
X48251082Y-44025537D01*
X48127832Y-44323088D01*
X48065000Y-44638967D01*
X36082011Y-44638967D01*
X36077396Y-44630334D01*
X36073019Y-44625000D01*
X36077396Y-44619666D01*
X36180468Y-44426834D01*
X36243938Y-44217598D01*
X36265370Y-44000000D01*
X36243938Y-43782402D01*
X36180468Y-43573166D01*
X36077396Y-43380334D01*
X36073019Y-43375000D01*
X36077396Y-43369666D01*
X36180468Y-43176834D01*
X36243938Y-42967598D01*
X36265370Y-42750000D01*
X36243938Y-42532402D01*
X36180468Y-42323166D01*
X36077396Y-42130334D01*
X35938686Y-41961314D01*
X35769666Y-41822604D01*
X35576834Y-41719532D01*
X35367598Y-41656062D01*
X35204521Y-41640000D01*
X34795479Y-41640000D01*
X34632402Y-41656062D01*
X34423166Y-41719532D01*
X34230334Y-41822604D01*
X34061314Y-41961314D01*
X33922604Y-42130334D01*
X33819532Y-42323166D01*
X33756062Y-42532402D01*
X33734630Y-42750000D01*
X30660000Y-42750000D01*
X30660000Y-40660000D01*
X38512190Y-40660000D01*
X38257748Y-40830013D01*
%TA.AperFunction,Conductor*%
D22*
G36*
X38257748Y-40830013D02*
G01*
X38030013Y-41057748D01*
X37851082Y-41325537D01*
X37727832Y-41623088D01*
X37665000Y-41938967D01*
X37665000Y-42261033D01*
X37727832Y-42576912D01*
X37851082Y-42874463D01*
X38030013Y-43142252D01*
X38257748Y-43369987D01*
X38525537Y-43548918D01*
X38823088Y-43672168D01*
X39138967Y-43735000D01*
X39461033Y-43735000D01*
X39776912Y-43672168D01*
X40074463Y-43548918D01*
X40342252Y-43369987D01*
X40569987Y-43142252D01*
X40748918Y-42874463D01*
X40872168Y-42576912D01*
X40935000Y-42261033D01*
X40935000Y-41938967D01*
X40872168Y-41623088D01*
X40748918Y-41325537D01*
X40569987Y-41057748D01*
X40342252Y-40830013D01*
X40087810Y-40660000D01*
X79340000Y-40660000D01*
X79340001Y-77840000D01*
X58487810Y-77840000D01*
X58742252Y-77669987D01*
X58969987Y-77442252D01*
X59148918Y-77174463D01*
X59272168Y-76876912D01*
X59335000Y-76561033D01*
X59335000Y-76238967D01*
X59272168Y-75923088D01*
X59148918Y-75625537D01*
X58969987Y-75357748D01*
X58742252Y-75130013D01*
X58474463Y-74951082D01*
X58176912Y-74827832D01*
X57861033Y-74765000D01*
X57538967Y-74765000D01*
X57223088Y-74827832D01*
X56925537Y-74951082D01*
X56657748Y-75130013D01*
X56430013Y-75357748D01*
X56251082Y-75625537D01*
X56127832Y-75923088D01*
X56065000Y-76238967D01*
X56065000Y-76561033D01*
X56127832Y-76876912D01*
X56251082Y-77174463D01*
X56430013Y-77442252D01*
X56657748Y-77669987D01*
X56912190Y-77840000D01*
X36932475Y-77840000D01*
X37189685Y-77668138D01*
X37668138Y-77189685D01*
X38044057Y-76627082D01*
X38302994Y-76001952D01*
X38435000Y-75338318D01*
X38435000Y-74661682D01*
X38302994Y-73998048D01*
X38044057Y-73372918D01*
X37668138Y-72810315D01*
X37189685Y-72331862D01*
X37170837Y-72319268D01*
X39585000Y-72319268D01*
X39585000Y-72680732D01*
X39655518Y-73035250D01*
X39793844Y-73369199D01*
X39994662Y-73669744D01*
X40250256Y-73925338D01*
X40550801Y-74126156D01*
X40884750Y-74264482D01*
X41239268Y-74335000D01*
X41600732Y-74335000D01*
X41955250Y-74264482D01*
X42289199Y-74126156D01*
X42589744Y-73925338D01*
X42845338Y-73669744D01*
X43046156Y-73369199D01*
X43184482Y-73035250D01*
X43255000Y-72680732D01*
X43255000Y-72319268D01*
X44665000Y-72319268D01*
X44665000Y-72680732D01*
X44735518Y-73035250D01*
X44873844Y-73369199D01*
X45074662Y-73669744D01*
X45330256Y-73925338D01*
X45630801Y-74126156D01*
X45964750Y-74264482D01*
X46319268Y-74335000D01*
X46680732Y-74335000D01*
X47035250Y-74264482D01*
X47369199Y-74126156D01*
X47669744Y-73925338D01*
X47925338Y-73669744D01*
X48126156Y-73369199D01*
X48264482Y-73035250D01*
X48335000Y-72680732D01*
X48335000Y-72319268D01*
X49085000Y-72319268D01*
X49085000Y-72680732D01*
X49155518Y-73035250D01*
X49293844Y-73369199D01*
X49494662Y-73669744D01*
X49750256Y-73925338D01*
X50050801Y-74126156D01*
X50384750Y-74264482D01*
X50739268Y-74335000D01*
X51100732Y-74335000D01*
X51455250Y-74264482D01*
X51789199Y-74126156D01*
X52089744Y-73925338D01*
X52345338Y-73669744D01*
X52546156Y-73369199D01*
X52684482Y-73035250D01*
X52755000Y-72680732D01*
X52755000Y-72319268D01*
X54165000Y-72319268D01*
X54165000Y-72680732D01*
X54235518Y-73035250D01*
X54373844Y-73369199D01*
X54574662Y-73669744D01*
X54830256Y-73925338D01*
X55130801Y-74126156D01*
X55464750Y-74264482D01*
X55819268Y-74335000D01*
X56180732Y-74335000D01*
X56535250Y-74264482D01*
X56869199Y-74126156D01*
X57169744Y-73925338D01*
X57220082Y-73875000D01*
X60986928Y-73875000D01*
X60999188Y-73999482D01*
X61035498Y-74119180D01*
X61094463Y-74229494D01*
X61173815Y-74326185D01*
X61270506Y-74405537D01*
X61380820Y-74464502D01*
X61500518Y-74500812D01*
X61625000Y-74513072D01*
X62214250Y-74510000D01*
X62373000Y-74351250D01*
X62373000Y-73127000D01*
X61148750Y-73127000D01*
X60990000Y-73285750D01*
X60986928Y-73875000D01*
X57220082Y-73875000D01*
X57425338Y-73669744D01*
X57626156Y-73369199D01*
X57764482Y-73035250D01*
X57835000Y-72680732D01*
X57835000Y-72319268D01*
X57796358Y-72125000D01*
X60986928Y-72125000D01*
X60990000Y-72714250D01*
X61148750Y-72873000D01*
X62373000Y-72873000D01*
X62373000Y-71648750D01*
X62627000Y-71648750D01*
X62627000Y-72873000D01*
X62647000Y-72873000D01*
X62647000Y-73127000D01*
X62627000Y-73127000D01*
X62627000Y-74351250D01*
X62785750Y-74510000D01*
X63375000Y-74513072D01*
X63499482Y-74500812D01*
X63619180Y-74464502D01*
X63729494Y-74405537D01*
X63826185Y-74326185D01*
X63905537Y-74229494D01*
X63964502Y-74119180D01*
X63968974Y-74104436D01*
X64037431Y-74172893D01*
X64284747Y-74338144D01*
X64559549Y-74451971D01*
X64851278Y-74510000D01*
X65148722Y-74510000D01*
X65440451Y-74451971D01*
X65715253Y-74338144D01*
X65962569Y-74172893D01*
X66172893Y-73962569D01*
X66338144Y-73715253D01*
X66451971Y-73440451D01*
X66479908Y-73300000D01*
X71561928Y-73300000D01*
X71574188Y-73424482D01*
X71610498Y-73544180D01*
X71669463Y-73654494D01*
X71748815Y-73751185D01*
X71845506Y-73830537D01*
X71955820Y-73889502D01*
X72075518Y-73925812D01*
X72200000Y-73938072D01*
X72714250Y-73935000D01*
X72873000Y-73776250D01*
X72873000Y-72627000D01*
X73127000Y-72627000D01*
X73127000Y-73776250D01*
X73285750Y-73935000D01*
X73800000Y-73938072D01*
X73924482Y-73925812D01*
X74044180Y-73889502D01*
X74154494Y-73830537D01*
X74251185Y-73751185D01*
X74330537Y-73654494D01*
X74389502Y-73544180D01*
X74425812Y-73424482D01*
X74438072Y-73300000D01*
X74435000Y-72785750D01*
X74276250Y-72627000D01*
X73127000Y-72627000D01*
X72873000Y-72627000D01*
X71723750Y-72627000D01*
X71565000Y-72785750D01*
X71561928Y-73300000D01*
X66479908Y-73300000D01*
X66510000Y-73148722D01*
X66510000Y-72851278D01*
X66451971Y-72559549D01*
X66338144Y-72284747D01*
X66172893Y-72037431D01*
X65962569Y-71827107D01*
X65772340Y-71700000D01*
X71561928Y-71700000D01*
X71565000Y-72214250D01*
X71723750Y-72373000D01*
X72873000Y-72373000D01*
X72873000Y-71223750D01*
X73127000Y-71223750D01*
X73127000Y-72373000D01*
X74276250Y-72373000D01*
X74290585Y-72358665D01*
X75065000Y-72358665D01*
X75065000Y-72641335D01*
X75120147Y-72918574D01*
X75228320Y-73179727D01*
X75385363Y-73414759D01*
X75585241Y-73614637D01*
X75820273Y-73771680D01*
X76081426Y-73879853D01*
X76358665Y-73935000D01*
X76641335Y-73935000D01*
X76918574Y-73879853D01*
X77179727Y-73771680D01*
X77414759Y-73614637D01*
X77614637Y-73414759D01*
X77771680Y-73179727D01*
X77879853Y-72918574D01*
X77935000Y-72641335D01*
X77935000Y-72358665D01*
X77879853Y-72081426D01*
X77771680Y-71820273D01*
X77614637Y-71585241D01*
X77414759Y-71385363D01*
X77179727Y-71228320D01*
X76918574Y-71120147D01*
X76641335Y-71065000D01*
X76358665Y-71065000D01*
X76081426Y-71120147D01*
X75820273Y-71228320D01*
X75585241Y-71385363D01*
X75385363Y-71585241D01*
X75228320Y-71820273D01*
X75120147Y-72081426D01*
X75065000Y-72358665D01*
X74290585Y-72358665D01*
X74435000Y-72214250D01*
X74438072Y-71700000D01*
X74425812Y-71575518D01*
X74389502Y-71455820D01*
X74330537Y-71345506D01*
X74251185Y-71248815D01*
X74154494Y-71169463D01*
X74044180Y-71110498D01*
X73924482Y-71074188D01*
X73800000Y-71061928D01*
X73285750Y-71065000D01*
X73127000Y-71223750D01*
X72873000Y-71223750D01*
X72714250Y-71065000D01*
X72200000Y-71061928D01*
X72075518Y-71074188D01*
X71955820Y-71110498D01*
X71845506Y-71169463D01*
X71748815Y-71248815D01*
X71669463Y-71345506D01*
X71610498Y-71455820D01*
X71574188Y-71575518D01*
X71561928Y-71700000D01*
X65772340Y-71700000D01*
X65715253Y-71661856D01*
X65440451Y-71548029D01*
X65148722Y-71490000D01*
X64851278Y-71490000D01*
X64559549Y-71548029D01*
X64284747Y-71661856D01*
X64037431Y-71827107D01*
X63968974Y-71895564D01*
X63964502Y-71880820D01*
X63905537Y-71770506D01*
X63826185Y-71673815D01*
X63729494Y-71594463D01*
X63619180Y-71535498D01*
X63499482Y-71499188D01*
X63375000Y-71486928D01*
X62785750Y-71490000D01*
X62627000Y-71648750D01*
X62373000Y-71648750D01*
X62214250Y-71490000D01*
X61625000Y-71486928D01*
X61500518Y-71499188D01*
X61380820Y-71535498D01*
X61270506Y-71594463D01*
X61173815Y-71673815D01*
X61094463Y-71770506D01*
X61035498Y-71880820D01*
X60999188Y-72000518D01*
X60986928Y-72125000D01*
X57796358Y-72125000D01*
X57764482Y-71964750D01*
X57626156Y-71630801D01*
X57425338Y-71330256D01*
X57169744Y-71074662D01*
X56869199Y-70873844D01*
X56535250Y-70735518D01*
X56180732Y-70665000D01*
X55819268Y-70665000D01*
X55464750Y-70735518D01*
X55130801Y-70873844D01*
X54830256Y-71074662D01*
X54574662Y-71330256D01*
X54373844Y-71630801D01*
X54235518Y-71964750D01*
X54165000Y-72319268D01*
X52755000Y-72319268D01*
X52684482Y-71964750D01*
X52546156Y-71630801D01*
X52345338Y-71330256D01*
X52089744Y-71074662D01*
X51789199Y-70873844D01*
X51455250Y-70735518D01*
X51100732Y-70665000D01*
X50739268Y-70665000D01*
X50384750Y-70735518D01*
X50050801Y-70873844D01*
X49750256Y-71074662D01*
X49494662Y-71330256D01*
X49293844Y-71630801D01*
X49155518Y-71964750D01*
X49085000Y-72319268D01*
X48335000Y-72319268D01*
X48264482Y-71964750D01*
X48126156Y-71630801D01*
X47925338Y-71330256D01*
X47669744Y-71074662D01*
X47369199Y-70873844D01*
X47035250Y-70735518D01*
X46680732Y-70665000D01*
X46319268Y-70665000D01*
X45964750Y-70735518D01*
X45630801Y-70873844D01*
X45330256Y-71074662D01*
X45074662Y-71330256D01*
X44873844Y-71630801D01*
X44735518Y-71964750D01*
X44665000Y-72319268D01*
X43255000Y-72319268D01*
X43184482Y-71964750D01*
X43046156Y-71630801D01*
X42845338Y-71330256D01*
X42589744Y-71074662D01*
X42289199Y-70873844D01*
X41955250Y-70735518D01*
X41600732Y-70665000D01*
X41239268Y-70665000D01*
X40884750Y-70735518D01*
X40550801Y-70873844D01*
X40250256Y-71074662D01*
X39994662Y-71330256D01*
X39793844Y-71630801D01*
X39655518Y-71964750D01*
X39585000Y-72319268D01*
X37170837Y-72319268D01*
X36627082Y-71955943D01*
X36001952Y-71697006D01*
X35338318Y-71565000D01*
X34661682Y-71565000D01*
X33998048Y-71697006D01*
X33372918Y-71955943D01*
X32810315Y-72331862D01*
X32331862Y-72810315D01*
X31955943Y-73372918D01*
X31697006Y-73998048D01*
X31565000Y-74661682D01*
X31565000Y-75338318D01*
X31697006Y-76001952D01*
X31955943Y-76627082D01*
X32331862Y-77189685D01*
X32810315Y-77668138D01*
X33067525Y-77840000D01*
X30660000Y-77840000D01*
X30660000Y-68399268D01*
X31925000Y-68399268D01*
X31925000Y-68760732D01*
X31995518Y-69115250D01*
X32133844Y-69449199D01*
X32334662Y-69749744D01*
X32590256Y-70005338D01*
X32890801Y-70206156D01*
X33224750Y-70344482D01*
X33579268Y-70415000D01*
X33940732Y-70415000D01*
X34295250Y-70344482D01*
X34629199Y-70206156D01*
X34929744Y-70005338D01*
X35185338Y-69749744D01*
X35386156Y-69449199D01*
X35524482Y-69115250D01*
X35595000Y-68760732D01*
X35595000Y-68399268D01*
X35524482Y-68044750D01*
X35386156Y-67710801D01*
X35185338Y-67410256D01*
X34929744Y-67154662D01*
X34629199Y-66953844D01*
X34295250Y-66815518D01*
X33940732Y-66745000D01*
X33579268Y-66745000D01*
X33224750Y-66815518D01*
X32890801Y-66953844D01*
X32590256Y-67154662D01*
X32334662Y-67410256D01*
X32133844Y-67710801D01*
X31995518Y-68044750D01*
X31925000Y-68399268D01*
X30660000Y-68399268D01*
X30660000Y-66399268D01*
X38665000Y-66399268D01*
X38665000Y-66760732D01*
X38735518Y-67115250D01*
X38873844Y-67449199D01*
X39074662Y-67749744D01*
X39330256Y-68005338D01*
X39630801Y-68206156D01*
X39964750Y-68344482D01*
X40319268Y-68415000D01*
X40680732Y-68415000D01*
X41035250Y-68344482D01*
X41369199Y-68206156D01*
X41669744Y-68005338D01*
X41925338Y-67749744D01*
X42126156Y-67449199D01*
X42179975Y-67319268D01*
X48085000Y-67319268D01*
X48085000Y-67680732D01*
X48155518Y-68035250D01*
X48293844Y-68369199D01*
X48494662Y-68669744D01*
X48750256Y-68925338D01*
X49050801Y-69126156D01*
X49384750Y-69264482D01*
X49739268Y-69335000D01*
X50100732Y-69335000D01*
X50455250Y-69264482D01*
X50789199Y-69126156D01*
X51089744Y-68925338D01*
X51345338Y-68669744D01*
X51546156Y-68369199D01*
X51684482Y-68035250D01*
X51755000Y-67680732D01*
X51755000Y-67319268D01*
X53165000Y-67319268D01*
X53165000Y-67680732D01*
X53235518Y-68035250D01*
X53373844Y-68369199D01*
X53574662Y-68669744D01*
X53830256Y-68925338D01*
X54130801Y-69126156D01*
X54464750Y-69264482D01*
X54819268Y-69335000D01*
X55180732Y-69335000D01*
X55535250Y-69264482D01*
X55869199Y-69126156D01*
X56169744Y-68925338D01*
X56381879Y-68713203D01*
X56365000Y-68798061D01*
X56365000Y-69001939D01*
X56404774Y-69201898D01*
X56482795Y-69390256D01*
X56596063Y-69559774D01*
X56740226Y-69703937D01*
X56909744Y-69817205D01*
X57098102Y-69895226D01*
X57298061Y-69935000D01*
X57501939Y-69935000D01*
X57701898Y-69895226D01*
X57890256Y-69817205D01*
X58059774Y-69703937D01*
X58203937Y-69559774D01*
X58317205Y-69390256D01*
X58395226Y-69201898D01*
X58435000Y-69001939D01*
X58435000Y-68798061D01*
X58395226Y-68598102D01*
X58317205Y-68409744D01*
X58203937Y-68240226D01*
X58102678Y-68138967D01*
X69065000Y-68138967D01*
X69065000Y-68461033D01*
X69127832Y-68776912D01*
X69251082Y-69074463D01*
X69430013Y-69342252D01*
X69657748Y-69569987D01*
X69925537Y-69748918D01*
X70223088Y-69872168D01*
X70538967Y-69935000D01*
X70861033Y-69935000D01*
X71176912Y-69872168D01*
X71474463Y-69748918D01*
X71742252Y-69569987D01*
X71969987Y-69342252D01*
X72148918Y-69074463D01*
X72272168Y-68776912D01*
X72335000Y-68461033D01*
X72335000Y-68138967D01*
X72272168Y-67823088D01*
X72148918Y-67525537D01*
X71969987Y-67257748D01*
X71742252Y-67030013D01*
X71474463Y-66851082D01*
X71176912Y-66727832D01*
X70861033Y-66665000D01*
X70538967Y-66665000D01*
X70223088Y-66727832D01*
X69925537Y-66851082D01*
X69657748Y-67030013D01*
X69430013Y-67257748D01*
X69251082Y-67525537D01*
X69127832Y-67823088D01*
X69065000Y-68138967D01*
X58102678Y-68138967D01*
X58059774Y-68096063D01*
X57890256Y-67982795D01*
X57701898Y-67904774D01*
X57501939Y-67865000D01*
X57298061Y-67865000D01*
X57098102Y-67904774D01*
X56909744Y-67982795D01*
X56740226Y-68096063D01*
X56738632Y-68097657D01*
X56764482Y-68035250D01*
X56835000Y-67680732D01*
X56835000Y-67319268D01*
X56764482Y-66964750D01*
X56732833Y-66888342D01*
X56783853Y-66909475D01*
X56983812Y-66949249D01*
X57187690Y-66949249D01*
X57387649Y-66909475D01*
X57576007Y-66831454D01*
X57745525Y-66718186D01*
X57889688Y-66574023D01*
X58002956Y-66404505D01*
X58080977Y-66216147D01*
X58120751Y-66016188D01*
X58120751Y-65812310D01*
X58080977Y-65612351D01*
X58002956Y-65423993D01*
X57889688Y-65254475D01*
X57745525Y-65110312D01*
X57576007Y-64997044D01*
X57387649Y-64919023D01*
X57187690Y-64879249D01*
X56983812Y-64879249D01*
X56783853Y-64919023D01*
X56595495Y-64997044D01*
X56425977Y-65110312D01*
X56281814Y-65254475D01*
X56168546Y-65423993D01*
X56090525Y-65612351D01*
X56050751Y-65812310D01*
X56050751Y-65995153D01*
X55869199Y-65873844D01*
X55535250Y-65735518D01*
X55180732Y-65665000D01*
X54819268Y-65665000D01*
X54464750Y-65735518D01*
X54130801Y-65873844D01*
X53830256Y-66074662D01*
X53574662Y-66330256D01*
X53373844Y-66630801D01*
X53235518Y-66964750D01*
X53165000Y-67319268D01*
X51755000Y-67319268D01*
X51684482Y-66964750D01*
X51546156Y-66630801D01*
X51345338Y-66330256D01*
X51089744Y-66074662D01*
X50789199Y-65873844D01*
X50455250Y-65735518D01*
X50100732Y-65665000D01*
X49739268Y-65665000D01*
X49384750Y-65735518D01*
X49050801Y-65873844D01*
X48750256Y-66074662D01*
X48494662Y-66330256D01*
X48293844Y-66630801D01*
X48155518Y-66964750D01*
X48085000Y-67319268D01*
X42179975Y-67319268D01*
X42264482Y-67115250D01*
X42335000Y-66760732D01*
X42335000Y-66399268D01*
X42264482Y-66044750D01*
X42126156Y-65710801D01*
X41925338Y-65410256D01*
X41669744Y-65154662D01*
X41369199Y-64953844D01*
X41035250Y-64815518D01*
X40680732Y-64745000D01*
X40319268Y-64745000D01*
X39964750Y-64815518D01*
X39630801Y-64953844D01*
X39330256Y-65154662D01*
X39074662Y-65410256D01*
X38873844Y-65710801D01*
X38735518Y-66044750D01*
X38665000Y-66399268D01*
X30660000Y-66399268D01*
X30660000Y-63319268D01*
X31925000Y-63319268D01*
X31925000Y-63680732D01*
X31995518Y-64035250D01*
X32133844Y-64369199D01*
X32334662Y-64669744D01*
X32590256Y-64925338D01*
X32890801Y-65126156D01*
X33224750Y-65264482D01*
X33579268Y-65335000D01*
X33940732Y-65335000D01*
X34295250Y-65264482D01*
X34629199Y-65126156D01*
X34929744Y-64925338D01*
X35185338Y-64669744D01*
X35386156Y-64369199D01*
X35524482Y-64035250D01*
X35595000Y-63680732D01*
X35595000Y-63319268D01*
X35524482Y-62964750D01*
X35386156Y-62630801D01*
X35185338Y-62330256D01*
X34929744Y-62074662D01*
X34629199Y-61873844D01*
X34295250Y-61735518D01*
X33940732Y-61665000D01*
X33579268Y-61665000D01*
X33224750Y-61735518D01*
X32890801Y-61873844D01*
X32590256Y-62074662D01*
X32334662Y-62330256D01*
X32133844Y-62630801D01*
X31995518Y-62964750D01*
X31925000Y-63319268D01*
X30660000Y-63319268D01*
X30660000Y-61319268D01*
X38665000Y-61319268D01*
X38665000Y-61680732D01*
X38735518Y-62035250D01*
X38873844Y-62369199D01*
X39074662Y-62669744D01*
X39330256Y-62925338D01*
X39630801Y-63126156D01*
X39964750Y-63264482D01*
X40319268Y-63335000D01*
X40680732Y-63335000D01*
X41035250Y-63264482D01*
X41369199Y-63126156D01*
X41411246Y-63098061D01*
X46565000Y-63098061D01*
X46565000Y-63301939D01*
X46604774Y-63501898D01*
X46682795Y-63690256D01*
X46796063Y-63859774D01*
X46940226Y-64003937D01*
X47109744Y-64117205D01*
X47298102Y-64195226D01*
X47498061Y-64235000D01*
X47701939Y-64235000D01*
X47901898Y-64195226D01*
X48090256Y-64117205D01*
X48259774Y-64003937D01*
X48403937Y-63859774D01*
X48517205Y-63690256D01*
X48595226Y-63501898D01*
X48635000Y-63301939D01*
X48635000Y-63098061D01*
X48595226Y-62898102D01*
X48517205Y-62709744D01*
X48403937Y-62540226D01*
X48259774Y-62396063D01*
X48090256Y-62282795D01*
X47901898Y-62204774D01*
X47701939Y-62165000D01*
X47498061Y-62165000D01*
X47298102Y-62204774D01*
X47109744Y-62282795D01*
X46940226Y-62396063D01*
X46796063Y-62540226D01*
X46682795Y-62709744D01*
X46604774Y-62898102D01*
X46565000Y-63098061D01*
X41411246Y-63098061D01*
X41669744Y-62925338D01*
X41925338Y-62669744D01*
X42126156Y-62369199D01*
X42264482Y-62035250D01*
X42335000Y-61680732D01*
X42335000Y-61319268D01*
X42271108Y-60998061D01*
X46565000Y-60998061D01*
X46565000Y-61201939D01*
X46604774Y-61401898D01*
X46682795Y-61590256D01*
X46796063Y-61759774D01*
X46940226Y-61903937D01*
X47109744Y-62017205D01*
X47298102Y-62095226D01*
X47498061Y-62135000D01*
X47701939Y-62135000D01*
X47901898Y-62095226D01*
X48090256Y-62017205D01*
X48259774Y-61903937D01*
X48365650Y-61798061D01*
X55765000Y-61798061D01*
X55765000Y-62001939D01*
X55804774Y-62201898D01*
X55882795Y-62390256D01*
X55996063Y-62559774D01*
X56140226Y-62703937D01*
X56309744Y-62817205D01*
X56339685Y-62829607D01*
X56240226Y-62896063D01*
X56096063Y-63040226D01*
X55982795Y-63209744D01*
X55904774Y-63398102D01*
X55865000Y-63598061D01*
X55865000Y-63801939D01*
X55904774Y-64001898D01*
X55982795Y-64190256D01*
X56096063Y-64359774D01*
X56240226Y-64503937D01*
X56409744Y-64617205D01*
X56598102Y-64695226D01*
X56798061Y-64735000D01*
X57001939Y-64735000D01*
X57201898Y-64695226D01*
X57390256Y-64617205D01*
X57559774Y-64503937D01*
X57703937Y-64359774D01*
X57817205Y-64190256D01*
X57895226Y-64001898D01*
X57935000Y-63801939D01*
X57935000Y-63598061D01*
X57895226Y-63398102D01*
X57817205Y-63209744D01*
X57703937Y-63040226D01*
X57559774Y-62896063D01*
X57390256Y-62782795D01*
X57360315Y-62770393D01*
X57459774Y-62703937D01*
X57603937Y-62559774D01*
X57717205Y-62390256D01*
X57795226Y-62201898D01*
X57835000Y-62001939D01*
X57835000Y-61798061D01*
X57795226Y-61598102D01*
X57782568Y-61567543D01*
X73484196Y-61567543D01*
X73526499Y-61861963D01*
X73625428Y-62142474D01*
X73702132Y-62285975D01*
X73953758Y-62366634D01*
X73837733Y-62482659D01*
X73888302Y-62533228D01*
X73880820Y-62535498D01*
X73770506Y-62594463D01*
X73673815Y-62673815D01*
X73594463Y-62770506D01*
X73535498Y-62880820D01*
X73499188Y-63000518D01*
X73486928Y-63125000D01*
X73486928Y-64875000D01*
X73499188Y-64999482D01*
X73535498Y-65119180D01*
X73594463Y-65229494D01*
X73673815Y-65326185D01*
X73770506Y-65405537D01*
X73880820Y-65464502D01*
X74000518Y-65500812D01*
X74125000Y-65513072D01*
X75875000Y-65513072D01*
X75999482Y-65500812D01*
X76119180Y-65464502D01*
X76229494Y-65405537D01*
X76326185Y-65326185D01*
X76405537Y-65229494D01*
X76464502Y-65119180D01*
X76500812Y-64999482D01*
X76513072Y-64875000D01*
X76513072Y-63125000D01*
X76500812Y-63000518D01*
X76464502Y-62880820D01*
X76405537Y-62770506D01*
X76326185Y-62673815D01*
X76229494Y-62594463D01*
X76119180Y-62535498D01*
X76111698Y-62533228D01*
X76162267Y-62482659D01*
X76046242Y-62366634D01*
X76297868Y-62285975D01*
X76426267Y-62017671D01*
X76499855Y-61729474D01*
X76515804Y-61432457D01*
X76473501Y-61138037D01*
X76374572Y-60857526D01*
X76297868Y-60714025D01*
X76046240Y-60633365D01*
X75179605Y-61500000D01*
X75193748Y-61514143D01*
X75014143Y-61693748D01*
X75000000Y-61679605D01*
X74985858Y-61693748D01*
X74806253Y-61514143D01*
X74820395Y-61500000D01*
X73953760Y-60633365D01*
X73702132Y-60714025D01*
X73573733Y-60982329D01*
X73500145Y-61270526D01*
X73484196Y-61567543D01*
X57782568Y-61567543D01*
X57717205Y-61409744D01*
X57603937Y-61240226D01*
X57459774Y-61096063D01*
X57290256Y-60982795D01*
X57101898Y-60904774D01*
X56901939Y-60865000D01*
X56698061Y-60865000D01*
X56498102Y-60904774D01*
X56309744Y-60982795D01*
X56140226Y-61096063D01*
X55996063Y-61240226D01*
X55882795Y-61409744D01*
X55804774Y-61598102D01*
X55765000Y-61798061D01*
X48365650Y-61798061D01*
X48403937Y-61759774D01*
X48517205Y-61590256D01*
X48595226Y-61401898D01*
X48635000Y-61201939D01*
X48635000Y-60998061D01*
X48595226Y-60798102D01*
X48517205Y-60609744D01*
X48412981Y-60453760D01*
X74133365Y-60453760D01*
X75000000Y-61320395D01*
X75866635Y-60453760D01*
X75785975Y-60202132D01*
X75517671Y-60073733D01*
X75229474Y-60000145D01*
X74932457Y-59984196D01*
X74638037Y-60026499D01*
X74357526Y-60125428D01*
X74214025Y-60202132D01*
X74133365Y-60453760D01*
X48412981Y-60453760D01*
X48403937Y-60440226D01*
X48259774Y-60296063D01*
X48090256Y-60182795D01*
X47901898Y-60104774D01*
X47701939Y-60065000D01*
X47498061Y-60065000D01*
X47298102Y-60104774D01*
X47109744Y-60182795D01*
X46940226Y-60296063D01*
X46796063Y-60440226D01*
X46682795Y-60609744D01*
X46604774Y-60798102D01*
X46565000Y-60998061D01*
X42271108Y-60998061D01*
X42264482Y-60964750D01*
X42126156Y-60630801D01*
X41925338Y-60330256D01*
X41669744Y-60074662D01*
X41369199Y-59873844D01*
X41035250Y-59735518D01*
X40680732Y-59665000D01*
X40319268Y-59665000D01*
X39964750Y-59735518D01*
X39630801Y-59873844D01*
X39330256Y-60074662D01*
X39074662Y-60330256D01*
X38873844Y-60630801D01*
X38735518Y-60964750D01*
X38665000Y-61319268D01*
X30660000Y-61319268D01*
X30660000Y-59084268D01*
X31925000Y-59084268D01*
X31925000Y-59445732D01*
X31995518Y-59800250D01*
X32133844Y-60134199D01*
X32334662Y-60434744D01*
X32590256Y-60690338D01*
X32890801Y-60891156D01*
X33224750Y-61029482D01*
X33579268Y-61100000D01*
X33940732Y-61100000D01*
X34295250Y-61029482D01*
X34629199Y-60891156D01*
X34929744Y-60690338D01*
X35185338Y-60434744D01*
X35386156Y-60134199D01*
X35524482Y-59800250D01*
X35595000Y-59445732D01*
X35595000Y-59084268D01*
X35524482Y-58729750D01*
X35428514Y-58498061D01*
X50765000Y-58498061D01*
X50765000Y-58701939D01*
X50804774Y-58901898D01*
X50882795Y-59090256D01*
X50996063Y-59259774D01*
X51140226Y-59403937D01*
X51309744Y-59517205D01*
X51498102Y-59595226D01*
X51698061Y-59635000D01*
X51901939Y-59635000D01*
X52101898Y-59595226D01*
X52290256Y-59517205D01*
X52459774Y-59403937D01*
X52603937Y-59259774D01*
X52717205Y-59090256D01*
X52795226Y-58901898D01*
X52835000Y-58701939D01*
X52835000Y-58638967D01*
X68865000Y-58638967D01*
X68865000Y-58961033D01*
X68927832Y-59276912D01*
X69051082Y-59574463D01*
X69230013Y-59842252D01*
X69457748Y-60069987D01*
X69725537Y-60248918D01*
X70023088Y-60372168D01*
X70338967Y-60435000D01*
X70661033Y-60435000D01*
X70976912Y-60372168D01*
X71274463Y-60248918D01*
X71542252Y-60069987D01*
X71769987Y-59842252D01*
X71948918Y-59574463D01*
X72072168Y-59276912D01*
X72135000Y-58961033D01*
X72135000Y-58638967D01*
X72072168Y-58323088D01*
X71948918Y-58025537D01*
X71769987Y-57757748D01*
X71542252Y-57530013D01*
X71274463Y-57351082D01*
X70976912Y-57227832D01*
X70661033Y-57165000D01*
X70338967Y-57165000D01*
X70023088Y-57227832D01*
X69725537Y-57351082D01*
X69457748Y-57530013D01*
X69230013Y-57757748D01*
X69051082Y-58025537D01*
X68927832Y-58323088D01*
X68865000Y-58638967D01*
X52835000Y-58638967D01*
X52835000Y-58498061D01*
X52795226Y-58298102D01*
X52717205Y-58109744D01*
X52603937Y-57940226D01*
X52459774Y-57796063D01*
X52290256Y-57682795D01*
X52101898Y-57604774D01*
X51901939Y-57565000D01*
X51698061Y-57565000D01*
X51498102Y-57604774D01*
X51309744Y-57682795D01*
X51140226Y-57796063D01*
X50996063Y-57940226D01*
X50882795Y-58109744D01*
X50804774Y-58298102D01*
X50765000Y-58498061D01*
X35428514Y-58498061D01*
X35386156Y-58395801D01*
X35185338Y-58095256D01*
X34929744Y-57839662D01*
X34629199Y-57638844D01*
X34295250Y-57500518D01*
X33940732Y-57430000D01*
X33579268Y-57430000D01*
X33224750Y-57500518D01*
X32890801Y-57638844D01*
X32590256Y-57839662D01*
X32334662Y-58095256D01*
X32133844Y-58395801D01*
X31995518Y-58729750D01*
X31925000Y-59084268D01*
X30660000Y-59084268D01*
X30660000Y-56433061D01*
X47805000Y-56433061D01*
X47805000Y-56636939D01*
X47844774Y-56836898D01*
X47922795Y-57025256D01*
X48036063Y-57194774D01*
X48180226Y-57338937D01*
X48349744Y-57452205D01*
X48538102Y-57530226D01*
X48738061Y-57570000D01*
X48941939Y-57570000D01*
X49141898Y-57530226D01*
X49330256Y-57452205D01*
X49499774Y-57338937D01*
X49587500Y-57251211D01*
X49640226Y-57303937D01*
X49809744Y-57417205D01*
X49998102Y-57495226D01*
X50198061Y-57535000D01*
X50401939Y-57535000D01*
X50601898Y-57495226D01*
X50790256Y-57417205D01*
X50959774Y-57303937D01*
X51103937Y-57159774D01*
X51217205Y-56990256D01*
X51295226Y-56801898D01*
X51335000Y-56601939D01*
X51335000Y-56398061D01*
X51295226Y-56198102D01*
X51217205Y-56009744D01*
X51142582Y-55898061D01*
X51365000Y-55898061D01*
X51365000Y-56101939D01*
X51404774Y-56301898D01*
X51482795Y-56490256D01*
X51596063Y-56659774D01*
X51740226Y-56803937D01*
X51909744Y-56917205D01*
X52098102Y-56995226D01*
X52298061Y-57035000D01*
X52501939Y-57035000D01*
X52701898Y-56995226D01*
X52890256Y-56917205D01*
X53059774Y-56803937D01*
X53203937Y-56659774D01*
X53317205Y-56490256D01*
X53395226Y-56301898D01*
X53435000Y-56101939D01*
X53435000Y-55898061D01*
X53395226Y-55698102D01*
X53317205Y-55509744D01*
X53203937Y-55340226D01*
X53059774Y-55196063D01*
X52890256Y-55082795D01*
X52701898Y-55004774D01*
X52501939Y-54965000D01*
X52298061Y-54965000D01*
X52098102Y-55004774D01*
X51909744Y-55082795D01*
X51740226Y-55196063D01*
X51596063Y-55340226D01*
X51482795Y-55509744D01*
X51404774Y-55698102D01*
X51365000Y-55898061D01*
X51142582Y-55898061D01*
X51103937Y-55840226D01*
X50959774Y-55696063D01*
X50790256Y-55582795D01*
X50601898Y-55504774D01*
X50401939Y-55465000D01*
X50198061Y-55465000D01*
X49998102Y-55504774D01*
X49809744Y-55582795D01*
X49640226Y-55696063D01*
X49552500Y-55783789D01*
X49499774Y-55731063D01*
X49330256Y-55617795D01*
X49141898Y-55539774D01*
X48941939Y-55500000D01*
X48738061Y-55500000D01*
X48538102Y-55539774D01*
X48349744Y-55617795D01*
X48180226Y-55731063D01*
X48036063Y-55875226D01*
X47922795Y-56044744D01*
X47844774Y-56233102D01*
X47805000Y-56433061D01*
X30660000Y-56433061D01*
X30660000Y-54004268D01*
X31925000Y-54004268D01*
X31925000Y-54365732D01*
X31995518Y-54720250D01*
X32133844Y-55054199D01*
X32334662Y-55354744D01*
X32590256Y-55610338D01*
X32890801Y-55811156D01*
X33224750Y-55949482D01*
X33579268Y-56020000D01*
X33940732Y-56020000D01*
X34295250Y-55949482D01*
X34629199Y-55811156D01*
X34929744Y-55610338D01*
X35185338Y-55354744D01*
X35386156Y-55054199D01*
X35524482Y-54720250D01*
X35528895Y-54698061D01*
X40465000Y-54698061D01*
X40465000Y-54901939D01*
X40504774Y-55101898D01*
X40582795Y-55290256D01*
X40696063Y-55459774D01*
X40840226Y-55603937D01*
X41009744Y-55717205D01*
X41198102Y-55795226D01*
X41398061Y-55835000D01*
X41601939Y-55835000D01*
X41801898Y-55795226D01*
X41990256Y-55717205D01*
X42159774Y-55603937D01*
X42303937Y-55459774D01*
X42417205Y-55290256D01*
X42495226Y-55101898D01*
X42535000Y-54901939D01*
X42535000Y-54698061D01*
X42495226Y-54498102D01*
X42417205Y-54309744D01*
X42303937Y-54140226D01*
X42159774Y-53996063D01*
X41990256Y-53882795D01*
X41801898Y-53804774D01*
X41601939Y-53765000D01*
X41398061Y-53765000D01*
X41198102Y-53804774D01*
X41009744Y-53882795D01*
X40840226Y-53996063D01*
X40696063Y-54140226D01*
X40582795Y-54309744D01*
X40504774Y-54498102D01*
X40465000Y-54698061D01*
X35528895Y-54698061D01*
X35595000Y-54365732D01*
X35595000Y-54004268D01*
X35524482Y-53649750D01*
X35386156Y-53315801D01*
X35185338Y-53015256D01*
X34929744Y-52759662D01*
X34629199Y-52558844D01*
X34295250Y-52420518D01*
X33940732Y-52350000D01*
X33579268Y-52350000D01*
X33224750Y-52420518D01*
X32890801Y-52558844D01*
X32590256Y-52759662D01*
X32334662Y-53015256D01*
X32133844Y-53315801D01*
X31995518Y-53649750D01*
X31925000Y-54004268D01*
X30660000Y-54004268D01*
X30660000Y-51598061D01*
X42465000Y-51598061D01*
X42465000Y-51801939D01*
X42504774Y-52001898D01*
X42582795Y-52190256D01*
X42696063Y-52359774D01*
X42840226Y-52503937D01*
X43009744Y-52617205D01*
X43198102Y-52695226D01*
X43398061Y-52735000D01*
X43601939Y-52735000D01*
X43801898Y-52695226D01*
X43990256Y-52617205D01*
X44159774Y-52503937D01*
X44303937Y-52359774D01*
X44417205Y-52190256D01*
X44495226Y-52001898D01*
X44535000Y-51801939D01*
X44535000Y-51598061D01*
X44495226Y-51398102D01*
X44417205Y-51209744D01*
X44303937Y-51040226D01*
X44159774Y-50896063D01*
X43990256Y-50782795D01*
X43801898Y-50704774D01*
X43601939Y-50665000D01*
X43398061Y-50665000D01*
X43198102Y-50704774D01*
X43009744Y-50782795D01*
X42840226Y-50896063D01*
X42696063Y-51040226D01*
X42582795Y-51209744D01*
X42504774Y-51398102D01*
X42465000Y-51598061D01*
X30660000Y-51598061D01*
X30660000Y-42750000D01*
X33734630Y-42750000D01*
X33756062Y-42967598D01*
X33819532Y-43176834D01*
X33922604Y-43369666D01*
X33926981Y-43375000D01*
X33922604Y-43380334D01*
X33819532Y-43573166D01*
X33756062Y-43782402D01*
X33734630Y-44000000D01*
X33756062Y-44217598D01*
X33819532Y-44426834D01*
X33922604Y-44619666D01*
X33926981Y-44625000D01*
X33922604Y-44630334D01*
X33819532Y-44823166D01*
X33756062Y-45032402D01*
X33734630Y-45250000D01*
X33756062Y-45467598D01*
X33819532Y-45676834D01*
X33922604Y-45869666D01*
X33926981Y-45875000D01*
X33922604Y-45880334D01*
X33819532Y-46073166D01*
X33756062Y-46282402D01*
X33734630Y-46500000D01*
X33756062Y-46717598D01*
X33819532Y-46926834D01*
X33922604Y-47119666D01*
X33926981Y-47125000D01*
X33922604Y-47130334D01*
X33819532Y-47323166D01*
X33756062Y-47532402D01*
X33734630Y-47750000D01*
X33756062Y-47967598D01*
X33819532Y-48176834D01*
X33830306Y-48196991D01*
X33785498Y-48280820D01*
X33749188Y-48400518D01*
X33736928Y-48525000D01*
X33736928Y-49475000D01*
X33749188Y-49599482D01*
X33785498Y-49719180D01*
X33844463Y-49829494D01*
X33923815Y-49926185D01*
X34020506Y-50005537D01*
X34130820Y-50064502D01*
X34250518Y-50100812D01*
X34375000Y-50113072D01*
X35625000Y-50113072D01*
X35749482Y-50100812D01*
X35869180Y-50064502D01*
X35979494Y-50005537D01*
X36076185Y-49926185D01*
X36155537Y-49829494D01*
X36172338Y-49798061D01*
X47765000Y-49798061D01*
X47765000Y-50001939D01*
X47804774Y-50201898D01*
X47882795Y-50390256D01*
X47996063Y-50559774D01*
X48140226Y-50703937D01*
X48309744Y-50817205D01*
X48498102Y-50895226D01*
X48698061Y-50935000D01*
X48865000Y-50935000D01*
X48865000Y-51161033D01*
X48927832Y-51476912D01*
X49051082Y-51774463D01*
X49230013Y-52042252D01*
X49457748Y-52269987D01*
X49725537Y-52448918D01*
X50023088Y-52572168D01*
X50338967Y-52635000D01*
X50661033Y-52635000D01*
X50976912Y-52572168D01*
X51071201Y-52533112D01*
X51104774Y-52701898D01*
X51182795Y-52890256D01*
X51296063Y-53059774D01*
X51440226Y-53203937D01*
X51609744Y-53317205D01*
X51798102Y-53395226D01*
X51998061Y-53435000D01*
X52201939Y-53435000D01*
X52401898Y-53395226D01*
X52590256Y-53317205D01*
X52759774Y-53203937D01*
X52903937Y-53059774D01*
X53017205Y-52890256D01*
X53095226Y-52701898D01*
X53135000Y-52501939D01*
X53135000Y-52298061D01*
X53115109Y-52198061D01*
X56065000Y-52198061D01*
X56065000Y-52401939D01*
X56104774Y-52601898D01*
X56182795Y-52790256D01*
X56296063Y-52959774D01*
X56440226Y-53103937D01*
X56609744Y-53217205D01*
X56798102Y-53295226D01*
X56998061Y-53335000D01*
X57201939Y-53335000D01*
X57401898Y-53295226D01*
X57590256Y-53217205D01*
X57759774Y-53103937D01*
X57903937Y-52959774D01*
X58017205Y-52790256D01*
X58095226Y-52601898D01*
X58135000Y-52401939D01*
X58135000Y-52198061D01*
X58095226Y-51998102D01*
X58017205Y-51809744D01*
X57903937Y-51640226D01*
X57831254Y-51567543D01*
X73484196Y-51567543D01*
X73526499Y-51861963D01*
X73625428Y-52142474D01*
X73702132Y-52285975D01*
X73953758Y-52366634D01*
X73837733Y-52482659D01*
X73888302Y-52533228D01*
X73880820Y-52535498D01*
X73770506Y-52594463D01*
X73673815Y-52673815D01*
X73594463Y-52770506D01*
X73535498Y-52880820D01*
X73499188Y-53000518D01*
X73486928Y-53125000D01*
X73486928Y-54875000D01*
X73499188Y-54999482D01*
X73535498Y-55119180D01*
X73594463Y-55229494D01*
X73673815Y-55326185D01*
X73770506Y-55405537D01*
X73880820Y-55464502D01*
X74000518Y-55500812D01*
X74125000Y-55513072D01*
X75875000Y-55513072D01*
X75999482Y-55500812D01*
X76119180Y-55464502D01*
X76229494Y-55405537D01*
X76326185Y-55326185D01*
X76405537Y-55229494D01*
X76464502Y-55119180D01*
X76500812Y-54999482D01*
X76513072Y-54875000D01*
X76513072Y-53125000D01*
X76500812Y-53000518D01*
X76464502Y-52880820D01*
X76405537Y-52770506D01*
X76326185Y-52673815D01*
X76229494Y-52594463D01*
X76119180Y-52535498D01*
X76111698Y-52533228D01*
X76162267Y-52482659D01*
X76046242Y-52366634D01*
X76297868Y-52285975D01*
X76426267Y-52017671D01*
X76499855Y-51729474D01*
X76515804Y-51432457D01*
X76473501Y-51138037D01*
X76374572Y-50857526D01*
X76297868Y-50714025D01*
X76046240Y-50633365D01*
X75179605Y-51500000D01*
X75193748Y-51514143D01*
X75014143Y-51693748D01*
X75000000Y-51679605D01*
X74985858Y-51693748D01*
X74806253Y-51514143D01*
X74820395Y-51500000D01*
X73953760Y-50633365D01*
X73702132Y-50714025D01*
X73573733Y-50982329D01*
X73500145Y-51270526D01*
X73484196Y-51567543D01*
X57831254Y-51567543D01*
X57759774Y-51496063D01*
X57590256Y-51382795D01*
X57401898Y-51304774D01*
X57201939Y-51265000D01*
X56998061Y-51265000D01*
X56798102Y-51304774D01*
X56609744Y-51382795D01*
X56440226Y-51496063D01*
X56296063Y-51640226D01*
X56182795Y-51809744D01*
X56104774Y-51998102D01*
X56065000Y-52198061D01*
X53115109Y-52198061D01*
X53095226Y-52098102D01*
X53017205Y-51909744D01*
X52903937Y-51740226D01*
X52759774Y-51596063D01*
X52590256Y-51482795D01*
X52401898Y-51404774D01*
X52201939Y-51365000D01*
X52094429Y-51365000D01*
X52135000Y-51161033D01*
X52135000Y-50838967D01*
X52072168Y-50523088D01*
X51994431Y-50335413D01*
X59444192Y-50335413D01*
X59539956Y-50599814D01*
X59829571Y-50740704D01*
X60141108Y-50822384D01*
X60462595Y-50841718D01*
X60781675Y-50797961D01*
X61086088Y-50692795D01*
X61260044Y-50599814D01*
X61312943Y-50453760D01*
X74133365Y-50453760D01*
X75000000Y-51320395D01*
X75866635Y-50453760D01*
X75785975Y-50202132D01*
X75517671Y-50073733D01*
X75229474Y-50000145D01*
X74932457Y-49984196D01*
X74638037Y-50026499D01*
X74357526Y-50125428D01*
X74214025Y-50202132D01*
X74133365Y-50453760D01*
X61312943Y-50453760D01*
X61355808Y-50335413D01*
X60400000Y-49379605D01*
X59444192Y-50335413D01*
X51994431Y-50335413D01*
X51948918Y-50225537D01*
X51769987Y-49957748D01*
X51542252Y-49730013D01*
X51274463Y-49551082D01*
X50976912Y-49427832D01*
X50661033Y-49365000D01*
X50338967Y-49365000D01*
X50023088Y-49427832D01*
X49768396Y-49533329D01*
X49717205Y-49409744D01*
X49603937Y-49240226D01*
X49459774Y-49096063D01*
X49290256Y-48982795D01*
X49101898Y-48904774D01*
X48901939Y-48865000D01*
X48698061Y-48865000D01*
X48498102Y-48904774D01*
X48309744Y-48982795D01*
X48140226Y-49096063D01*
X47996063Y-49240226D01*
X47882795Y-49409744D01*
X47804774Y-49598102D01*
X47765000Y-49798061D01*
X36172338Y-49798061D01*
X36214502Y-49719180D01*
X36250812Y-49599482D01*
X36263072Y-49475000D01*
X36263072Y-48525000D01*
X36250812Y-48400518D01*
X36219733Y-48298061D01*
X55565000Y-48298061D01*
X55565000Y-48501939D01*
X55604774Y-48701898D01*
X55682795Y-48890256D01*
X55796063Y-49059774D01*
X55940226Y-49203937D01*
X56109744Y-49317205D01*
X56298102Y-49395226D01*
X56498061Y-49435000D01*
X56701939Y-49435000D01*
X56901898Y-49395226D01*
X57090256Y-49317205D01*
X57171985Y-49262595D01*
X58758282Y-49262595D01*
X58802039Y-49581675D01*
X58907205Y-49886088D01*
X59000186Y-50060044D01*
X59264587Y-50155808D01*
X60220395Y-49200000D01*
X60579605Y-49200000D01*
X61535413Y-50155808D01*
X61799814Y-50060044D01*
X61940704Y-49770429D01*
X62022384Y-49458892D01*
X62041718Y-49137405D01*
X61997961Y-48818325D01*
X61892795Y-48513912D01*
X61799814Y-48339956D01*
X61535413Y-48244192D01*
X60579605Y-49200000D01*
X60220395Y-49200000D01*
X59264587Y-48244192D01*
X59000186Y-48339956D01*
X58859296Y-48629571D01*
X58777616Y-48941108D01*
X58758282Y-49262595D01*
X57171985Y-49262595D01*
X57259774Y-49203937D01*
X57403937Y-49059774D01*
X57517205Y-48890256D01*
X57595226Y-48701898D01*
X57635000Y-48501939D01*
X57635000Y-48298061D01*
X57595226Y-48098102D01*
X57581344Y-48064587D01*
X59444192Y-48064587D01*
X60400000Y-49020395D01*
X61355808Y-48064587D01*
X61260044Y-47800186D01*
X60970429Y-47659296D01*
X60658892Y-47577616D01*
X60337405Y-47558282D01*
X60018325Y-47602039D01*
X59713912Y-47707205D01*
X59539956Y-47800186D01*
X59444192Y-48064587D01*
X57581344Y-48064587D01*
X57517205Y-47909744D01*
X57403937Y-47740226D01*
X57259774Y-47596063D01*
X57090256Y-47482795D01*
X56901898Y-47404774D01*
X56701939Y-47365000D01*
X56498061Y-47365000D01*
X56298102Y-47404774D01*
X56109744Y-47482795D01*
X55940226Y-47596063D01*
X55796063Y-47740226D01*
X55682795Y-47909744D01*
X55604774Y-48098102D01*
X55565000Y-48298061D01*
X36219733Y-48298061D01*
X36214502Y-48280820D01*
X36169694Y-48196991D01*
X36180468Y-48176834D01*
X36243938Y-47967598D01*
X36265370Y-47750000D01*
X36243938Y-47532402D01*
X36180468Y-47323166D01*
X36077396Y-47130334D01*
X36073019Y-47125000D01*
X36077396Y-47119666D01*
X36180468Y-46926834D01*
X36243938Y-46717598D01*
X36265370Y-46500000D01*
X36245481Y-46298061D01*
X42365000Y-46298061D01*
X42365000Y-46501939D01*
X42404774Y-46701898D01*
X42482795Y-46890256D01*
X42596063Y-47059774D01*
X42740226Y-47203937D01*
X42909744Y-47317205D01*
X43098102Y-47395226D01*
X43298061Y-47435000D01*
X43501939Y-47435000D01*
X43701898Y-47395226D01*
X43890256Y-47317205D01*
X44059774Y-47203937D01*
X44203937Y-47059774D01*
X44317205Y-46890256D01*
X44395226Y-46701898D01*
X44435000Y-46501939D01*
X44435000Y-46298061D01*
X44395226Y-46098102D01*
X44317205Y-45909744D01*
X44203937Y-45740226D01*
X44059774Y-45596063D01*
X43890256Y-45482795D01*
X43701898Y-45404774D01*
X43501939Y-45365000D01*
X43298061Y-45365000D01*
X43098102Y-45404774D01*
X42909744Y-45482795D01*
X42740226Y-45596063D01*
X42596063Y-45740226D01*
X42482795Y-45909744D01*
X42404774Y-46098102D01*
X42365000Y-46298061D01*
X36245481Y-46298061D01*
X36243938Y-46282402D01*
X36180468Y-46073166D01*
X36077396Y-45880334D01*
X36073019Y-45875000D01*
X36077396Y-45869666D01*
X36180468Y-45676834D01*
X36243938Y-45467598D01*
X36265370Y-45250000D01*
X36243938Y-45032402D01*
X36180468Y-44823166D01*
X36082011Y-44638967D01*
X48065000Y-44638967D01*
X48065000Y-44961033D01*
X48127832Y-45276912D01*
X48251082Y-45574463D01*
X48430013Y-45842252D01*
X48657748Y-46069987D01*
X48925537Y-46248918D01*
X49223088Y-46372168D01*
X49538967Y-46435000D01*
X49861033Y-46435000D01*
X50176912Y-46372168D01*
X50351140Y-46300000D01*
X63561928Y-46300000D01*
X63574188Y-46424482D01*
X63610498Y-46544180D01*
X63669463Y-46654494D01*
X63748815Y-46751185D01*
X63845506Y-46830537D01*
X63955820Y-46889502D01*
X64075518Y-46925812D01*
X64200000Y-46938072D01*
X64714250Y-46935000D01*
X64873000Y-46776250D01*
X64873000Y-45627000D01*
X65127000Y-45627000D01*
X65127000Y-46776250D01*
X65285750Y-46935000D01*
X65800000Y-46938072D01*
X65924482Y-46925812D01*
X66044180Y-46889502D01*
X66154494Y-46830537D01*
X66251185Y-46751185D01*
X66330537Y-46654494D01*
X66389502Y-46544180D01*
X66425812Y-46424482D01*
X66438072Y-46300000D01*
X66435000Y-45785750D01*
X66276250Y-45627000D01*
X65127000Y-45627000D01*
X64873000Y-45627000D01*
X63723750Y-45627000D01*
X63565000Y-45785750D01*
X63561928Y-46300000D01*
X50351140Y-46300000D01*
X50474463Y-46248918D01*
X50742252Y-46069987D01*
X50969987Y-45842252D01*
X51148918Y-45574463D01*
X51272168Y-45276912D01*
X51335000Y-44961033D01*
X51335000Y-44700000D01*
X63561928Y-44700000D01*
X63565000Y-45214250D01*
X63723750Y-45373000D01*
X64873000Y-45373000D01*
X64873000Y-44223750D01*
X65127000Y-44223750D01*
X65127000Y-45373000D01*
X66276250Y-45373000D01*
X66290585Y-45358665D01*
X67065000Y-45358665D01*
X67065000Y-45641335D01*
X67120147Y-45918574D01*
X67228320Y-46179727D01*
X67385363Y-46414759D01*
X67585241Y-46614637D01*
X67820273Y-46771680D01*
X68081426Y-46879853D01*
X68358665Y-46935000D01*
X68641335Y-46935000D01*
X68918574Y-46879853D01*
X69179727Y-46771680D01*
X69414759Y-46614637D01*
X69614637Y-46414759D01*
X69771680Y-46179727D01*
X69879853Y-45918574D01*
X69935000Y-45641335D01*
X69935000Y-45358665D01*
X69879853Y-45081426D01*
X69771680Y-44820273D01*
X69665714Y-44661682D01*
X71565000Y-44661682D01*
X71565000Y-45338318D01*
X71697006Y-46001952D01*
X71955943Y-46627082D01*
X72331862Y-47189685D01*
X72810315Y-47668138D01*
X73372918Y-48044057D01*
X73998048Y-48302994D01*
X74661682Y-48435000D01*
X75338318Y-48435000D01*
X76001952Y-48302994D01*
X76627082Y-48044057D01*
X77189685Y-47668138D01*
X77668138Y-47189685D01*
X78044057Y-46627082D01*
X78302994Y-46001952D01*
X78435000Y-45338318D01*
X78435000Y-44661682D01*
X78302994Y-43998048D01*
X78044057Y-43372918D01*
X77668138Y-42810315D01*
X77189685Y-42331862D01*
X76627082Y-41955943D01*
X76001952Y-41697006D01*
X75338318Y-41565000D01*
X74661682Y-41565000D01*
X73998048Y-41697006D01*
X73372918Y-41955943D01*
X72810315Y-42331862D01*
X72331862Y-42810315D01*
X71955943Y-43372918D01*
X71697006Y-43998048D01*
X71565000Y-44661682D01*
X69665714Y-44661682D01*
X69614637Y-44585241D01*
X69414759Y-44385363D01*
X69179727Y-44228320D01*
X68918574Y-44120147D01*
X68641335Y-44065000D01*
X68358665Y-44065000D01*
X68081426Y-44120147D01*
X67820273Y-44228320D01*
X67585241Y-44385363D01*
X67385363Y-44585241D01*
X67228320Y-44820273D01*
X67120147Y-45081426D01*
X67065000Y-45358665D01*
X66290585Y-45358665D01*
X66435000Y-45214250D01*
X66438072Y-44700000D01*
X66425812Y-44575518D01*
X66389502Y-44455820D01*
X66330537Y-44345506D01*
X66251185Y-44248815D01*
X66154494Y-44169463D01*
X66044180Y-44110498D01*
X65924482Y-44074188D01*
X65800000Y-44061928D01*
X65285750Y-44065000D01*
X65127000Y-44223750D01*
X64873000Y-44223750D01*
X64714250Y-44065000D01*
X64200000Y-44061928D01*
X64075518Y-44074188D01*
X63955820Y-44110498D01*
X63845506Y-44169463D01*
X63748815Y-44248815D01*
X63669463Y-44345506D01*
X63610498Y-44455820D01*
X63574188Y-44575518D01*
X63561928Y-44700000D01*
X51335000Y-44700000D01*
X51335000Y-44638967D01*
X51272168Y-44323088D01*
X51148918Y-44025537D01*
X50969987Y-43757748D01*
X50742252Y-43530013D01*
X50474463Y-43351082D01*
X50176912Y-43227832D01*
X49861033Y-43165000D01*
X49538967Y-43165000D01*
X49223088Y-43227832D01*
X48925537Y-43351082D01*
X48657748Y-43530013D01*
X48430013Y-43757748D01*
X48251082Y-44025537D01*
X48127832Y-44323088D01*
X48065000Y-44638967D01*
X36082011Y-44638967D01*
X36077396Y-44630334D01*
X36073019Y-44625000D01*
X36077396Y-44619666D01*
X36180468Y-44426834D01*
X36243938Y-44217598D01*
X36265370Y-44000000D01*
X36243938Y-43782402D01*
X36180468Y-43573166D01*
X36077396Y-43380334D01*
X36073019Y-43375000D01*
X36077396Y-43369666D01*
X36180468Y-43176834D01*
X36243938Y-42967598D01*
X36265370Y-42750000D01*
X36243938Y-42532402D01*
X36180468Y-42323166D01*
X36077396Y-42130334D01*
X35938686Y-41961314D01*
X35769666Y-41822604D01*
X35576834Y-41719532D01*
X35367598Y-41656062D01*
X35204521Y-41640000D01*
X34795479Y-41640000D01*
X34632402Y-41656062D01*
X34423166Y-41719532D01*
X34230334Y-41822604D01*
X34061314Y-41961314D01*
X33922604Y-42130334D01*
X33819532Y-42323166D01*
X33756062Y-42532402D01*
X33734630Y-42750000D01*
X30660000Y-42750000D01*
X30660000Y-40660000D01*
X38512190Y-40660000D01*
X38257748Y-40830013D01*
G37*
%TD.AperFunction*%
%TD*%
M02*
