%TF.GenerationSoftware,KiCad,Pcbnew,(5.1.10)-1*%
%TF.CreationDate,2021-08-14T12:20:45-07:00*%
%TF.ProjectId,EmitterDriverV2,456d6974-7465-4724-9472-697665725632,rev?*%
%TF.SameCoordinates,Original*%
%TF.FileFunction,Soldermask,Bot*%
%TF.FilePolarity,Negative*%
%FSLAX46Y46*%
G04 Gerber Fmt 4.6, Leading zero omitted, Abs format (unit mm)*
G04 Created by KiCad (PCBNEW (5.1.10)-1) date 2021-08-14 12:20:45*
%MOMM*%
%LPD*%
G01*
G04 APERTURE LIST*
%ADD10C,5.600000*%
%ADD11R,1.600000X1.600000*%
%ADD12C,1.600000*%
%ADD13R,1.750000X1.750000*%
%ADD14C,1.750000*%
%ADD15O,1.250000X0.950000*%
%ADD16R,1.250000X0.950000*%
%ADD17R,1.300000X0.700000*%
%ADD18C,2.400000*%
%ADD19O,2.400000X2.400000*%
%ADD20C,2.000000*%
G04 APERTURE END LIST*
D10*
%TO.C,REF\u002A\u002A*%
X75000000Y-45000000D03*
%TD*%
%TO.C,REF\u002A\u002A*%
X35000000Y-75000000D03*
%TD*%
D11*
%TO.C,C1*%
X73000000Y-72500000D03*
D12*
X76500000Y-72500000D03*
%TD*%
%TO.C,C2*%
X68500000Y-45500000D03*
D11*
X65000000Y-45500000D03*
%TD*%
D13*
%TO.C,D3*%
X75000000Y-64000000D03*
D14*
X75000000Y-61500000D03*
%TD*%
%TO.C,D4*%
X75000000Y-51500000D03*
D13*
X75000000Y-54000000D03*
%TD*%
D15*
%TO.C,J1*%
X35000000Y-42750000D03*
X35000000Y-44000000D03*
X35000000Y-45250000D03*
X35000000Y-46500000D03*
X35000000Y-47750000D03*
D16*
X35000000Y-49000000D03*
%TD*%
D14*
%TO.C,J2*%
X65000000Y-73000000D03*
D13*
X62500000Y-73000000D03*
%TD*%
D17*
%TO.C,R6*%
X72000000Y-61600000D03*
X72000000Y-63500000D03*
%TD*%
%TO.C,R7*%
X72000000Y-54000000D03*
X72000000Y-52100000D03*
%TD*%
D18*
%TO.C,R8*%
X33760000Y-63500000D03*
D19*
X33760000Y-68580000D03*
%TD*%
%TO.C,R9*%
X40500000Y-66580000D03*
D18*
X40500000Y-61500000D03*
%TD*%
D19*
%TO.C,R10*%
X56000000Y-72500000D03*
D18*
X50920000Y-72500000D03*
%TD*%
D19*
%TO.C,R11*%
X55000000Y-67500000D03*
D18*
X49920000Y-67500000D03*
%TD*%
%TO.C,R12*%
X33760000Y-54185000D03*
D19*
X33760000Y-59265000D03*
%TD*%
D18*
%TO.C,R13*%
X41420000Y-72500000D03*
D19*
X46500000Y-72500000D03*
%TD*%
D20*
%TO.C,BATT*%
X60400000Y-49200000D03*
%TD*%
%TO.C,GND*%
X57700000Y-76400000D03*
%TD*%
%TO.C,TP3*%
X50500000Y-51000000D03*
%TD*%
%TO.C,TP4*%
X49700000Y-44800000D03*
%TD*%
%TO.C,TP5*%
X70500000Y-58800000D03*
%TD*%
%TO.C,TP6*%
X70700000Y-68300000D03*
%TD*%
%TO.C,GND*%
X39300000Y-42100000D03*
%TD*%
M02*
