%TF.GenerationSoftware,KiCad,Pcbnew,(5.1.10)-1*%
%TF.CreationDate,2021-08-14T12:20:45-07:00*%
%TF.ProjectId,EmitterDriverV2,456d6974-7465-4724-9472-697665725632,rev?*%
%TF.SameCoordinates,Original*%
%TF.FileFunction,Copper,L1,Top*%
%TF.FilePolarity,Positive*%
%FSLAX46Y46*%
G04 Gerber Fmt 4.6, Leading zero omitted, Abs format (unit mm)*
G04 Created by KiCad (PCBNEW (5.1.10)-1) date 2021-08-14 12:20:45*
%MOMM*%
%LPD*%
G01*
G04 APERTURE LIST*
%TA.AperFunction,ComponentPad*%
%ADD10C,5.600000*%
%TD*%
%TA.AperFunction,ComponentPad*%
%ADD11R,1.600000X1.600000*%
%TD*%
%TA.AperFunction,ComponentPad*%
%ADD12C,1.600000*%
%TD*%
%TA.AperFunction,SMDPad,CuDef*%
%ADD13R,0.500000X0.600000*%
%TD*%
%TA.AperFunction,SMDPad,CuDef*%
%ADD14R,0.600000X0.500000*%
%TD*%
%TA.AperFunction,SMDPad,CuDef*%
%ADD15R,0.900000X0.800000*%
%TD*%
%TA.AperFunction,SMDPad,CuDef*%
%ADD16R,0.800000X0.900000*%
%TD*%
%TA.AperFunction,ComponentPad*%
%ADD17R,1.750000X1.750000*%
%TD*%
%TA.AperFunction,ComponentPad*%
%ADD18C,1.750000*%
%TD*%
%TA.AperFunction,ComponentPad*%
%ADD19O,1.250000X0.950000*%
%TD*%
%TA.AperFunction,ComponentPad*%
%ADD20R,1.250000X0.950000*%
%TD*%
%TA.AperFunction,SMDPad,CuDef*%
%ADD21R,2.200000X1.200000*%
%TD*%
%TA.AperFunction,SMDPad,CuDef*%
%ADD22R,6.400000X5.800000*%
%TD*%
%TA.AperFunction,SMDPad,CuDef*%
%ADD23R,3.050000X2.750000*%
%TD*%
%TA.AperFunction,SMDPad,CuDef*%
%ADD24R,0.700000X1.300000*%
%TD*%
%TA.AperFunction,SMDPad,CuDef*%
%ADD25R,1.300000X0.700000*%
%TD*%
%TA.AperFunction,ComponentPad*%
%ADD26C,2.400000*%
%TD*%
%TA.AperFunction,ComponentPad*%
%ADD27O,2.400000X2.400000*%
%TD*%
%TA.AperFunction,SMDPad,CuDef*%
%ADD28R,1.550000X0.600000*%
%TD*%
%TA.AperFunction,ComponentPad*%
%ADD29C,2.000000*%
%TD*%
%TA.AperFunction,ViaPad*%
%ADD30C,0.800000*%
%TD*%
%TA.AperFunction,Conductor*%
%ADD31C,0.635000*%
%TD*%
%TA.AperFunction,Conductor*%
%ADD32C,0.250000*%
%TD*%
%TA.AperFunction,Conductor*%
%ADD33C,0.254000*%
%TD*%
G04 APERTURE END LIST*
D10*
%TO.P,REF\u002A\u002A,1*%
%TO.N,N/C*%
X75000000Y-45000000D03*
%TD*%
%TO.P,REF\u002A\u002A,1*%
%TO.N,N/C*%
X35000000Y-75000000D03*
%TD*%
D11*
%TO.P,C1,1*%
%TO.N,+BATT*%
X73000000Y-72500000D03*
D12*
%TO.P,C1,2*%
%TO.N,GND*%
X76500000Y-72500000D03*
%TD*%
%TO.P,C2,2*%
%TO.N,GND*%
X68500000Y-45500000D03*
D11*
%TO.P,C2,1*%
%TO.N,+BATT*%
X65000000Y-45500000D03*
%TD*%
D13*
%TO.P,C3,2*%
%TO.N,GND*%
X41540000Y-55900000D03*
%TO.P,C3,1*%
%TO.N,VCC*%
X41540000Y-57000000D03*
%TD*%
D14*
%TO.P,C4,1*%
%TO.N,+BATT*%
X54700000Y-56100000D03*
%TO.P,C4,2*%
%TO.N,GND*%
X53600000Y-56100000D03*
%TD*%
D15*
%TO.P,D1,1*%
%TO.N,Net-(D1-Pad1)*%
X53510000Y-50505000D03*
%TO.P,D1,2*%
%TO.N,GND*%
X53510000Y-52405000D03*
%TO.P,D1,3*%
%TO.N,Net-(D1-Pad3)*%
X55510000Y-51455000D03*
%TD*%
D16*
%TO.P,D2,3*%
%TO.N,Net-(D2-Pad3)*%
X55550000Y-45000000D03*
%TO.P,D2,2*%
%TO.N,GND*%
X56500000Y-47000000D03*
%TO.P,D2,1*%
%TO.N,Net-(D2-Pad1)*%
X54600000Y-47000000D03*
%TD*%
D17*
%TO.P,D3,1*%
%TO.N,Net-(D3-Pad1)*%
X75000000Y-64000000D03*
D18*
%TO.P,D3,2*%
%TO.N,+BATT*%
X75000000Y-61500000D03*
%TD*%
%TO.P,D4,2*%
%TO.N,+BATT*%
X75000000Y-51500000D03*
D17*
%TO.P,D4,1*%
%TO.N,Net-(D4-Pad1)*%
X75000000Y-54000000D03*
%TD*%
D19*
%TO.P,J1,6*%
%TO.N,N/C*%
X35000000Y-42750000D03*
%TO.P,J1,5*%
%TO.N,GND*%
X35000000Y-44000000D03*
%TO.P,J1,4*%
%TO.N,/Mod2*%
X35000000Y-45250000D03*
%TO.P,J1,3*%
%TO.N,/Mod1*%
X35000000Y-46500000D03*
%TO.P,J1,2*%
%TO.N,/PWM*%
X35000000Y-47750000D03*
D20*
%TO.P,J1,1*%
%TO.N,VCC*%
X35000000Y-49000000D03*
%TD*%
D18*
%TO.P,J2,2*%
%TO.N,GND*%
X65000000Y-73000000D03*
D17*
%TO.P,J2,1*%
%TO.N,+BATT*%
X62500000Y-73000000D03*
%TD*%
D15*
%TO.P,Q1,3*%
%TO.N,Net-(D1-Pad1)*%
X47255000Y-50820000D03*
%TO.P,Q1,2*%
%TO.N,GND*%
X45255000Y-51770000D03*
%TO.P,Q1,1*%
%TO.N,Net-(Q1-Pad1)*%
X45255000Y-49870000D03*
%TD*%
%TO.P,Q2,3*%
%TO.N,Net-(Q2-Pad3)*%
X46985000Y-56535000D03*
%TO.P,Q2,2*%
%TO.N,VCC*%
X44985000Y-57485000D03*
%TO.P,Q2,1*%
%TO.N,Net-(Q2-Pad1)*%
X44985000Y-55585000D03*
%TD*%
%TO.P,Q3,1*%
%TO.N,Net-(Q3-Pad1)*%
X45000000Y-44600000D03*
%TO.P,Q3,2*%
%TO.N,GND*%
X45000000Y-46500000D03*
%TO.P,Q3,3*%
%TO.N,Net-(D2-Pad1)*%
X47000000Y-45550000D03*
%TD*%
D21*
%TO.P,Q4,1*%
%TO.N,Net-(Q4-Pad1)*%
X59200000Y-61720000D03*
%TO.P,Q4,3*%
%TO.N,Net-(Q4-Pad3)*%
X59200000Y-66280000D03*
D22*
%TO.P,Q4,2*%
%TO.N,Net-(D3-Pad1)*%
X65500000Y-64000000D03*
D23*
X67175000Y-65525000D03*
X63825000Y-62475000D03*
X67175000Y-62475000D03*
X63825000Y-65525000D03*
%TD*%
%TO.P,Q5,2*%
%TO.N,Net-(D4-Pad1)*%
X64150000Y-56000000D03*
X67500000Y-52950000D03*
X64150000Y-52950000D03*
X67500000Y-56000000D03*
D22*
X65825000Y-54475000D03*
D21*
%TO.P,Q5,3*%
%TO.N,Net-(Q5-Pad3)*%
X59525000Y-56755000D03*
%TO.P,Q5,1*%
%TO.N,Net-(Q5-Pad1)*%
X59525000Y-52195000D03*
%TD*%
D24*
%TO.P,R1,1*%
%TO.N,Net-(Q1-Pad1)*%
X41540000Y-48280000D03*
%TO.P,R1,2*%
%TO.N,/Mod1*%
X39640000Y-48280000D03*
%TD*%
%TO.P,R2,2*%
%TO.N,/PWM*%
X39640000Y-51455000D03*
%TO.P,R2,1*%
%TO.N,Net-(Q2-Pad1)*%
X41540000Y-51455000D03*
%TD*%
%TO.P,R3,1*%
%TO.N,Net-(Q3-Pad1)*%
X41540000Y-45105000D03*
%TO.P,R3,2*%
%TO.N,/Mod2*%
X39640000Y-45105000D03*
%TD*%
D25*
%TO.P,R4,2*%
%TO.N,Net-(D1-Pad1)*%
X50430000Y-53045000D03*
%TO.P,R4,1*%
%TO.N,Net-(Q2-Pad3)*%
X50430000Y-54945000D03*
%TD*%
%TO.P,R5,2*%
%TO.N,Net-(D2-Pad1)*%
X50430000Y-47010000D03*
%TO.P,R5,1*%
%TO.N,Net-(Q2-Pad3)*%
X50430000Y-48910000D03*
%TD*%
D26*
%TO.P,R8,1*%
%TO.N,Net-(R12-Pad2)*%
X33760000Y-63500000D03*
D27*
%TO.P,R8,2*%
%TO.N,Net-(Q4-Pad3)*%
X33760000Y-68580000D03*
%TD*%
%TO.P,R9,2*%
%TO.N,Net-(Q4-Pad3)*%
X40500000Y-66580000D03*
D26*
%TO.P,R9,1*%
%TO.N,Net-(R12-Pad2)*%
X40500000Y-61500000D03*
%TD*%
D27*
%TO.P,R10,2*%
%TO.N,Net-(Q5-Pad3)*%
X56000000Y-72500000D03*
D26*
%TO.P,R10,1*%
%TO.N,Net-(R10-Pad1)*%
X50920000Y-72500000D03*
%TD*%
D27*
%TO.P,R11,2*%
%TO.N,Net-(Q5-Pad3)*%
X55000000Y-67500000D03*
D26*
%TO.P,R11,1*%
%TO.N,Net-(R10-Pad1)*%
X49920000Y-67500000D03*
%TD*%
%TO.P,R12,1*%
%TO.N,GND*%
X33760000Y-54185000D03*
D27*
%TO.P,R12,2*%
%TO.N,Net-(R12-Pad2)*%
X33760000Y-59265000D03*
%TD*%
D26*
%TO.P,R13,1*%
%TO.N,GND*%
X41420000Y-72500000D03*
D27*
%TO.P,R13,2*%
%TO.N,Net-(R10-Pad1)*%
X46500000Y-72500000D03*
%TD*%
D28*
%TO.P,U1,8*%
%TO.N,+BATT*%
X55200000Y-58095000D03*
%TO.P,U1,7*%
%TO.N,Net-(Q5-Pad1)*%
X55200000Y-59365000D03*
%TO.P,U1,6*%
%TO.N,Net-(Q5-Pad3)*%
X55200000Y-60635000D03*
%TO.P,U1,5*%
%TO.N,Net-(D2-Pad1)*%
X55200000Y-61905000D03*
%TO.P,U1,4*%
%TO.N,GND*%
X49800000Y-61905000D03*
%TO.P,U1,3*%
%TO.N,Net-(D1-Pad1)*%
X49800000Y-60635000D03*
%TO.P,U1,2*%
%TO.N,Net-(Q4-Pad3)*%
X49800000Y-59365000D03*
%TO.P,U1,1*%
%TO.N,Net-(Q4-Pad1)*%
X49800000Y-58095000D03*
%TD*%
D29*
%TO.P,BATT,1*%
%TO.N,+BATT*%
X60400000Y-49200000D03*
%TD*%
%TO.P,GND,1*%
%TO.N,GND*%
X57700000Y-76400000D03*
%TD*%
%TO.P,TP3,1*%
%TO.N,Net-(D1-Pad1)*%
X50500000Y-51000000D03*
%TD*%
%TO.P,TP4,1*%
%TO.N,Net-(D2-Pad1)*%
X49700000Y-44800000D03*
%TD*%
%TO.P,TP5,1*%
%TO.N,Net-(Q5-Pad3)*%
X70500000Y-58800000D03*
%TD*%
%TO.P,TP6,1*%
%TO.N,Net-(Q4-Pad3)*%
X70700000Y-68300000D03*
%TD*%
%TO.P,GND,1*%
%TO.N,GND*%
X39300000Y-42100000D03*
%TD*%
D30*
%TO.N,+BATT*%
X56100000Y-56100000D03*
%TO.N,GND*%
X41500000Y-54800000D03*
X43500000Y-51700000D03*
X43400000Y-46400000D03*
X56600000Y-48400000D03*
X52400000Y-56000000D03*
X47600000Y-63200000D03*
X52100000Y-52400000D03*
%TO.N,Net-(D1-Pad1)*%
X50300000Y-56500000D03*
X47600000Y-61100000D03*
%TO.N,Net-(D2-Pad1)*%
X57100000Y-52300000D03*
X56800000Y-61900000D03*
%TO.N,Net-(Q2-Pad3)*%
X48800000Y-49900000D03*
X48840000Y-56535000D03*
%TO.N,Net-(Q4-Pad1)*%
X56900000Y-63700000D03*
X51800000Y-58600000D03*
%TO.N,Net-(Q4-Pad3)*%
X57400000Y-68900000D03*
X57085751Y-65914249D03*
%TD*%
D31*
%TO.N,+BATT*%
X54700000Y-57595000D02*
X55200000Y-58095000D01*
X54700000Y-56100000D02*
X54700000Y-57595000D01*
X54700000Y-56100000D02*
X56100000Y-56100000D01*
D32*
%TO.N,GND*%
X41540000Y-54840000D02*
X41500000Y-54800000D01*
X41540000Y-55900000D02*
X41540000Y-54840000D01*
X43570000Y-51770000D02*
X43500000Y-51700000D01*
X45255000Y-51770000D02*
X43570000Y-51770000D01*
X43500000Y-46500000D02*
X43400000Y-46400000D01*
X45000000Y-46500000D02*
X43500000Y-46500000D01*
X56500000Y-48300000D02*
X56600000Y-48400000D01*
X56500000Y-47000000D02*
X56500000Y-48300000D01*
D31*
X52500000Y-56100000D02*
X52400000Y-56000000D01*
X53600000Y-56100000D02*
X52500000Y-56100000D01*
X49800000Y-61905000D02*
X48895000Y-61905000D01*
X48895000Y-61905000D02*
X47600000Y-63200000D01*
D32*
X52105000Y-52405000D02*
X52100000Y-52400000D01*
X53510000Y-52405000D02*
X52105000Y-52405000D01*
%TO.N,VCC*%
X35000000Y-49000000D02*
X35000000Y-50400000D01*
X35000000Y-50400000D02*
X39900000Y-55300000D01*
X39900000Y-55300000D02*
X39900000Y-57000000D01*
X39900000Y-57000000D02*
X41540000Y-57000000D01*
X44500000Y-57000000D02*
X44985000Y-57485000D01*
X41540000Y-57000000D02*
X44500000Y-57000000D01*
%TO.N,Net-(D1-Pad1)*%
X53195000Y-50820000D02*
X53510000Y-50505000D01*
X50430000Y-50870000D02*
X50380000Y-50820000D01*
X50430000Y-53045000D02*
X50430000Y-50870000D01*
X50380000Y-50820000D02*
X53195000Y-50820000D01*
X47255000Y-50820000D02*
X50380000Y-50820000D01*
X51405001Y-55555001D02*
X50460002Y-56500000D01*
X51405001Y-54334999D02*
X51405001Y-55555001D01*
X50460002Y-56500000D02*
X50300000Y-56500000D01*
X50115002Y-53045000D02*
X51405001Y-54334999D01*
X50430000Y-53045000D02*
X50115002Y-53045000D01*
X47600000Y-61100000D02*
X48000000Y-60700000D01*
X49735000Y-60700000D02*
X49800000Y-60635000D01*
X48000000Y-60700000D02*
X49735000Y-60700000D01*
%TO.N,Net-(D2-Pad1)*%
X48970000Y-45550000D02*
X50430000Y-47010000D01*
X47000000Y-45550000D02*
X48970000Y-45550000D01*
X54590000Y-47010000D02*
X54600000Y-47000000D01*
X50430000Y-47010000D02*
X54590000Y-47010000D01*
X54600000Y-49109998D02*
X57100000Y-51609998D01*
X57100000Y-51609998D02*
X57100000Y-52300000D01*
X54600000Y-47000000D02*
X54600000Y-49109998D01*
X55205000Y-61900000D02*
X55200000Y-61905000D01*
X56800000Y-61900000D02*
X55205000Y-61900000D01*
X49700000Y-44820000D02*
X48970000Y-45550000D01*
X49700000Y-44800000D02*
X49700000Y-44820000D01*
D31*
%TO.N,Net-(D3-Pad1)*%
X65500000Y-64000000D02*
X75000000Y-64000000D01*
%TO.N,Net-(D4-Pad1)*%
X74525000Y-54475000D02*
X75000000Y-54000000D01*
X65825000Y-54475000D02*
X74525000Y-54475000D01*
D32*
%TO.N,/Mod2*%
X39495000Y-45250000D02*
X39640000Y-45105000D01*
X35000000Y-45250000D02*
X39495000Y-45250000D01*
%TO.N,/Mod1*%
X37860000Y-46500000D02*
X39640000Y-48280000D01*
X35000000Y-46500000D02*
X37860000Y-46500000D01*
%TO.N,/PWM*%
X35935000Y-47750000D02*
X39640000Y-51455000D01*
X35000000Y-47750000D02*
X35935000Y-47750000D01*
%TO.N,Net-(Q1-Pad1)*%
X43665000Y-48280000D02*
X45255000Y-49870000D01*
X41540000Y-48280000D02*
X43665000Y-48280000D01*
%TO.N,Net-(Q2-Pad3)*%
X48840000Y-56535000D02*
X50430000Y-54945000D01*
X46985000Y-56535000D02*
X48840000Y-56535000D01*
X49790000Y-48910000D02*
X48800000Y-49900000D01*
X50430000Y-48910000D02*
X49790000Y-48910000D01*
%TO.N,Net-(Q2-Pad1)*%
X41540000Y-52140000D02*
X44985000Y-55585000D01*
X41540000Y-51455000D02*
X41540000Y-52140000D01*
%TO.N,Net-(Q3-Pad1)*%
X44495000Y-45105000D02*
X45000000Y-44600000D01*
X41540000Y-45105000D02*
X44495000Y-45105000D01*
D31*
%TO.N,Net-(Q4-Pad1)*%
X58880000Y-61720000D02*
X56900000Y-63700000D01*
X59200000Y-61720000D02*
X58880000Y-61720000D01*
X51295000Y-58095000D02*
X49800000Y-58095000D01*
X51800000Y-58600000D02*
X51295000Y-58095000D01*
%TO.N,Net-(Q4-Pad3)*%
X38500000Y-68580000D02*
X40500000Y-66580000D01*
X33760000Y-68580000D02*
X38500000Y-68580000D01*
X47715000Y-59365000D02*
X49800000Y-59365000D01*
X40500000Y-66580000D02*
X47715000Y-59365000D01*
X57451502Y-66280000D02*
X59200000Y-66280000D01*
X49800000Y-59365000D02*
X50536502Y-59365000D01*
D33*
X58000000Y-68300000D02*
X57400000Y-68900000D01*
X70700000Y-68300000D02*
X58000000Y-68300000D01*
D31*
X57085751Y-65914249D02*
X57451502Y-66280000D01*
X50536502Y-59365000D02*
X57085751Y-65914249D01*
%TO.N,Net-(Q5-Pad3)*%
X56000000Y-68500000D02*
X55000000Y-67500000D01*
X56000000Y-72500000D02*
X56000000Y-68500000D01*
X55200000Y-60635000D02*
X56765000Y-60635000D01*
X59525000Y-57875000D02*
X59525000Y-56755000D01*
X56765000Y-60635000D02*
X59525000Y-57875000D01*
X60817501Y-67294001D02*
X60817501Y-58047501D01*
X60611502Y-67500000D02*
X60817501Y-67294001D01*
X60817501Y-58047501D02*
X59525000Y-56755000D01*
X55000000Y-67500000D02*
X60611502Y-67500000D01*
D33*
X61570000Y-58800000D02*
X59525000Y-56755000D01*
X70500000Y-58800000D02*
X61570000Y-58800000D01*
D31*
%TO.N,Net-(Q5-Pad1)*%
X56610000Y-59365000D02*
X57400000Y-58575000D01*
X55200000Y-59365000D02*
X56610000Y-59365000D01*
X57400000Y-54320000D02*
X59525000Y-52195000D01*
X57400000Y-58575000D02*
X57400000Y-54320000D01*
%TO.N,Net-(R12-Pad2)*%
X33760000Y-59265000D02*
X33760000Y-63500000D01*
X38500000Y-63500000D02*
X40500000Y-61500000D01*
X33760000Y-63500000D02*
X38500000Y-63500000D01*
%TO.N,Net-(R10-Pad1)*%
X49920000Y-71500000D02*
X50920000Y-72500000D01*
X49920000Y-67500000D02*
X49920000Y-71500000D01*
X46500000Y-72500000D02*
X50920000Y-72500000D01*
%TD*%
M02*
