%TF.GenerationSoftware,KiCad,Pcbnew,(5.1.10)-1*%
%TF.CreationDate,2021-08-14T12:20:45-07:00*%
%TF.ProjectId,EmitterDriverV2,456d6974-7465-4724-9472-697665725632,rev?*%
%TF.SameCoordinates,Original*%
%TF.FileFunction,Legend,Top*%
%TF.FilePolarity,Positive*%
%FSLAX46Y46*%
G04 Gerber Fmt 4.6, Leading zero omitted, Abs format (unit mm)*
G04 Created by KiCad (PCBNEW (5.1.10)-1) date 2021-08-14 12:20:45*
%MOMM*%
%LPD*%
G01*
G04 APERTURE LIST*
%ADD10C,0.300000*%
%ADD11C,0.200000*%
%ADD12C,0.120000*%
%ADD13C,0.150000*%
%ADD14C,0.127000*%
G04 APERTURE END LIST*
D10*
X59271428Y-70707142D02*
X58128571Y-70707142D01*
X58700000Y-71278571D02*
X58700000Y-70135714D01*
D11*
X39300000Y-76528571D02*
X39442857Y-76576190D01*
X39490476Y-76623809D01*
X39538095Y-76719047D01*
X39538095Y-76861904D01*
X39490476Y-76957142D01*
X39442857Y-77004761D01*
X39347619Y-77052380D01*
X38966666Y-77052380D01*
X38966666Y-76052380D01*
X39300000Y-76052380D01*
X39395238Y-76100000D01*
X39442857Y-76147619D01*
X39490476Y-76242857D01*
X39490476Y-76338095D01*
X39442857Y-76433333D01*
X39395238Y-76480952D01*
X39300000Y-76528571D01*
X38966666Y-76528571D01*
X39871428Y-76385714D02*
X40109523Y-77052380D01*
X40347619Y-76385714D02*
X40109523Y-77052380D01*
X40014285Y-77290476D01*
X39966666Y-77338095D01*
X39871428Y-77385714D01*
X40728571Y-76957142D02*
X40776190Y-77004761D01*
X40728571Y-77052380D01*
X40680952Y-77004761D01*
X40728571Y-76957142D01*
X40728571Y-77052380D01*
X40728571Y-76433333D02*
X40776190Y-76480952D01*
X40728571Y-76528571D01*
X40680952Y-76480952D01*
X40728571Y-76433333D01*
X40728571Y-76528571D01*
X41919047Y-76766666D02*
X42395238Y-76766666D01*
X41823809Y-77052380D02*
X42157142Y-76052380D01*
X42490476Y-77052380D01*
X42966666Y-77052380D02*
X42871428Y-77004761D01*
X42823809Y-76909523D01*
X42823809Y-76052380D01*
X43490476Y-77052380D02*
X43395238Y-77004761D01*
X43347619Y-76909523D01*
X43347619Y-76052380D01*
X44252380Y-77004761D02*
X44157142Y-77052380D01*
X43966666Y-77052380D01*
X43871428Y-77004761D01*
X43823809Y-76909523D01*
X43823809Y-76528571D01*
X43871428Y-76433333D01*
X43966666Y-76385714D01*
X44157142Y-76385714D01*
X44252380Y-76433333D01*
X44300000Y-76528571D01*
X44300000Y-76623809D01*
X43823809Y-76719047D01*
X44728571Y-76385714D02*
X44728571Y-77052380D01*
X44728571Y-76480952D02*
X44776190Y-76433333D01*
X44871428Y-76385714D01*
X45014285Y-76385714D01*
X45109523Y-76433333D01*
X45157142Y-76528571D01*
X45157142Y-77052380D01*
X46395238Y-77052380D02*
X46395238Y-76052380D01*
X46776190Y-76052380D01*
X46871428Y-76100000D01*
X46919047Y-76147619D01*
X46966666Y-76242857D01*
X46966666Y-76385714D01*
X46919047Y-76480952D01*
X46871428Y-76528571D01*
X46776190Y-76576190D01*
X46395238Y-76576190D01*
X47776190Y-77004761D02*
X47680952Y-77052380D01*
X47490476Y-77052380D01*
X47395238Y-77004761D01*
X47347619Y-76909523D01*
X47347619Y-76528571D01*
X47395238Y-76433333D01*
X47490476Y-76385714D01*
X47680952Y-76385714D01*
X47776190Y-76433333D01*
X47823809Y-76528571D01*
X47823809Y-76623809D01*
X47347619Y-76719047D01*
X48109523Y-76385714D02*
X48490476Y-76385714D01*
X48252380Y-76052380D02*
X48252380Y-76909523D01*
X48300000Y-77004761D01*
X48395238Y-77052380D01*
X48490476Y-77052380D01*
X49204761Y-77004761D02*
X49109523Y-77052380D01*
X48919047Y-77052380D01*
X48823809Y-77004761D01*
X48776190Y-76909523D01*
X48776190Y-76528571D01*
X48823809Y-76433333D01*
X48919047Y-76385714D01*
X49109523Y-76385714D01*
X49204761Y-76433333D01*
X49252380Y-76528571D01*
X49252380Y-76623809D01*
X48776190Y-76719047D01*
X49680952Y-77052380D02*
X49680952Y-76385714D01*
X49680952Y-76576190D02*
X49728571Y-76480952D01*
X49776190Y-76433333D01*
X49871428Y-76385714D01*
X49966666Y-76385714D01*
X50252380Y-77004761D02*
X50347619Y-77052380D01*
X50538095Y-77052380D01*
X50633333Y-77004761D01*
X50680952Y-76909523D01*
X50680952Y-76861904D01*
X50633333Y-76766666D01*
X50538095Y-76719047D01*
X50395238Y-76719047D01*
X50300000Y-76671428D01*
X50252380Y-76576190D01*
X50252380Y-76528571D01*
X50300000Y-76433333D01*
X50395238Y-76385714D01*
X50538095Y-76385714D01*
X50633333Y-76433333D01*
D10*
X47092857Y-42478571D02*
X47092857Y-40978571D01*
X48664285Y-42478571D02*
X48164285Y-41764285D01*
X47807142Y-42478571D02*
X47807142Y-40978571D01*
X48378571Y-40978571D01*
X48521428Y-41050000D01*
X48592857Y-41121428D01*
X48664285Y-41264285D01*
X48664285Y-41478571D01*
X48592857Y-41621428D01*
X48521428Y-41692857D01*
X48378571Y-41764285D01*
X47807142Y-41764285D01*
X50450000Y-42478571D02*
X50450000Y-40978571D01*
X50807142Y-40978571D01*
X51021428Y-41050000D01*
X51164285Y-41192857D01*
X51235714Y-41335714D01*
X51307142Y-41621428D01*
X51307142Y-41835714D01*
X51235714Y-42121428D01*
X51164285Y-42264285D01*
X51021428Y-42407142D01*
X50807142Y-42478571D01*
X50450000Y-42478571D01*
X51950000Y-42478571D02*
X51950000Y-41478571D01*
X51950000Y-41764285D02*
X52021428Y-41621428D01*
X52092857Y-41550000D01*
X52235714Y-41478571D01*
X52378571Y-41478571D01*
X52878571Y-42478571D02*
X52878571Y-41478571D01*
X52878571Y-40978571D02*
X52807142Y-41050000D01*
X52878571Y-41121428D01*
X52950000Y-41050000D01*
X52878571Y-40978571D01*
X52878571Y-41121428D01*
X53450000Y-41478571D02*
X53807142Y-42478571D01*
X54164285Y-41478571D01*
X55307142Y-42407142D02*
X55164285Y-42478571D01*
X54878571Y-42478571D01*
X54735714Y-42407142D01*
X54664285Y-42264285D01*
X54664285Y-41692857D01*
X54735714Y-41550000D01*
X54878571Y-41478571D01*
X55164285Y-41478571D01*
X55307142Y-41550000D01*
X55378571Y-41692857D01*
X55378571Y-41835714D01*
X54664285Y-41978571D01*
X56950000Y-40978571D02*
X57450000Y-42478571D01*
X57950000Y-40978571D01*
X58378571Y-41121428D02*
X58450000Y-41050000D01*
X58592857Y-40978571D01*
X58950000Y-40978571D01*
X59092857Y-41050000D01*
X59164285Y-41121428D01*
X59235714Y-41264285D01*
X59235714Y-41407142D01*
X59164285Y-41621428D01*
X58307142Y-42478571D01*
X59235714Y-42478571D01*
X59878571Y-42335714D02*
X59950000Y-42407142D01*
X59878571Y-42478571D01*
X59807142Y-42407142D01*
X59878571Y-42335714D01*
X59878571Y-42478571D01*
X60878571Y-40978571D02*
X61021428Y-40978571D01*
X61164285Y-41050000D01*
X61235714Y-41121428D01*
X61307142Y-41264285D01*
X61378571Y-41550000D01*
X61378571Y-41907142D01*
X61307142Y-42192857D01*
X61235714Y-42335714D01*
X61164285Y-42407142D01*
X61021428Y-42478571D01*
X60878571Y-42478571D01*
X60735714Y-42407142D01*
X60664285Y-42335714D01*
X60592857Y-42192857D01*
X60521428Y-41907142D01*
X60521428Y-41550000D01*
X60592857Y-41264285D01*
X60664285Y-41121428D01*
X60735714Y-41050000D01*
X60878571Y-40978571D01*
D12*
%TO.C,C1*%
X78840000Y-72500000D02*
G75*
G03*
X78840000Y-72500000I-4090000J0D01*
G01*
X74750000Y-68450000D02*
X74750000Y-76550000D01*
X74790000Y-68450000D02*
X74790000Y-76550000D01*
X74830000Y-68450000D02*
X74830000Y-76550000D01*
X74870000Y-68451000D02*
X74870000Y-76549000D01*
X74910000Y-68453000D02*
X74910000Y-76547000D01*
X74950000Y-68454000D02*
X74950000Y-76546000D01*
X74990000Y-68457000D02*
X74990000Y-76543000D01*
X75030000Y-68459000D02*
X75030000Y-76541000D01*
X75070000Y-68462000D02*
X75070000Y-76538000D01*
X75110000Y-68465000D02*
X75110000Y-76535000D01*
X75150000Y-68469000D02*
X75150000Y-76531000D01*
X75190000Y-68473000D02*
X75190000Y-76527000D01*
X75230000Y-68478000D02*
X75230000Y-76522000D01*
X75270000Y-68483000D02*
X75270000Y-76517000D01*
X75310000Y-68488000D02*
X75310000Y-76512000D01*
X75350000Y-68494000D02*
X75350000Y-76506000D01*
X75390000Y-68500000D02*
X75390000Y-76500000D01*
X75430000Y-68506000D02*
X75430000Y-76494000D01*
X75471000Y-68513000D02*
X75471000Y-76487000D01*
X75511000Y-68521000D02*
X75511000Y-76479000D01*
X75551000Y-68529000D02*
X75551000Y-71520000D01*
X75551000Y-73480000D02*
X75551000Y-76471000D01*
X75591000Y-68537000D02*
X75591000Y-71520000D01*
X75591000Y-73480000D02*
X75591000Y-76463000D01*
X75631000Y-68545000D02*
X75631000Y-71520000D01*
X75631000Y-73480000D02*
X75631000Y-76455000D01*
X75671000Y-68554000D02*
X75671000Y-71520000D01*
X75671000Y-73480000D02*
X75671000Y-76446000D01*
X75711000Y-68564000D02*
X75711000Y-71520000D01*
X75711000Y-73480000D02*
X75711000Y-76436000D01*
X75751000Y-68574000D02*
X75751000Y-71520000D01*
X75751000Y-73480000D02*
X75751000Y-76426000D01*
X75791000Y-68584000D02*
X75791000Y-71520000D01*
X75791000Y-73480000D02*
X75791000Y-76416000D01*
X75831000Y-68595000D02*
X75831000Y-71520000D01*
X75831000Y-73480000D02*
X75831000Y-76405000D01*
X75871000Y-68606000D02*
X75871000Y-71520000D01*
X75871000Y-73480000D02*
X75871000Y-76394000D01*
X75911000Y-68617000D02*
X75911000Y-71520000D01*
X75911000Y-73480000D02*
X75911000Y-76383000D01*
X75951000Y-68630000D02*
X75951000Y-71520000D01*
X75951000Y-73480000D02*
X75951000Y-76370000D01*
X75991000Y-68642000D02*
X75991000Y-71520000D01*
X75991000Y-73480000D02*
X75991000Y-76358000D01*
X76031000Y-68655000D02*
X76031000Y-71520000D01*
X76031000Y-73480000D02*
X76031000Y-76345000D01*
X76071000Y-68668000D02*
X76071000Y-71520000D01*
X76071000Y-73480000D02*
X76071000Y-76332000D01*
X76111000Y-68682000D02*
X76111000Y-71520000D01*
X76111000Y-73480000D02*
X76111000Y-76318000D01*
X76151000Y-68697000D02*
X76151000Y-71520000D01*
X76151000Y-73480000D02*
X76151000Y-76303000D01*
X76191000Y-68711000D02*
X76191000Y-71520000D01*
X76191000Y-73480000D02*
X76191000Y-76289000D01*
X76231000Y-68727000D02*
X76231000Y-71520000D01*
X76231000Y-73480000D02*
X76231000Y-76273000D01*
X76271000Y-68742000D02*
X76271000Y-71520000D01*
X76271000Y-73480000D02*
X76271000Y-76258000D01*
X76311000Y-68759000D02*
X76311000Y-71520000D01*
X76311000Y-73480000D02*
X76311000Y-76241000D01*
X76351000Y-68775000D02*
X76351000Y-71520000D01*
X76351000Y-73480000D02*
X76351000Y-76225000D01*
X76391000Y-68793000D02*
X76391000Y-71520000D01*
X76391000Y-73480000D02*
X76391000Y-76207000D01*
X76431000Y-68810000D02*
X76431000Y-71520000D01*
X76431000Y-73480000D02*
X76431000Y-76190000D01*
X76471000Y-68829000D02*
X76471000Y-71520000D01*
X76471000Y-73480000D02*
X76471000Y-76171000D01*
X76511000Y-68848000D02*
X76511000Y-71520000D01*
X76511000Y-73480000D02*
X76511000Y-76152000D01*
X76551000Y-68867000D02*
X76551000Y-71520000D01*
X76551000Y-73480000D02*
X76551000Y-76133000D01*
X76591000Y-68887000D02*
X76591000Y-71520000D01*
X76591000Y-73480000D02*
X76591000Y-76113000D01*
X76631000Y-68907000D02*
X76631000Y-71520000D01*
X76631000Y-73480000D02*
X76631000Y-76093000D01*
X76671000Y-68928000D02*
X76671000Y-71520000D01*
X76671000Y-73480000D02*
X76671000Y-76072000D01*
X76711000Y-68950000D02*
X76711000Y-71520000D01*
X76711000Y-73480000D02*
X76711000Y-76050000D01*
X76751000Y-68972000D02*
X76751000Y-71520000D01*
X76751000Y-73480000D02*
X76751000Y-76028000D01*
X76791000Y-68995000D02*
X76791000Y-71520000D01*
X76791000Y-73480000D02*
X76791000Y-76005000D01*
X76831000Y-69018000D02*
X76831000Y-71520000D01*
X76831000Y-73480000D02*
X76831000Y-75982000D01*
X76871000Y-69042000D02*
X76871000Y-71520000D01*
X76871000Y-73480000D02*
X76871000Y-75958000D01*
X76911000Y-69066000D02*
X76911000Y-71520000D01*
X76911000Y-73480000D02*
X76911000Y-75934000D01*
X76951000Y-69092000D02*
X76951000Y-71520000D01*
X76951000Y-73480000D02*
X76951000Y-75908000D01*
X76991000Y-69117000D02*
X76991000Y-71520000D01*
X76991000Y-73480000D02*
X76991000Y-75883000D01*
X77031000Y-69144000D02*
X77031000Y-71520000D01*
X77031000Y-73480000D02*
X77031000Y-75856000D01*
X77071000Y-69171000D02*
X77071000Y-71520000D01*
X77071000Y-73480000D02*
X77071000Y-75829000D01*
X77111000Y-69199000D02*
X77111000Y-71520000D01*
X77111000Y-73480000D02*
X77111000Y-75801000D01*
X77151000Y-69228000D02*
X77151000Y-71520000D01*
X77151000Y-73480000D02*
X77151000Y-75772000D01*
X77191000Y-69257000D02*
X77191000Y-71520000D01*
X77191000Y-73480000D02*
X77191000Y-75743000D01*
X77231000Y-69287000D02*
X77231000Y-71520000D01*
X77231000Y-73480000D02*
X77231000Y-75713000D01*
X77271000Y-69318000D02*
X77271000Y-71520000D01*
X77271000Y-73480000D02*
X77271000Y-75682000D01*
X77311000Y-69350000D02*
X77311000Y-71520000D01*
X77311000Y-73480000D02*
X77311000Y-75650000D01*
X77351000Y-69382000D02*
X77351000Y-71520000D01*
X77351000Y-73480000D02*
X77351000Y-75618000D01*
X77391000Y-69416000D02*
X77391000Y-71520000D01*
X77391000Y-73480000D02*
X77391000Y-75584000D01*
X77431000Y-69450000D02*
X77431000Y-71520000D01*
X77431000Y-73480000D02*
X77431000Y-75550000D01*
X77471000Y-69485000D02*
X77471000Y-71520000D01*
X77471000Y-73480000D02*
X77471000Y-75515000D01*
X77511000Y-69521000D02*
X77511000Y-75479000D01*
X77551000Y-69558000D02*
X77551000Y-75442000D01*
X77591000Y-69596000D02*
X77591000Y-75404000D01*
X77631000Y-69635000D02*
X77631000Y-75365000D01*
X77671000Y-69676000D02*
X77671000Y-75324000D01*
X77711000Y-69717000D02*
X77711000Y-75283000D01*
X77751000Y-69760000D02*
X77751000Y-75240000D01*
X77791000Y-69803000D02*
X77791000Y-75197000D01*
X77831000Y-69848000D02*
X77831000Y-75152000D01*
X77871000Y-69895000D02*
X77871000Y-75105000D01*
X77911000Y-69943000D02*
X77911000Y-75057000D01*
X77951000Y-69992000D02*
X77951000Y-75008000D01*
X77991000Y-70043000D02*
X77991000Y-74957000D01*
X78031000Y-70096000D02*
X78031000Y-74904000D01*
X78071000Y-70151000D02*
X78071000Y-74849000D01*
X78111000Y-70207000D02*
X78111000Y-74793000D01*
X78151000Y-70266000D02*
X78151000Y-74734000D01*
X78191000Y-70327000D02*
X78191000Y-74673000D01*
X78231000Y-70391000D02*
X78231000Y-74609000D01*
X78271000Y-70457000D02*
X78271000Y-74543000D01*
X78311000Y-70526000D02*
X78311000Y-74474000D01*
X78351000Y-70598000D02*
X78351000Y-74402000D01*
X78391000Y-70674000D02*
X78391000Y-74326000D01*
X78431000Y-70755000D02*
X78431000Y-74245000D01*
X78471000Y-70840000D02*
X78471000Y-74160000D01*
X78511000Y-70930000D02*
X78511000Y-74070000D01*
X78551000Y-71027000D02*
X78551000Y-73973000D01*
X78591000Y-71131000D02*
X78591000Y-73869000D01*
X78631000Y-71246000D02*
X78631000Y-73754000D01*
X78671000Y-71373000D02*
X78671000Y-73627000D01*
X78711000Y-71517000D02*
X78711000Y-73483000D01*
X78751000Y-71686000D02*
X78751000Y-73314000D01*
X78791000Y-71902000D02*
X78791000Y-73098000D01*
X78831000Y-72254000D02*
X78831000Y-72746000D01*
X70800000Y-72500000D02*
X72000000Y-72500000D01*
X71400000Y-71850000D02*
X71400000Y-73150000D01*
%TO.C,C2*%
X63400000Y-44850000D02*
X63400000Y-46150000D01*
X62800000Y-45500000D02*
X64000000Y-45500000D01*
X70831000Y-45254000D02*
X70831000Y-45746000D01*
X70791000Y-44902000D02*
X70791000Y-46098000D01*
X70751000Y-44686000D02*
X70751000Y-46314000D01*
X70711000Y-44517000D02*
X70711000Y-46483000D01*
X70671000Y-44373000D02*
X70671000Y-46627000D01*
X70631000Y-44246000D02*
X70631000Y-46754000D01*
X70591000Y-44131000D02*
X70591000Y-46869000D01*
X70551000Y-44027000D02*
X70551000Y-46973000D01*
X70511000Y-43930000D02*
X70511000Y-47070000D01*
X70471000Y-43840000D02*
X70471000Y-47160000D01*
X70431000Y-43755000D02*
X70431000Y-47245000D01*
X70391000Y-43674000D02*
X70391000Y-47326000D01*
X70351000Y-43598000D02*
X70351000Y-47402000D01*
X70311000Y-43526000D02*
X70311000Y-47474000D01*
X70271000Y-43457000D02*
X70271000Y-47543000D01*
X70231000Y-43391000D02*
X70231000Y-47609000D01*
X70191000Y-43327000D02*
X70191000Y-47673000D01*
X70151000Y-43266000D02*
X70151000Y-47734000D01*
X70111000Y-43207000D02*
X70111000Y-47793000D01*
X70071000Y-43151000D02*
X70071000Y-47849000D01*
X70031000Y-43096000D02*
X70031000Y-47904000D01*
X69991000Y-43043000D02*
X69991000Y-47957000D01*
X69951000Y-42992000D02*
X69951000Y-48008000D01*
X69911000Y-42943000D02*
X69911000Y-48057000D01*
X69871000Y-42895000D02*
X69871000Y-48105000D01*
X69831000Y-42848000D02*
X69831000Y-48152000D01*
X69791000Y-42803000D02*
X69791000Y-48197000D01*
X69751000Y-42760000D02*
X69751000Y-48240000D01*
X69711000Y-42717000D02*
X69711000Y-48283000D01*
X69671000Y-42676000D02*
X69671000Y-48324000D01*
X69631000Y-42635000D02*
X69631000Y-48365000D01*
X69591000Y-42596000D02*
X69591000Y-48404000D01*
X69551000Y-42558000D02*
X69551000Y-48442000D01*
X69511000Y-42521000D02*
X69511000Y-48479000D01*
X69471000Y-46480000D02*
X69471000Y-48515000D01*
X69471000Y-42485000D02*
X69471000Y-44520000D01*
X69431000Y-46480000D02*
X69431000Y-48550000D01*
X69431000Y-42450000D02*
X69431000Y-44520000D01*
X69391000Y-46480000D02*
X69391000Y-48584000D01*
X69391000Y-42416000D02*
X69391000Y-44520000D01*
X69351000Y-46480000D02*
X69351000Y-48618000D01*
X69351000Y-42382000D02*
X69351000Y-44520000D01*
X69311000Y-46480000D02*
X69311000Y-48650000D01*
X69311000Y-42350000D02*
X69311000Y-44520000D01*
X69271000Y-46480000D02*
X69271000Y-48682000D01*
X69271000Y-42318000D02*
X69271000Y-44520000D01*
X69231000Y-46480000D02*
X69231000Y-48713000D01*
X69231000Y-42287000D02*
X69231000Y-44520000D01*
X69191000Y-46480000D02*
X69191000Y-48743000D01*
X69191000Y-42257000D02*
X69191000Y-44520000D01*
X69151000Y-46480000D02*
X69151000Y-48772000D01*
X69151000Y-42228000D02*
X69151000Y-44520000D01*
X69111000Y-46480000D02*
X69111000Y-48801000D01*
X69111000Y-42199000D02*
X69111000Y-44520000D01*
X69071000Y-46480000D02*
X69071000Y-48829000D01*
X69071000Y-42171000D02*
X69071000Y-44520000D01*
X69031000Y-46480000D02*
X69031000Y-48856000D01*
X69031000Y-42144000D02*
X69031000Y-44520000D01*
X68991000Y-46480000D02*
X68991000Y-48883000D01*
X68991000Y-42117000D02*
X68991000Y-44520000D01*
X68951000Y-46480000D02*
X68951000Y-48908000D01*
X68951000Y-42092000D02*
X68951000Y-44520000D01*
X68911000Y-46480000D02*
X68911000Y-48934000D01*
X68911000Y-42066000D02*
X68911000Y-44520000D01*
X68871000Y-46480000D02*
X68871000Y-48958000D01*
X68871000Y-42042000D02*
X68871000Y-44520000D01*
X68831000Y-46480000D02*
X68831000Y-48982000D01*
X68831000Y-42018000D02*
X68831000Y-44520000D01*
X68791000Y-46480000D02*
X68791000Y-49005000D01*
X68791000Y-41995000D02*
X68791000Y-44520000D01*
X68751000Y-46480000D02*
X68751000Y-49028000D01*
X68751000Y-41972000D02*
X68751000Y-44520000D01*
X68711000Y-46480000D02*
X68711000Y-49050000D01*
X68711000Y-41950000D02*
X68711000Y-44520000D01*
X68671000Y-46480000D02*
X68671000Y-49072000D01*
X68671000Y-41928000D02*
X68671000Y-44520000D01*
X68631000Y-46480000D02*
X68631000Y-49093000D01*
X68631000Y-41907000D02*
X68631000Y-44520000D01*
X68591000Y-46480000D02*
X68591000Y-49113000D01*
X68591000Y-41887000D02*
X68591000Y-44520000D01*
X68551000Y-46480000D02*
X68551000Y-49133000D01*
X68551000Y-41867000D02*
X68551000Y-44520000D01*
X68511000Y-46480000D02*
X68511000Y-49152000D01*
X68511000Y-41848000D02*
X68511000Y-44520000D01*
X68471000Y-46480000D02*
X68471000Y-49171000D01*
X68471000Y-41829000D02*
X68471000Y-44520000D01*
X68431000Y-46480000D02*
X68431000Y-49190000D01*
X68431000Y-41810000D02*
X68431000Y-44520000D01*
X68391000Y-46480000D02*
X68391000Y-49207000D01*
X68391000Y-41793000D02*
X68391000Y-44520000D01*
X68351000Y-46480000D02*
X68351000Y-49225000D01*
X68351000Y-41775000D02*
X68351000Y-44520000D01*
X68311000Y-46480000D02*
X68311000Y-49241000D01*
X68311000Y-41759000D02*
X68311000Y-44520000D01*
X68271000Y-46480000D02*
X68271000Y-49258000D01*
X68271000Y-41742000D02*
X68271000Y-44520000D01*
X68231000Y-46480000D02*
X68231000Y-49273000D01*
X68231000Y-41727000D02*
X68231000Y-44520000D01*
X68191000Y-46480000D02*
X68191000Y-49289000D01*
X68191000Y-41711000D02*
X68191000Y-44520000D01*
X68151000Y-46480000D02*
X68151000Y-49303000D01*
X68151000Y-41697000D02*
X68151000Y-44520000D01*
X68111000Y-46480000D02*
X68111000Y-49318000D01*
X68111000Y-41682000D02*
X68111000Y-44520000D01*
X68071000Y-46480000D02*
X68071000Y-49332000D01*
X68071000Y-41668000D02*
X68071000Y-44520000D01*
X68031000Y-46480000D02*
X68031000Y-49345000D01*
X68031000Y-41655000D02*
X68031000Y-44520000D01*
X67991000Y-46480000D02*
X67991000Y-49358000D01*
X67991000Y-41642000D02*
X67991000Y-44520000D01*
X67951000Y-46480000D02*
X67951000Y-49370000D01*
X67951000Y-41630000D02*
X67951000Y-44520000D01*
X67911000Y-46480000D02*
X67911000Y-49383000D01*
X67911000Y-41617000D02*
X67911000Y-44520000D01*
X67871000Y-46480000D02*
X67871000Y-49394000D01*
X67871000Y-41606000D02*
X67871000Y-44520000D01*
X67831000Y-46480000D02*
X67831000Y-49405000D01*
X67831000Y-41595000D02*
X67831000Y-44520000D01*
X67791000Y-46480000D02*
X67791000Y-49416000D01*
X67791000Y-41584000D02*
X67791000Y-44520000D01*
X67751000Y-46480000D02*
X67751000Y-49426000D01*
X67751000Y-41574000D02*
X67751000Y-44520000D01*
X67711000Y-46480000D02*
X67711000Y-49436000D01*
X67711000Y-41564000D02*
X67711000Y-44520000D01*
X67671000Y-46480000D02*
X67671000Y-49446000D01*
X67671000Y-41554000D02*
X67671000Y-44520000D01*
X67631000Y-46480000D02*
X67631000Y-49455000D01*
X67631000Y-41545000D02*
X67631000Y-44520000D01*
X67591000Y-46480000D02*
X67591000Y-49463000D01*
X67591000Y-41537000D02*
X67591000Y-44520000D01*
X67551000Y-46480000D02*
X67551000Y-49471000D01*
X67551000Y-41529000D02*
X67551000Y-44520000D01*
X67511000Y-41521000D02*
X67511000Y-49479000D01*
X67471000Y-41513000D02*
X67471000Y-49487000D01*
X67430000Y-41506000D02*
X67430000Y-49494000D01*
X67390000Y-41500000D02*
X67390000Y-49500000D01*
X67350000Y-41494000D02*
X67350000Y-49506000D01*
X67310000Y-41488000D02*
X67310000Y-49512000D01*
X67270000Y-41483000D02*
X67270000Y-49517000D01*
X67230000Y-41478000D02*
X67230000Y-49522000D01*
X67190000Y-41473000D02*
X67190000Y-49527000D01*
X67150000Y-41469000D02*
X67150000Y-49531000D01*
X67110000Y-41465000D02*
X67110000Y-49535000D01*
X67070000Y-41462000D02*
X67070000Y-49538000D01*
X67030000Y-41459000D02*
X67030000Y-49541000D01*
X66990000Y-41457000D02*
X66990000Y-49543000D01*
X66950000Y-41454000D02*
X66950000Y-49546000D01*
X66910000Y-41453000D02*
X66910000Y-49547000D01*
X66870000Y-41451000D02*
X66870000Y-49549000D01*
X66830000Y-41450000D02*
X66830000Y-49550000D01*
X66790000Y-41450000D02*
X66790000Y-49550000D01*
X66750000Y-41450000D02*
X66750000Y-49550000D01*
X70840000Y-45500000D02*
G75*
G03*
X70840000Y-45500000I-4090000J0D01*
G01*
%TO.C,C3*%
X42010000Y-56700000D02*
X42010000Y-56200000D01*
X41070000Y-56200000D02*
X41070000Y-56700000D01*
%TO.C,C4*%
X53900000Y-56570000D02*
X54400000Y-56570000D01*
X54400000Y-55630000D02*
X53900000Y-55630000D01*
%TO.C,D1*%
X55270000Y-53035000D02*
X55270000Y-52105000D01*
X55270000Y-49875000D02*
X55270000Y-50805000D01*
X55270000Y-49875000D02*
X53110000Y-49875000D01*
X55270000Y-53035000D02*
X53810000Y-53035000D01*
%TO.C,D2*%
X57130000Y-45240000D02*
X57130000Y-46700000D01*
X53970000Y-45240000D02*
X53970000Y-47400000D01*
X53970000Y-45240000D02*
X54900000Y-45240000D01*
X57130000Y-45240000D02*
X56200000Y-45240000D01*
%TO.C,D3*%
X72550000Y-66550000D02*
X78500000Y-66550000D01*
X78500000Y-66550000D02*
X78500000Y-58950000D01*
X78500000Y-58950000D02*
X72550000Y-58950000D01*
X72550000Y-58950000D02*
X72550000Y-66550000D01*
X72550000Y-63250000D02*
X73300000Y-63250000D01*
X73300000Y-63250000D02*
X73300000Y-62250000D01*
X73300000Y-62250000D02*
X72550000Y-62250000D01*
X72550000Y-62250000D02*
X72550000Y-63250000D01*
X72550000Y-66550000D02*
X73300000Y-66550000D01*
X73300000Y-66550000D02*
X73300000Y-64750000D01*
X73300000Y-64750000D02*
X72550000Y-64750000D01*
X72550000Y-64750000D02*
X72550000Y-66550000D01*
X72550000Y-60750000D02*
X73300000Y-60750000D01*
X73300000Y-60750000D02*
X73300000Y-58950000D01*
X73300000Y-58950000D02*
X72550000Y-58950000D01*
X72550000Y-58950000D02*
X72550000Y-60750000D01*
X74800000Y-66550000D02*
X74800000Y-65800000D01*
X74800000Y-65800000D02*
X77750000Y-65800000D01*
X77750000Y-65800000D02*
X77750000Y-62750000D01*
X74800000Y-58950000D02*
X74800000Y-59700000D01*
X74800000Y-59700000D02*
X77750000Y-59700000D01*
X77750000Y-59700000D02*
X77750000Y-62750000D01*
X72250000Y-64350000D02*
X72250000Y-66850000D01*
X72250000Y-66850000D02*
X74750000Y-66850000D01*
%TO.C,D4*%
X72250000Y-56850000D02*
X74750000Y-56850000D01*
X72250000Y-54350000D02*
X72250000Y-56850000D01*
X77750000Y-49700000D02*
X77750000Y-52750000D01*
X74800000Y-49700000D02*
X77750000Y-49700000D01*
X74800000Y-48950000D02*
X74800000Y-49700000D01*
X77750000Y-55800000D02*
X77750000Y-52750000D01*
X74800000Y-55800000D02*
X77750000Y-55800000D01*
X74800000Y-56550000D02*
X74800000Y-55800000D01*
X72550000Y-48950000D02*
X72550000Y-50750000D01*
X73300000Y-48950000D02*
X72550000Y-48950000D01*
X73300000Y-50750000D02*
X73300000Y-48950000D01*
X72550000Y-50750000D02*
X73300000Y-50750000D01*
X72550000Y-54750000D02*
X72550000Y-56550000D01*
X73300000Y-54750000D02*
X72550000Y-54750000D01*
X73300000Y-56550000D02*
X73300000Y-54750000D01*
X72550000Y-56550000D02*
X73300000Y-56550000D01*
X72550000Y-52250000D02*
X72550000Y-53250000D01*
X73300000Y-52250000D02*
X72550000Y-52250000D01*
X73300000Y-53250000D02*
X73300000Y-52250000D01*
X72550000Y-53250000D02*
X73300000Y-53250000D01*
X72550000Y-48950000D02*
X72550000Y-56550000D01*
X78500000Y-48950000D02*
X72550000Y-48950000D01*
X78500000Y-56550000D02*
X78500000Y-48950000D01*
X72550000Y-56550000D02*
X78500000Y-56550000D01*
D13*
%TO.C,J1*%
X33450000Y-43000000D02*
X33450000Y-42200000D01*
X32950000Y-43000000D02*
X33450000Y-43000000D01*
X32950000Y-43750000D02*
X32950000Y-43000000D01*
X33450000Y-43750000D02*
X32950000Y-43750000D01*
X33450000Y-48000000D02*
X33450000Y-43750000D01*
X32950000Y-48000000D02*
X33450000Y-48000000D01*
X32950000Y-48750000D02*
X32950000Y-48000000D01*
X33450000Y-48750000D02*
X32950000Y-48750000D01*
X33450000Y-49550000D02*
X33450000Y-48750000D01*
X33450000Y-42200000D02*
X32700000Y-42200000D01*
X33450000Y-41700000D02*
X33450000Y-42200000D01*
X34250000Y-41700000D02*
X33450000Y-41700000D01*
X34250000Y-41200000D02*
X34250000Y-41700000D01*
X33450000Y-49550000D02*
X32700000Y-49550000D01*
X33450000Y-50050000D02*
X33450000Y-49550000D01*
X34250000Y-50050000D02*
X33450000Y-50050000D01*
X34250000Y-50550000D02*
X34250000Y-50050000D01*
X35000000Y-41700000D02*
X35000000Y-41200000D01*
X35800000Y-41700000D02*
X35000000Y-41700000D01*
X35800000Y-50050000D02*
X35800000Y-41700000D01*
X35000000Y-50050000D02*
X35800000Y-50050000D01*
X35000000Y-50550000D02*
X35000000Y-50050000D01*
X31600000Y-48700000D02*
X32200000Y-49000000D01*
X31600000Y-49300000D02*
X31600000Y-48700000D01*
X32200000Y-49000000D02*
X31600000Y-49300000D01*
X32700000Y-41200000D02*
X32700000Y-50550000D01*
X36300000Y-41200000D02*
X32700000Y-41200000D01*
X36300000Y-50550000D02*
X36300000Y-41200000D01*
X32700000Y-50550000D02*
X36300000Y-50550000D01*
D12*
%TO.C,J2*%
X59650000Y-70250000D02*
X59650000Y-72750000D01*
X62150000Y-70250000D02*
X59650000Y-70250000D01*
X66800000Y-75750000D02*
X63750000Y-75750000D01*
X66800000Y-72800000D02*
X66800000Y-75750000D01*
X67550000Y-72800000D02*
X66800000Y-72800000D01*
X60700000Y-75750000D02*
X63750000Y-75750000D01*
X60700000Y-72800000D02*
X60700000Y-75750000D01*
X59950000Y-72800000D02*
X60700000Y-72800000D01*
X67550000Y-70550000D02*
X65750000Y-70550000D01*
X67550000Y-71300000D02*
X67550000Y-70550000D01*
X65750000Y-71300000D02*
X67550000Y-71300000D01*
X65750000Y-70550000D02*
X65750000Y-71300000D01*
X61750000Y-70550000D02*
X59950000Y-70550000D01*
X61750000Y-71300000D02*
X61750000Y-70550000D01*
X59950000Y-71300000D02*
X61750000Y-71300000D01*
X59950000Y-70550000D02*
X59950000Y-71300000D01*
X64250000Y-70550000D02*
X63250000Y-70550000D01*
X64250000Y-71300000D02*
X64250000Y-70550000D01*
X63250000Y-71300000D02*
X64250000Y-71300000D01*
X63250000Y-70550000D02*
X63250000Y-71300000D01*
X67550000Y-70550000D02*
X59950000Y-70550000D01*
X67550000Y-76500000D02*
X67550000Y-70550000D01*
X59950000Y-76500000D02*
X67550000Y-76500000D01*
X59950000Y-70550000D02*
X59950000Y-76500000D01*
%TO.C,Q1*%
X47015000Y-52400000D02*
X45555000Y-52400000D01*
X47015000Y-49240000D02*
X44855000Y-49240000D01*
X47015000Y-49240000D02*
X47015000Y-50170000D01*
X47015000Y-52400000D02*
X47015000Y-51470000D01*
%TO.C,Q2*%
X46745000Y-58115000D02*
X45285000Y-58115000D01*
X46745000Y-54955000D02*
X44585000Y-54955000D01*
X46745000Y-54955000D02*
X46745000Y-55885000D01*
X46745000Y-58115000D02*
X46745000Y-57185000D01*
%TO.C,Q3*%
X46760000Y-47130000D02*
X46760000Y-46200000D01*
X46760000Y-43970000D02*
X46760000Y-44900000D01*
X46760000Y-43970000D02*
X44600000Y-43970000D01*
X46760000Y-47130000D02*
X45300000Y-47130000D01*
%TO.C,Q4*%
X62430000Y-60550000D02*
X60930000Y-60550000D01*
X60930000Y-60550000D02*
X60930000Y-60820000D01*
X60930000Y-60820000D02*
X58100000Y-60820000D01*
X62430000Y-67450000D02*
X60930000Y-67450000D01*
X60930000Y-67450000D02*
X60930000Y-67180000D01*
X60930000Y-67180000D02*
X59830000Y-67180000D01*
%TO.C,Q5*%
X61255000Y-57655000D02*
X60155000Y-57655000D01*
X61255000Y-57925000D02*
X61255000Y-57655000D01*
X62755000Y-57925000D02*
X61255000Y-57925000D01*
X61255000Y-51295000D02*
X58425000Y-51295000D01*
X61255000Y-51025000D02*
X61255000Y-51295000D01*
X62755000Y-51025000D02*
X61255000Y-51025000D01*
%TO.C,R1*%
X39990000Y-47400000D02*
X41190000Y-47400000D01*
X41190000Y-49160000D02*
X39990000Y-49160000D01*
%TO.C,R2*%
X41190000Y-52335000D02*
X39990000Y-52335000D01*
X39990000Y-50575000D02*
X41190000Y-50575000D01*
%TO.C,R3*%
X39990000Y-44225000D02*
X41190000Y-44225000D01*
X41190000Y-45985000D02*
X39990000Y-45985000D01*
%TO.C,R4*%
X49550000Y-54595000D02*
X49550000Y-53395000D01*
X51310000Y-53395000D02*
X51310000Y-54595000D01*
%TO.C,R5*%
X49550000Y-48560000D02*
X49550000Y-47360000D01*
X51310000Y-47360000D02*
X51310000Y-48560000D01*
%TO.C,R8*%
X36070000Y-63500000D02*
G75*
G03*
X36070000Y-63500000I-2310000J0D01*
G01*
X33760000Y-65810000D02*
X33760000Y-67080000D01*
%TO.C,R9*%
X40500000Y-63810000D02*
X40500000Y-65080000D01*
X42810000Y-61500000D02*
G75*
G03*
X42810000Y-61500000I-2310000J0D01*
G01*
%TO.C,R10*%
X53230000Y-72500000D02*
X54500000Y-72500000D01*
X53230000Y-72500000D02*
G75*
G03*
X53230000Y-72500000I-2310000J0D01*
G01*
%TO.C,R11*%
X52230000Y-67500000D02*
X53500000Y-67500000D01*
X52230000Y-67500000D02*
G75*
G03*
X52230000Y-67500000I-2310000J0D01*
G01*
%TO.C,R12*%
X36070000Y-54185000D02*
G75*
G03*
X36070000Y-54185000I-2310000J0D01*
G01*
X33760000Y-56495000D02*
X33760000Y-57765000D01*
%TO.C,R13*%
X43730000Y-72500000D02*
G75*
G03*
X43730000Y-72500000I-2310000J0D01*
G01*
X43730000Y-72500000D02*
X45000000Y-72500000D01*
D13*
%TO.C,U1*%
X50425000Y-57475000D02*
X49025000Y-57475000D01*
X50425000Y-62575000D02*
X54575000Y-62575000D01*
X50425000Y-57425000D02*
X54575000Y-57425000D01*
X50425000Y-62575000D02*
X50425000Y-62430000D01*
X54575000Y-62575000D02*
X54575000Y-62430000D01*
X54575000Y-57425000D02*
X54575000Y-57570000D01*
X50425000Y-57425000D02*
X50425000Y-57475000D01*
%TO.C,BATT*%
X61800000Y-49200000D02*
G75*
G03*
X61800000Y-49200000I-1400000J0D01*
G01*
%TO.C,GND*%
X59100000Y-76400000D02*
G75*
G03*
X59100000Y-76400000I-1400000J0D01*
G01*
%TO.C,TP3*%
X51900000Y-51000000D02*
G75*
G03*
X51900000Y-51000000I-1400000J0D01*
G01*
%TO.C,TP4*%
X51100000Y-44800000D02*
G75*
G03*
X51100000Y-44800000I-1400000J0D01*
G01*
%TO.C,TP5*%
X71900000Y-58800000D02*
G75*
G03*
X71900000Y-58800000I-1400000J0D01*
G01*
%TO.C,TP6*%
X72100000Y-68300000D02*
G75*
G03*
X72100000Y-68300000I-1400000J0D01*
G01*
%TO.C,GND*%
X40700000Y-42100000D02*
G75*
G03*
X40700000Y-42100000I-1400000J0D01*
G01*
%TO.C,REF\u002A\u002A*%
X74366666Y-36552380D02*
X74033333Y-36076190D01*
X73795238Y-36552380D02*
X73795238Y-35552380D01*
X74176190Y-35552380D01*
X74271428Y-35600000D01*
X74319047Y-35647619D01*
X74366666Y-35742857D01*
X74366666Y-35885714D01*
X74319047Y-35980952D01*
X74271428Y-36028571D01*
X74176190Y-36076190D01*
X73795238Y-36076190D01*
X74795238Y-36028571D02*
X75128571Y-36028571D01*
X75271428Y-36552380D02*
X74795238Y-36552380D01*
X74795238Y-35552380D01*
X75271428Y-35552380D01*
X76033333Y-36028571D02*
X75700000Y-36028571D01*
X75700000Y-36552380D02*
X75700000Y-35552380D01*
X76176190Y-35552380D01*
X76700000Y-35552380D02*
X76700000Y-35790476D01*
X76461904Y-35695238D02*
X76700000Y-35790476D01*
X76938095Y-35695238D01*
X76557142Y-35980952D02*
X76700000Y-35790476D01*
X76842857Y-35980952D01*
X77461904Y-35552380D02*
X77461904Y-35790476D01*
X77223809Y-35695238D02*
X77461904Y-35790476D01*
X77700000Y-35695238D01*
X77319047Y-35980952D02*
X77461904Y-35790476D01*
X77604761Y-35980952D01*
X25566666Y-76352380D02*
X25233333Y-75876190D01*
X24995238Y-76352380D02*
X24995238Y-75352380D01*
X25376190Y-75352380D01*
X25471428Y-75400000D01*
X25519047Y-75447619D01*
X25566666Y-75542857D01*
X25566666Y-75685714D01*
X25519047Y-75780952D01*
X25471428Y-75828571D01*
X25376190Y-75876190D01*
X24995238Y-75876190D01*
X25995238Y-75828571D02*
X26328571Y-75828571D01*
X26471428Y-76352380D02*
X25995238Y-76352380D01*
X25995238Y-75352380D01*
X26471428Y-75352380D01*
X27233333Y-75828571D02*
X26900000Y-75828571D01*
X26900000Y-76352380D02*
X26900000Y-75352380D01*
X27376190Y-75352380D01*
X27900000Y-75352380D02*
X27900000Y-75590476D01*
X27661904Y-75495238D02*
X27900000Y-75590476D01*
X28138095Y-75495238D01*
X27757142Y-75780952D02*
X27900000Y-75590476D01*
X28042857Y-75780952D01*
X28661904Y-75352380D02*
X28661904Y-75590476D01*
X28423809Y-75495238D02*
X28661904Y-75590476D01*
X28900000Y-75495238D01*
X28519047Y-75780952D02*
X28661904Y-75590476D01*
X28804761Y-75780952D01*
%TO.C,C1*%
X70233333Y-76657142D02*
X70185714Y-76704761D01*
X70042857Y-76752380D01*
X69947619Y-76752380D01*
X69804761Y-76704761D01*
X69709523Y-76609523D01*
X69661904Y-76514285D01*
X69614285Y-76323809D01*
X69614285Y-76180952D01*
X69661904Y-75990476D01*
X69709523Y-75895238D01*
X69804761Y-75800000D01*
X69947619Y-75752380D01*
X70042857Y-75752380D01*
X70185714Y-75800000D01*
X70233333Y-75847619D01*
X71185714Y-76752380D02*
X70614285Y-76752380D01*
X70900000Y-76752380D02*
X70900000Y-75752380D01*
X70804761Y-75895238D01*
X70709523Y-75990476D01*
X70614285Y-76038095D01*
X73535714Y-77595714D02*
X73535714Y-78262380D01*
X73297619Y-77214761D02*
X73059523Y-77929047D01*
X73678571Y-77929047D01*
X73964285Y-77262380D02*
X74630952Y-77262380D01*
X74202380Y-78262380D01*
X75202380Y-77262380D02*
X75297619Y-77262380D01*
X75392857Y-77310000D01*
X75440476Y-77357619D01*
X75488095Y-77452857D01*
X75535714Y-77643333D01*
X75535714Y-77881428D01*
X75488095Y-78071904D01*
X75440476Y-78167142D01*
X75392857Y-78214761D01*
X75297619Y-78262380D01*
X75202380Y-78262380D01*
X75107142Y-78214761D01*
X75059523Y-78167142D01*
X75011904Y-78071904D01*
X74964285Y-77881428D01*
X74964285Y-77643333D01*
X75011904Y-77452857D01*
X75059523Y-77357619D01*
X75107142Y-77310000D01*
X75202380Y-77262380D01*
X76392857Y-77595714D02*
X76392857Y-78262380D01*
X75964285Y-77595714D02*
X75964285Y-78119523D01*
X76011904Y-78214761D01*
X76107142Y-78262380D01*
X76250000Y-78262380D01*
X76345238Y-78214761D01*
X76392857Y-78167142D01*
%TO.C,C2*%
X70333333Y-41757142D02*
X70285714Y-41804761D01*
X70142857Y-41852380D01*
X70047619Y-41852380D01*
X69904761Y-41804761D01*
X69809523Y-41709523D01*
X69761904Y-41614285D01*
X69714285Y-41423809D01*
X69714285Y-41280952D01*
X69761904Y-41090476D01*
X69809523Y-40995238D01*
X69904761Y-40900000D01*
X70047619Y-40852380D01*
X70142857Y-40852380D01*
X70285714Y-40900000D01*
X70333333Y-40947619D01*
X70714285Y-40947619D02*
X70761904Y-40900000D01*
X70857142Y-40852380D01*
X71095238Y-40852380D01*
X71190476Y-40900000D01*
X71238095Y-40947619D01*
X71285714Y-41042857D01*
X71285714Y-41138095D01*
X71238095Y-41280952D01*
X70666666Y-41852380D01*
X71285714Y-41852380D01*
X68785714Y-49985714D02*
X68785714Y-50652380D01*
X68547619Y-49604761D02*
X68309523Y-50319047D01*
X68928571Y-50319047D01*
X69214285Y-49652380D02*
X69880952Y-49652380D01*
X69452380Y-50652380D01*
X70452380Y-49652380D02*
X70547619Y-49652380D01*
X70642857Y-49700000D01*
X70690476Y-49747619D01*
X70738095Y-49842857D01*
X70785714Y-50033333D01*
X70785714Y-50271428D01*
X70738095Y-50461904D01*
X70690476Y-50557142D01*
X70642857Y-50604761D01*
X70547619Y-50652380D01*
X70452380Y-50652380D01*
X70357142Y-50604761D01*
X70309523Y-50557142D01*
X70261904Y-50461904D01*
X70214285Y-50271428D01*
X70214285Y-50033333D01*
X70261904Y-49842857D01*
X70309523Y-49747619D01*
X70357142Y-49700000D01*
X70452380Y-49652380D01*
X71642857Y-49985714D02*
X71642857Y-50652380D01*
X71214285Y-49985714D02*
X71214285Y-50509523D01*
X71261904Y-50604761D01*
X71357142Y-50652380D01*
X71500000Y-50652380D01*
X71595238Y-50604761D01*
X71642857Y-50557142D01*
%TO.C,C3*%
X40627142Y-56616666D02*
X40674761Y-56664285D01*
X40722380Y-56807142D01*
X40722380Y-56902380D01*
X40674761Y-57045238D01*
X40579523Y-57140476D01*
X40484285Y-57188095D01*
X40293809Y-57235714D01*
X40150952Y-57235714D01*
X39960476Y-57188095D01*
X39865238Y-57140476D01*
X39770000Y-57045238D01*
X39722380Y-56902380D01*
X39722380Y-56807142D01*
X39770000Y-56664285D01*
X39817619Y-56616666D01*
X39722380Y-56283333D02*
X39722380Y-55664285D01*
X40103333Y-55997619D01*
X40103333Y-55854761D01*
X40150952Y-55759523D01*
X40198571Y-55711904D01*
X40293809Y-55664285D01*
X40531904Y-55664285D01*
X40627142Y-55711904D01*
X40674761Y-55759523D01*
X40722380Y-55854761D01*
X40722380Y-56140476D01*
X40674761Y-56235714D01*
X40627142Y-56283333D01*
%TO.C,C4*%
X53833333Y-55257142D02*
X53785714Y-55304761D01*
X53642857Y-55352380D01*
X53547619Y-55352380D01*
X53404761Y-55304761D01*
X53309523Y-55209523D01*
X53261904Y-55114285D01*
X53214285Y-54923809D01*
X53214285Y-54780952D01*
X53261904Y-54590476D01*
X53309523Y-54495238D01*
X53404761Y-54400000D01*
X53547619Y-54352380D01*
X53642857Y-54352380D01*
X53785714Y-54400000D01*
X53833333Y-54447619D01*
X54690476Y-54685714D02*
X54690476Y-55352380D01*
X54452380Y-54304761D02*
X54214285Y-55019047D01*
X54833333Y-55019047D01*
%TO.C,D1*%
X53771904Y-49407380D02*
X53771904Y-48407380D01*
X54010000Y-48407380D01*
X54152857Y-48455000D01*
X54248095Y-48550238D01*
X54295714Y-48645476D01*
X54343333Y-48835952D01*
X54343333Y-48978809D01*
X54295714Y-49169285D01*
X54248095Y-49264523D01*
X54152857Y-49359761D01*
X54010000Y-49407380D01*
X53771904Y-49407380D01*
X55295714Y-49407380D02*
X54724285Y-49407380D01*
X55010000Y-49407380D02*
X55010000Y-48407380D01*
X54914761Y-48550238D01*
X54819523Y-48645476D01*
X54724285Y-48693095D01*
D14*
X53185571Y-53645571D02*
X53294428Y-53681857D01*
X53330714Y-53718142D01*
X53367000Y-53790714D01*
X53367000Y-53899571D01*
X53330714Y-53972142D01*
X53294428Y-54008428D01*
X53221857Y-54044714D01*
X52931571Y-54044714D01*
X52931571Y-53282714D01*
X53185571Y-53282714D01*
X53258142Y-53319000D01*
X53294428Y-53355285D01*
X53330714Y-53427857D01*
X53330714Y-53500428D01*
X53294428Y-53573000D01*
X53258142Y-53609285D01*
X53185571Y-53645571D01*
X52931571Y-53645571D01*
X53657285Y-53827000D02*
X54020142Y-53827000D01*
X53584714Y-54044714D02*
X53838714Y-53282714D01*
X54092714Y-54044714D01*
X54237857Y-53282714D02*
X54491857Y-54044714D01*
X54745857Y-53282714D01*
X55036142Y-54044714D02*
X55181285Y-54044714D01*
X55253857Y-54008428D01*
X55290142Y-53972142D01*
X55362714Y-53863285D01*
X55399000Y-53718142D01*
X55399000Y-53427857D01*
X55362714Y-53355285D01*
X55326428Y-53319000D01*
X55253857Y-53282714D01*
X55108714Y-53282714D01*
X55036142Y-53319000D01*
X54999857Y-53355285D01*
X54963571Y-53427857D01*
X54963571Y-53609285D01*
X54999857Y-53681857D01*
X55036142Y-53718142D01*
X55108714Y-53754428D01*
X55253857Y-53754428D01*
X55326428Y-53718142D01*
X55362714Y-53681857D01*
X55399000Y-53609285D01*
X55761857Y-54044714D02*
X55907000Y-54044714D01*
X55979571Y-54008428D01*
X56015857Y-53972142D01*
X56088428Y-53863285D01*
X56124714Y-53718142D01*
X56124714Y-53427857D01*
X56088428Y-53355285D01*
X56052142Y-53319000D01*
X55979571Y-53282714D01*
X55834428Y-53282714D01*
X55761857Y-53319000D01*
X55725571Y-53355285D01*
X55689285Y-53427857D01*
X55689285Y-53609285D01*
X55725571Y-53681857D01*
X55761857Y-53718142D01*
X55834428Y-53754428D01*
X55979571Y-53754428D01*
X56052142Y-53718142D01*
X56088428Y-53681857D01*
X56124714Y-53609285D01*
%TO.C,D2*%
D13*
X53502380Y-46738095D02*
X52502380Y-46738095D01*
X52502380Y-46500000D01*
X52550000Y-46357142D01*
X52645238Y-46261904D01*
X52740476Y-46214285D01*
X52930952Y-46166666D01*
X53073809Y-46166666D01*
X53264285Y-46214285D01*
X53359523Y-46261904D01*
X53454761Y-46357142D01*
X53502380Y-46500000D01*
X53502380Y-46738095D01*
X52597619Y-45785714D02*
X52550000Y-45738095D01*
X52502380Y-45642857D01*
X52502380Y-45404761D01*
X52550000Y-45309523D01*
X52597619Y-45261904D01*
X52692857Y-45214285D01*
X52788095Y-45214285D01*
X52930952Y-45261904D01*
X53502380Y-45833333D01*
X53502380Y-45214285D01*
D14*
X57995571Y-47324428D02*
X58031857Y-47215571D01*
X58068142Y-47179285D01*
X58140714Y-47143000D01*
X58249571Y-47143000D01*
X58322142Y-47179285D01*
X58358428Y-47215571D01*
X58394714Y-47288142D01*
X58394714Y-47578428D01*
X57632714Y-47578428D01*
X57632714Y-47324428D01*
X57669000Y-47251857D01*
X57705285Y-47215571D01*
X57777857Y-47179285D01*
X57850428Y-47179285D01*
X57923000Y-47215571D01*
X57959285Y-47251857D01*
X57995571Y-47324428D01*
X57995571Y-47578428D01*
X58177000Y-46852714D02*
X58177000Y-46489857D01*
X58394714Y-46925285D02*
X57632714Y-46671285D01*
X58394714Y-46417285D01*
X57632714Y-46272142D02*
X58394714Y-46018142D01*
X57632714Y-45764142D01*
X58394714Y-45473857D02*
X58394714Y-45328714D01*
X58358428Y-45256142D01*
X58322142Y-45219857D01*
X58213285Y-45147285D01*
X58068142Y-45111000D01*
X57777857Y-45111000D01*
X57705285Y-45147285D01*
X57669000Y-45183571D01*
X57632714Y-45256142D01*
X57632714Y-45401285D01*
X57669000Y-45473857D01*
X57705285Y-45510142D01*
X57777857Y-45546428D01*
X57959285Y-45546428D01*
X58031857Y-45510142D01*
X58068142Y-45473857D01*
X58104428Y-45401285D01*
X58104428Y-45256142D01*
X58068142Y-45183571D01*
X58031857Y-45147285D01*
X57959285Y-45111000D01*
X58394714Y-44748142D02*
X58394714Y-44603000D01*
X58358428Y-44530428D01*
X58322142Y-44494142D01*
X58213285Y-44421571D01*
X58068142Y-44385285D01*
X57777857Y-44385285D01*
X57705285Y-44421571D01*
X57669000Y-44457857D01*
X57632714Y-44530428D01*
X57632714Y-44675571D01*
X57669000Y-44748142D01*
X57705285Y-44784428D01*
X57777857Y-44820714D01*
X57959285Y-44820714D01*
X58031857Y-44784428D01*
X58068142Y-44748142D01*
X58104428Y-44675571D01*
X58104428Y-44530428D01*
X58068142Y-44457857D01*
X58031857Y-44421571D01*
X57959285Y-44385285D01*
%TO.C,D3*%
D13*
X71952380Y-63488095D02*
X70952380Y-63488095D01*
X70952380Y-63250000D01*
X71000000Y-63107142D01*
X71095238Y-63011904D01*
X71190476Y-62964285D01*
X71380952Y-62916666D01*
X71523809Y-62916666D01*
X71714285Y-62964285D01*
X71809523Y-63011904D01*
X71904761Y-63107142D01*
X71952380Y-63250000D01*
X71952380Y-63488095D01*
X70952380Y-62583333D02*
X70952380Y-61964285D01*
X71333333Y-62297619D01*
X71333333Y-62154761D01*
X71380952Y-62059523D01*
X71428571Y-62011904D01*
X71523809Y-61964285D01*
X71761904Y-61964285D01*
X71857142Y-62011904D01*
X71904761Y-62059523D01*
X71952380Y-62154761D01*
X71952380Y-62440476D01*
X71904761Y-62535714D01*
X71857142Y-62583333D01*
X79952380Y-63869047D02*
X79952380Y-64345238D01*
X78952380Y-64345238D01*
X79428571Y-63535714D02*
X79428571Y-63202380D01*
X79952380Y-63059523D02*
X79952380Y-63535714D01*
X78952380Y-63535714D01*
X78952380Y-63059523D01*
X79952380Y-62630952D02*
X78952380Y-62630952D01*
X78952380Y-62392857D01*
X79000000Y-62250000D01*
X79095238Y-62154761D01*
X79190476Y-62107142D01*
X79380952Y-62059523D01*
X79523809Y-62059523D01*
X79714285Y-62107142D01*
X79809523Y-62154761D01*
X79904761Y-62250000D01*
X79952380Y-62392857D01*
X79952380Y-62630952D01*
X79952380Y-61107142D02*
X79952380Y-61678571D01*
X79952380Y-61392857D02*
X78952380Y-61392857D01*
X79095238Y-61488095D01*
X79190476Y-61583333D01*
X79238095Y-61678571D01*
%TO.C,D4*%
X71952380Y-53488095D02*
X70952380Y-53488095D01*
X70952380Y-53250000D01*
X71000000Y-53107142D01*
X71095238Y-53011904D01*
X71190476Y-52964285D01*
X71380952Y-52916666D01*
X71523809Y-52916666D01*
X71714285Y-52964285D01*
X71809523Y-53011904D01*
X71904761Y-53107142D01*
X71952380Y-53250000D01*
X71952380Y-53488095D01*
X71285714Y-52059523D02*
X71952380Y-52059523D01*
X70904761Y-52297619D02*
X71619047Y-52535714D01*
X71619047Y-51916666D01*
X79952380Y-53869047D02*
X79952380Y-54345238D01*
X78952380Y-54345238D01*
X79428571Y-53535714D02*
X79428571Y-53202380D01*
X79952380Y-53059523D02*
X79952380Y-53535714D01*
X78952380Y-53535714D01*
X78952380Y-53059523D01*
X79952380Y-52630952D02*
X78952380Y-52630952D01*
X78952380Y-52392857D01*
X79000000Y-52250000D01*
X79095238Y-52154761D01*
X79190476Y-52107142D01*
X79380952Y-52059523D01*
X79523809Y-52059523D01*
X79714285Y-52107142D01*
X79809523Y-52154761D01*
X79904761Y-52250000D01*
X79952380Y-52392857D01*
X79952380Y-52630952D01*
X79047619Y-51678571D02*
X79000000Y-51630952D01*
X78952380Y-51535714D01*
X78952380Y-51297619D01*
X79000000Y-51202380D01*
X79047619Y-51154761D01*
X79142857Y-51107142D01*
X79238095Y-51107142D01*
X79380952Y-51154761D01*
X79952380Y-51726190D01*
X79952380Y-51107142D01*
%TO.C,J1*%
X30352380Y-50733333D02*
X31066666Y-50733333D01*
X31209523Y-50780952D01*
X31304761Y-50876190D01*
X31352380Y-51019047D01*
X31352380Y-51114285D01*
X31352380Y-49733333D02*
X31352380Y-50304761D01*
X31352380Y-50019047D02*
X30352380Y-50019047D01*
X30495238Y-50114285D01*
X30590476Y-50209523D01*
X30638095Y-50304761D01*
X31352380Y-46942857D02*
X30352380Y-46942857D01*
X30685714Y-46466666D02*
X31352380Y-46466666D01*
X30780952Y-46466666D02*
X30733333Y-46419047D01*
X30685714Y-46323809D01*
X30685714Y-46180952D01*
X30733333Y-46085714D01*
X30828571Y-46038095D01*
X31352380Y-46038095D01*
X30685714Y-45561904D02*
X31685714Y-45561904D01*
X30733333Y-45561904D02*
X30685714Y-45466666D01*
X30685714Y-45276190D01*
X30733333Y-45180952D01*
X30780952Y-45133333D01*
X30876190Y-45085714D01*
X31161904Y-45085714D01*
X31257142Y-45133333D01*
X31304761Y-45180952D01*
X31352380Y-45276190D01*
X31352380Y-45466666D01*
X31304761Y-45561904D01*
X30685714Y-44228571D02*
X31352380Y-44228571D01*
X30685714Y-44657142D02*
X31209523Y-44657142D01*
X31304761Y-44609523D01*
X31352380Y-44514285D01*
X31352380Y-44371428D01*
X31304761Y-44276190D01*
X31257142Y-44228571D01*
X30685714Y-43895238D02*
X30685714Y-43514285D01*
X30352380Y-43752380D02*
X31209523Y-43752380D01*
X31304761Y-43704761D01*
X31352380Y-43609523D01*
X31352380Y-43514285D01*
%TO.C,J2*%
X63416666Y-68952380D02*
X63416666Y-69666666D01*
X63369047Y-69809523D01*
X63273809Y-69904761D01*
X63130952Y-69952380D01*
X63035714Y-69952380D01*
X63845238Y-69047619D02*
X63892857Y-69000000D01*
X63988095Y-68952380D01*
X64226190Y-68952380D01*
X64321428Y-69000000D01*
X64369047Y-69047619D01*
X64416666Y-69142857D01*
X64416666Y-69238095D01*
X64369047Y-69380952D01*
X63797619Y-69952380D01*
X64416666Y-69952380D01*
X61773809Y-77952380D02*
X61773809Y-76952380D01*
X62154761Y-76952380D01*
X62250000Y-77000000D01*
X62297619Y-77047619D01*
X62345238Y-77142857D01*
X62345238Y-77285714D01*
X62297619Y-77380952D01*
X62250000Y-77428571D01*
X62154761Y-77476190D01*
X61773809Y-77476190D01*
X62916666Y-77952380D02*
X62821428Y-77904761D01*
X62773809Y-77857142D01*
X62726190Y-77761904D01*
X62726190Y-77476190D01*
X62773809Y-77380952D01*
X62821428Y-77333333D01*
X62916666Y-77285714D01*
X63059523Y-77285714D01*
X63154761Y-77333333D01*
X63202380Y-77380952D01*
X63250000Y-77476190D01*
X63250000Y-77761904D01*
X63202380Y-77857142D01*
X63154761Y-77904761D01*
X63059523Y-77952380D01*
X62916666Y-77952380D01*
X63583333Y-77285714D02*
X63773809Y-77952380D01*
X63964285Y-77476190D01*
X64154761Y-77952380D01*
X64345238Y-77285714D01*
X65107142Y-77904761D02*
X65011904Y-77952380D01*
X64821428Y-77952380D01*
X64726190Y-77904761D01*
X64678571Y-77809523D01*
X64678571Y-77428571D01*
X64726190Y-77333333D01*
X64821428Y-77285714D01*
X65011904Y-77285714D01*
X65107142Y-77333333D01*
X65154761Y-77428571D01*
X65154761Y-77523809D01*
X64678571Y-77619047D01*
X65583333Y-77952380D02*
X65583333Y-77285714D01*
X65583333Y-77476190D02*
X65630952Y-77380952D01*
X65678571Y-77333333D01*
X65773809Y-77285714D01*
X65869047Y-77285714D01*
%TO.C,Q1*%
X46159761Y-48867619D02*
X46064523Y-48820000D01*
X45969285Y-48724761D01*
X45826428Y-48581904D01*
X45731190Y-48534285D01*
X45635952Y-48534285D01*
X45683571Y-48772380D02*
X45588333Y-48724761D01*
X45493095Y-48629523D01*
X45445476Y-48439047D01*
X45445476Y-48105714D01*
X45493095Y-47915238D01*
X45588333Y-47820000D01*
X45683571Y-47772380D01*
X45874047Y-47772380D01*
X45969285Y-47820000D01*
X46064523Y-47915238D01*
X46112142Y-48105714D01*
X46112142Y-48439047D01*
X46064523Y-48629523D01*
X45969285Y-48724761D01*
X45874047Y-48772380D01*
X45683571Y-48772380D01*
X47064523Y-48772380D02*
X46493095Y-48772380D01*
X46778809Y-48772380D02*
X46778809Y-47772380D01*
X46683571Y-47915238D01*
X46588333Y-48010476D01*
X46493095Y-48058095D01*
D14*
X43455285Y-53168285D02*
X43419000Y-53132000D01*
X43382714Y-53059428D01*
X43382714Y-52878000D01*
X43419000Y-52805428D01*
X43455285Y-52769142D01*
X43527857Y-52732857D01*
X43600428Y-52732857D01*
X43709285Y-52769142D01*
X44144714Y-53204571D01*
X44144714Y-52732857D01*
X44144714Y-52406285D02*
X43382714Y-52406285D01*
X44144714Y-51970857D01*
X43382714Y-51970857D01*
X43382714Y-51680571D02*
X43382714Y-51172571D01*
X44144714Y-51499142D01*
X43382714Y-50737142D02*
X43382714Y-50664571D01*
X43419000Y-50592000D01*
X43455285Y-50555714D01*
X43527857Y-50519428D01*
X43673000Y-50483142D01*
X43854428Y-50483142D01*
X43999571Y-50519428D01*
X44072142Y-50555714D01*
X44108428Y-50592000D01*
X44144714Y-50664571D01*
X44144714Y-50737142D01*
X44108428Y-50809714D01*
X44072142Y-50846000D01*
X43999571Y-50882285D01*
X43854428Y-50918571D01*
X43673000Y-50918571D01*
X43527857Y-50882285D01*
X43455285Y-50846000D01*
X43419000Y-50809714D01*
X43382714Y-50737142D01*
X43382714Y-50011428D02*
X43382714Y-49938857D01*
X43419000Y-49866285D01*
X43455285Y-49830000D01*
X43527857Y-49793714D01*
X43673000Y-49757428D01*
X43854428Y-49757428D01*
X43999571Y-49793714D01*
X44072142Y-49830000D01*
X44108428Y-49866285D01*
X44144714Y-49938857D01*
X44144714Y-50011428D01*
X44108428Y-50084000D01*
X44072142Y-50120285D01*
X43999571Y-50156571D01*
X43854428Y-50192857D01*
X43673000Y-50192857D01*
X43527857Y-50156571D01*
X43455285Y-50120285D01*
X43419000Y-50084000D01*
X43382714Y-50011428D01*
X43455285Y-49467142D02*
X43419000Y-49430857D01*
X43382714Y-49358285D01*
X43382714Y-49176857D01*
X43419000Y-49104285D01*
X43455285Y-49068000D01*
X43527857Y-49031714D01*
X43600428Y-49031714D01*
X43709285Y-49068000D01*
X44144714Y-49503428D01*
X44144714Y-49031714D01*
%TO.C,Q2*%
D13*
X45889761Y-54582619D02*
X45794523Y-54535000D01*
X45699285Y-54439761D01*
X45556428Y-54296904D01*
X45461190Y-54249285D01*
X45365952Y-54249285D01*
X45413571Y-54487380D02*
X45318333Y-54439761D01*
X45223095Y-54344523D01*
X45175476Y-54154047D01*
X45175476Y-53820714D01*
X45223095Y-53630238D01*
X45318333Y-53535000D01*
X45413571Y-53487380D01*
X45604047Y-53487380D01*
X45699285Y-53535000D01*
X45794523Y-53630238D01*
X45842142Y-53820714D01*
X45842142Y-54154047D01*
X45794523Y-54344523D01*
X45699285Y-54439761D01*
X45604047Y-54487380D01*
X45413571Y-54487380D01*
X46223095Y-53582619D02*
X46270714Y-53535000D01*
X46365952Y-53487380D01*
X46604047Y-53487380D01*
X46699285Y-53535000D01*
X46746904Y-53582619D01*
X46794523Y-53677857D01*
X46794523Y-53773095D01*
X46746904Y-53915952D01*
X46175476Y-54487380D01*
X46794523Y-54487380D01*
D14*
X44303000Y-58745571D02*
X44411857Y-58781857D01*
X44448142Y-58818142D01*
X44484428Y-58890714D01*
X44484428Y-58999571D01*
X44448142Y-59072142D01*
X44411857Y-59108428D01*
X44339285Y-59144714D01*
X44049000Y-59144714D01*
X44049000Y-58382714D01*
X44303000Y-58382714D01*
X44375571Y-58419000D01*
X44411857Y-58455285D01*
X44448142Y-58527857D01*
X44448142Y-58600428D01*
X44411857Y-58673000D01*
X44375571Y-58709285D01*
X44303000Y-58745571D01*
X44049000Y-58745571D01*
X44774714Y-59108428D02*
X44883571Y-59144714D01*
X45065000Y-59144714D01*
X45137571Y-59108428D01*
X45173857Y-59072142D01*
X45210142Y-58999571D01*
X45210142Y-58927000D01*
X45173857Y-58854428D01*
X45137571Y-58818142D01*
X45065000Y-58781857D01*
X44919857Y-58745571D01*
X44847285Y-58709285D01*
X44811000Y-58673000D01*
X44774714Y-58600428D01*
X44774714Y-58527857D01*
X44811000Y-58455285D01*
X44847285Y-58419000D01*
X44919857Y-58382714D01*
X45101285Y-58382714D01*
X45210142Y-58419000D01*
X45500428Y-59108428D02*
X45609285Y-59144714D01*
X45790714Y-59144714D01*
X45863285Y-59108428D01*
X45899571Y-59072142D01*
X45935857Y-58999571D01*
X45935857Y-58927000D01*
X45899571Y-58854428D01*
X45863285Y-58818142D01*
X45790714Y-58781857D01*
X45645571Y-58745571D01*
X45573000Y-58709285D01*
X45536714Y-58673000D01*
X45500428Y-58600428D01*
X45500428Y-58527857D01*
X45536714Y-58455285D01*
X45573000Y-58419000D01*
X45645571Y-58382714D01*
X45827000Y-58382714D01*
X45935857Y-58419000D01*
X46371285Y-58709285D02*
X46298714Y-58673000D01*
X46262428Y-58636714D01*
X46226142Y-58564142D01*
X46226142Y-58527857D01*
X46262428Y-58455285D01*
X46298714Y-58419000D01*
X46371285Y-58382714D01*
X46516428Y-58382714D01*
X46589000Y-58419000D01*
X46625285Y-58455285D01*
X46661571Y-58527857D01*
X46661571Y-58564142D01*
X46625285Y-58636714D01*
X46589000Y-58673000D01*
X46516428Y-58709285D01*
X46371285Y-58709285D01*
X46298714Y-58745571D01*
X46262428Y-58781857D01*
X46226142Y-58854428D01*
X46226142Y-58999571D01*
X46262428Y-59072142D01*
X46298714Y-59108428D01*
X46371285Y-59144714D01*
X46516428Y-59144714D01*
X46589000Y-59108428D01*
X46625285Y-59072142D01*
X46661571Y-58999571D01*
X46661571Y-58854428D01*
X46625285Y-58781857D01*
X46589000Y-58745571D01*
X46516428Y-58709285D01*
X47314714Y-58636714D02*
X47314714Y-59144714D01*
X47133285Y-58346428D02*
X46951857Y-58890714D01*
X47423571Y-58890714D01*
%TO.C,Q3*%
D13*
X45904761Y-43597619D02*
X45809523Y-43550000D01*
X45714285Y-43454761D01*
X45571428Y-43311904D01*
X45476190Y-43264285D01*
X45380952Y-43264285D01*
X45428571Y-43502380D02*
X45333333Y-43454761D01*
X45238095Y-43359523D01*
X45190476Y-43169047D01*
X45190476Y-42835714D01*
X45238095Y-42645238D01*
X45333333Y-42550000D01*
X45428571Y-42502380D01*
X45619047Y-42502380D01*
X45714285Y-42550000D01*
X45809523Y-42645238D01*
X45857142Y-42835714D01*
X45857142Y-43169047D01*
X45809523Y-43359523D01*
X45714285Y-43454761D01*
X45619047Y-43502380D01*
X45428571Y-43502380D01*
X46190476Y-42502380D02*
X46809523Y-42502380D01*
X46476190Y-42883333D01*
X46619047Y-42883333D01*
X46714285Y-42930952D01*
X46761904Y-42978571D01*
X46809523Y-43073809D01*
X46809523Y-43311904D01*
X46761904Y-43407142D01*
X46714285Y-43454761D01*
X46619047Y-43502380D01*
X46333333Y-43502380D01*
X46238095Y-43454761D01*
X46190476Y-43407142D01*
D14*
X43355285Y-47668285D02*
X43319000Y-47632000D01*
X43282714Y-47559428D01*
X43282714Y-47378000D01*
X43319000Y-47305428D01*
X43355285Y-47269142D01*
X43427857Y-47232857D01*
X43500428Y-47232857D01*
X43609285Y-47269142D01*
X44044714Y-47704571D01*
X44044714Y-47232857D01*
X44044714Y-46906285D02*
X43282714Y-46906285D01*
X44044714Y-46470857D01*
X43282714Y-46470857D01*
X43282714Y-46180571D02*
X43282714Y-45672571D01*
X44044714Y-45999142D01*
X43282714Y-45237142D02*
X43282714Y-45164571D01*
X43319000Y-45092000D01*
X43355285Y-45055714D01*
X43427857Y-45019428D01*
X43573000Y-44983142D01*
X43754428Y-44983142D01*
X43899571Y-45019428D01*
X43972142Y-45055714D01*
X44008428Y-45092000D01*
X44044714Y-45164571D01*
X44044714Y-45237142D01*
X44008428Y-45309714D01*
X43972142Y-45346000D01*
X43899571Y-45382285D01*
X43754428Y-45418571D01*
X43573000Y-45418571D01*
X43427857Y-45382285D01*
X43355285Y-45346000D01*
X43319000Y-45309714D01*
X43282714Y-45237142D01*
X43282714Y-44511428D02*
X43282714Y-44438857D01*
X43319000Y-44366285D01*
X43355285Y-44330000D01*
X43427857Y-44293714D01*
X43573000Y-44257428D01*
X43754428Y-44257428D01*
X43899571Y-44293714D01*
X43972142Y-44330000D01*
X44008428Y-44366285D01*
X44044714Y-44438857D01*
X44044714Y-44511428D01*
X44008428Y-44584000D01*
X43972142Y-44620285D01*
X43899571Y-44656571D01*
X43754428Y-44692857D01*
X43573000Y-44692857D01*
X43427857Y-44656571D01*
X43355285Y-44620285D01*
X43319000Y-44584000D01*
X43282714Y-44511428D01*
X43355285Y-43967142D02*
X43319000Y-43930857D01*
X43282714Y-43858285D01*
X43282714Y-43676857D01*
X43319000Y-43604285D01*
X43355285Y-43568000D01*
X43427857Y-43531714D01*
X43500428Y-43531714D01*
X43609285Y-43568000D01*
X44044714Y-44003428D01*
X44044714Y-43531714D01*
%TO.C,Q4*%
D13*
X59104761Y-64747619D02*
X59009523Y-64700000D01*
X58914285Y-64604761D01*
X58771428Y-64461904D01*
X58676190Y-64414285D01*
X58580952Y-64414285D01*
X58628571Y-64652380D02*
X58533333Y-64604761D01*
X58438095Y-64509523D01*
X58390476Y-64319047D01*
X58390476Y-63985714D01*
X58438095Y-63795238D01*
X58533333Y-63700000D01*
X58628571Y-63652380D01*
X58819047Y-63652380D01*
X58914285Y-63700000D01*
X59009523Y-63795238D01*
X59057142Y-63985714D01*
X59057142Y-64319047D01*
X59009523Y-64509523D01*
X58914285Y-64604761D01*
X58819047Y-64652380D01*
X58628571Y-64652380D01*
X59914285Y-63985714D02*
X59914285Y-64652380D01*
X59676190Y-63604761D02*
X59438095Y-64319047D01*
X60057142Y-64319047D01*
X59042857Y-68952380D02*
X58709523Y-68476190D01*
X58471428Y-68952380D02*
X58471428Y-67952380D01*
X58852380Y-67952380D01*
X58947619Y-68000000D01*
X58995238Y-68047619D01*
X59042857Y-68142857D01*
X59042857Y-68285714D01*
X58995238Y-68380952D01*
X58947619Y-68428571D01*
X58852380Y-68476190D01*
X58471428Y-68476190D01*
X59423809Y-68904761D02*
X59566666Y-68952380D01*
X59804761Y-68952380D01*
X59900000Y-68904761D01*
X59947619Y-68857142D01*
X59995238Y-68761904D01*
X59995238Y-68666666D01*
X59947619Y-68571428D01*
X59900000Y-68523809D01*
X59804761Y-68476190D01*
X59614285Y-68428571D01*
X59519047Y-68380952D01*
X59471428Y-68333333D01*
X59423809Y-68238095D01*
X59423809Y-68142857D01*
X59471428Y-68047619D01*
X59519047Y-68000000D01*
X59614285Y-67952380D01*
X59852380Y-67952380D01*
X59995238Y-68000000D01*
X60423809Y-68952380D02*
X60423809Y-67952380D01*
X60661904Y-67952380D01*
X60804761Y-68000000D01*
X60900000Y-68095238D01*
X60947619Y-68190476D01*
X60995238Y-68380952D01*
X60995238Y-68523809D01*
X60947619Y-68714285D01*
X60900000Y-68809523D01*
X60804761Y-68904761D01*
X60661904Y-68952380D01*
X60423809Y-68952380D01*
X61614285Y-67952380D02*
X61709523Y-67952380D01*
X61804761Y-68000000D01*
X61852380Y-68047619D01*
X61900000Y-68142857D01*
X61947619Y-68333333D01*
X61947619Y-68571428D01*
X61900000Y-68761904D01*
X61852380Y-68857142D01*
X61804761Y-68904761D01*
X61709523Y-68952380D01*
X61614285Y-68952380D01*
X61519047Y-68904761D01*
X61471428Y-68857142D01*
X61423809Y-68761904D01*
X61376190Y-68571428D01*
X61376190Y-68333333D01*
X61423809Y-68142857D01*
X61471428Y-68047619D01*
X61519047Y-68000000D01*
X61614285Y-67952380D01*
X62852380Y-67952380D02*
X62376190Y-67952380D01*
X62328571Y-68428571D01*
X62376190Y-68380952D01*
X62471428Y-68333333D01*
X62709523Y-68333333D01*
X62804761Y-68380952D01*
X62852380Y-68428571D01*
X62900000Y-68523809D01*
X62900000Y-68761904D01*
X62852380Y-68857142D01*
X62804761Y-68904761D01*
X62709523Y-68952380D01*
X62471428Y-68952380D01*
X62376190Y-68904761D01*
X62328571Y-68857142D01*
X63519047Y-67952380D02*
X63614285Y-67952380D01*
X63709523Y-68000000D01*
X63757142Y-68047619D01*
X63804761Y-68142857D01*
X63852380Y-68333333D01*
X63852380Y-68571428D01*
X63804761Y-68761904D01*
X63757142Y-68857142D01*
X63709523Y-68904761D01*
X63614285Y-68952380D01*
X63519047Y-68952380D01*
X63423809Y-68904761D01*
X63376190Y-68857142D01*
X63328571Y-68761904D01*
X63280952Y-68571428D01*
X63280952Y-68333333D01*
X63328571Y-68142857D01*
X63376190Y-68047619D01*
X63423809Y-68000000D01*
X63519047Y-67952380D01*
X64280952Y-68952380D02*
X64280952Y-67952380D01*
X64852380Y-68952380D01*
X64852380Y-67952380D01*
X65519047Y-67952380D02*
X65614285Y-67952380D01*
X65709523Y-68000000D01*
X65757142Y-68047619D01*
X65804761Y-68142857D01*
X65852380Y-68333333D01*
X65852380Y-68571428D01*
X65804761Y-68761904D01*
X65757142Y-68857142D01*
X65709523Y-68904761D01*
X65614285Y-68952380D01*
X65519047Y-68952380D01*
X65423809Y-68904761D01*
X65376190Y-68857142D01*
X65328571Y-68761904D01*
X65280952Y-68571428D01*
X65280952Y-68333333D01*
X65328571Y-68142857D01*
X65376190Y-68047619D01*
X65423809Y-68000000D01*
X65519047Y-67952380D01*
X66709523Y-67952380D02*
X66519047Y-67952380D01*
X66423809Y-68000000D01*
X66376190Y-68047619D01*
X66280952Y-68190476D01*
X66233333Y-68380952D01*
X66233333Y-68761904D01*
X66280952Y-68857142D01*
X66328571Y-68904761D01*
X66423809Y-68952380D01*
X66614285Y-68952380D01*
X66709523Y-68904761D01*
X66757142Y-68857142D01*
X66804761Y-68761904D01*
X66804761Y-68523809D01*
X66757142Y-68428571D01*
X66709523Y-68380952D01*
X66614285Y-68333333D01*
X66423809Y-68333333D01*
X66328571Y-68380952D01*
X66280952Y-68428571D01*
X66233333Y-68523809D01*
X67090476Y-67952380D02*
X67661904Y-67952380D01*
X67376190Y-68952380D02*
X67376190Y-67952380D01*
X68471428Y-68952380D02*
X67995238Y-68952380D01*
X67995238Y-67952380D01*
%TO.C,Q5*%
X59704761Y-55147619D02*
X59609523Y-55100000D01*
X59514285Y-55004761D01*
X59371428Y-54861904D01*
X59276190Y-54814285D01*
X59180952Y-54814285D01*
X59228571Y-55052380D02*
X59133333Y-55004761D01*
X59038095Y-54909523D01*
X58990476Y-54719047D01*
X58990476Y-54385714D01*
X59038095Y-54195238D01*
X59133333Y-54100000D01*
X59228571Y-54052380D01*
X59419047Y-54052380D01*
X59514285Y-54100000D01*
X59609523Y-54195238D01*
X59657142Y-54385714D01*
X59657142Y-54719047D01*
X59609523Y-54909523D01*
X59514285Y-55004761D01*
X59419047Y-55052380D01*
X59228571Y-55052380D01*
X60561904Y-54052380D02*
X60085714Y-54052380D01*
X60038095Y-54528571D01*
X60085714Y-54480952D01*
X60180952Y-54433333D01*
X60419047Y-54433333D01*
X60514285Y-54480952D01*
X60561904Y-54528571D01*
X60609523Y-54623809D01*
X60609523Y-54861904D01*
X60561904Y-54957142D01*
X60514285Y-55004761D01*
X60419047Y-55052380D01*
X60180952Y-55052380D01*
X60085714Y-55004761D01*
X60038095Y-54957142D01*
X59367857Y-59427380D02*
X59034523Y-58951190D01*
X58796428Y-59427380D02*
X58796428Y-58427380D01*
X59177380Y-58427380D01*
X59272619Y-58475000D01*
X59320238Y-58522619D01*
X59367857Y-58617857D01*
X59367857Y-58760714D01*
X59320238Y-58855952D01*
X59272619Y-58903571D01*
X59177380Y-58951190D01*
X58796428Y-58951190D01*
X59748809Y-59379761D02*
X59891666Y-59427380D01*
X60129761Y-59427380D01*
X60225000Y-59379761D01*
X60272619Y-59332142D01*
X60320238Y-59236904D01*
X60320238Y-59141666D01*
X60272619Y-59046428D01*
X60225000Y-58998809D01*
X60129761Y-58951190D01*
X59939285Y-58903571D01*
X59844047Y-58855952D01*
X59796428Y-58808333D01*
X59748809Y-58713095D01*
X59748809Y-58617857D01*
X59796428Y-58522619D01*
X59844047Y-58475000D01*
X59939285Y-58427380D01*
X60177380Y-58427380D01*
X60320238Y-58475000D01*
X60748809Y-59427380D02*
X60748809Y-58427380D01*
X60986904Y-58427380D01*
X61129761Y-58475000D01*
X61225000Y-58570238D01*
X61272619Y-58665476D01*
X61320238Y-58855952D01*
X61320238Y-58998809D01*
X61272619Y-59189285D01*
X61225000Y-59284523D01*
X61129761Y-59379761D01*
X60986904Y-59427380D01*
X60748809Y-59427380D01*
X61939285Y-58427380D02*
X62034523Y-58427380D01*
X62129761Y-58475000D01*
X62177380Y-58522619D01*
X62225000Y-58617857D01*
X62272619Y-58808333D01*
X62272619Y-59046428D01*
X62225000Y-59236904D01*
X62177380Y-59332142D01*
X62129761Y-59379761D01*
X62034523Y-59427380D01*
X61939285Y-59427380D01*
X61844047Y-59379761D01*
X61796428Y-59332142D01*
X61748809Y-59236904D01*
X61701190Y-59046428D01*
X61701190Y-58808333D01*
X61748809Y-58617857D01*
X61796428Y-58522619D01*
X61844047Y-58475000D01*
X61939285Y-58427380D01*
X63177380Y-58427380D02*
X62701190Y-58427380D01*
X62653571Y-58903571D01*
X62701190Y-58855952D01*
X62796428Y-58808333D01*
X63034523Y-58808333D01*
X63129761Y-58855952D01*
X63177380Y-58903571D01*
X63225000Y-58998809D01*
X63225000Y-59236904D01*
X63177380Y-59332142D01*
X63129761Y-59379761D01*
X63034523Y-59427380D01*
X62796428Y-59427380D01*
X62701190Y-59379761D01*
X62653571Y-59332142D01*
X63844047Y-58427380D02*
X63939285Y-58427380D01*
X64034523Y-58475000D01*
X64082142Y-58522619D01*
X64129761Y-58617857D01*
X64177380Y-58808333D01*
X64177380Y-59046428D01*
X64129761Y-59236904D01*
X64082142Y-59332142D01*
X64034523Y-59379761D01*
X63939285Y-59427380D01*
X63844047Y-59427380D01*
X63748809Y-59379761D01*
X63701190Y-59332142D01*
X63653571Y-59236904D01*
X63605952Y-59046428D01*
X63605952Y-58808333D01*
X63653571Y-58617857D01*
X63701190Y-58522619D01*
X63748809Y-58475000D01*
X63844047Y-58427380D01*
X64605952Y-59427380D02*
X64605952Y-58427380D01*
X65177380Y-59427380D01*
X65177380Y-58427380D01*
X65844047Y-58427380D02*
X65939285Y-58427380D01*
X66034523Y-58475000D01*
X66082142Y-58522619D01*
X66129761Y-58617857D01*
X66177380Y-58808333D01*
X66177380Y-59046428D01*
X66129761Y-59236904D01*
X66082142Y-59332142D01*
X66034523Y-59379761D01*
X65939285Y-59427380D01*
X65844047Y-59427380D01*
X65748809Y-59379761D01*
X65701190Y-59332142D01*
X65653571Y-59236904D01*
X65605952Y-59046428D01*
X65605952Y-58808333D01*
X65653571Y-58617857D01*
X65701190Y-58522619D01*
X65748809Y-58475000D01*
X65844047Y-58427380D01*
X67034523Y-58427380D02*
X66844047Y-58427380D01*
X66748809Y-58475000D01*
X66701190Y-58522619D01*
X66605952Y-58665476D01*
X66558333Y-58855952D01*
X66558333Y-59236904D01*
X66605952Y-59332142D01*
X66653571Y-59379761D01*
X66748809Y-59427380D01*
X66939285Y-59427380D01*
X67034523Y-59379761D01*
X67082142Y-59332142D01*
X67129761Y-59236904D01*
X67129761Y-58998809D01*
X67082142Y-58903571D01*
X67034523Y-58855952D01*
X66939285Y-58808333D01*
X66748809Y-58808333D01*
X66653571Y-58855952D01*
X66605952Y-58903571D01*
X66558333Y-58998809D01*
X67415476Y-58427380D02*
X67986904Y-58427380D01*
X67701190Y-59427380D02*
X67701190Y-58427380D01*
X68796428Y-59427380D02*
X68320238Y-59427380D01*
X68320238Y-58427380D01*
%TO.C,R1*%
X40423333Y-50382380D02*
X40090000Y-49906190D01*
X39851904Y-50382380D02*
X39851904Y-49382380D01*
X40232857Y-49382380D01*
X40328095Y-49430000D01*
X40375714Y-49477619D01*
X40423333Y-49572857D01*
X40423333Y-49715714D01*
X40375714Y-49810952D01*
X40328095Y-49858571D01*
X40232857Y-49906190D01*
X39851904Y-49906190D01*
X41375714Y-50382380D02*
X40804285Y-50382380D01*
X41090000Y-50382380D02*
X41090000Y-49382380D01*
X40994761Y-49525238D01*
X40899523Y-49620476D01*
X40804285Y-49668095D01*
%TO.C,R2*%
X40423333Y-53557380D02*
X40090000Y-53081190D01*
X39851904Y-53557380D02*
X39851904Y-52557380D01*
X40232857Y-52557380D01*
X40328095Y-52605000D01*
X40375714Y-52652619D01*
X40423333Y-52747857D01*
X40423333Y-52890714D01*
X40375714Y-52985952D01*
X40328095Y-53033571D01*
X40232857Y-53081190D01*
X39851904Y-53081190D01*
X40804285Y-52652619D02*
X40851904Y-52605000D01*
X40947142Y-52557380D01*
X41185238Y-52557380D01*
X41280476Y-52605000D01*
X41328095Y-52652619D01*
X41375714Y-52747857D01*
X41375714Y-52843095D01*
X41328095Y-52985952D01*
X40756666Y-53557380D01*
X41375714Y-53557380D01*
%TO.C,R3*%
X40423333Y-47207380D02*
X40090000Y-46731190D01*
X39851904Y-47207380D02*
X39851904Y-46207380D01*
X40232857Y-46207380D01*
X40328095Y-46255000D01*
X40375714Y-46302619D01*
X40423333Y-46397857D01*
X40423333Y-46540714D01*
X40375714Y-46635952D01*
X40328095Y-46683571D01*
X40232857Y-46731190D01*
X39851904Y-46731190D01*
X40756666Y-46207380D02*
X41375714Y-46207380D01*
X41042380Y-46588333D01*
X41185238Y-46588333D01*
X41280476Y-46635952D01*
X41328095Y-46683571D01*
X41375714Y-46778809D01*
X41375714Y-47016904D01*
X41328095Y-47112142D01*
X41280476Y-47159761D01*
X41185238Y-47207380D01*
X40899523Y-47207380D01*
X40804285Y-47159761D01*
X40756666Y-47112142D01*
%TO.C,R4*%
X49232380Y-54161666D02*
X48756190Y-54495000D01*
X49232380Y-54733095D02*
X48232380Y-54733095D01*
X48232380Y-54352142D01*
X48280000Y-54256904D01*
X48327619Y-54209285D01*
X48422857Y-54161666D01*
X48565714Y-54161666D01*
X48660952Y-54209285D01*
X48708571Y-54256904D01*
X48756190Y-54352142D01*
X48756190Y-54733095D01*
X48565714Y-53304523D02*
X49232380Y-53304523D01*
X48184761Y-53542619D02*
X48899047Y-53780714D01*
X48899047Y-53161666D01*
%TO.C,R5*%
X49232380Y-48126666D02*
X48756190Y-48460000D01*
X49232380Y-48698095D02*
X48232380Y-48698095D01*
X48232380Y-48317142D01*
X48280000Y-48221904D01*
X48327619Y-48174285D01*
X48422857Y-48126666D01*
X48565714Y-48126666D01*
X48660952Y-48174285D01*
X48708571Y-48221904D01*
X48756190Y-48317142D01*
X48756190Y-48698095D01*
X48232380Y-47221904D02*
X48232380Y-47698095D01*
X48708571Y-47745714D01*
X48660952Y-47698095D01*
X48613333Y-47602857D01*
X48613333Y-47364761D01*
X48660952Y-47269523D01*
X48708571Y-47221904D01*
X48803809Y-47174285D01*
X49041904Y-47174285D01*
X49137142Y-47221904D01*
X49184761Y-47269523D01*
X49232380Y-47364761D01*
X49232380Y-47602857D01*
X49184761Y-47698095D01*
X49137142Y-47745714D01*
%TO.C,R8*%
X36152380Y-66566666D02*
X35676190Y-66900000D01*
X36152380Y-67138095D02*
X35152380Y-67138095D01*
X35152380Y-66757142D01*
X35200000Y-66661904D01*
X35247619Y-66614285D01*
X35342857Y-66566666D01*
X35485714Y-66566666D01*
X35580952Y-66614285D01*
X35628571Y-66661904D01*
X35676190Y-66757142D01*
X35676190Y-67138095D01*
X35580952Y-65995238D02*
X35533333Y-66090476D01*
X35485714Y-66138095D01*
X35390476Y-66185714D01*
X35342857Y-66185714D01*
X35247619Y-66138095D01*
X35200000Y-66090476D01*
X35152380Y-65995238D01*
X35152380Y-65804761D01*
X35200000Y-65709523D01*
X35247619Y-65661904D01*
X35342857Y-65614285D01*
X35390476Y-65614285D01*
X35485714Y-65661904D01*
X35533333Y-65709523D01*
X35580952Y-65804761D01*
X35580952Y-65995238D01*
X35628571Y-66090476D01*
X35676190Y-66138095D01*
X35771428Y-66185714D01*
X35961904Y-66185714D01*
X36057142Y-66138095D01*
X36104761Y-66090476D01*
X36152380Y-65995238D01*
X36152380Y-65804761D01*
X36104761Y-65709523D01*
X36057142Y-65661904D01*
X35961904Y-65614285D01*
X35771428Y-65614285D01*
X35676190Y-65661904D01*
X35628571Y-65709523D01*
X35580952Y-65804761D01*
%TO.C,R9*%
X42752380Y-64466666D02*
X42276190Y-64800000D01*
X42752380Y-65038095D02*
X41752380Y-65038095D01*
X41752380Y-64657142D01*
X41800000Y-64561904D01*
X41847619Y-64514285D01*
X41942857Y-64466666D01*
X42085714Y-64466666D01*
X42180952Y-64514285D01*
X42228571Y-64561904D01*
X42276190Y-64657142D01*
X42276190Y-65038095D01*
X42752380Y-63990476D02*
X42752380Y-63800000D01*
X42704761Y-63704761D01*
X42657142Y-63657142D01*
X42514285Y-63561904D01*
X42323809Y-63514285D01*
X41942857Y-63514285D01*
X41847619Y-63561904D01*
X41800000Y-63609523D01*
X41752380Y-63704761D01*
X41752380Y-63895238D01*
X41800000Y-63990476D01*
X41847619Y-64038095D01*
X41942857Y-64085714D01*
X42180952Y-64085714D01*
X42276190Y-64038095D01*
X42323809Y-63990476D01*
X42371428Y-63895238D01*
X42371428Y-63704761D01*
X42323809Y-63609523D01*
X42276190Y-63561904D01*
X42180952Y-63514285D01*
%TO.C,R10*%
X53357142Y-71052380D02*
X53023809Y-70576190D01*
X52785714Y-71052380D02*
X52785714Y-70052380D01*
X53166666Y-70052380D01*
X53261904Y-70100000D01*
X53309523Y-70147619D01*
X53357142Y-70242857D01*
X53357142Y-70385714D01*
X53309523Y-70480952D01*
X53261904Y-70528571D01*
X53166666Y-70576190D01*
X52785714Y-70576190D01*
X54309523Y-71052380D02*
X53738095Y-71052380D01*
X54023809Y-71052380D02*
X54023809Y-70052380D01*
X53928571Y-70195238D01*
X53833333Y-70290476D01*
X53738095Y-70338095D01*
X54928571Y-70052380D02*
X55023809Y-70052380D01*
X55119047Y-70100000D01*
X55166666Y-70147619D01*
X55214285Y-70242857D01*
X55261904Y-70433333D01*
X55261904Y-70671428D01*
X55214285Y-70861904D01*
X55166666Y-70957142D01*
X55119047Y-71004761D01*
X55023809Y-71052380D01*
X54928571Y-71052380D01*
X54833333Y-71004761D01*
X54785714Y-70957142D01*
X54738095Y-70861904D01*
X54690476Y-70671428D01*
X54690476Y-70433333D01*
X54738095Y-70242857D01*
X54785714Y-70147619D01*
X54833333Y-70100000D01*
X54928571Y-70052380D01*
%TO.C,R11*%
X52457142Y-66052380D02*
X52123809Y-65576190D01*
X51885714Y-66052380D02*
X51885714Y-65052380D01*
X52266666Y-65052380D01*
X52361904Y-65100000D01*
X52409523Y-65147619D01*
X52457142Y-65242857D01*
X52457142Y-65385714D01*
X52409523Y-65480952D01*
X52361904Y-65528571D01*
X52266666Y-65576190D01*
X51885714Y-65576190D01*
X53409523Y-66052380D02*
X52838095Y-66052380D01*
X53123809Y-66052380D02*
X53123809Y-65052380D01*
X53028571Y-65195238D01*
X52933333Y-65290476D01*
X52838095Y-65338095D01*
X54361904Y-66052380D02*
X53790476Y-66052380D01*
X54076190Y-66052380D02*
X54076190Y-65052380D01*
X53980952Y-65195238D01*
X53885714Y-65290476D01*
X53790476Y-65338095D01*
%TO.C,R12*%
X36252380Y-58142857D02*
X35776190Y-58476190D01*
X36252380Y-58714285D02*
X35252380Y-58714285D01*
X35252380Y-58333333D01*
X35300000Y-58238095D01*
X35347619Y-58190476D01*
X35442857Y-58142857D01*
X35585714Y-58142857D01*
X35680952Y-58190476D01*
X35728571Y-58238095D01*
X35776190Y-58333333D01*
X35776190Y-58714285D01*
X36252380Y-57190476D02*
X36252380Y-57761904D01*
X36252380Y-57476190D02*
X35252380Y-57476190D01*
X35395238Y-57571428D01*
X35490476Y-57666666D01*
X35538095Y-57761904D01*
X35347619Y-56809523D02*
X35300000Y-56761904D01*
X35252380Y-56666666D01*
X35252380Y-56428571D01*
X35300000Y-56333333D01*
X35347619Y-56285714D01*
X35442857Y-56238095D01*
X35538095Y-56238095D01*
X35680952Y-56285714D01*
X36252380Y-56857142D01*
X36252380Y-56238095D01*
%TO.C,R13*%
X43857142Y-71052380D02*
X43523809Y-70576190D01*
X43285714Y-71052380D02*
X43285714Y-70052380D01*
X43666666Y-70052380D01*
X43761904Y-70100000D01*
X43809523Y-70147619D01*
X43857142Y-70242857D01*
X43857142Y-70385714D01*
X43809523Y-70480952D01*
X43761904Y-70528571D01*
X43666666Y-70576190D01*
X43285714Y-70576190D01*
X44809523Y-71052380D02*
X44238095Y-71052380D01*
X44523809Y-71052380D02*
X44523809Y-70052380D01*
X44428571Y-70195238D01*
X44333333Y-70290476D01*
X44238095Y-70338095D01*
X45142857Y-70052380D02*
X45761904Y-70052380D01*
X45428571Y-70433333D01*
X45571428Y-70433333D01*
X45666666Y-70480952D01*
X45714285Y-70528571D01*
X45761904Y-70623809D01*
X45761904Y-70861904D01*
X45714285Y-70957142D01*
X45666666Y-71004761D01*
X45571428Y-71052380D01*
X45285714Y-71052380D01*
X45190476Y-71004761D01*
X45142857Y-70957142D01*
%TO.C,U1*%
X50738095Y-56052380D02*
X50738095Y-56861904D01*
X50785714Y-56957142D01*
X50833333Y-57004761D01*
X50928571Y-57052380D01*
X51119047Y-57052380D01*
X51214285Y-57004761D01*
X51261904Y-56957142D01*
X51309523Y-56861904D01*
X51309523Y-56052380D01*
X52309523Y-57052380D02*
X51738095Y-57052380D01*
X52023809Y-57052380D02*
X52023809Y-56052380D01*
X51928571Y-56195238D01*
X51833333Y-56290476D01*
X51738095Y-56338095D01*
X50333333Y-63952380D02*
X49857142Y-63952380D01*
X49857142Y-62952380D01*
X50666666Y-63952380D02*
X50666666Y-62952380D01*
X51000000Y-63666666D01*
X51333333Y-62952380D01*
X51333333Y-63952380D01*
X51761904Y-63047619D02*
X51809523Y-63000000D01*
X51904761Y-62952380D01*
X52142857Y-62952380D01*
X52238095Y-63000000D01*
X52285714Y-63047619D01*
X52333333Y-63142857D01*
X52333333Y-63238095D01*
X52285714Y-63380952D01*
X51714285Y-63952380D01*
X52333333Y-63952380D01*
X52809523Y-63952380D02*
X53000000Y-63952380D01*
X53095238Y-63904761D01*
X53142857Y-63857142D01*
X53238095Y-63714285D01*
X53285714Y-63523809D01*
X53285714Y-63142857D01*
X53238095Y-63047619D01*
X53190476Y-63000000D01*
X53095238Y-62952380D01*
X52904761Y-62952380D01*
X52809523Y-63000000D01*
X52761904Y-63047619D01*
X52714285Y-63142857D01*
X52714285Y-63380952D01*
X52761904Y-63476190D01*
X52809523Y-63523809D01*
X52904761Y-63571428D01*
X53095238Y-63571428D01*
X53190476Y-63523809D01*
X53238095Y-63476190D01*
X53285714Y-63380952D01*
X53904761Y-62952380D02*
X54000000Y-62952380D01*
X54095238Y-63000000D01*
X54142857Y-63047619D01*
X54190476Y-63142857D01*
X54238095Y-63333333D01*
X54238095Y-63571428D01*
X54190476Y-63761904D01*
X54142857Y-63857142D01*
X54095238Y-63904761D01*
X54000000Y-63952380D01*
X53904761Y-63952380D01*
X53809523Y-63904761D01*
X53761904Y-63857142D01*
X53714285Y-63761904D01*
X53666666Y-63571428D01*
X53666666Y-63333333D01*
X53714285Y-63142857D01*
X53761904Y-63047619D01*
X53809523Y-63000000D01*
X53904761Y-62952380D01*
X55095238Y-63285714D02*
X55095238Y-63952380D01*
X54857142Y-62904761D02*
X54619047Y-63619047D01*
X55238095Y-63619047D01*
%TO.C,BATT*%
X59280952Y-46628571D02*
X59423809Y-46676190D01*
X59471428Y-46723809D01*
X59519047Y-46819047D01*
X59519047Y-46961904D01*
X59471428Y-47057142D01*
X59423809Y-47104761D01*
X59328571Y-47152380D01*
X58947619Y-47152380D01*
X58947619Y-46152380D01*
X59280952Y-46152380D01*
X59376190Y-46200000D01*
X59423809Y-46247619D01*
X59471428Y-46342857D01*
X59471428Y-46438095D01*
X59423809Y-46533333D01*
X59376190Y-46580952D01*
X59280952Y-46628571D01*
X58947619Y-46628571D01*
X59900000Y-46866666D02*
X60376190Y-46866666D01*
X59804761Y-47152380D02*
X60138095Y-46152380D01*
X60471428Y-47152380D01*
X60661904Y-46152380D02*
X61233333Y-46152380D01*
X60947619Y-47152380D02*
X60947619Y-46152380D01*
X61423809Y-46152380D02*
X61995238Y-46152380D01*
X61709523Y-47152380D02*
X61709523Y-46152380D01*
%TO.C,GND*%
X53838095Y-76900000D02*
X53742857Y-76852380D01*
X53600000Y-76852380D01*
X53457142Y-76900000D01*
X53361904Y-76995238D01*
X53314285Y-77090476D01*
X53266666Y-77280952D01*
X53266666Y-77423809D01*
X53314285Y-77614285D01*
X53361904Y-77709523D01*
X53457142Y-77804761D01*
X53600000Y-77852380D01*
X53695238Y-77852380D01*
X53838095Y-77804761D01*
X53885714Y-77757142D01*
X53885714Y-77423809D01*
X53695238Y-77423809D01*
X54314285Y-77852380D02*
X54314285Y-76852380D01*
X54885714Y-77852380D01*
X54885714Y-76852380D01*
X55361904Y-77852380D02*
X55361904Y-76852380D01*
X55600000Y-76852380D01*
X55742857Y-76900000D01*
X55838095Y-76995238D01*
X55885714Y-77090476D01*
X55933333Y-77280952D01*
X55933333Y-77423809D01*
X55885714Y-77614285D01*
X55838095Y-77709523D01*
X55742857Y-77804761D01*
X55600000Y-77852380D01*
X55361904Y-77852380D01*
%TO.C,TP3*%
X51138095Y-48852380D02*
X51709523Y-48852380D01*
X51423809Y-49852380D02*
X51423809Y-48852380D01*
X52042857Y-49852380D02*
X52042857Y-48852380D01*
X52423809Y-48852380D01*
X52519047Y-48900000D01*
X52566666Y-48947619D01*
X52614285Y-49042857D01*
X52614285Y-49185714D01*
X52566666Y-49280952D01*
X52519047Y-49328571D01*
X52423809Y-49376190D01*
X52042857Y-49376190D01*
X52947619Y-48852380D02*
X53566666Y-48852380D01*
X53233333Y-49233333D01*
X53376190Y-49233333D01*
X53471428Y-49280952D01*
X53519047Y-49328571D01*
X53566666Y-49423809D01*
X53566666Y-49661904D01*
X53519047Y-49757142D01*
X53471428Y-49804761D01*
X53376190Y-49852380D01*
X53090476Y-49852380D01*
X52995238Y-49804761D01*
X52947619Y-49757142D01*
%TO.C,TP4*%
X51238095Y-43352380D02*
X51809523Y-43352380D01*
X51523809Y-44352380D02*
X51523809Y-43352380D01*
X52142857Y-44352380D02*
X52142857Y-43352380D01*
X52523809Y-43352380D01*
X52619047Y-43400000D01*
X52666666Y-43447619D01*
X52714285Y-43542857D01*
X52714285Y-43685714D01*
X52666666Y-43780952D01*
X52619047Y-43828571D01*
X52523809Y-43876190D01*
X52142857Y-43876190D01*
X53571428Y-43685714D02*
X53571428Y-44352380D01*
X53333333Y-43304761D02*
X53095238Y-44019047D01*
X53714285Y-44019047D01*
%TO.C,TP5*%
X69238095Y-55752380D02*
X69809523Y-55752380D01*
X69523809Y-56752380D02*
X69523809Y-55752380D01*
X70142857Y-56752380D02*
X70142857Y-55752380D01*
X70523809Y-55752380D01*
X70619047Y-55800000D01*
X70666666Y-55847619D01*
X70714285Y-55942857D01*
X70714285Y-56085714D01*
X70666666Y-56180952D01*
X70619047Y-56228571D01*
X70523809Y-56276190D01*
X70142857Y-56276190D01*
X71619047Y-55752380D02*
X71142857Y-55752380D01*
X71095238Y-56228571D01*
X71142857Y-56180952D01*
X71238095Y-56133333D01*
X71476190Y-56133333D01*
X71571428Y-56180952D01*
X71619047Y-56228571D01*
X71666666Y-56323809D01*
X71666666Y-56561904D01*
X71619047Y-56657142D01*
X71571428Y-56704761D01*
X71476190Y-56752380D01*
X71238095Y-56752380D01*
X71142857Y-56704761D01*
X71095238Y-56657142D01*
%TO.C,TP6*%
X69438095Y-65252380D02*
X70009523Y-65252380D01*
X69723809Y-66252380D02*
X69723809Y-65252380D01*
X70342857Y-66252380D02*
X70342857Y-65252380D01*
X70723809Y-65252380D01*
X70819047Y-65300000D01*
X70866666Y-65347619D01*
X70914285Y-65442857D01*
X70914285Y-65585714D01*
X70866666Y-65680952D01*
X70819047Y-65728571D01*
X70723809Y-65776190D01*
X70342857Y-65776190D01*
X71771428Y-65252380D02*
X71580952Y-65252380D01*
X71485714Y-65300000D01*
X71438095Y-65347619D01*
X71342857Y-65490476D01*
X71295238Y-65680952D01*
X71295238Y-66061904D01*
X71342857Y-66157142D01*
X71390476Y-66204761D01*
X71485714Y-66252380D01*
X71676190Y-66252380D01*
X71771428Y-66204761D01*
X71819047Y-66157142D01*
X71866666Y-66061904D01*
X71866666Y-65823809D01*
X71819047Y-65728571D01*
X71771428Y-65680952D01*
X71676190Y-65633333D01*
X71485714Y-65633333D01*
X71390476Y-65680952D01*
X71342857Y-65728571D01*
X71295238Y-65823809D01*
%TO.C,GND*%
X41738095Y-41400000D02*
X41642857Y-41352380D01*
X41500000Y-41352380D01*
X41357142Y-41400000D01*
X41261904Y-41495238D01*
X41214285Y-41590476D01*
X41166666Y-41780952D01*
X41166666Y-41923809D01*
X41214285Y-42114285D01*
X41261904Y-42209523D01*
X41357142Y-42304761D01*
X41500000Y-42352380D01*
X41595238Y-42352380D01*
X41738095Y-42304761D01*
X41785714Y-42257142D01*
X41785714Y-41923809D01*
X41595238Y-41923809D01*
X42214285Y-42352380D02*
X42214285Y-41352380D01*
X42785714Y-42352380D01*
X42785714Y-41352380D01*
X43261904Y-42352380D02*
X43261904Y-41352380D01*
X43500000Y-41352380D01*
X43642857Y-41400000D01*
X43738095Y-41495238D01*
X43785714Y-41590476D01*
X43833333Y-41780952D01*
X43833333Y-41923809D01*
X43785714Y-42114285D01*
X43738095Y-42209523D01*
X43642857Y-42304761D01*
X43500000Y-42352380D01*
X43261904Y-42352380D01*
%TD*%
M02*
