%TF.GenerationSoftware,KiCad,Pcbnew,(5.1.10)-1*%
%TF.CreationDate,2021-08-14T12:20:45-07:00*%
%TF.ProjectId,EmitterDriverV2,456d6974-7465-4724-9472-697665725632,rev?*%
%TF.SameCoordinates,Original*%
%TF.FileFunction,Copper,L4,Bot*%
%TF.FilePolarity,Positive*%
%FSLAX46Y46*%
G04 Gerber Fmt 4.6, Leading zero omitted, Abs format (unit mm)*
G04 Created by KiCad (PCBNEW (5.1.10)-1) date 2021-08-14 12:20:45*
%MOMM*%
%LPD*%
G01*
G04 APERTURE LIST*
%TA.AperFunction,ComponentPad*%
%ADD10C,5.600000*%
%TD*%
%TA.AperFunction,ComponentPad*%
%ADD11R,1.600000X1.600000*%
%TD*%
%TA.AperFunction,ComponentPad*%
%ADD12C,1.600000*%
%TD*%
%TA.AperFunction,ComponentPad*%
%ADD13R,1.750000X1.750000*%
%TD*%
%TA.AperFunction,ComponentPad*%
%ADD14C,1.750000*%
%TD*%
%TA.AperFunction,ComponentPad*%
%ADD15O,1.250000X0.950000*%
%TD*%
%TA.AperFunction,ComponentPad*%
%ADD16R,1.250000X0.950000*%
%TD*%
%TA.AperFunction,SMDPad,CuDef*%
%ADD17R,1.300000X0.700000*%
%TD*%
%TA.AperFunction,ComponentPad*%
%ADD18C,2.400000*%
%TD*%
%TA.AperFunction,ComponentPad*%
%ADD19O,2.400000X2.400000*%
%TD*%
%TA.AperFunction,ComponentPad*%
%ADD20C,2.000000*%
%TD*%
%TA.AperFunction,ViaPad*%
%ADD21C,0.800000*%
%TD*%
%TA.AperFunction,Conductor*%
%ADD22C,0.635000*%
%TD*%
%TA.AperFunction,Conductor*%
%ADD23C,0.250000*%
%TD*%
%TA.AperFunction,Conductor*%
%ADD24C,0.254000*%
%TD*%
G04 APERTURE END LIST*
D10*
%TO.P,REF\u002A\u002A,1*%
%TO.N,N/C*%
X75000000Y-45000000D03*
%TD*%
%TO.P,REF\u002A\u002A,1*%
%TO.N,N/C*%
X35000000Y-75000000D03*
%TD*%
D11*
%TO.P,C1,1*%
%TO.N,+BATT*%
X73000000Y-72500000D03*
D12*
%TO.P,C1,2*%
%TO.N,GND*%
X76500000Y-72500000D03*
%TD*%
%TO.P,C2,2*%
%TO.N,GND*%
X68500000Y-45500000D03*
D11*
%TO.P,C2,1*%
%TO.N,+BATT*%
X65000000Y-45500000D03*
%TD*%
D13*
%TO.P,D3,1*%
%TO.N,Net-(D3-Pad1)*%
X75000000Y-64000000D03*
D14*
%TO.P,D3,2*%
%TO.N,+BATT*%
X75000000Y-61500000D03*
%TD*%
%TO.P,D4,2*%
%TO.N,+BATT*%
X75000000Y-51500000D03*
D13*
%TO.P,D4,1*%
%TO.N,Net-(D4-Pad1)*%
X75000000Y-54000000D03*
%TD*%
D15*
%TO.P,J1,6*%
%TO.N,N/C*%
X35000000Y-42750000D03*
%TO.P,J1,5*%
%TO.N,GND*%
X35000000Y-44000000D03*
%TO.P,J1,4*%
%TO.N,/Mod2*%
X35000000Y-45250000D03*
%TO.P,J1,3*%
%TO.N,/Mod1*%
X35000000Y-46500000D03*
%TO.P,J1,2*%
%TO.N,/PWM*%
X35000000Y-47750000D03*
D16*
%TO.P,J1,1*%
%TO.N,VCC*%
X35000000Y-49000000D03*
%TD*%
D14*
%TO.P,J2,2*%
%TO.N,GND*%
X65000000Y-73000000D03*
D13*
%TO.P,J2,1*%
%TO.N,+BATT*%
X62500000Y-73000000D03*
%TD*%
D17*
%TO.P,R6,1*%
%TO.N,+BATT*%
X72000000Y-61600000D03*
%TO.P,R6,2*%
%TO.N,Net-(D3-Pad1)*%
X72000000Y-63500000D03*
%TD*%
%TO.P,R7,2*%
%TO.N,Net-(D4-Pad1)*%
X72000000Y-54000000D03*
%TO.P,R7,1*%
%TO.N,+BATT*%
X72000000Y-52100000D03*
%TD*%
D18*
%TO.P,R8,1*%
%TO.N,Net-(R12-Pad2)*%
X33760000Y-63500000D03*
D19*
%TO.P,R8,2*%
%TO.N,Net-(Q4-Pad3)*%
X33760000Y-68580000D03*
%TD*%
%TO.P,R9,2*%
%TO.N,Net-(Q4-Pad3)*%
X40500000Y-66580000D03*
D18*
%TO.P,R9,1*%
%TO.N,Net-(R12-Pad2)*%
X40500000Y-61500000D03*
%TD*%
D19*
%TO.P,R10,2*%
%TO.N,Net-(Q5-Pad3)*%
X56000000Y-72500000D03*
D18*
%TO.P,R10,1*%
%TO.N,Net-(R10-Pad1)*%
X50920000Y-72500000D03*
%TD*%
D19*
%TO.P,R11,2*%
%TO.N,Net-(Q5-Pad3)*%
X55000000Y-67500000D03*
D18*
%TO.P,R11,1*%
%TO.N,Net-(R10-Pad1)*%
X49920000Y-67500000D03*
%TD*%
%TO.P,R12,1*%
%TO.N,GND*%
X33760000Y-54185000D03*
D19*
%TO.P,R12,2*%
%TO.N,Net-(R12-Pad2)*%
X33760000Y-59265000D03*
%TD*%
D18*
%TO.P,R13,1*%
%TO.N,GND*%
X41420000Y-72500000D03*
D19*
%TO.P,R13,2*%
%TO.N,Net-(R10-Pad1)*%
X46500000Y-72500000D03*
%TD*%
D20*
%TO.P,BATT,1*%
%TO.N,+BATT*%
X60400000Y-49200000D03*
%TD*%
%TO.P,GND,1*%
%TO.N,GND*%
X57700000Y-76400000D03*
%TD*%
%TO.P,TP3,1*%
%TO.N,Net-(D1-Pad1)*%
X50500000Y-51000000D03*
%TD*%
%TO.P,TP4,1*%
%TO.N,Net-(D2-Pad1)*%
X49700000Y-44800000D03*
%TD*%
%TO.P,TP5,1*%
%TO.N,Net-(Q5-Pad3)*%
X70500000Y-58800000D03*
%TD*%
%TO.P,TP6,1*%
%TO.N,Net-(Q4-Pad3)*%
X70700000Y-68300000D03*
%TD*%
%TO.P,GND,1*%
%TO.N,GND*%
X39300000Y-42100000D03*
%TD*%
D21*
%TO.N,+BATT*%
X56100000Y-56100000D03*
%TO.N,GND*%
X41500000Y-54800000D03*
X43500000Y-51700000D03*
X43400000Y-46400000D03*
X56600000Y-48400000D03*
X52400000Y-56000000D03*
X47600000Y-63200000D03*
X52100000Y-52400000D03*
%TO.N,Net-(D1-Pad1)*%
X50300000Y-56500000D03*
X47600000Y-61100000D03*
%TO.N,Net-(D2-Pad1)*%
X57100000Y-52300000D03*
X56800000Y-61900000D03*
%TO.N,Net-(Q2-Pad3)*%
X48800000Y-49900000D03*
X48840000Y-56535000D03*
%TO.N,Net-(Q4-Pad1)*%
X56900000Y-63700000D03*
X51800000Y-58600000D03*
%TO.N,Net-(Q4-Pad3)*%
X57400000Y-68900000D03*
X57085751Y-65914249D03*
%TD*%
D22*
%TO.N,+BATT*%
X72600000Y-51500000D02*
X72000000Y-52100000D01*
X75000000Y-51500000D02*
X72600000Y-51500000D01*
X72100000Y-61500000D02*
X72000000Y-61600000D01*
X75000000Y-61500000D02*
X72100000Y-61500000D01*
D23*
%TO.N,Net-(D1-Pad1)*%
X50300000Y-58400000D02*
X47600000Y-61100000D01*
X50300000Y-56500000D02*
X50300000Y-58400000D01*
%TO.N,Net-(D2-Pad1)*%
X57100000Y-61600000D02*
X56800000Y-61900000D01*
X57100000Y-52300000D02*
X57100000Y-61600000D01*
D22*
%TO.N,Net-(D3-Pad1)*%
X72500000Y-64000000D02*
X72000000Y-63500000D01*
X75000000Y-64000000D02*
X72500000Y-64000000D01*
%TO.N,Net-(D4-Pad1)*%
X75000000Y-54000000D02*
X72000000Y-54000000D01*
D23*
%TO.N,Net-(Q2-Pad3)*%
X48800000Y-56495000D02*
X48840000Y-56535000D01*
X48800000Y-49900000D02*
X48800000Y-56495000D01*
D22*
%TO.N,Net-(Q4-Pad1)*%
X56900000Y-63700000D02*
X51800000Y-58600000D01*
D24*
%TO.N,Net-(Q4-Pad3)*%
X57400000Y-66228498D02*
X57085751Y-65914249D01*
X57400000Y-68900000D02*
X57400000Y-66228498D01*
%TD*%
M02*
