%TF.GenerationSoftware,KiCad,Pcbnew,(5.1.10)-1*%
%TF.CreationDate,2021-08-14T12:20:45-07:00*%
%TF.ProjectId,EmitterDriverV2,456d6974-7465-4724-9472-697665725632,rev?*%
%TF.SameCoordinates,Original*%
%TF.FileFunction,Legend,Bot*%
%TF.FilePolarity,Positive*%
%FSLAX46Y46*%
G04 Gerber Fmt 4.6, Leading zero omitted, Abs format (unit mm)*
G04 Created by KiCad (PCBNEW (5.1.10)-1) date 2021-08-14 12:20:45*
%MOMM*%
%LPD*%
G01*
G04 APERTURE LIST*
%ADD10C,0.203200*%
%ADD11C,0.127000*%
%ADD12C,0.120000*%
%ADD13C,0.150000*%
G04 APERTURE END LIST*
D10*
X77202937Y-61015221D02*
X76821937Y-62158221D01*
X76440937Y-61015221D01*
X78618080Y-64075921D02*
X78999080Y-63531635D01*
X79271222Y-64075921D02*
X79271222Y-62932921D01*
X78835794Y-62932921D01*
X78726937Y-62987350D01*
X78672508Y-63041778D01*
X78618080Y-63150635D01*
X78618080Y-63313921D01*
X78672508Y-63422778D01*
X78726937Y-63477207D01*
X78835794Y-63531635D01*
X79271222Y-63531635D01*
X78291508Y-62932921D02*
X77638365Y-62932921D01*
X77964937Y-64075921D02*
X77964937Y-62932921D01*
X77257365Y-64075921D02*
X77257365Y-62932921D01*
X76604222Y-64075921D01*
X76604222Y-62932921D01*
X77502937Y-51115221D02*
X77121937Y-52258221D01*
X76740937Y-51115221D01*
X78918080Y-54175921D02*
X79299080Y-53631635D01*
X79571222Y-54175921D02*
X79571222Y-53032921D01*
X79135794Y-53032921D01*
X79026937Y-53087350D01*
X78972508Y-53141778D01*
X78918080Y-53250635D01*
X78918080Y-53413921D01*
X78972508Y-53522778D01*
X79026937Y-53577207D01*
X79135794Y-53631635D01*
X79571222Y-53631635D01*
X78591508Y-53032921D02*
X77938365Y-53032921D01*
X78264937Y-54175921D02*
X78264937Y-53032921D01*
X77557365Y-54175921D02*
X77557365Y-53032921D01*
X76904222Y-54175921D01*
X76904222Y-53032921D01*
D11*
X33336021Y-43069714D02*
X33336021Y-42307714D01*
X32900592Y-43069714D01*
X32900592Y-42307714D01*
X32102307Y-42997142D02*
X32138592Y-43033428D01*
X32247450Y-43069714D01*
X32320021Y-43069714D01*
X32428878Y-43033428D01*
X32501450Y-42960857D01*
X32537735Y-42888285D01*
X32574021Y-42743142D01*
X32574021Y-42634285D01*
X32537735Y-42489142D01*
X32501450Y-42416571D01*
X32428878Y-42344000D01*
X32320021Y-42307714D01*
X32247450Y-42307714D01*
X32138592Y-42344000D01*
X32102307Y-42380285D01*
X32936878Y-43614000D02*
X33009450Y-43577714D01*
X33118307Y-43577714D01*
X33227164Y-43614000D01*
X33299735Y-43686571D01*
X33336021Y-43759142D01*
X33372307Y-43904285D01*
X33372307Y-44013142D01*
X33336021Y-44158285D01*
X33299735Y-44230857D01*
X33227164Y-44303428D01*
X33118307Y-44339714D01*
X33045735Y-44339714D01*
X32936878Y-44303428D01*
X32900592Y-44267142D01*
X32900592Y-44013142D01*
X33045735Y-44013142D01*
X32574021Y-44339714D02*
X32574021Y-43577714D01*
X32138592Y-44339714D01*
X32138592Y-43577714D01*
X31775735Y-44339714D02*
X31775735Y-43577714D01*
X31594307Y-43577714D01*
X31485450Y-43614000D01*
X31412878Y-43686571D01*
X31376592Y-43759142D01*
X31340307Y-43904285D01*
X31340307Y-44013142D01*
X31376592Y-44158285D01*
X31412878Y-44230857D01*
X31485450Y-44303428D01*
X31594307Y-44339714D01*
X31775735Y-44339714D01*
X33336021Y-45609714D02*
X33336021Y-44847714D01*
X33082021Y-45392000D01*
X32828021Y-44847714D01*
X32828021Y-45609714D01*
X32320021Y-44847714D02*
X32174878Y-44847714D01*
X32102307Y-44884000D01*
X32029735Y-44956571D01*
X31993450Y-45101714D01*
X31993450Y-45355714D01*
X32029735Y-45500857D01*
X32102307Y-45573428D01*
X32174878Y-45609714D01*
X32320021Y-45609714D01*
X32392592Y-45573428D01*
X32465164Y-45500857D01*
X32501450Y-45355714D01*
X32501450Y-45101714D01*
X32465164Y-44956571D01*
X32392592Y-44884000D01*
X32320021Y-44847714D01*
X31666878Y-45609714D02*
X31666878Y-44847714D01*
X31485450Y-44847714D01*
X31376592Y-44884000D01*
X31304021Y-44956571D01*
X31267735Y-45029142D01*
X31231450Y-45174285D01*
X31231450Y-45283142D01*
X31267735Y-45428285D01*
X31304021Y-45500857D01*
X31376592Y-45573428D01*
X31485450Y-45609714D01*
X31666878Y-45609714D01*
X30941164Y-44920285D02*
X30904878Y-44884000D01*
X30832307Y-44847714D01*
X30650878Y-44847714D01*
X30578307Y-44884000D01*
X30542021Y-44920285D01*
X30505735Y-44992857D01*
X30505735Y-45065428D01*
X30542021Y-45174285D01*
X30977450Y-45609714D01*
X30505735Y-45609714D01*
X33336021Y-46879714D02*
X33336021Y-46117714D01*
X33082021Y-46662000D01*
X32828021Y-46117714D01*
X32828021Y-46879714D01*
X32320021Y-46117714D02*
X32174878Y-46117714D01*
X32102307Y-46154000D01*
X32029735Y-46226571D01*
X31993450Y-46371714D01*
X31993450Y-46625714D01*
X32029735Y-46770857D01*
X32102307Y-46843428D01*
X32174878Y-46879714D01*
X32320021Y-46879714D01*
X32392592Y-46843428D01*
X32465164Y-46770857D01*
X32501450Y-46625714D01*
X32501450Y-46371714D01*
X32465164Y-46226571D01*
X32392592Y-46154000D01*
X32320021Y-46117714D01*
X31666878Y-46879714D02*
X31666878Y-46117714D01*
X31485450Y-46117714D01*
X31376592Y-46154000D01*
X31304021Y-46226571D01*
X31267735Y-46299142D01*
X31231450Y-46444285D01*
X31231450Y-46553142D01*
X31267735Y-46698285D01*
X31304021Y-46770857D01*
X31376592Y-46843428D01*
X31485450Y-46879714D01*
X31666878Y-46879714D01*
X30505735Y-46879714D02*
X30941164Y-46879714D01*
X30723450Y-46879714D02*
X30723450Y-46117714D01*
X30796021Y-46226571D01*
X30868592Y-46299142D01*
X30941164Y-46335428D01*
X33336021Y-48149714D02*
X33336021Y-47387714D01*
X33045735Y-47387714D01*
X32973164Y-47424000D01*
X32936878Y-47460285D01*
X32900592Y-47532857D01*
X32900592Y-47641714D01*
X32936878Y-47714285D01*
X32973164Y-47750571D01*
X33045735Y-47786857D01*
X33336021Y-47786857D01*
X32646592Y-47387714D02*
X32465164Y-48149714D01*
X32320021Y-47605428D01*
X32174878Y-48149714D01*
X31993450Y-47387714D01*
X31703164Y-48149714D02*
X31703164Y-47387714D01*
X31449164Y-47932000D01*
X31195164Y-47387714D01*
X31195164Y-48149714D01*
X33444878Y-48657714D02*
X33190878Y-49419714D01*
X32936878Y-48657714D01*
X32247450Y-49347142D02*
X32283735Y-49383428D01*
X32392592Y-49419714D01*
X32465164Y-49419714D01*
X32574021Y-49383428D01*
X32646592Y-49310857D01*
X32682878Y-49238285D01*
X32719164Y-49093142D01*
X32719164Y-48984285D01*
X32682878Y-48839142D01*
X32646592Y-48766571D01*
X32574021Y-48694000D01*
X32465164Y-48657714D01*
X32392592Y-48657714D01*
X32283735Y-48694000D01*
X32247450Y-48730285D01*
X31485450Y-49347142D02*
X31521735Y-49383428D01*
X31630592Y-49419714D01*
X31703164Y-49419714D01*
X31812021Y-49383428D01*
X31884592Y-49310857D01*
X31920878Y-49238285D01*
X31957164Y-49093142D01*
X31957164Y-48984285D01*
X31920878Y-48839142D01*
X31884592Y-48766571D01*
X31812021Y-48694000D01*
X31703164Y-48657714D01*
X31630592Y-48657714D01*
X31521735Y-48694000D01*
X31485450Y-48730285D01*
D12*
%TO.C,R6*%
X72880000Y-63150000D02*
X72880000Y-61950000D01*
X71120000Y-61950000D02*
X71120000Y-63150000D01*
%TO.C,R7*%
X71120000Y-52450000D02*
X71120000Y-53650000D01*
X72880000Y-53650000D02*
X72880000Y-52450000D01*
%TO.C,R6*%
D13*
X70802380Y-62383333D02*
X70326190Y-62050000D01*
X70802380Y-61811904D02*
X69802380Y-61811904D01*
X69802380Y-62192857D01*
X69850000Y-62288095D01*
X69897619Y-62335714D01*
X69992857Y-62383333D01*
X70135714Y-62383333D01*
X70230952Y-62335714D01*
X70278571Y-62288095D01*
X70326190Y-62192857D01*
X70326190Y-61811904D01*
X69802380Y-63240476D02*
X69802380Y-63050000D01*
X69850000Y-62954761D01*
X69897619Y-62907142D01*
X70040476Y-62811904D01*
X70230952Y-62764285D01*
X70611904Y-62764285D01*
X70707142Y-62811904D01*
X70754761Y-62859523D01*
X70802380Y-62954761D01*
X70802380Y-63145238D01*
X70754761Y-63240476D01*
X70707142Y-63288095D01*
X70611904Y-63335714D01*
X70373809Y-63335714D01*
X70278571Y-63288095D01*
X70230952Y-63240476D01*
X70183333Y-63145238D01*
X70183333Y-62954761D01*
X70230952Y-62859523D01*
X70278571Y-62811904D01*
X70373809Y-62764285D01*
%TO.C,R7*%
X70802380Y-52883333D02*
X70326190Y-52550000D01*
X70802380Y-52311904D02*
X69802380Y-52311904D01*
X69802380Y-52692857D01*
X69850000Y-52788095D01*
X69897619Y-52835714D01*
X69992857Y-52883333D01*
X70135714Y-52883333D01*
X70230952Y-52835714D01*
X70278571Y-52788095D01*
X70326190Y-52692857D01*
X70326190Y-52311904D01*
X69802380Y-53216666D02*
X69802380Y-53883333D01*
X70802380Y-53454761D01*
%TD*%
M02*
