M48
; DRILL file {KiCad (5.1.10)-1} date 08/14/21 12:20:48
; FORMAT={-:-/ absolute / inch / decimal}
; #@! TF.CreationDate,2021-08-14T12:20:48-07:00
; #@! TF.GenerationSoftware,Kicad,Pcbnew,(5.1.10)-1
; #@! TF.FileFunction,Plated,1,4,PTH
FMAT,2
INCH
T1C0.0157
T2C0.0236
T3C0.0315
T4C0.0394
T5C0.0413
T6C0.0472
T7C0.1260
%
G90
G05
T1
X1.6339Y-2.1575
X1.7087Y-1.8268
X1.7126Y-2.0354
X1.874Y-2.4055
X1.874Y-2.4882
X1.9213Y-1.9646
X1.9228Y-2.2258
X1.9803Y-2.2244
X2.0394Y-2.3071
X2.0512Y-2.063
X2.063Y-2.2047
X2.2087Y-2.2087
X2.2283Y-1.9055
X2.2362Y-2.437
X2.2402Y-2.5079
X2.2475Y-2.595
X2.248Y-2.0591
X2.2598Y-2.7126
T2
X1.378Y-1.6831
X1.378Y-1.7323
X1.378Y-1.7815
X1.378Y-1.8307
X1.378Y-1.8799
X1.378Y-1.9291
T3
X2.5591Y-1.7913
X2.6969Y-1.7913
X2.874Y-2.8543
X3.0118Y-2.8543
T4
X1.5472Y-1.6575
X1.9567Y-1.7638
X1.9882Y-2.0079
X2.2717Y-3.0079
X2.378Y-1.937
X2.7756Y-2.315
X2.7835Y-2.689
T5
X2.4606Y-2.874
X2.5591Y-2.874
X2.9528Y-2.0276
X2.9528Y-2.126
X2.9528Y-2.4213
X2.9528Y-2.5197
T6
X1.3291Y-2.1333
X1.3291Y-2.3333
X1.3291Y-2.5
X1.3291Y-2.7
X1.5945Y-2.4213
X1.5945Y-2.6213
X1.6307Y-2.8543
X1.8307Y-2.8543
X1.9654Y-2.6575
X2.0047Y-2.8543
X2.1654Y-2.6575
X2.2047Y-2.8543
T7
X1.378Y-2.9528
X2.9528Y-1.7717
T0
M30
